<?xml version="1.0" encoding="utf-8"?>
<!-- Generator: Adobe Illustrator 27.0.0, SVG Export Plug-In . SVG Version: 6.00 Build 0)  -->
<svg version="1.1" id="Layer_1" xmlns="http://www.w3.org/2000/svg" xmlns:xlink="http://www.w3.org/1999/xlink" x="0px" y="0px"
	 viewBox="0 0 573 499" style="enable-background:new 0 0 573 499;" xml:space="preserve">
<style type="text/css">
	.st0{fill:#FFFFFF;stroke:#000000;stroke-width:0.15;stroke-miterlimit:10;}
	.st1{fill:#31368D;}
	.st2{fill:#30A54C;}
	.st3{fill:#FFFFFF;}
	.st4{fill:#FFFFFF;stroke:#231F20;stroke-width:0.1;stroke-miterlimit:10;}
	.st5{fill:#FFFFFF;stroke:#FFFFFF;stroke-miterlimit:10;}
	.st6{fill:#2E378B;}
	.st7{fill:#33A44C;}
	.st8{fill:#FFFFFF;stroke:#FFFFFF;stroke-width:0.1;stroke-miterlimit:10;}
</style>
<g>
	<circle class="st0" cx="283.67" cy="244.5" r="224.67"/>
	<path class="st1" d="M283.67,242.67"/>
	<path class="st1" d="M283.67,242.67"/>
	<path class="st1" d="M499.57,244.5c0,119.24-96.66,215.9-215.9,215.9s-215.9-96.66-215.9-215.9"/>
	<path class="st2" d="M67.77,244.5c0-119.24,96.66-215.9,215.9-215.9s215.9,96.66,215.9,215.9"/>
	<circle class="st3" cx="283.67" cy="249.41" r="155.23"/>
	<circle class="st4" cx="98.27" cy="241.58" r="32.94"/>
	<circle class="st4" cx="469.4" cy="242.67" r="32.94"/>
	<rect x="159.88" y="138.63" class="st5" width="247.9" height="208.08"/>
	<polygon class="st6" points="160.6,259.35 160.6,138.48 407.55,138.48 407.55,224.28 243.07,225.7 292.84,143.7 	"/>
	<polygon class="st7" points="160.6,262.2 324.12,262.2 263.45,347.99 407.55,226.65 407.55,347.99 160.6,347.99 	"/>
	<path class="st7" d="M101.11,219.3c0,0-3.79,12.32,7.82,21.09c11.61,8.77-0.71,26.07-10.66,25.6
		C88.31,265.51,63.19,250.58,101.11,219.3z"/>
	<path class="st7" d="M473.67,219.3c0,0-3.79,12.32,7.82,21.09c11.61,8.77-0.71,26.07-10.66,25.6
		C460.87,265.51,435.75,250.58,473.67,219.3z"/>
	<g>
		<path class="st8" d="M119.29,163.86c-2.81,0.21-6.01-0.14-9.59-1.04c-2.89-0.81-4.45-1.35-4.68-1.64l0.63-0.96l3.46,1.53
			c2.78,1,5.28,1.41,7.5,1.23c3.11-0.29,5.43-1.59,6.95-3.91c0.82-1.25,1.18-2.67,1.07-4.3c-0.26-1.67-0.97-2.9-2.16-3.67
			c-1.37-0.92-2.74-1.51-4.09-1.81c-1.35-0.21-2.35-0.14-2.97,0.23l-0.38,2.83c-0.21,1.04-0.53,1.9-0.97,2.57l-3.83-0.4
			c0.77-1.59,1.29-2.81,1.55-3.63c0.62-2.65,0.21-4.46-1.23-5.41c-1.12-0.73-2.3-1.04-3.53-0.94l-1.44,0.36l-8.28,12.62l-2.22-1.45
			l19.31-29.39l2.22,1.46l-10.5,15.96c0.89-0.56,1.97-0.79,3.23-0.68c1.27,0.1,2.31,0.42,3.13,0.96c1.27,0.83,2.15,1.81,2.61,2.87
			c0.18,0.44,0.27,0.88,0.29,1.29l1.96-0.42c-0.19-1.22-0.16-2.75,0.07-4.6c0.16-1.45,0.49-2.57,1.03-3.37
			c0.92-1.41,2.56-2.23,4.91-2.48c2.37-0.26,4.37,0.16,6.01,1.25c1.82,1.19,3.28,3.04,4.42,5.56c0.83,1.89,1.23,3.16,1.15,3.85
			l-3.91,1.33c-0.05-1.78-0.18-3.04-0.34-3.79c-0.63-2.78-1.89-4.79-3.76-6.02c-1.4-0.92-2.46-1.26-3.23-1.03
			c-0.77,0.22-1.42,0.77-2,1.63c-0.63,0.96-0.89,2.53-0.79,4.75c0.07,1.9,0.21,3,0.44,3.3c0.33-0.07,0.78,0.03,1.37,0.27
			c0.31,0.08,0.73,0.25,1.2,0.52c0.48,0.27,1.03,0.6,1.66,1.01c1.63,1.08,2.61,2.53,2.93,4.37c0.33,1.83-0.08,3.6-1.2,5.32
			C125.72,162.32,123.07,163.6,119.29,163.86z"/>
		<path class="st8" d="M117.64,127.76l-2-1.74l12.92-14.83l2,1.74L117.64,127.76z M133.92,123.91c0.27-0.07,1.16,0.18,2.65,0.73
			c1.44,0.44,2.57,1.01,3.39,1.74c0.74,0.64,1.3,1.29,1.7,1.94c0.4,0.64,0.66,1.27,0.75,1.86c0.11,1.31-0.31,2.5-1.26,3.6
			c-1.33,1.52-3.68,2.13-7.05,1.82c-4.93-0.55-7.92-1.29-8.98-2.2l-0.42-0.52l0.29-1.04c2.48,1.15,4.04,1.85,4.65,2.08
			c3.46,1,6.05,0.49,7.77-1.49c0.85-0.97,1.27-1.97,1.27-2.98c0-1.01-0.44-1.9-1.33-2.67c-1.56-1.37-3.59-2.19-6.05-2.46
			c-0.96-0.08-1.55-0.07-1.77,0.05l8.35-9.56l2.26,1.96L133.92,123.91z"/>
		<path class="st8" d="M128.79,111.17l8.59-8.47l1.86,1.89l-3.34,3.28l19.6,19.87l-4.13,0.53l-17.83-18.08l-2.89,2.86L128.79,111.17
			z"/>
		<path class="st8" d="M137.4,102.66l9.06-7.96l1.75,1.98l-3.52,3.09l18.43,20.95l-4.16,0.3l-16.76-19.06l-3.05,2.68L137.4,102.66z"
			/>
		<path class="st8" d="M139.64,98.88l-1.25-0.34c-2.11-0.67-3.74-1.7-4.9-3.11c-1.16-1.4-1.68-2.94-1.56-4.64
			c0.12-1.7,0.77-3.01,1.9-3.97c1.23-1.03,2.72-1.35,4.47-0.97l0.19,0.6l-0.56,0.21c-1.01,0.51-1.83,1.03-2.45,1.53
			c-1.08,0.9-1.52,2.03-1.31,3.37c0.19,1.34,0.83,2.65,1.9,3.94c0.38,0.47,0.82,0.9,1.3,1.3c0.49,0.4,0.96,0.75,1.41,1.05
			c1.03,0.64,2.01,0.99,2.91,1l-0.4,0.33L139.64,98.88z"/>
		<path class="st8" d="M162.74,85.51l-1.4-2.24l16.68-10.43l1.4,2.24L162.74,85.51z M179.45,86.56c0.29,0.01,1.05,0.51,2.33,1.46
			c1.25,0.83,2.16,1.72,2.74,2.65c0.52,0.83,0.88,1.61,1.07,2.35c0.19,0.74,0.25,1.4,0.18,2c-0.27,1.29-1.03,2.31-2.26,3.08
			c-1.71,1.07-4.13,0.97-7.27-0.31c-4.56-1.96-7.21-3.53-7.95-4.73l-0.25-0.6l0.57-0.92c2.04,1.82,3.31,2.94,3.85,3.35
			c3.01,1.94,5.64,2.23,7.87,0.83c1.09-0.68,1.79-1.52,2.09-2.49c0.29-0.96,0.12-1.94-0.51-2.94c-1.09-1.77-2.78-3.13-5.06-4.12
			c-0.89-0.36-1.46-0.51-1.7-0.45L185.9,79l1.59,2.55L179.45,86.56z"/>
		<path class="st8" d="M178.61,72.67l10.71-5.56l1.22,2.35l-4.16,2.15l12.85,24.78l-4.11-0.71l-11.69-22.54l-3.61,1.87L178.61,72.67
			z"/>
		<path class="st8" d="M188.54,67.49l4.38-1.97c-0.03-0.07-0.1-0.23-0.22-0.48c-0.37-0.82-1.61-2.08-3.76-3.79
			c-3.19-2.34-6.06-2.94-8.63-1.78c-1.29,0.57-2.03,1.49-2.22,2.74c-0.21,0.78-0.23,1.45-0.1,2.04c0.07,0.52,0.29,1.2,0.66,2.03
			l0.81,1.37l0.94,1.12c0.73,0.67,1.49,1.08,2.31,1.22l-0.68,0.44l-2.56-1.49c-1.9-1.46-3.22-2.98-3.93-4.54
			c-0.67-1.51-0.83-2.85-0.49-4.04c0.53-1.52,1.63-2.67,3.3-3.41c2.78-1.26,6.17-0.31,10.17,2.83c3.39,2.68,5.1,4.49,5.15,5.42
			l6.2-2.79l1.08,2.41l-4.27,1.93l11.44,25.45l-4.05-0.94l-10.41-23.15l-3.71,1.67L188.54,67.49z"/>
		<path class="st8" d="M201.26,64.66l-0.92-2.48l13.4-4.99l0.92,2.48L201.26,64.66z M223.58,76.57l-0.81,0.92
			c-1.25,1.37-2.5,2.29-3.79,2.76c-2.22,0.83-4.46,0.71-6.73-0.36c-2.27-1.08-3.8-2.71-4.63-4.9c-0.96-2.56-0.44-4.72,1.56-6.46
			c1.03-0.97,3.12-2.04,6.29-3.23l2.76,2.67l-1.44,0.23l-1.45,0.36c-2.22,0.82-3.75,1.89-4.58,3.17c-0.83,1.3-0.94,2.78-0.33,4.42
			c0.41,1.11,1,1.86,1.79,2.29c0.78,0.41,1.87,0.37,3.27-0.15c2-0.75,3.8-2.05,5.43-3.91c1.29-1.56,1.93-2.48,1.92-2.72l1.44,3.85
			L223.58,76.57z"/>
		<path class="st8" d="M214.02,57.13l11.56-3.45l0.75,2.53l-4.49,1.34l7.99,26.74l-3.9-1.46l-7.27-24.32l-3.89,1.15L214.02,57.13z"
			/>
		<path class="st8" d="M226.56,56.16l-0.6-2.59l12.19-2.85l0.6,2.57L226.56,56.16z M236.92,65.5l1.18,5.04
			c0,0.48-0.22,0.77-0.62,0.86c-0.78,0.19-2.09-0.57-3.91-2.29c-1.83-1.7-2.86-3.02-3.08-3.98c-0.18-0.77,0.07-1.22,0.74-1.38
			l12.79-3l0.68,2.93L236.92,65.5z"/>
		<path class="st8" d="M238.12,50.75l11.89-2.03l0.44,2.6l-4.61,0.79l4.68,27.5l-3.69-1.93l-4.26-25.03l-4.01,0.68L238.12,50.75z"/>
		<path class="st8" d="M268.83,46.65l22.74,0.37l-0.04,2.65l-5.67-0.1l-0.11,6.99l-10.74-0.18c-1-0.01-1.51,0.57-1.52,1.79
			c0.05,0.71,0.25,1.35,0.53,1.96c0.41,0.55,0.9,0.83,1.48,0.83l0.63-0.27c1.15-0.34,2.55-0.49,4.19-0.47
			c1.94,0.04,3.74,0.77,5.39,2.18c1.66,1.42,2.46,2.82,2.45,4.19c-0.03,1.33-0.51,2.57-1.44,3.74c-1.2,1.44-2.29,2.26-3.24,2.48
			l-2.52-3.68c0.53,0.08,1.55-0.11,3.05-0.6c1.77-0.71,2.65-1.56,2.67-2.55c0.01-0.78-0.45-1.42-1.37-1.93
			c-0.93-0.51-2.13-0.77-3.61-0.79c-4.69-0.08-7.06,1.61-7.13,5.08c-0.04,2.71,1.38,5.19,4.28,7.44c2.45,1.85,3.95,2.68,4.53,2.49
			l-0.93,0.93c-1.27-0.73-2.38-1.42-3.35-2.09c-0.97-0.66-1.79-1.23-2.46-1.71c-3.85-3.13-5.73-6.1-5.69-8.94
			c0.03-1.26,0.6-2.45,1.72-3.57c0.53-0.53,1.18-1.01,1.9-1.44l-1.63-1.79c-1.08-1.31-1.61-2.46-1.6-3.45
			c0.01-0.74,0.23-1.42,0.67-2.05c0.51-0.62,1.04-0.92,1.61-0.92l9.26,0.16l0.05-3.89l-14.18-0.23L268.83,46.65z"/>
		<path class="st8" d="M266.61,31.32l12.1,0.79c0.68,0.04,1.22,0.36,1.6,0.93c0.88,1.34,1.89,3.97,3.04,7.85
			c1.08,3.48,1.56,5.46,1.45,5.93L284,46.77l-0.93-3.46l-2.2-6.47c-0.53-1.29-1.31-1.96-2.34-2.03l-11.29-0.74L266.61,31.32z
			 M266.91,37.29l6.5,0.42l0.56,0.22l0.74,0.22c0.73,0.49,1.52,1.53,2.37,3.12c1.68,3,2.5,4.73,2.48,5.21l-0.86-0.05l-1.27-2.46
			c-0.99-1.82-1.74-2.86-2.23-3.12c-0.49-0.27-1.35-0.45-2.57-0.53l-4.3,0.01l-1.15,0.11L266.91,37.29z"/>
		<path class="st8" d="M292.53,75.9l0.59-6.21l6.03,0.56l-0.53,5.57l-3.34,6.24l-2.56-0.23l2.2-5.71L292.53,75.9z"/>
		<path class="st8" d="M335.49,70.8c-0.15,0-0.44,0.01-0.83,0.03c-0.33-0.08-0.66-0.16-1-0.25l-1.67-0.37
			c-0.82-0.21-1.72-0.93-2.75-2.2l-1.18-1.87c-0.25,1-1.05,1.85-2.41,2.56c-1.37,0.71-2.55,1.05-3.57,1.04l1.26,3.17l2.2,5.31
			l1.87,3.57l0.92,1.51l0.36,0.45l-1.29,0.41l-1.94-4.2c-1.48-3.17-2.61-6.01-3.39-8.52c-0.31-0.93-0.56-1.71-0.73-2.37
			c-0.18-0.66-0.31-1.31-0.41-1.98c-0.19-1.15-0.19-2.05-0.01-2.75l0.48-0.73c0.31-0.21,0.59-0.27,0.82-0.22l3.33,0.83l2.22-8.77
			l-6.38-1.61l0.64-2.56l14.75,3.72l-0.66,2.57l-5.31-1.35l-0.04,1.08c-0.15,1.55-0.34,2.75-0.56,3.63l-1.05,3.01l-0.71,1.63
			l0.41,0.71c0.51,0.66,1.27,1.11,2.31,1.37c1.11,0.29,2.5,0.26,4.2-0.08l1.93-0.6l-0.99,3.87L335.49,70.8z"/>
		<path class="st8" d="M336.89,55.1l11.47,3.75l-0.82,2.52l-4.46-1.46l-8.66,26.53l-2.38-3.43l7.9-24.12l-3.86-1.26L336.89,55.1z"/>
		<path class="st8" d="M348.4,44.9l1.83,3.85l-3.78,1.89l-1.86-3.79L348.4,44.9z"/>
		<path class="st8" d="M349.48,59.14l17.42,7.25l-1.01,2.44l-7.13-2.97l-0.25,1.49c-0.29,1.29-0.59,2.31-0.92,3.11
			c-1.93,4.63-4.26,7.29-6.99,8.02l-1.98,0.14l0.73,4.37l0.75,3.68l1.2,3.37l1.37,3.54l-1.11,0.44l-1.41-4.65
			c-1.05-3.79-1.81-6.94-2.26-9.44c-0.66-3.67-0.73-6.13-0.21-7.39c0.19-0.26,0.4-0.42,0.62-0.51c0.22-0.08,0.38-0.12,0.48-0.12
			c0.11,0,0.22,0.01,0.34,0.01l3.22,1.34l3.57-8.57l-7.44-3.11L349.48,59.14z"/>
		<path class="st8" d="M368.27,76.64c-0.88-2.07-0.92-3.87-0.08-5.43c0.66-1.25,1.68-1.94,3.07-2.09c1.16-0.1,2.35,0.18,3.57,0.83
			c1.64,0.88,2.83,2.27,3.59,4.2c0.74,1.93,0.67,3.72-0.21,5.38c-0.48,0.9-1.55,1.63-3.17,2.18c-1.41,0.37-2.26,0.53-2.59,0.49
			l0.51,0.74c0.59,0.62,1.46,1.25,2.63,1.86c1.22,0.64,2.78,0.97,4.67,0.94l2.34-0.21l-2.04,3.83l-1.33-0.3
			c-1.12-0.33-2.11-0.73-2.94-1.16c-0.88-0.48-1.93-1.55-3.15-3.22l-1.41-2.22l-1.83,0.16c-0.93,0.03-1.63,0.12-2.09,0.27
			c-2.86,0.75-4.75,1.97-5.64,3.67c-0.56,1.03-0.7,1.87-0.41,2.5c0.29,0.64,0.85,1.19,1.7,1.64l1.44,0.56l1.68,0.37l0.16-0.3
			l0.47-1.46c0.3-0.59,0.71-1.03,1.22-1.33c0.62-0.19,1.27-0.11,1.94,0.25c0.77,0.41,1.26,1.03,1.45,1.83
			c0.19,0.81,0.08,1.61-0.34,2.41c-0.62,1.16-1.52,1.9-2.67,2.22l-1.57,0.16l0.9,6.31l-1.9,0.05l0.16-6.51
			c-0.62-0.15-1.27-0.41-1.98-0.78c-1.98-1.05-3.33-2.67-4.04-4.82c-0.71-2.15-0.49-4.31,0.64-6.45c0.93-1.74,2.71-2.89,5.35-3.48
			c2.07-0.47,3.33-0.57,3.79-0.31C369.61,79.16,368.98,78.23,368.27,76.64z M373.34,78.93c1.66-0.6,2.7-1.29,3.11-2.07
			c0.63-1.19,0.89-2.18,0.75-2.97c-0.07-0.57-0.34-1-0.83-1.26l-1.07-0.56c-0.94-0.51-1.9-0.56-2.89-0.18
			c-0.99,0.4-1.74,1.08-2.27,2.09c-0.6,1.14-0.68,2.37-0.21,3.68c0.07,0.34,0.37,0.88,0.89,1.6L373.34,78.93z M382.73,77.82
			l-1.46-0.78l0.53-2.71l2.18,1.16L382.73,77.82z"/>
		<path class="st8" d="M383.95,75.64l10.19,6.45l-1.41,2.23l-3.97-2.5l-14.93,23.58l-1.45-3.9l13.59-21.44l-3.43-2.18L383.95,75.64z
			"/>
		<path class="st8" d="M405.83,93.9l-8.47,11.43c-0.71,0.94-1.7,1.38-2.97,1.31c-1.29-0.08-2.38-0.45-3.3-1.14
			c-0.97-0.73-1.78-2.56-2.38-5.5c-0.55-2.65-0.74-4.11-0.55-4.37l7.12-9.58l-2.16-1.6l1.59-2.12l15.23,11.32l-1.57,2.12
			L405.83,93.9z M389.97,98.67c-0.48,0.66-0.6,1.35-0.36,2.11c0.26,0.75,0.75,1.4,1.48,1.94c0.77,0.56,1.55,0.85,2.35,0.86
			c0.85-0.05,1.55-0.45,2.11-1.22L403.27,92l-5.38-4L389.97,98.67z"/>
		<path class="st8" d="M409.52,93.53l9.13,7.88l-1.74,2l-3.54-3.07l-18.24,21.11l-0.86-4.08l16.6-19.2l-3.08-2.65L409.52,93.53z"/>
		<path class="st8" d="M432.55,114.66l19.96,25.31l-2.08,1.64l-8.88-11.28l-7.84,6.19c0.44-0.19,1.22-0.15,2.34,0.12
			c1.52,0.36,2.64,0.99,3.34,1.87c1,1.26,1.2,3.04,0.62,5.34c-0.57,2.3-1.72,4.13-3.45,5.49c-1.67,1.31-3.97,2.19-6.92,2.63
			c-2.27,0.33-3.72,0.38-4.37,0.15l0.07-3.61c1.66,0.26,2.89,0.34,3.74,0.26c2.87-0.14,5.35-1.01,7.42-2.64
			c0.92-0.73,1.55-1.4,1.87-1.98c0.29-0.71,0.05-1.55-0.7-2.5c-0.83-1.05-2.37-1.74-4.61-2.05c-1.89-0.21-2.98-0.19-3.26,0.01
			l-10.15,8.02l-0.12-4.2l6.42-5.06c-1.27,0.08-2.16,0.07-2.64-0.03c-1.97-0.29-3.42-1.03-4.34-2.19c-1.14-1.44-1.33-3.34-0.57-5.71
			c0.77-2.37,1.96-4.19,3.59-5.47c2.27-1.79,4.8-1.89,7.55-0.29c1.77,1.04,3.57,2.72,5.42,5.06l0.74,0.94l0.53,0.67l-1.3,1.97
			l-0.45-0.59c-1.4-1.77-3.13-3.37-5.2-4.79c-2.89-1.89-5.24-2.12-7.06-0.7c-1.23,0.97-2,1.94-2.29,2.9
			c-0.29,0.96-0.08,1.89,0.63,2.78c1.05,1.35,2.93,2.13,5.6,2.37c2.2,0.19,3.49,0.15,3.86-0.14l9.47-7.46l-8.99-11.41L432.55,114.66
			z"/>
		<path class="st8" d="M452.86,141.33l9.76,16.15l-2.27,1.37l-3.98-6.61l-1.08,1.05c-0.99,0.86-1.85,1.52-2.59,1.96
			c-4.28,2.59-7.74,3.37-10.39,2.33l-1.67-1.07l-2,3.95l-1.57,3.41l-1.01,3.42l-1,3.68l-1.15-0.31l1.61-4.58
			c1.38-3.68,2.64-6.66,3.78-8.95c1.63-3.34,3.02-5.36,4.2-6.08c0.3-0.1,0.57-0.11,0.79-0.04c0.22,0.07,0.37,0.14,0.45,0.19
			c0.08,0.07,0.18,0.14,0.26,0.21l1.81,3l7.95-4.8l-4.16-6.9L452.86,141.33z"/>
		<path class="st8" d="M464.41,132.96l2.59,3.8c0.27,0.49,0.22,1.15-0.15,1.96c-1.29,3.16-2.9,6.27-4.83,9.3
			c-1.44,2.24-2.37,3.49-2.82,3.74l-0.38-0.71c0.9-0.48,2.87-3.95,5.94-10.41c0.16-0.52,0.14-0.99-0.08-1.38l-0.4-0.51l-3.12-2.93
			L464.41,132.96z"/>
		<path class="st8" d="M472.14,147.76l-1.2,4.09l-4.08-1.12l1.16-4.06L472.14,147.76z"/>
	</g>
	<g>
		<path class="st3" d="M94.13,313.55l34.98-12.1l4.87,14.09l-6.76,2.34l-2.39-6.92l-6.8,2.35l2.3,6.64l-6.6,2.27l-2.3-6.64
			l-8.02,2.78l2.56,7.38l-6.8,2.34L94.13,313.55z"/>
		<path class="st3" d="M129.47,319.17l3.3,6.83l-3.61,1.74c1.3-0.27,2.48-0.23,3.54,0.12c1.07,0.36,1.87,1.12,2.44,2.3
			c0.93,1.92,1.03,3.63,0.3,5.12c-0.74,1.49-2.19,2.76-4.37,3.8l-21.92,10.55l-3.24-6.72l21.24-10.21c0.62-0.3,1.09-0.68,1.41-1.14
			c0.31-0.47,0.36-0.96,0.11-1.48c-0.34-0.7-0.88-1.01-1.61-0.93c-0.75,0.1-1.64,0.38-2.71,0.9l-19.99,9.61l-3.28-6.83
			L129.47,319.17z"/>
		<path class="st3" d="M114.75,354.67c0.74-2.15,2.6-4.17,5.57-6.09l10.66-6.83c2.44-1.56,4.75-2.05,6.94-1.46
			c2.19,0.59,4.09,2.15,5.72,4.68c3.28,5.13,2.42,9.3-2.57,12.51l-1.93,1.23c-1.93,1.25-3.52,2.23-4.76,2.96l-5.94-9.26l-5.15,3.3
			c-0.92,0.59-1.57,1.15-1.97,1.67c-0.4,0.53-0.4,1.11,0.01,1.74c0.31,0.49,0.68,0.74,1.11,0.77c0.41,0.01,0.82-0.07,1.23-0.27
			c0.4-0.21,0.96-0.53,1.68-1l2.57-1.66l4.06,6.35l-1.52,0.97c-3.09,1.98-5.76,2.85-7.99,2.59c-2.24-0.27-4.3-1.87-6.19-4.82
			C114.53,359.28,114.02,356.83,114.75,354.67z M133.51,353.35l3.41-2.18c1.9-1.23,2.56-2.31,1.96-3.26c-0.7-1.08-1.98-1-3.9,0.22
			l-3.41,2.19L133.51,353.35z"/>
		<path class="st3" d="M149.52,354.3l4.73,5.93l-2.74,2.18c1.2-0.48,2.37-0.56,3.48-0.25s2.11,1.01,2.97,2.09l-4.91,3.93
			c-0.67-0.83-1.52-1.67-2.56-2.48c-1.04-0.82-1.71-1.11-2.03-0.86l-18.86,15.05l-4.73-5.93L149.52,354.3z"/>
		<path class="st3" d="M134.89,392.31c-0.64-1.18-1.04-2.55-1.2-4.15l4.93-1.19c0.52,2.08,1.42,3.78,2.7,5.08
			c0.83,0.85,1.72,1.22,2.68,1.14c0.96-0.1,1.9-0.59,2.82-1.51l1.23-1.2c-1.97,1.08-3.86,0.68-5.68-1.16
			c-1.52-1.55-2.12-3.2-1.79-4.95c0.33-1.77,1.35-3.5,3.11-5.21l8.44-8.29c1.98-1.96,3.83-3.12,5.54-3.48
			c1.72-0.37,3.39,0.27,5.04,1.94c0.96,0.97,1.46,1.98,1.55,3.02c0.07,1.04-0.23,2.08-0.94,3.13l2.53-2.48l5.43,5.53l-18.68,18.36
			c-2.52,2.46-4.91,3.67-7.17,3.57c-2.26-0.08-4.65-1.42-7.18-4C136.64,394.87,135.53,393.48,134.89,392.31z M152.06,386.52
			l8.02-7.88c0.45-0.44,0.75-0.99,0.92-1.63c0.18-0.66,0.07-1.16-0.29-1.53c-0.47-0.48-0.96-0.63-1.45-0.47
			c-0.51,0.16-1.05,0.55-1.64,1.12l-8.02,7.88c-0.67,0.67-1.15,1.29-1.4,1.86c-0.26,0.57-0.15,1.12,0.34,1.61
			C149.37,388.34,150.55,388.02,152.06,386.52z"/>
		<path class="st3" d="M152.28,404.41l2.85,2.27c0.41,0.33,0.74,0.31,1.01-0.01c0.12-0.16,0.22-0.3,0.26-0.4l15.44-27.2l5.65,4.53
			L169,396.49l-4.35,6.55l5.53-5.61l10.93-10.95l5.68,4.56l-25.31,22.21c-0.93,0.83-1.82,1.29-2.68,1.35
			c-0.85,0.08-1.79-0.3-2.83-1.14l-6.66-5.34L152.28,404.41z"/>
		<path class="st3" d="M179.87,423.98l15.97-27.19l6.54,3.85l-15.97,27.18L179.87,423.98z M196.91,394.97l2.65-4.53l6.54,3.85
			l-2.65,4.53L196.91,394.97z"/>
		<path class="st3" d="M194.07,421.83l1.11-2.24l6.86,3.24l-1.55,3.37c-0.31,0.67-0.44,1.25-0.34,1.72c0.1,0.48,0.45,0.85,1.05,1.14
			c0.9,0.44,1.71-0.1,2.42-1.57c0.51-1.08,0.7-2.04,0.56-2.87c-0.14-0.82-0.51-1.81-1.12-2.96l-2.31-4.53
			c-0.79-1.55-1.23-2.97-1.29-4.26c-0.07-1.29,0.34-2.86,1.22-4.73c0.7-1.45,1.67-2.5,2.91-3.16c1.26-0.67,2.65-0.96,4.17-0.86
			c1.53,0.08,3.08,0.49,4.64,1.23c5.57,2.64,7.05,6.71,4.45,12.21l-0.26,0.55l-7.09-3.35l0.51-1.09c0.33-0.67,0.49-1.3,0.49-1.89
			c0-0.59-0.26-1-0.78-1.25c-0.47-0.23-0.89-0.26-1.27-0.11c-0.37,0.16-0.67,0.47-0.89,0.93c-0.49,1.04-0.47,2.04,0.07,3l2.78,5.08
			c0.99,1.83,1.57,3.6,1.77,5.3c0.19,1.68-0.19,3.53-1.14,5.53c-1.25,2.65-2.97,4.32-5.16,5.04c-2.19,0.71-4.65,0.42-7.36-0.86
			C192.86,431.72,191.36,427.53,194.07,421.83z"/>
		<path class="st3" d="M222.82,443.78l10.04-35.61l7.18,2.03l-8.35,29.54l7.39,2.09l-1.71,6.05L222.82,443.78z"/>
		<path class="st3" d="M240.69,448.5l6.19-30.91l7.43,1.49l-6.19,30.91L240.69,448.5z M247.29,415.52l1.03-5.16l7.44,1.49
			l-1.04,5.15L247.29,415.52z"/>
		<path class="st3" d="M256.62,426.67l-1.33-0.18l0.79-5.67l1.29,0.16l0.29-2.13c0.45-3.35,2.35-4.82,5.73-4.37
			c1.61,0.22,2.87,0.59,3.79,1.11l-0.62,4.61c-0.27-0.12-0.49-0.19-0.67-0.22c-0.4-0.05-0.67,0.05-0.82,0.33s-0.27,0.68-0.34,1.26
			l-0.05,0.38l1.63,0.22l-0.77,5.76l-1.45-0.19l-3.22,24.12l-7.47-1L256.62,426.67z"/>
		<path class="st3" d="M268.62,450.36c-1.35-1.83-1.96-4.52-1.82-8.05l0.51-12.66c0.11-2.89,1.04-5.06,2.76-6.53
			c1.74-1.45,4.11-2.12,7.12-2c6.09,0.23,9.02,3.33,8.78,9.26l-0.1,2.29c-0.08,2.29-0.19,4.16-0.3,5.58l-11-0.42l-0.25,6.1
			c-0.04,1.09,0.04,1.96,0.25,2.57c0.21,0.63,0.68,0.96,1.44,0.99c0.59,0.03,1-0.14,1.26-0.47c0.26-0.33,0.42-0.73,0.48-1.16
			c0.07-0.45,0.11-1.09,0.14-1.96l0.12-3.05l7.54,0.29l-0.07,1.81c-0.15,3.68-0.97,6.35-2.46,8.03c-1.51,1.68-4,2.45-7.49,2.31
			C272.26,453.18,269.96,452.19,268.62,450.36z M278.27,434.23l0.16-4.04c0.08-2.27-0.42-3.42-1.56-3.48
			c-1.27-0.04-1.94,1.07-2.04,3.33l-0.15,4.05L278.27,434.23z"/>
		<path class="st3" d="M290.82,457.95l1.16-5.01l-2.7,0.12l-0.29-6.28l7.88-0.37l0.29,6.06l-1.89,5.27L290.82,457.95z"/>
		<path class="st3" d="M314.96,448.58c-1.93-1.35-3.17-3.49-3.74-6.39l-3.24-16.75c-0.7-3.6-0.51-6.46,0.59-8.58
			c1.09-2.11,3.19-3.46,6.28-4.06c2.7-0.52,5.01-0.21,6.94,0.94s3.16,3.09,3.69,5.86l1.2,6.27l-7.27,1.41l-1.04-5.38
			c-0.21-1.04-0.48-1.74-0.81-2.08c-0.33-0.34-0.81-0.45-1.44-0.34c-0.64,0.14-1.05,0.44-1.2,0.94c-0.15,0.49-0.15,1.18,0.03,2.05
			l3.52,18.23c0.19,0.96,0.47,1.63,0.83,2.01c0.37,0.38,0.83,0.52,1.41,0.41c1.14-0.22,1.52-1.25,1.16-3.08l-1.26-6.55l7.36-1.42
			l1.31,6.84c1.19,6.09-1.3,9.73-7.46,10.92C319.17,450.35,316.87,449.93,314.96,448.58z"/>
		<path class="st3" d="M332.88,437.5l-3.89-12.06c-0.92-2.85-0.85-5.36,0.22-7.55c1.07-2.2,3-3.76,5.8-4.67
			c2.81-0.9,5.28-0.78,7.44,0.38c2.15,1.16,3.68,3.16,4.6,6.01l3.89,12.06c2,6.2-0.01,10.28-6.03,12.22
			C338.89,445.83,334.88,443.69,332.88,437.5z M344.21,437.32c0.14-0.49,0.1-1.09-0.14-1.81l-4.73-14.68
			c-0.56-1.74-1.41-2.44-2.53-2.07c-1.14,0.36-1.41,1.41-0.85,3.16l4.73,14.67c0.23,0.71,0.55,1.23,0.96,1.56
			c0.41,0.31,0.9,0.38,1.48,0.19C343.7,438.17,344.06,437.82,344.21,437.32z"/>
		<path class="st3" d="M345.57,410.07l6.88-3.19l1.68,3.64c-0.26-1.31-0.19-2.49,0.18-3.54c0.37-1.07,1.14-1.86,2.31-2.41
			c1.94-0.9,3.65-0.97,5.13-0.22c1.48,0.75,2.74,2.22,3.75,4.41l10.24,22.07l-6.76,3.13l-9.92-21.36c-0.29-0.63-0.66-1.11-1.11-1.44
			c-0.45-0.33-0.94-0.37-1.48-0.12c-0.7,0.33-1.01,0.86-0.94,1.6c0.07,0.75,0.36,1.66,0.85,2.72l9.33,20.12l-6.87,3.19
			L345.57,410.07z"/>
		<path class="st3" d="M375.42,420.64l-1.27-2.15l6.45-4l1.98,3.13c0.4,0.63,0.82,1.04,1.27,1.22c0.45,0.18,0.96,0.08,1.52-0.26
			c0.86-0.53,0.86-1.51,0-2.89c-0.64-1.03-1.34-1.71-2.11-2.04c-0.77-0.34-1.81-0.56-3.09-0.67l-5.06-0.51
			c-1.74-0.18-3.16-0.59-4.28-1.23c-1.11-0.64-2.2-1.85-3.3-3.6c-0.85-1.37-1.2-2.75-1.08-4.17c0.12-1.41,0.64-2.74,1.53-3.97
			c0.9-1.23,2.09-2.31,3.57-3.22c5.23-3.24,9.44-2.29,12.66,2.89l0.31,0.52l-6.66,4.13l-0.64-1.03c-0.38-0.64-0.83-1.11-1.31-1.44
			c-0.49-0.33-0.99-0.33-1.48-0.03c-0.44,0.27-0.7,0.62-0.77,1.01c-0.08,0.4,0.01,0.82,0.29,1.26c0.62,0.99,1.46,1.51,2.56,1.56
			l5.76,0.42c2.08,0.16,3.89,0.63,5.41,1.4c1.53,0.75,2.87,2.08,4.04,3.95c1.55,2.49,2.03,4.84,1.42,7.07
			c-0.59,2.22-2.16,4.13-4.71,5.71C383.09,427.04,378.76,426.02,375.42,420.64z"/>
		<path class="st3" d="M400.37,412.58c-2.22-0.51-4.42-2.15-6.62-4.9l-7.9-9.91c-1.81-2.26-2.53-4.52-2.18-6.75
			c0.36-2.24,1.71-4.3,4.06-6.17c4.76-3.79,9-3.38,12.71,1.27l1.42,1.78c1.44,1.81,2.57,3.28,3.42,4.43l-8.61,6.87l3.82,4.78
			c0.68,0.86,1.3,1.45,1.86,1.79c0.57,0.34,1.15,0.27,1.74-0.19c0.45-0.37,0.67-0.75,0.64-1.18s-0.15-0.82-0.4-1.2
			c-0.25-0.37-0.64-0.89-1.18-1.57l-1.9-2.38l5.9-4.71l1.12,1.41c2.3,2.87,3.42,5.45,3.38,7.69c-0.03,2.24-1.41,4.46-4.15,6.65
			C404.97,412.32,402.59,413.08,400.37,412.58z M397.13,394.06l-2.52-3.16c-1.41-1.78-2.56-2.31-3.45-1.61
			c-0.99,0.79-0.78,2.08,0.63,3.85l2.53,3.17L397.13,394.06z"/>
		<path class="st3" d="M396.4,378.04l5.41-5.31l2.45,2.49c-0.6-1.15-0.79-2.29-0.6-3.42c0.21-1.15,0.79-2.2,1.78-3.17l4.41,4.49
			c-0.75,0.75-1.49,1.68-2.2,2.81c-0.7,1.11-0.92,1.81-0.63,2.09l16.9,17.21l-5.42,5.31L396.4,378.04z"/>
		<path class="st3" d="M433.13,385.44l-27.45-16.32l4.87-5.83l13.23,9.03l4.09,3.08l-3.76-3.54l-11.08-11.52l4.86-5.82l20.88,24.18
			L433.13,385.44z"/>
		<path class="st3" d="M443.83,368.24c-2.27,0.22-4.87-0.64-7.83-2.59l-10.6-6.92c-2.42-1.59-3.82-3.5-4.17-5.73
			c-0.36-2.23,0.29-4.61,1.93-7.13c3.34-5.1,7.5-6.02,12.47-2.78l1.92,1.26c1.92,1.26,3.46,2.3,4.64,3.13l-6.02,9.21l5.12,3.35
			c0.9,0.6,1.68,0.97,2.33,1.11c0.64,0.15,1.18-0.1,1.59-0.73c0.31-0.48,0.4-0.92,0.25-1.31c-0.16-0.4-0.41-0.74-0.75-1.01
			c-0.36-0.27-0.89-0.66-1.61-1.12l-2.56-1.68l4.13-6.31l1.51,0.99c3.08,2.01,4.95,4.09,5.62,6.24s0.05,4.69-1.86,7.61
			C448.11,366.56,446.09,368.04,443.83,368.24z M434.96,351.67l-3.39-2.22c-1.9-1.25-3.16-1.38-3.78-0.44
			c-0.7,1.05-0.1,2.22,1.81,3.45l3.39,2.22L434.96,351.67z"/>
		<path class="st3" d="M431.76,327.19l-4.78-2.19l3.15-6.9l4.78,2.18L431.76,327.19z M462.36,341.16l-28.68-13.1l3.15-6.9
			l28.68,13.1L462.36,341.16z"/>
		<path class="st3" d="M467.31,327.42c-1.04,0.41-2.42,0.29-4.15-0.36l-18.42-6.92l-0.75,2l-5.36-2.03l0.75-1.98l-6.25-2.34l2.6-6.9
			l6.24,2.34l0.77-2.03l5.36,2.01l-0.77,2.03l16.57,6.23c0.52,0.19,0.9,0.29,1.18,0.3c0.27,0.01,0.48-0.16,0.6-0.51
			c0.11-0.27,0.19-0.53,0.26-0.79c0.05-0.25,0.11-0.42,0.14-0.49l4.84,1.81c-0.05,0.45-0.15,1.08-0.33,1.9
			c-0.16,0.81-0.38,1.59-0.66,2.31C469.23,325.88,468.36,327.01,467.31,327.42z"/>
	</g>
	<g>
		<path class="st3" d="M177.39,283.75h10.28c2.76,0,4.76,0.67,6.02,2.03c1.25,1.35,1.87,3.56,1.87,6.61v1.68
			c0,3.61-1.3,5.77-3.89,6.47c1.59,0.41,2.71,1.37,3.35,2.87c0.64,1.49,0.97,3.48,0.97,5.94c0,4.04-0.6,7.07-1.81,9.15
			c-1.2,2.07-3.38,3.11-6.53,3.11h-10.28V283.75z M186.34,297.98c0.66,0,1.09-0.23,1.33-0.73c0.23-0.48,0.36-1.16,0.36-2.05v-3.79
			c0-1.23-0.55-1.85-1.63-1.85h-1.59v8.42H186.34z M188.5,312.13v-4.71c0-1.15-0.16-2.01-0.51-2.6c-0.34-0.59-0.93-0.89-1.78-0.89
			h-1.41v10.97l0.74,0.05C187.52,314.96,188.5,314.01,188.5,312.13z"/>
		<path class="st3" d="M219.14,321.61v-37.86h15.18v7.32h-7.46v7.36H234v7.13h-7.14v8.69h7.94v7.36H219.14z"/>
		<path class="st3" d="M257.94,321.61v-37.86h15.18v7.32h-7.46v7.36h7.14v7.13h-7.14v8.69h7.94v7.36H257.94z"/>
	</g>
	<g>
		<path class="st8" d="M284.33,177.74v-1.98h11.11v1.98H284.33z M296.81,192.91c-1.15,0.44-2.18,0.66-3.09,0.66
			c-1.94,0-3.75-0.81-5.42-2.42c-1.67-1.61-2.52-3.19-2.52-4.72c0-3.91,2.33-5.86,6.97-5.86l1.77,0.22l0.93,0.22l1.19,2.64
			l-1.23-0.29c-0.97-0.16-1.71-0.25-2.2-0.25h-0.67l-1.27,0.18l-1.94,0.62l8.87,5.51v2.78L296.81,192.91z M288.97,184.17
			c-0.62,0.41-1.01,0.83-1.19,1.27c-0.25,0.45-0.36,0.81-0.36,1.07v1.01c0,2.35,1.72,3.53,5.21,3.53c1.15,0,2.31-0.25,3.49-0.75
			l1.51-0.81L288.97,184.17z"/>
		<path class="st8" d="M294.55,175.75h9.3v1.98h-3.61v20.94l-2.56-1.89v-19.05h-3.13V175.75z"/>
		<path class="st8" d="M302.49,175.75h3.71c0-0.05,0-0.19,0-0.4c0-0.67-0.49-1.92-1.46-3.74c-1.49-2.59-3.33-3.89-5.5-3.89
			c-1.09,0-1.9,0.4-2.44,1.19c-0.37,0.47-0.62,0.93-0.7,1.37c-0.12,0.38-0.18,0.92-0.18,1.59l0.14,1.19l0.3,1.05
			c0.3,0.68,0.71,1.19,1.23,1.55l-0.62,0.08l-1.31-1.81c-0.89-1.59-1.33-3.02-1.33-4.31c0-1.25,0.31-2.2,0.93-2.91
			c0.85-0.88,1.98-1.33,3.39-1.33c2.35,0,4.43,1.7,6.25,5.08c1.53,2.87,2.16,4.64,1.9,5.28h5.24v1.98h-3.61v20.94l-2.56-1.89v-19.05
			h-3.13L302.49,175.75z"/>
		<path class="st8" d="M347.95,177.74v5.47h-7.72c-0.64,0-1.09,0.18-1.37,0.52c-0.26,0.36-0.4,0.79-0.4,1.33l0.14,0.93l0.36,0.75
			c0.44,0.52,0.89,0.83,1.37,0.92c0.88-0.44,1.85-0.66,2.9-0.66c1.71,0,3.19,0.49,4.43,1.46c1.25,0.99,1.87,2.27,1.87,3.85
			c0,1.38-0.51,2.6-1.51,3.69c-1.23,1.26-2.38,1.89-3.43,1.89l5.25,4.61l-1.19,1.11l-4.54-5.5c-0.12,0.14-0.62,0.22-1.51,0.22
			c-1.18,0-2.16-0.18-2.96-0.53c-1.05-0.53-1.59-1.29-1.59-2.27c0-0.56,0.21-1.07,0.6-1.51c0.4-0.45,0.89-0.67,1.48-0.67
			c0.73,0,1.46,0.29,2.2,0.85c0.53,0.52,0.79,0.85,0.79,1l1.19-0.26l1.23-0.31c1.71-0.6,2.56-1.44,2.56-2.49
			c0-1.01-0.37-1.79-1.11-2.31c-0.73-0.53-1.57-0.79-2.5-0.79h-0.97l-0.83,0.26c-0.77,0.38-1.26,0.68-1.46,0.89
			c-0.34-0.1-1.12-0.88-2.33-2.35s-1.81-2.52-1.81-3.13c0-1.08,0.23-1.96,0.7-2.61c0.47-0.66,1.14-0.99,1.98-0.99h5.77v-3.35H336
			v-1.98h16.09v1.98H347.95z"/>
		<path class="st8" d="M345.61,174.82l-0.57-0.79c-0.9-1.4-1.37-2.78-1.37-4.13c0-1.37,0.47-2.5,1.37-3.42
			c0.92-0.93,1.94-1.38,3.09-1.38c1.23,0,2.27,0.52,3.13,1.59l-0.18,0.44l-0.45-0.15c-0.85-0.19-1.59-0.29-2.2-0.29
			c-1.08,0-1.9,0.44-2.44,1.3c-0.55,0.88-0.82,1.93-0.82,3.19c0,0.45,0.04,0.92,0.14,1.37c0.08,0.47,0.19,0.9,0.3,1.29
			c0.3,0.88,0.71,1.53,1.23,1.98h-0.4L345.61,174.82z"/>
		<path class="st8" d="M388.07,177.74v5.47h-7.72c-0.64,0-1.09,0.18-1.37,0.52c-0.26,0.36-0.4,0.79-0.4,1.33l0.14,0.93l0.36,0.75
			c0.44,0.52,0.89,0.83,1.37,0.92c0.88-0.44,1.85-0.66,2.9-0.66c1.71,0,3.19,0.49,4.43,1.46c1.25,0.99,1.87,2.27,1.87,3.85
			c0,1.38-0.51,2.6-1.51,3.69c-1.23,1.26-2.38,1.89-3.43,1.89l5.25,4.61l-1.19,1.11l-4.54-5.5c-0.12,0.14-0.62,0.22-1.51,0.22
			c-1.18,0-2.16-0.18-2.96-0.53c-1.05-0.53-1.59-1.29-1.59-2.27c0-0.56,0.21-1.07,0.6-1.51c0.4-0.45,0.89-0.67,1.48-0.67
			c0.73,0,1.46,0.29,2.2,0.85c0.53,0.52,0.79,0.85,0.79,1l1.19-0.26l1.23-0.31c1.71-0.6,2.56-1.44,2.56-2.49
			c0-1.01-0.37-1.79-1.11-2.31c-0.73-0.53-1.57-0.79-2.5-0.79h-0.97l-0.83,0.26c-0.77,0.38-1.26,0.68-1.46,0.89
			c-0.34-0.1-1.12-0.88-2.33-2.35c-1.2-1.48-1.81-2.52-1.81-3.13c0-1.08,0.23-1.96,0.7-2.61c0.47-0.66,1.14-0.99,1.98-0.99h5.77
			v-3.35h-9.56v-1.98h16.09v1.98H388.07z"/>
		<path class="st8" d="M385.73,174.82l-0.57-0.79c-0.9-1.4-1.37-2.78-1.37-4.13c0-1.37,0.47-2.5,1.37-3.42
			c0.92-0.93,1.94-1.38,3.09-1.38c1.23,0,2.27,0.52,3.13,1.59l-0.18,0.44l-0.45-0.15c-0.85-0.19-1.59-0.29-2.2-0.29
			c-1.08,0-1.9,0.44-2.44,1.3c-0.55,0.88-0.82,1.93-0.82,3.19c0,0.45,0.04,0.92,0.14,1.37c0.08,0.47,0.19,0.9,0.3,1.29
			c0.3,0.88,0.71,1.53,1.23,1.98h-0.4L385.73,174.82z"/>
	</g>
</g>
</svg>
