<?xml version="1.0" encoding="utf-8"?>
<!-- Generator: Adobe Illustrator 27.0.0, SVG Export Plug-In . SVG Version: 6.00 Build 0)  -->
<svg version="1.1" id="Layer_1" xmlns="http://www.w3.org/2000/svg" xmlns:xlink="http://www.w3.org/1999/xlink" x="0px" y="0px"
	 viewBox="0 0 573 499" style="enable-background:new 0 0 573 499;" xml:space="preserve">
<style type="text/css">
	.st0{fill:#31302F;}
	.st1{fill:#215091;}
	.st2{fill:#AC3734;}
</style>
<g>
	<path class="st0" d="M432.66,278.51c0,38.86,0.03,77.72-0.01,116.58c-0.03,29.05-17.77,46.72-46.96,46.73
		c-72.83,0.03-145.67,0.03-218.5,0c-29.4-0.01-47.14-17.8-47.15-47.33c-0.03-77.5-0.03-155.01,0-232.51
		c0.01-29.08,17.91-47.07,46.76-47.08c73.05-0.02,146.11,0.47,219.15-0.27c24.71-0.25,47.63,18.36,46.95,47.29
		C431.97,200.77,432.66,239.65,432.66,278.51z M418.31,278.08c0-35.38-0.62-70.76,0.22-106.12c0.55-22.99-16.1-42.45-42.01-42.29
		c-66.74,0.41-133.48,0.11-200.22,0.16c-25.96,0.02-41.95,16.07-41.96,42.08c-0.03,70.97-0.03,141.94,0,212.9
		c0.01,26.07,15.95,42.03,41.92,42.03c66.74,0.02,133.49-0.42,200.22,0.25c22.18,0.22,42.62-16.16,42.03-42.24
		C417.7,349.29,418.31,313.68,418.31,278.08z"/>
	<path class="st1" d="M338.46,189.79c-0.19,27.92-11.83,41.63-27.53,52.92c-1.9,1.36-3.42,1.38-5.23-0.13
		c-6.67-5.61-13.4-11.16-20.13-16.7c-2.06-1.7-2.58-2.94-0.02-4.96c3.57-2.81,7.15-5.65,10.11-9.24
		c8.45-10.25,9.98-19.01,4.45-27.35c-7.1-10.69-20.62-15.92-31.92-12.33c-12.52,3.97-19.58,13.72-19.36,26.26
		c0.09,5.41,2.15,9.44,6.27,13c24.75,21.37,49.28,42.99,74.1,64.28c3.74,3.21,4.31,4.86,0.24,8.15c-5.58,4.52-10.73,9.6-15.82,14.69
		c-2.88,2.88-4.86,2.98-8.07,0.15c-22.25-19.59-44.71-38.95-67.09-58.4c-3.77-3.28-7.93-6.27-11.11-10.06
		c-25.41-30.19-11.92-72.22,26.33-83.66c23.56-7.05,45.15-4.14,64.99,10.47C330.95,165.93,338.57,181.69,338.46,189.79z"/>
	<path class="st2" d="M275.52,414.2c-26.74-0.32-49.49-14.6-57.9-36.35c-7.48-19.36-2.39-40.04,13.52-54.86
		c12.46-11.61,12.46-11.61,24.54-0.24c3.5,3.29,9.09,6.14,9.91,10.01c0.99,4.63-6.22,5.75-9.3,9.11
		c-9.48,10.36-11.16,21.03-4.32,31.46c7.85,11.96,21.01,16.13,34.28,10.87c12.87-5.11,19.57-16.14,17.56-28.81
		c-0.73-4.62-3.52-7.79-6.92-10.72c-24.27-20.96-48.41-42.07-72.79-62.9c-4.41-3.77-5.47-5.99-0.07-9.86
		c5.63-4.04,10.59-9.07,15.64-13.88c2.48-2.38,4.16-2.68,6.98-0.21c25.27,22.11,50.91,43.79,75.99,66.12
		c26.93,23.97,18.48,68.41-15.51,83.26C297.08,411.59,286.61,414.35,275.52,414.2z"/>
	<g>
		<path class="st0" d="M175.27,485.7v-28.63h12.17c3.06,0,5.29,0.26,6.67,0.77c1.39,0.52,2.5,1.43,3.33,2.74
			c0.83,1.32,1.25,2.82,1.25,4.51c0,2.15-0.63,3.92-1.9,5.32c-1.26,1.4-3.15,2.29-5.66,2.65c1.26,0.73,2.29,1.53,3.1,2.4
			c0.81,0.87,1.91,2.42,3.29,4.65l3.5,5.59h-6.92l-4.18-6.23c-1.49-2.22-2.5-3.63-3.05-4.21c-0.55-0.58-1.13-0.98-1.73-1.19
			c-0.61-0.22-1.58-0.33-2.91-0.33h-1.17v11.95H175.27z M181.05,469.18h4.27c2.78,0,4.51-0.12,5.2-0.35
			c0.69-0.23,1.23-0.63,1.62-1.21c0.39-0.57,0.59-1.29,0.59-2.15c0-0.96-0.26-1.74-0.77-2.33c-0.51-0.59-1.24-0.97-2.18-1.13
			c-0.47-0.06-1.88-0.1-4.22-0.1h-4.51V469.18z"/>
		<path class="st0" d="M203.46,478.06v-5.49h10.78v5.49H203.46z"/>
		<path class="st0" d="M216.24,462.55v-5.1h18.77v3.98c-1.56,1.52-3.12,3.71-4.73,6.56c-1.6,2.85-2.82,5.88-3.66,9.09
			c-0.84,3.21-1.25,6.08-1.23,8.6h-5.29c0.09-3.96,0.91-8,2.45-12.11c1.54-4.11,3.6-7.79,6.18-11.03H216.24z"/>
		<path class="st0" d="M252.52,485.7h-5.49v-20.68c-2.01,1.88-4.37,3.26-7.09,4.16v-4.98c1.43-0.47,2.99-1.36,4.67-2.67
			s2.83-2.83,3.45-4.58h4.46V485.7z"/>
		<path class="st0" d="M270,456.95c2.77,0,4.94,0.99,6.5,2.97c1.86,2.34,2.79,6.23,2.79,11.66c0,5.41-0.93,9.31-2.81,11.67
			c-1.55,1.95-3.71,2.93-6.48,2.93c-2.79,0-5.04-1.07-6.74-3.21c-1.71-2.14-2.56-5.96-2.56-11.46c0-5.39,0.94-9.27,2.81-11.64
			C265.06,457.93,267.22,456.95,270,456.95z M270,461.5c-0.67,0-1.26,0.21-1.78,0.63c-0.52,0.42-0.92,1.18-1.21,2.27
			c-0.38,1.42-0.57,3.81-0.57,7.17c0,3.36,0.16,5.66,0.5,6.92c0.34,1.26,0.76,2.09,1.28,2.51c0.51,0.42,1.1,0.63,1.77,0.63
			c0.66,0,1.26-0.21,1.77-0.63c0.52-0.42,0.92-1.19,1.21-2.28c0.38-1.41,0.57-3.79,0.57-7.14c0-3.36-0.16-5.67-0.5-6.93
			c-0.34-1.26-0.76-2.09-1.28-2.52C271.25,461.72,270.66,461.5,270,461.5z"/>
		<path class="st0" d="M301.49,480.6v5.1h-19.23c0.2-1.92,0.83-3.75,1.88-5.48c1.04-1.73,3.1-4.01,6.17-6.86
			c2.48-2.31,3.99-3.87,4.55-4.69c0.76-1.13,1.13-2.25,1.13-3.36c0-1.22-0.33-2.16-0.98-2.82c-0.66-0.65-1.57-0.98-2.73-0.98
			c-1.15,0-2.05,0.34-2.73,1.03c-0.68,0.7-1.07,1.84-1.17,3.44l-5.47-0.55c0.33-3.02,1.35-5.19,3.07-6.5s3.86-1.97,6.44-1.97
			c2.82,0,5.05,0.76,6.66,2.29c1.62,1.52,2.42,3.42,2.42,5.68c0,1.29-0.23,2.51-0.69,3.68c-0.46,1.17-1.19,2.39-2.2,3.66
			c-0.67,0.85-1.86,2.06-3.6,3.65c-1.73,1.59-2.83,2.64-3.29,3.17c-0.46,0.52-0.84,1.02-1.13,1.52H301.49z"/>
		<path class="st0" d="M319.25,485.7h-5.49v-20.68c-2.01,1.88-4.37,3.26-7.09,4.16v-4.98c1.43-0.47,2.99-1.36,4.67-2.67
			s2.83-2.83,3.45-4.58h4.46V485.7z"/>
		<path class="st0" d="M332.15,470.25c-1.42-0.6-2.45-1.42-3.1-2.47c-0.64-1.05-0.97-2.2-0.97-3.45c0-2.14,0.75-3.9,2.24-5.29
			c1.49-1.39,3.61-2.09,6.36-2.09c2.72,0,4.83,0.7,6.34,2.09c1.5,1.39,2.25,3.16,2.25,5.29c0,1.32-0.34,2.51-1.04,3.54
			c-0.69,1.04-1.66,1.83-2.91,2.37c1.59,0.64,2.8,1.57,3.62,2.79c0.83,1.23,1.24,2.64,1.24,4.24c0,2.65-0.85,4.8-2.53,6.45
			c-1.69,1.65-3.93,2.48-6.73,2.48c-2.61,0-4.77-0.68-6.5-2.05c-2.05-1.62-3.06-3.83-3.06-6.64c0-1.55,0.38-2.97,1.15-4.27
			C329.29,471.96,330.5,470.95,332.15,470.25z M332.78,476.98c0,1.51,0.39,2.7,1.17,3.54c0.77,0.85,1.74,1.27,2.9,1.27
			c1.13,0,2.07-0.41,2.81-1.22c0.74-0.82,1.11-1.99,1.11-3.53c0-1.34-0.38-2.42-1.13-3.23c-0.76-0.81-1.71-1.22-2.87-1.22
			c-1.34,0-2.34,0.46-3,1.39C333.11,474.9,332.78,475.91,332.78,476.98z M333.29,464.72c0,1.09,0.31,1.94,0.93,2.56
			c0.61,0.61,1.44,0.91,2.47,0.91c1.04,0,1.88-0.31,2.5-0.92c0.63-0.62,0.94-1.48,0.94-2.57c0-1.03-0.31-1.85-0.93-2.47
			c-0.62-0.62-1.44-0.93-2.46-0.93c-1.05,0-1.89,0.31-2.52,0.94C333.6,462.87,333.29,463.69,333.29,464.72z"/>
		<path class="st0" d="M368.28,464.08l-5.31,0.58c-0.13-1.09-0.46-1.9-1.02-2.42c-0.55-0.53-1.26-0.78-2.13-0.78
			c-1.15,0-2.14,0.52-2.93,1.56c-0.81,1.04-1.31,3.21-1.51,6.5c1.36-1.61,3.06-2.42,5.1-2.42c2.29,0,4.25,0.87,5.89,2.62
			c1.63,1.74,2.45,4,2.45,6.75c0,2.93-0.86,5.28-2.58,7.05c-1.72,1.77-3.92,2.66-6.62,2.66c-2.89,0-5.27-1.13-7.13-3.37
			s-2.79-5.93-2.79-11.05c0-5.25,0.97-9.03,2.91-11.35c1.94-2.31,4.46-3.47,7.56-3.47c2.18,0,3.98,0.61,5.4,1.82
			C366.98,460,367.89,461.76,368.28,464.08z M355.84,476.05c0,1.79,0.41,3.16,1.23,4.13c0.82,0.98,1.76,1.46,2.81,1.46
			c1.02,0,1.86-0.4,2.54-1.19c0.68-0.79,1.02-2.09,1.02-3.9c0-1.86-0.36-3.23-1.09-4.09c-0.73-0.87-1.64-1.3-2.74-1.3
			c-1.06,0-1.94,0.41-2.67,1.23C356.21,473.22,355.84,474.44,355.84,476.05z"/>
		<path class="st0" d="M372.01,478.34l5.47-0.57c0.16,1.23,0.61,2.22,1.39,2.94c0.77,0.72,1.65,1.08,2.65,1.08
			c1.15,0,2.12-0.47,2.91-1.4c0.79-0.93,1.19-2.33,1.19-4.21c0-1.75-0.39-3.08-1.18-3.95c-0.78-0.88-1.81-1.32-3.08-1.32
			c-1.57,0-2.98,0.7-4.24,2.09l-4.45-0.65l2.81-14.9H390v5.14h-10.35l-0.86,4.86c1.22-0.61,2.47-0.92,3.75-0.92
			c2.44,0,4.5,0.89,6.19,2.65c1.69,1.77,2.54,4.07,2.54,6.9c0,2.35-0.69,4.46-2.05,6.3c-1.86,2.52-4.45,3.79-7.75,3.79
			c-2.65,0-4.8-0.71-6.47-2.13C373.33,482.64,372.33,480.73,372.01,478.34z"/>
	</g>
	<g>
		<path class="st0" d="M56.19,55.47V26.84h5.78v28.63H56.19z"/>
		<path class="st0" d="M66.02,46.15l5.62-0.55c0.34,1.88,1.02,3.27,2.06,4.16c1.04,0.89,2.43,1.33,4.19,1.33
			c1.86,0,3.26-0.4,4.21-1.18c0.94-0.79,1.41-1.71,1.41-2.76c0-0.68-0.2-1.26-0.59-1.73c-0.4-0.47-1.09-0.89-2.08-1.23
			c-0.68-0.24-2.22-0.65-4.63-1.26c-3.1-0.76-5.27-1.71-6.52-2.83c-1.76-1.57-2.64-3.49-2.64-5.76c0-1.46,0.42-2.82,1.24-4.09
			c0.83-1.28,2.02-2.24,3.58-2.91c1.56-0.66,3.43-0.99,5.64-0.99c3.59,0,6.3,0.78,8.11,2.36s2.77,3.68,2.86,6.3l-5.78,0.26
			c-0.25-1.47-0.78-2.53-1.59-3.18c-0.81-0.64-2.03-0.96-3.66-0.96c-1.68,0-3,0.34-3.94,1.03c-0.61,0.44-0.92,1.04-0.92,1.78
			c0,0.68,0.29,1.26,0.86,1.74c0.73,0.61,2.5,1.25,5.31,1.91c2.81,0.66,4.89,1.35,6.24,2.06c1.35,0.71,2.4,1.68,3.17,2.91
			c0.76,1.23,1.15,2.75,1.15,4.56c0,1.64-0.46,3.17-1.37,4.61c-0.91,1.43-2.2,2.5-3.87,3.19c-1.66,0.7-3.74,1.04-6.23,1.04
			c-3.62,0-6.39-0.83-8.34-2.5C67.55,51.79,66.39,49.35,66.02,46.15z"/>
		<path class="st0" d="M118.1,55.47h-5.49V34.79c-2.01,1.88-4.37,3.26-7.09,4.16v-4.98c1.43-0.47,2.99-1.36,4.67-2.67
			c1.68-1.31,2.83-2.83,3.45-4.58h4.46V55.47z"/>
		<path class="st0" d="M126.1,47.87l5.31-0.65c0.17,1.36,0.62,2.39,1.36,3.1c0.74,0.72,1.64,1.08,2.7,1.08
			c1.13,0,2.09-0.43,2.87-1.29c0.77-0.86,1.16-2.02,1.16-3.48c0-1.38-0.38-2.47-1.11-3.28c-0.74-0.81-1.65-1.21-2.72-1.21
			c-0.7,0-1.54,0.14-2.52,0.41l0.6-4.47c1.49,0.03,2.62-0.29,3.4-0.97c0.78-0.68,1.17-1.59,1.17-2.72c0-0.96-0.29-1.73-0.86-2.31
			c-0.57-0.57-1.33-0.86-2.29-0.86c-0.93,0-1.73,0.33-2.4,0.98c-0.66,0.65-1.06,1.6-1.21,2.85l-5.06-0.86
			c0.35-1.73,0.89-3.11,1.6-4.15c0.71-1.04,1.7-1.85,2.97-2.44c1.27-0.59,2.69-0.89,4.26-0.89c2.69,0,4.86,0.86,6.48,2.58
			c1.34,1.41,2.01,3,2.01,4.76c0,2.51-1.37,4.52-4.12,6.02c1.64,0.35,2.95,1.14,3.94,2.36c0.98,1.22,1.47,2.7,1.47,4.43
			c0,2.51-0.91,4.65-2.75,6.42c-1.84,1.77-4.12,2.66-6.86,2.66c-2.59,0-4.74-0.75-6.45-2.24C127.36,52.23,126.37,50.28,126.1,47.87z
			"/>
		<path class="st0" d="M167.07,50.37v5.1h-19.23c0.2-1.92,0.83-3.75,1.88-5.48c1.04-1.73,3.1-4.01,6.17-6.86
			c2.48-2.31,3.99-3.87,4.55-4.69c0.76-1.13,1.13-2.25,1.13-3.36c0-1.22-0.33-2.16-0.98-2.82c-0.66-0.65-1.57-0.98-2.73-0.98
			c-1.15,0-2.05,0.34-2.73,1.03c-0.68,0.7-1.07,1.84-1.17,3.44l-5.47-0.55c0.33-3.02,1.35-5.19,3.07-6.5
			c1.72-1.32,3.86-1.97,6.44-1.97c2.82,0,5.05,0.76,6.66,2.29c1.62,1.52,2.42,3.42,2.42,5.68c0,1.29-0.23,2.51-0.69,3.68
			c-0.46,1.17-1.19,2.39-2.2,3.66c-0.67,0.85-1.86,2.06-3.6,3.65s-2.83,2.64-3.29,3.17c-0.46,0.52-0.84,1.02-1.13,1.52H167.07z"/>
		<path class="st0" d="M170.86,48.11l5.47-0.57c0.16,1.23,0.61,2.22,1.39,2.94c0.77,0.72,1.65,1.08,2.65,1.08
			c1.15,0,2.12-0.47,2.91-1.4c0.79-0.93,1.19-2.33,1.19-4.21c0-1.75-0.39-3.08-1.18-3.95c-0.78-0.88-1.81-1.32-3.08-1.32
			c-1.57,0-2.98,0.7-4.24,2.09l-4.45-0.65l2.81-14.9h14.51v5.14H178.5l-0.86,4.86c1.22-0.61,2.47-0.92,3.75-0.92
			c2.44,0,4.5,0.89,6.19,2.65c1.69,1.77,2.54,4.07,2.54,6.9c0,2.35-0.69,4.46-2.05,6.3c-1.86,2.52-4.45,3.79-7.75,3.79
			c-2.65,0-4.8-0.71-6.47-2.13C172.18,52.41,171.19,50.5,170.86,48.11z"/>
		<path class="st0" d="M211.56,50.37v5.1h-19.23c0.2-1.92,0.83-3.75,1.88-5.48c1.04-1.73,3.1-4.01,6.17-6.86
			c2.48-2.31,3.99-3.87,4.55-4.69c0.76-1.13,1.13-2.25,1.13-3.36c0-1.22-0.33-2.16-0.98-2.82c-0.66-0.65-1.57-0.98-2.73-0.98
			c-1.15,0-2.05,0.34-2.73,1.03c-0.68,0.7-1.07,1.84-1.17,3.44l-5.47-0.55c0.33-3.02,1.35-5.19,3.07-6.5
			c1.72-1.32,3.86-1.97,6.44-1.97c2.82,0,5.05,0.76,6.66,2.29c1.62,1.52,2.42,3.42,2.42,5.68c0,1.29-0.23,2.51-0.69,3.68
			c-0.46,1.17-1.19,2.39-2.2,3.66c-0.67,0.85-1.86,2.06-3.6,3.65c-1.73,1.59-2.83,2.64-3.29,3.17c-0.46,0.52-0.84,1.02-1.13,1.52
			H211.56z"/>
		<path class="st0" d="M236.65,63.89h-3.77c-1.99-3.01-3.51-6.13-4.55-9.37c-1.04-3.24-1.56-6.38-1.56-9.42
			c0-3.76,0.65-7.32,1.94-10.68c1.12-2.92,2.54-5.61,4.26-8.06h3.75c-1.78,3.94-3.01,7.3-3.68,10.06c-0.68,2.76-1.01,5.7-1.01,8.79
			c0,2.14,0.2,4.33,0.59,6.56c0.4,2.24,0.94,4.37,1.63,6.39C234.7,59.49,235.5,61.4,236.65,63.89z"/>
		<path class="st0" d="M240.9,55.47V26.84h9.28c3.51,0,5.81,0.14,6.87,0.43c1.64,0.43,3.02,1.36,4.12,2.8
			c1.11,1.44,1.66,3.3,1.66,5.57c0,1.75-0.32,3.23-0.96,4.43c-0.63,1.19-1.45,2.14-2.43,2.82s-1.98,1.14-3,1.36
			c-1.39,0.27-3.38,0.41-6,0.41h-3.77v10.8H240.9z M246.69,31.68v8.13h3.16c2.28,0,3.8-0.15,4.57-0.45c0.77-0.3,1.37-0.77,1.81-1.41
			c0.44-0.64,0.65-1.39,0.65-2.23c0-1.04-0.31-1.9-0.92-2.57c-0.61-0.68-1.39-1.11-2.32-1.28c-0.7-0.13-2.08-0.19-4.16-0.19H246.69z
			"/>
		<path class="st0" d="M290.43,55.47h-6.28l-2.5-6.5H270.2l-2.36,6.5h-6.13l11.15-28.63h6.11L290.43,55.47z M279.78,44.14
			l-3.94-10.62l-3.86,10.62H279.78z"/>
		<path class="st0" d="M293.51,55.47V26.84h12.17c3.06,0,5.29,0.26,6.67,0.77c1.39,0.52,2.5,1.43,3.33,2.74
			c0.83,1.32,1.25,2.82,1.25,4.51c0,2.15-0.63,3.92-1.9,5.32c-1.26,1.4-3.15,2.29-5.66,2.65c1.26,0.73,2.29,1.53,3.1,2.4
			s1.91,2.42,3.29,4.65l3.5,5.59h-6.92l-4.18-6.23c-1.49-2.22-2.5-3.63-3.05-4.21c-0.55-0.58-1.13-0.98-1.73-1.19
			c-0.61-0.22-1.58-0.33-2.91-0.33h-1.17v11.95H293.51z M299.3,38.95h4.27c2.78,0,4.51-0.12,5.2-0.35c0.69-0.23,1.23-0.63,1.62-1.21
			c0.39-0.57,0.59-1.29,0.59-2.15c0-0.96-0.26-1.74-0.77-2.33c-0.51-0.59-1.24-0.97-2.18-1.13c-0.47-0.06-1.88-0.1-4.22-0.1h-4.51
			V38.95z"/>
		<path class="st0" d="M328.82,55.47V31.68h-8.49v-4.84h22.75v4.84h-8.47v23.78H328.82z"/>
		<path class="st0" d="M370.74,55.47h-5.49V34.79c-2.01,1.88-4.37,3.26-7.09,4.16v-4.98c1.43-0.47,2.99-1.36,4.67-2.67
			s2.83-2.83,3.45-4.58h4.46V55.47z"/>
		<path class="st0" d="M378.59,63.89c1.08-2.32,1.84-4.1,2.29-5.34c0.44-1.23,0.85-2.66,1.23-4.28c0.38-1.61,0.65-3.15,0.84-4.6
			c0.18-1.45,0.27-2.93,0.27-4.46c0-3.1-0.33-6.03-1-8.79c-0.66-2.76-1.89-6.12-3.67-10.06h3.73c1.97,2.8,3.49,5.77,4.58,8.9
			c1.08,3.14,1.63,6.32,1.63,9.55c0,2.72-0.43,5.64-1.29,8.75c-0.98,3.49-2.59,6.93-4.82,10.33H378.59z"/>
		<path class="st0" d="M394.49,40.22v-5.49h5.49v5.49H394.49z M394.49,55.47v-5.49h5.49v5.49H394.49z"/>
		<path class="st0" d="M424.11,50.37v5.1h-19.23c0.2-1.92,0.83-3.75,1.88-5.48c1.04-1.73,3.1-4.01,6.17-6.86
			c2.48-2.31,3.99-3.87,4.55-4.69c0.76-1.13,1.13-2.25,1.13-3.36c0-1.22-0.33-2.16-0.98-2.82c-0.66-0.65-1.57-0.98-2.73-0.98
			c-1.15,0-2.05,0.34-2.73,1.03c-0.68,0.7-1.07,1.84-1.17,3.44l-5.47-0.55c0.33-3.02,1.35-5.19,3.07-6.5s3.86-1.97,6.44-1.97
			c2.82,0,5.05,0.76,6.66,2.29c1.62,1.52,2.42,3.42,2.42,5.68c0,1.29-0.23,2.51-0.69,3.68c-0.46,1.17-1.19,2.39-2.2,3.66
			c-0.67,0.85-1.86,2.06-3.6,3.65c-1.73,1.59-2.83,2.64-3.29,3.17c-0.46,0.52-0.84,1.02-1.13,1.52H424.11z"/>
		<path class="st0" d="M437.1,26.72c2.77,0,4.94,0.99,6.5,2.97c1.86,2.34,2.79,6.23,2.79,11.66c0,5.41-0.93,9.31-2.81,11.67
			c-1.55,1.95-3.71,2.93-6.48,2.93c-2.79,0-5.04-1.07-6.74-3.21c-1.71-2.14-2.56-5.96-2.56-11.46c0-5.39,0.94-9.27,2.81-11.64
			C432.16,27.7,434.33,26.72,437.1,26.72z M437.1,31.27c-0.67,0-1.26,0.21-1.78,0.63s-0.92,1.18-1.21,2.27
			c-0.38,1.42-0.57,3.81-0.57,7.17c0,3.36,0.16,5.66,0.5,6.92c0.34,1.26,0.76,2.09,1.28,2.51c0.51,0.42,1.1,0.63,1.77,0.63
			c0.66,0,1.26-0.21,1.77-0.63s0.92-1.19,1.21-2.28c0.38-1.41,0.57-3.79,0.57-7.14c0-3.36-0.16-5.67-0.5-6.93
			c-0.34-1.26-0.76-2.09-1.28-2.52C438.35,31.49,437.76,31.27,437.1,31.27z"/>
		<path class="st0" d="M464.11,55.47h-5.49V34.79c-2.01,1.88-4.37,3.26-7.09,4.16v-4.98c1.43-0.47,2.99-1.36,4.67-2.67
			s2.83-2.83,3.45-4.58h4.46V55.47z"/>
		<path class="st0" d="M481.59,26.72c2.77,0,4.94,0.99,6.5,2.97c1.86,2.34,2.79,6.23,2.79,11.66c0,5.41-0.93,9.31-2.81,11.67
			c-1.55,1.95-3.71,2.93-6.48,2.93c-2.79,0-5.04-1.07-6.74-3.21c-1.71-2.14-2.56-5.96-2.56-11.46c0-5.39,0.94-9.27,2.81-11.64
			C476.65,27.7,478.81,26.72,481.59,26.72z M481.59,31.27c-0.67,0-1.26,0.21-1.78,0.63c-0.52,0.42-0.92,1.18-1.21,2.27
			c-0.38,1.42-0.57,3.81-0.57,7.17c0,3.36,0.16,5.66,0.5,6.92c0.34,1.26,0.76,2.09,1.28,2.51c0.51,0.42,1.1,0.63,1.77,0.63
			c0.66,0,1.26-0.21,1.77-0.63s0.92-1.19,1.21-2.28c0.38-1.41,0.57-3.79,0.57-7.14c0-3.36-0.16-5.67-0.5-6.93
			c-0.34-1.26-0.76-2.09-1.28-2.52C482.84,31.49,482.25,31.27,481.59,31.27z"/>
		<path class="st0" d="M492.79,55.96l7.09-29.6H504l-7.16,29.6H492.79z"/>
		<path class="st0" d="M118.03,103.46V74.83h5.78v28.63H118.03z"/>
		<path class="st0" d="M129.31,103.46V74.83h21.23v4.84H135.1v6.35h14.37v4.82H135.1v7.79h15.99v4.82H129.31z"/>
		<path class="st0" d="M174.3,92.93l5.61,1.78c-0.86,3.12-2.29,5.44-4.29,6.96c-2,1.51-4.53,2.28-7.6,2.28
			c-3.81,0-6.93-1.3-9.37-3.9c-2.45-2.6-3.67-6.15-3.67-10.66c0-4.76,1.23-8.47,3.69-11.1c2.46-2.63,5.69-3.95,9.7-3.95
			c3.5,0,6.35,1.03,8.54,3.1c1.3,1.22,2.28,2.98,2.93,5.27l-5.72,1.37c-0.34-1.49-1.05-2.66-2.12-3.51
			c-1.07-0.86-2.38-1.29-3.92-1.29c-2.12,0-3.84,0.76-5.16,2.29c-1.32,1.52-1.98,3.98-1.98,7.4c0,3.62,0.65,6.2,1.95,7.74
			c1.3,1.54,3,2.3,5.08,2.3c1.54,0,2.86-0.48,3.96-1.46S173.83,95.03,174.3,92.93z"/>
		<path class="st0" d="M213.36,81.84l-5.31,0.58c-0.13-1.09-0.46-1.9-1.02-2.42c-0.55-0.53-1.26-0.78-2.13-0.78
			c-1.15,0-2.14,0.52-2.93,1.56c-0.81,1.04-1.31,3.21-1.51,6.5c1.36-1.61,3.06-2.42,5.1-2.42c2.29,0,4.25,0.87,5.89,2.62
			c1.63,1.74,2.45,4,2.45,6.75c0,2.93-0.86,5.28-2.58,7.05c-1.72,1.77-3.92,2.66-6.62,2.66c-2.89,0-5.27-1.13-7.13-3.37
			c-1.86-2.24-2.79-5.93-2.79-11.05c0-5.25,0.97-9.03,2.91-11.35c1.94-2.31,4.46-3.47,7.56-3.47c2.18,0,3.98,0.61,5.4,1.82
			C212.06,77.76,212.97,79.52,213.36,81.84z M200.93,93.81c0,1.79,0.41,3.16,1.23,4.13c0.82,0.98,1.76,1.46,2.81,1.46
			c1.02,0,1.86-0.4,2.54-1.19c0.68-0.79,1.02-2.09,1.02-3.9c0-1.86-0.36-3.23-1.09-4.09c-0.73-0.87-1.64-1.3-2.74-1.3
			c-1.06,0-1.94,0.41-2.67,1.23C201.29,90.98,200.93,92.2,200.93,93.81z"/>
		<path class="st0" d="M226.29,74.71c2.77,0,4.94,0.99,6.5,2.97c1.86,2.34,2.79,6.23,2.79,11.66c0,5.41-0.93,9.31-2.81,11.67
			c-1.55,1.95-3.71,2.93-6.48,2.93c-2.79,0-5.04-1.07-6.74-3.21c-1.71-2.14-2.56-5.96-2.56-11.46c0-5.39,0.94-9.27,2.81-11.64
			C221.35,75.69,223.52,74.71,226.29,74.71z M226.29,79.26c-0.67,0-1.26,0.21-1.78,0.63c-0.52,0.42-0.92,1.18-1.21,2.27
			c-0.38,1.42-0.57,3.81-0.57,7.17c0,3.36,0.16,5.66,0.5,6.92c0.34,1.26,0.76,2.09,1.28,2.51c0.51,0.42,1.1,0.63,1.77,0.63
			c0.66,0,1.26-0.21,1.77-0.63c0.52-0.42,0.92-1.19,1.21-2.28c0.38-1.41,0.57-3.79,0.57-7.14c0-3.36-0.16-5.67-0.5-6.93
			c-0.34-1.26-0.76-2.09-1.28-2.52C227.54,79.48,226.95,79.26,226.29,79.26z"/>
		<path class="st0" d="M239.37,96.84l5.31-0.59c0.13,1.08,0.46,1.88,1.02,2.4c0.55,0.52,1.27,0.78,2.16,0.78
			c1.13,0,2.09-0.52,2.89-1.56c0.79-1.04,1.3-3.2,1.52-6.48c-1.38,1.6-3.1,2.4-5.17,2.4c-2.26,0-4.2-0.87-5.83-2.61
			c-1.63-1.74-2.45-4-2.45-6.78c0-2.91,0.86-5.25,2.59-7.02c1.73-1.78,3.92-2.67,6.59-2.67c2.91,0,5.29,1.12,7.15,3.37
			c1.86,2.24,2.79,5.94,2.79,11.08c0,5.23-0.97,9.01-2.91,11.33c-1.94,2.32-4.47,3.47-7.58,3.47c-2.24,0-4.05-0.59-5.43-1.78
			C240.65,100.99,239.76,99.21,239.37,96.84z M251.8,84.85c0-1.77-0.41-3.14-1.22-4.12c-0.82-0.98-1.76-1.46-2.82-1.46
			c-1.02,0-1.86,0.4-2.53,1.2c-0.67,0.8-1,2.11-1,3.94c0,1.84,0.36,3.2,1.09,4.07c0.73,0.87,1.64,1.3,2.74,1.3
			c1.06,0,1.94-0.42,2.67-1.26C251.43,87.68,251.8,86.46,251.8,84.85z"/>
		<path class="st0" d="M261.57,96.1l5.47-0.57c0.16,1.23,0.61,2.22,1.39,2.94c0.77,0.72,1.65,1.08,2.65,1.08
			c1.15,0,2.12-0.47,2.91-1.4c0.79-0.93,1.19-2.33,1.19-4.21c0-1.75-0.39-3.08-1.18-3.95c-0.78-0.88-1.81-1.32-3.08-1.32
			c-1.57,0-2.98,0.7-4.24,2.09l-4.45-0.65l2.81-14.9h14.51v5.14h-10.35l-0.86,4.86c1.22-0.61,2.47-0.92,3.75-0.92
			c2.44,0,4.5,0.89,6.19,2.65c1.69,1.77,2.54,4.07,2.54,6.9c0,2.35-0.69,4.46-2.05,6.3c-1.86,2.52-4.45,3.79-7.75,3.79
			c-2.65,0-4.8-0.71-6.47-2.13C262.9,100.4,261.9,98.49,261.57,96.1z"/>
		<path class="st0" d="M293.02,74.71c2.77,0,4.94,0.99,6.5,2.97c1.86,2.34,2.79,6.23,2.79,11.66c0,5.41-0.93,9.31-2.81,11.67
			c-1.55,1.95-3.71,2.93-6.48,2.93c-2.79,0-5.04-1.07-6.74-3.21c-1.71-2.14-2.56-5.96-2.56-11.46c0-5.39,0.94-9.27,2.81-11.64
			C288.08,75.69,290.24,74.71,293.02,74.71z M293.02,79.26c-0.67,0-1.26,0.21-1.78,0.63s-0.92,1.18-1.21,2.27
			c-0.38,1.42-0.57,3.81-0.57,7.17c0,3.36,0.16,5.66,0.5,6.92c0.34,1.26,0.76,2.09,1.28,2.51c0.51,0.42,1.1,0.63,1.77,0.63
			c0.66,0,1.26-0.21,1.77-0.63s0.92-1.19,1.21-2.28c0.38-1.41,0.57-3.79,0.57-7.14c0-3.36-0.16-5.67-0.5-6.93
			c-0.34-1.26-0.76-2.09-1.28-2.52C294.27,79.48,293.68,79.26,293.02,79.26z"/>
		<path class="st0" d="M306.53,95.82v-5.49h10.78v5.49H306.53z"/>
		<path class="st0" d="M333.34,103.46h-5.49V82.78c-2.01,1.88-4.37,3.26-7.09,4.16v-4.98c1.43-0.47,2.99-1.36,4.67-2.67
			c1.68-1.31,2.83-2.83,3.45-4.58h4.46V103.46z"/>
		<path class="st0" d="M343.77,88.21v-5.49h5.49v5.49H343.77z M343.77,103.46v-5.49h5.49v5.49H343.77z"/>
		<path class="st0" d="M373.39,98.36v5.1h-19.23c0.2-1.92,0.83-3.75,1.88-5.48c1.04-1.73,3.1-4.01,6.17-6.86
			c2.48-2.31,3.99-3.87,4.55-4.69c0.76-1.13,1.13-2.25,1.13-3.36c0-1.22-0.33-2.16-0.98-2.82c-0.66-0.65-1.57-0.98-2.73-0.98
			c-1.15,0-2.05,0.34-2.73,1.03c-0.68,0.7-1.07,1.84-1.17,3.44l-5.47-0.55c0.33-3.02,1.35-5.19,3.07-6.5
			c1.72-1.32,3.86-1.97,6.44-1.97c2.82,0,5.05,0.76,6.66,2.29c1.62,1.52,2.42,3.42,2.42,5.68c0,1.29-0.23,2.51-0.69,3.68
			c-0.46,1.17-1.19,2.39-2.2,3.66c-0.67,0.85-1.86,2.06-3.6,3.65c-1.73,1.59-2.83,2.64-3.29,3.17c-0.46,0.52-0.84,1.02-1.13,1.52
			H373.39z"/>
		<path class="st0" d="M386.38,74.71c2.77,0,4.94,0.99,6.5,2.97c1.86,2.34,2.79,6.23,2.79,11.66c0,5.41-0.93,9.31-2.81,11.67
			c-1.55,1.95-3.71,2.93-6.48,2.93c-2.79,0-5.04-1.07-6.74-3.21s-2.56-5.96-2.56-11.46c0-5.39,0.94-9.27,2.81-11.64
			C381.44,75.69,383.61,74.71,386.38,74.71z M386.38,79.26c-0.67,0-1.26,0.21-1.78,0.63c-0.52,0.42-0.92,1.18-1.21,2.27
			c-0.38,1.42-0.57,3.81-0.57,7.17c0,3.36,0.16,5.66,0.5,6.92c0.34,1.26,0.76,2.09,1.28,2.51c0.51,0.42,1.1,0.63,1.77,0.63
			c0.66,0,1.26-0.21,1.77-0.63c0.52-0.42,0.92-1.19,1.21-2.28c0.38-1.41,0.57-3.79,0.57-7.14c0-3.36-0.16-5.67-0.5-6.93
			c-0.34-1.26-0.76-2.09-1.28-2.52C387.63,79.48,387.04,79.26,386.38,79.26z"/>
		<path class="st0" d="M408.62,74.71c2.77,0,4.94,0.99,6.5,2.97c1.86,2.34,2.79,6.23,2.79,11.66c0,5.41-0.93,9.31-2.81,11.67
			c-1.55,1.95-3.71,2.93-6.48,2.93c-2.79,0-5.04-1.07-6.74-3.21s-2.56-5.96-2.56-11.46c0-5.39,0.94-9.27,2.81-11.64
			C403.68,75.69,405.85,74.71,408.62,74.71z M408.62,79.26c-0.67,0-1.26,0.21-1.78,0.63s-0.92,1.18-1.21,2.27
			c-0.38,1.42-0.57,3.81-0.57,7.17c0,3.36,0.16,5.66,0.5,6.92c0.34,1.26,0.76,2.09,1.28,2.51c0.51,0.42,1.1,0.63,1.77,0.63
			c0.66,0,1.26-0.21,1.77-0.63c0.52-0.42,0.92-1.19,1.21-2.28c0.38-1.41,0.57-3.79,0.57-7.14c0-3.36-0.16-5.67-0.5-6.93
			c-0.34-1.26-0.76-2.09-1.28-2.52C409.87,79.48,409.29,79.26,408.62,79.26z"/>
		<path class="st0" d="M421.66,96.1l5.47-0.57c0.16,1.23,0.61,2.22,1.39,2.94c0.77,0.72,1.65,1.08,2.65,1.08
			c1.15,0,2.12-0.47,2.91-1.4c0.79-0.93,1.19-2.33,1.19-4.21c0-1.75-0.39-3.08-1.18-3.95c-0.78-0.88-1.81-1.32-3.08-1.32
			c-1.57,0-2.98,0.7-4.24,2.09l-4.45-0.65l2.81-14.9h14.51v5.14H429.3l-0.86,4.86c1.22-0.61,2.47-0.92,3.75-0.92
			c2.44,0,4.5,0.89,6.19,2.65c1.69,1.77,2.54,4.07,2.54,6.9c0,2.35-0.69,4.46-2.05,6.3c-1.86,2.52-4.45,3.79-7.75,3.79
			c-2.65,0-4.8-0.71-6.47-2.13C422.99,100.4,421.99,98.49,421.66,96.1z"/>
	</g>
</g>
</svg>
