<?xml version="1.0" encoding="utf-8"?>
<!-- Generator: Adobe Illustrator 27.0.0, SVG Export Plug-In . SVG Version: 6.00 Build 0)  -->
<svg version="1.1" id="Layer_1" xmlns="http://www.w3.org/2000/svg" xmlns:xlink="http://www.w3.org/1999/xlink" x="0px" y="0px"
	 viewBox="0 0 573 499" style="enable-background:new 0 0 573 499;" xml:space="preserve">
<style type="text/css">
	.st0{clip-path:url(#SVGID_00000091005340344131188100000007845459834344150716_);fill:#FFFFFF;}
	.st1{clip-path:url(#SVGID_00000091005340344131188100000007845459834344150716_);fill:#1D9FDA;}
	.st2{clip-path:url(#SVGID_00000091005340344131188100000007845459834344150716_);fill:#4E493E;}
	.st3{clip-path:url(#SVGID_00000091005340344131188100000007845459834344150716_);fill:#199BD7;}
	.st4{clip-path:url(#SVGID_00000091005340344131188100000007845459834344150716_);fill:#2D9448;}
	.st5{clip-path:url(#SVGID_00000091005340344131188100000007845459834344150716_);fill:#2B2A29;}
	.st6{clip-path:url(#SVGID_00000091005340344131188100000007845459834344150716_);fill:#FACA0C;}
	.st7{clip-path:url(#SVGID_00000091005340344131188100000007845459834344150716_);fill:#E2097F;}
</style>
<g>
	<defs>
		<rect id="SVGID_1_" x="17" y="23.67" width="520.34" height="520.34"/>
	</defs>
	<clipPath id="SVGID_00000177481408697323693160000003431015987404386233_">
		<use xlink:href="#SVGID_1_"  style="overflow:visible;"/>
	</clipPath>
	<path style="clip-path:url(#SVGID_00000177481408697323693160000003431015987404386233_);fill:#FFFFFF;" d="M528.16,132.23
		c-0.8,2.5-1.13,5.1-2.02,7.6c-2.54,7.11-7.02,12.67-12.96,17.16c-4.71,3.55-10.06,5.77-15.84,6.58
		c-10.71,1.49-20.43-0.95-28.95-7.86c-6.63-5.38-10.82-12.24-12.67-20.49c-1.08-4.78-1.11-9.6-0.19-14.49c1.3-6.96,4.2-12.99,9-18.2
		c5.92-6.42,13.08-10.38,21.78-11.49c0.13-0.02,0.23-0.2,0.35-0.31h10.12c2.11,0.53,4.26,0.91,6.31,1.62
		c6.75,2.34,12.54,6.09,17.06,11.76c3.2,4.01,5.48,8.44,6.91,13.33c0.45,1.54,0.75,3.13,1.12,4.69V132.23z M523.63,127.2
		c0.18-17.88-14.4-30.94-29.45-31.95c-20.63-1.38-34.31,14.93-34.7,30.87c-0.47,19.13,14.46,32.79,31.25,33.27
		C508.84,159.92,524.06,144.83,523.63,127.2"/>
	<path style="clip-path:url(#SVGID_00000177481408697323693160000003431015987404386233_);fill:#1D9FDA;" d="M226.95,335.96
		c-0.62,1.52-1.49,2.89-2.46,4.19c-0.56-0.6,0-1.17,0.11-1.72c0.56-2.87,1.64-5.62,1.94-8.56c0.01-1.66,0.03-3.31,0.04-4.97
		c0.46,2.98,0.16,5.99,0.28,8.98C226.88,334.58,226.92,335.27,226.95,335.96"/>
	<path style="clip-path:url(#SVGID_00000177481408697323693160000003431015987404386233_);fill:#4E493E;" d="M359.48,309.41
		c-0.17-0.68,0.29-1.06,0.68-1.48c0.12,0.13,0.24,0.25,0.36,0.38C360.29,308.78,359.97,309.17,359.48,309.41"/>
	<path style="clip-path:url(#SVGID_00000177481408697323693160000003431015987404386233_);fill:#FFFFFF;" d="M436.43,222.31
		c2.6-12.43,4.83-27.33,1.72-43.62c-5.94-31.16-24.35-55.15-53.22-69.36c-12.96-6.38-26.48-9.62-40.17-9.62
		c-6.63,0-13.36,0.77-20,2.29c-8.75,2-16.89,5.33-24.36,9.94c-4.4-4.04-9.25-7.55-14.43-10.49l-8.33-4.09
		c-9.42-3.96-19.63-6.11-30.05-6.11c-4.51,0-9.03,0.4-13.45,1.2c-12.64,2.27-23.63,7.16-32.65,14.51
		c-4.18,3.41-7.9,7.33-11.15,11.71c-19.64-20.58-43.1-31.02-69.77-31.02c-3.75,0-7.6,0.22-11.44,0.64
		c-25.68,2.84-47.8,14.73-63.96,34.39c-15.29,18.6-21.54,40.97-18.07,64.72c1.94,13.26,6.5,26.37,13.96,40.07
		c8.78,16.13,20.63,31.68,37.29,48.94c5.84,6.05,11.89,11.52,17.73,16.82c2.87,2.6,5.59,5.06,8.27,7.57
		c9.86,9.24,19.41,19.19,28.57,29.73c-4.5,0.81-9.04,2.15-13.56,4c-11.8,4.83-22.4,12.91-32.43,24.69
		c-15.84,18.61-23.32,39.33-22.23,61.59c1.03,21,12.03,37.7,31,47.03c7.78,3.82,16.32,5.76,25.39,5.76c5.51,0,11.19-0.69,17.35-2.12
		c5.83-1.35,11.11-3.36,15.92-5.71c4.78,3.76,10.35,6.5,16.57,8.1c4.14,1.06,8.44,1.6,12.79,1.6c3.28,0,6.65-0.31,10.02-0.91
		c6.33-1.14,12.32-3.25,18.06-6.37c6.39,4.82,13.94,7.79,22.22,8.64c1.92,0.2,3.88,0.3,5.81,0.3c8.01,0,16.1-1.71,24.07-5.09
		c8.9-3.77,16.21-8.98,22.04-14.04c0.44,0.13,0.89,0.25,1.33,0.36c7.26,9.61,17.18,16.26,29.18,19.46
		c5.52,1.47,11.2,2.22,16.87,2.22c9.57,0,19.28-2.12,28.86-6.3c14.48-6.32,25.99-15.84,36.27-25.18c5.21-4.73,8.07-11.2,8.05-18.21
		c0-2.91,0-5.82,0-8.73l0-9.93L396,396.47c2.39-3.62,3.93-7.78,4.46-12.19c1.39-11.58-1.45-22.29-8.22-30.97
		c-4.68-6.01-12.72-13.16-25.55-15.96c2.34-2.63,4.63-5.42,6.81-8.38c1.04-1.41,1.85-2.68,2.49-3.7c0.17-0.27,0.38-0.6,0.54-0.84
		c0.47-0.44,0.98-0.95,1.54-1.58c1.68-1.88,3.29-3.71,4.84-5.5l1.58-1.74l-0.02-0.07c6.39-7.43,11.75-14.15,16.56-20.74
		C415.07,275.56,430.25,251.9,436.43,222.31"/>
	<path style="clip-path:url(#SVGID_00000177481408697323693160000003431015987404386233_);fill:#199BD7;" d="M226.84,329.81
		c-7.57,1.47-15.45,3.03-23.03,4.49c-10.66,2.05-21.32,4.05-31.97,6.14c-1.15,0.23-1.76-0.06-2.45-0.96
		c-14.97-19.79-31.41-38.27-49.51-55.24c-8.39-7.87-17.19-15.31-25.19-23.6c-12.92-13.38-24.74-27.6-33.68-44.02
		c-5.56-10.22-9.75-20.94-11.44-32.5c-2.57-17.58,1.91-33.35,13.14-47.02c12.66-15.39,29.19-24.06,48.92-26.24
		c25.01-2.76,45.86,5.95,62.89,24.12c9.27,9.88,17.05,20.85,22.87,33.13c7.24,15.25,12.35,31.22,16.35,47.58
		c3.17,12.96,5.59,26.07,7.48,39.28c1.37,9.6,2.44,19.23,3.28,28.89c0.65,7.47,1.18,14.94,1.55,22.43
		c0.31,6.21,0.92,12.36,0.77,18.58C226.83,326.51,226.85,328.15,226.84,329.81"/>
	<path style="clip-path:url(#SVGID_00000177481408697323693160000003431015987404386233_);fill:#2D9448;" d="M383.79,418.75
		c0,3.88,0,7.75,0,11.63c0,0.56-0.21,0.99-0.62,1.37c-9.14,8.31-18.63,16.18-30.08,21.17c-9.9,4.32-20.21,5.78-30.8,2.95
		c-9.67-2.58-16.53-8.67-20.8-17.67c-0.56-1.18-1.06-1.47-2.43-1.35c-5.19,0.47-9.79-1.38-14.11-4.11c-1.2-0.76-2.23-2.48-3.52-2.16
		c-1.13,0.27-1.92,1.9-2.87,2.92c-6.8,7.28-14.26,13.68-23.54,17.62c-5.97,2.53-12.18,3.78-18.7,3.11
		c-7.71-0.79-13.26-4.83-17.18-11.36c-1.26-2.1-2.2-4.34-3.18-6.72c-1.88,1.8-3.65,3.6-5.52,5.27c-6,5.35-12.73,9.33-20.75,10.78
		c-4.4,0.79-8.81,0.78-13.15-0.33c-7.84-2.01-12.83-7.13-15.6-14.59c-0.22-0.59-0.41-1.2-0.68-2.01c-0.63,0.44-1.18,0.8-1.7,1.19
		c-7.71,5.68-15.78,10.7-25.26,12.9c-9.38,2.17-18.76,2.45-27.61-1.9c-11.43-5.62-17.72-15.04-18.34-27.76
		c-0.86-17.56,5.63-32.58,16.85-45.77c6.62-7.78,14.15-14.47,23.75-18.4c8-3.28,16.27-4.39,24.7-1.85
		c9.08,2.73,14.43,10.29,14.22,19.6c-0.07,3.07-1.27,5.39-4.08,6.75c-5.49,2.64-11.08,5.08-16.74,7.33
		c-2.74,1.09-3.69,0.26-3.31-2.72c0.35-2.82,0.84-5.63,1.3-8.43c0.42-2.61,0.49-5.2-0.19-7.78c-1.41-5.32-5.26-7.43-10.49-5.78
		c-3.66,1.16-6.31,3.67-8.58,6.58c-6.29,8.06-9.51,17.33-10.59,27.41c-0.69,6.41-0.66,12.79,1.44,18.97
		c2.86,8.44,8.18,14.45,17.32,16.07c7.26,1.29,14.03-0.4,20.45-3.94c3.67-2.02,5.92-4.18,6.14-9.06
		c0.76-16.65,6.81-32.01,12.75-47.34c1.4-3.62,2.94-7.2,4.36-10.81c0.41-1.06,0.92-1.63,2.17-1.82c9.35-1.38,18.69-2.86,28.05-4.31
		c0.21,0.79-0.22,1.33-0.42,1.89c-5.39,15.13-11.22,30.11-15.67,45.57c-2.04,7.09-3.96,14.2-4.53,21.6
		c-0.23,2.94,0.07,5.81,1.27,8.53c2.29,5.17,6.74,7.17,12.16,5.52c3.86-1.18,6.79-3.7,9.5-6.55c3.02-3.18,5.26-6.43,5.48-11.3
		c0.54-12.16,4-23.75,8.34-35.08c2.89-7.53,5.63-15.11,8.41-22.68c0.3-0.83,0.68-1.33,1.64-1.47c9.54-1.41,19.06-2.87,28.6-4.3
		c0.16-0.02,0.34,0.03,0.71,0.06c-1.21,3.37-2.41,6.67-3.56,9.98c-4.61,13.31-9.9,26.4-13.9,39.92c-2.03,6.86-3.66,13.82-3.36,21.06
		c0.05,1.21,0.19,2.44,0.47,3.62c1.77,7.54,7.78,10.72,15.34,8.18c3.1-1.04,5.66-2.92,8.05-5.06c3.47-3.11,6.5-6.64,9.51-10.19
		c0.8-0.95,0.47-1.63,0.05-2.48c-9.15-18.68-3.98-43.97,10.11-57.85c3.44-3.39,7.43-5.81,12.36-6.17c5.41-0.4,8.13,1.97,8.69,7.39
		c0.61,5.92-0.31,11.71-1.61,17.45c-3.2,14.06-9.64,26.69-17.34,38.73c-0.86,1.35-0.69,1.99,0.49,2.88
		c2.94,2.22,6.07,3.86,9.82,4.05c0.67,0.03,1.21,0.11,1.15-0.94c-0.73-12.87,2.55-24.74,9.17-35.7
		c6.09-10.08,13.88-18.63,23.81-25.07c7.82-5.07,16.38-7.66,25.76-7.04c6.78,0.45,12.67,2.85,16.96,8.36
		c3.29,4.23,4.21,9.1,3.58,14.31c-0.19,1.62-0.99,2.97-2.36,3.92c-0.72,0.49-1.45,0.99-2.23,1.34c-5.25,2.33-10.48,4.7-15.79,6.88
		c-2.94,1.21-4.04,0.21-3.55-2.95c0.48-3.1,1.02-6.19,1.48-9.29c0.39-2.63,0.22-5.22-0.71-7.73c-1.59-4.27-4.84-5.98-9.27-4.91
		c-4,0.97-6.87,3.58-9.32,6.67c-6.07,7.67-9.34,16.52-10.54,26.15c-0.82,6.61-0.99,13.24,1.05,19.69
		c2.9,9.18,8.56,15.55,18.54,16.91c6.96,0.95,13.52-0.61,19.56-4.2c6.34-3.77,11.84-8.59,17.14-13.67c0.62-0.6,1.04-1.4,1.56-2.11
		C383.58,418.44,383.69,418.6,383.79,418.75"/>
	<path style="clip-path:url(#SVGID_00000177481408697323693160000003431015987404386233_);fill:#2B2A29;" d="M303.59,184.81
		c0.72-6.09,0.26-12.13-0.69-18.16c-0.16-0.25-0.37-1.19-0.28-2.17c-0.62-6.97-2.58-13.56-5.57-19.86
		c8.72-10.35,19.5-17.46,32.77-20.5c15.68-3.58,30.78-1.47,45.08,5.57c22.32,10.99,36.27,28.67,40.95,53.25
		c2.22,11.66,0.77,23.17-1.64,34.73c-5.02,24.03-17.34,44.33-31.51,63.77c-6.68,9.16-13.99,17.83-21.54,26.28
		c-0.19,0.21-0.42,0.39-0.63,0.58c-0.12-0.13-0.24-0.25-0.36-0.38c0.56-0.95,1.12-1.89,1.67-2.84c6.6-11.33,9.59-23.51,7.64-36.53
		c-2.41-16.02-10.53-28.72-23.93-37.81c-11.57-7.85-24.27-10.64-38.06-7.21c-5.06,1.26-9.61,3.62-14.05,6.26
		c1.78-5.92,3.9-11.73,5.43-17.73c1.78-7,3.51-14.01,4.1-21.24c-0.54-1.42-0.34-1.68,0.29-1.85c0.02-0.44,0.04-0.87,0.06-1.31
		C303.11,186.57,303.26,185.46,303.59,184.81"/>
	<path style="clip-path:url(#SVGID_00000177481408697323693160000003431015987404386233_);fill:#FACA0C;" d="M293.43,229.8
		c4.44-2.64,8.99-5.01,14.05-6.26c13.79-3.43,26.49-0.65,38.06,7.21c13.4,9.09,21.52,21.79,23.93,37.81
		c1.96,13.02-1.04,25.2-7.64,36.53c-0.55,0.95-1.11,1.89-1.67,2.84c-0.39,0.42-0.85,0.81-0.68,1.48c-1.67,1.85-2.78,4.09-4.25,6.08
		c-7.81,10.59-17.59,19.11-28.07,26.9c-1.82,1.35-3.75,2.56-5.51,3.97c-1.16,0.94-2.06,0.82-3.22,0.03c-2.78-1.91-5.51-3.9-8-6.16
		c-5.49-5-11.66-5.45-18.34-3.1c-5.16,1.82-9.63,4.82-13.82,8.27c-0.47,0.39-0.82,1.04-1.76,0.85c1.49-4.42,2.98-8.82,4.59-13.57
		c-19.66,4.95-39.06,9.83-58.81,14.8c0.91-2.56,0.84-5.13,2.18-7.32c0.98-1.31,1.84-2.68,2.46-4.19c3.47-5.29,6.35-10.92,9.35-16.48
		c6.15-11.4,10.81-23.49,16.11-35.28c5.77-12.85,12.66-25.08,21.51-36.12c5.34-6.66,11.34-12.62,18.44-17.41
		C292.74,230.42,293.08,230.09,293.43,229.8"/>
	<path style="clip-path:url(#SVGID_00000177481408697323693160000003431015987404386233_);fill:#FFFFFF;" d="M498.08,129.77
		c6.16,4.25,8.5,11.2,12.98,17.11c-3.5,0-6.59,0.03-9.69-0.03c-0.59-0.01-0.85-0.63-1.18-1.12c-2.63-3.91-5.3-7.79-7.96-11.68
		c-1.96-2.86-4.73-3.92-8.11-3.23c-0.97,0.2-0.61,0.86-0.61,1.34c-0.03,4.36-0.09,8.72,0.02,13.08c0.04,1.45-0.45,1.75-1.75,1.67
		c-1.56-0.1-3.15-0.11-4.71,0c-1.29,0.1-1.64-0.28-1.64-1.6c0.06-11.45,0.03-22.91,0.03-34.36c0-3.14,0-3.14,3.18-3.14
		c5.87,0,11.75-0.12,17.62,0.05c3.14,0.09,6.25,0.64,8.51,3.26c3.1,3.6,3.55,7.71,2.04,12c-1.35,3.83-4.37,5.8-8.35,6.36
		C498.38,129.49,498.3,129.59,498.08,129.77 M489.88,114.79c-1.74,0-3.49,0.05-5.23-0.02c-0.93-0.04-1.19,0.26-1.17,1.18
		c0.06,2.32,0.09,4.65-0.01,6.97c-0.05,1.15,0.38,1.36,1.4,1.31c3.4-0.17,6.8,0.14,10.21-0.31c2.94-0.39,4.14-2.77,4.09-4.63
		c-0.07-2.57-1.84-4.46-4.41-4.48C493.14,114.77,491.51,114.79,489.88,114.79"/>
	<path style="clip-path:url(#SVGID_00000177481408697323693160000003431015987404386233_);fill:#E2097F;" d="M302.91,166.68
		c-0.12-0.95-0.29-2.3-0.29-2.3l0,0c-0.63-6.93-2.58-13.49-5.56-19.76c-0.97-1.71-1.88-3.47-2.94-5.13
		c-11.75-18.59-34.2-28.61-55.96-24.7c-17.55,3.16-29.89,12.94-36.23,29.81c-2.84,7.56-4.15,15.45-4.53,23.5
		c7.24,15.24,12.35,31.22,16.35,47.58c3.17,12.96,5.59,26.07,7.48,39.28c1.37,9.6,2.44,19.23,3.28,28.89
		c0.65,7.47,1.18,14.94,1.55,22.43c0.31,6.21,0.65,12.42,0.5,18.64c0.46,2.98,0.16,5.99,0.28,8.98c0.03,0.69-0.49,2.59-0.46,3.28
		c3.47-5.29,6.91-12.13,9.91-17.69c6.15-11.4,10.81-23.49,16.11-35.28c5.77-12.85,12.66-25.08,21.51-36.12
		c5.34-6.66,11.34-12.62,18.44-17.41c0.38-0.26,0.72-0.58,1.08-0.87c1.79-5.92,3.9-11.73,5.43-17.73
		c1.69-6.66,3.34-13.33,4.01-20.18c0.03-0.35,0.07-0.7,0.1-1.06c0.04-0.18,0.19-1.27,0.25-1.69c0.02-0.13,0.04-0.27,0.04-0.4
		l0.04-0.77c0.14-1.41,0.27-2.86,0.29-3.16C304.31,178.73,303.85,172.7,302.91,166.68"/>
</g>
</svg>
