<?xml version="1.0" encoding="utf-8"?>
<!-- Generator: Adobe Illustrator 27.0.0, SVG Export Plug-In . SVG Version: 6.00 Build 0)  -->
<svg version="1.1" id="Layer_1" xmlns="http://www.w3.org/2000/svg" xmlns:xlink="http://www.w3.org/1999/xlink" x="0px" y="0px"
	 viewBox="0 0 573 499" style="enable-background:new 0 0 573 499;" xml:space="preserve">
<g>
	<path d="M66.12,437.97c0-131.85,0-263.42,0-394.88c0.11-0.14,0.14-0.2,0.18-0.24c0.04-0.04,0.1-0.07,0.16-0.07
		c0.35-0.04,0.71-0.1,1.06-0.1c54.73,0,109.46,0.01,164.19,0.02c0.17,0,0.33,0.09,0.7,0.19c-0.31,0.5-0.55,0.94-0.84,1.35
		c-10.59,14.8-21.19,29.58-31.74,44.4c-0.73,1.03-1.54,1.27-2.69,1.27c-29.64-0.02-59.28-0.02-88.92-0.02c-0.77,0-1.54,0-2.43,0
		c0,43.17,0,86.18,0,129.26c24.88,0,49.66,0,74.61,0c0.15-1.11,0.32-2.22,0.46-3.32c4.46-35.2,17.36-66.98,38.8-95.24
		c18.73-24.69,42.06-43.9,69.82-57.69c15.28-7.59,31.32-13,48.04-16.37c7.03-1.42,14.13-2.4,21.29-3.03
		c8.9-0.78,17.8-1.05,26.72-0.59c30.9,1.6,59.91,9.83,86.88,25.05c24.81,14.01,45.59,32.58,62.47,55.52
		c0.35,0.47,0.66,0.96,1.08,1.57c-11.39,8.44-22.73,16.84-34.14,25.29c-0.38-0.46-0.7-0.8-0.97-1.17
		c-14.74-20.27-33.31-36.07-55.65-47.39c-12.49-6.33-25.63-10.82-39.4-13.45c-6.76-1.29-13.56-2.31-20.44-2.52
		c-5.44-0.16-10.9-0.46-16.33-0.18c-33.01,1.7-62.64,12.64-88.48,33.28c-26.91,21.49-44.8,48.98-53.62,82.3
		c-3.93,14.86-5.56,29.99-4.89,45.33c1.45,33.35,12.26,63.34,32.89,89.62c20.69,26.37,47.26,44.19,79.49,53.51
		c7.47,2.16,15.1,3.58,22.82,4.57c9.42,1.21,18.87,1.43,28.32,0.89c15-0.85,29.59-3.9,43.71-9.11
		c20.97-7.75,39.36-19.55,55.27-35.21c5.81-5.72,11.07-11.93,15.89-18.52c0.42-0.57,0.86-1.12,1.36-1.79
		c11.42,8.46,22.76,16.86,34.23,25.36c-18.4,25.43-41.31,45.55-69.06,60.03c-32.47,16.95-67.08,24.33-103.6,21.81
		c-47.71-3.29-89.05-21.57-123.46-54.75c-34.37-33.14-53.84-73.84-59.51-121.28c-24.82,0-49.59,0-74.51,0
		c-0.06,0.42-0.15,0.87-0.18,1.32c-0.03,0.54-0.01,1.08-0.01,1.62c0,47.18,0,94.35,0,141.53c0,0.54-0.03,1.08,0.01,1.62
		c0.07,0.86-0.26,1.43-0.97,1.95c-12.54,9.21-25.06,18.44-37.59,27.67C66.88,437.54,66.62,437.67,66.12,437.97z"/>
	<path d="M468.65,174.91c-11.45,8.48-22.78,16.88-34.14,25.29c-14.81-19.87-34.22-30.79-59.16-30.63
		c-19.71,0.12-36.46,7.63-50.08,21.8c-27.21,28.32-26.39,73.79,2.92,101.01c15.67,14.55,34.4,20.84,55.7,18.51
		c21.33-2.33,37.94-12.91,50.56-30.26c11.36,8.42,22.69,16.81,34.11,25.28c-0.28,0.49-0.47,0.91-0.74,1.28
		c-16.37,22.23-37.88,36.89-64.65,43.71c-9.9,2.52-20.01,3.61-30.23,3.23c-27.11-1.02-51.02-10.32-71.42-28.24
		c-16.95-14.89-28.38-33.31-34.46-55.03c-1.78-6.35-2.92-12.81-3.57-19.38c-0.67-6.75-0.75-13.51-0.19-20.25
		c1.45-17.24,6.39-33.43,15.23-48.34c13.68-23.06,33.07-39.43,58.12-49.01c8.35-3.19,17-5.21,25.88-6.3
		c7.1-0.87,14.21-1.09,21.32-0.58c23.64,1.72,44.75,10,63.25,24.86c7.98,6.41,14.93,13.8,20.89,22.13
		C468.19,174.2,468.35,174.45,468.65,174.91z"/>
</g>
</svg>
