<?xml version="1.0" encoding="utf-8"?>
<!-- Generator: Adobe Illustrator 27.0.0, SVG Export Plug-In . SVG Version: 6.00 Build 0)  -->
<svg version="1.1" id="Layer_1" xmlns="http://www.w3.org/2000/svg" xmlns:xlink="http://www.w3.org/1999/xlink" x="0px" y="0px"
	 viewBox="0 0 573 499" style="enable-background:new 0 0 573 499;" xml:space="preserve">
<style type="text/css">
	.st0{fill:#129F4A;}
	.st1{fill:#2BA151;}
</style>
<g id="ISO_14001">
	<path class="st0" d="M113,277.09c-0.15,18.72,1.61,36.77,5.46,54.6c1.36,6.3,2.97,12.54,4.88,18.69c0.61,1.98,0.45,2.22-1.55,2.17
		c-0.95-0.02-1.9-0.05-2.85-0.04c-7.99,0.08-15.98,0.16-23.97,0.24c-2.16,0.02-2.19,0.03-3.03-2.02
		c-3.72-9.02-6.86-18.22-9.22-27.69c-2.15-8.61-3.87-17.3-4.89-26.11c-1.6-13.87-1.91-27.76-0.72-41.68
		c0.73-8.55,1.97-17.02,3.73-25.41c2.15-10.27,5.16-20.3,8.85-30.11c3.2-8.51,7.07-16.73,11.44-24.7
		c5.22-9.52,11.08-18.63,17.76-27.19c5.36-6.87,11.1-13.42,17.28-19.58c7.96-7.92,16.49-15.16,25.6-21.71
		c7.85-5.65,16.12-10.63,24.71-15.09c9.9-5.14,20.16-9.43,30.77-12.88c13-4.22,26.29-7.06,39.87-8.61
		c9.85-1.12,19.72-1.53,29.62-1.22c11.59,0.37,23.07,1.66,34.44,4.01c10.35,2.14,20.47,5,30.37,8.72
		c11.34,4.27,22.21,9.43,32.64,15.61c10.69,6.33,20.65,13.61,30.05,21.72c9.57,8.25,18.17,17.42,26.04,27.28
		c6.32,7.91,11.87,16.34,16.96,25.09c4.31,7.42,8.11,15.1,11.41,23.01c3.36,8.05,6.09,16.32,8.4,24.74
		c2.31,8.42,4.03,16.96,5.22,25.6c0.98,7.12,1.49,14.27,1.76,21.45c0.29,7.78,0.02,15.53-0.57,23.27
		c-0.91,11.86-2.95,23.53-5.94,35.05c-2.31,8.88-5.35,17.5-8.65,26.05c-0.81,2.09-1.16,2.37-3.38,2.37
		c-9.09-0.02-18.18-0.05-27.26-0.08c-1.31,0-1.52-0.26-1.18-1.61c0.43-1.7,0.93-3.39,1.43-5.07c3.6-12.18,5.86-24.63,7.41-37.22
		c1.58-12.83,1.93-25.71,1.5-38.62c-0.35-10.26-1.36-20.46-3.08-30.59c-1.37-8.09-3.05-16.12-5.23-24.03
		c-2.79-10.1-6.16-20-10.29-29.64c-5.88-13.71-13-26.72-21.63-38.89c-8.32-11.75-17.79-22.47-28.57-32.05
		c-7.25-6.44-14.99-12.21-23.25-17.26c-9.71-5.93-19.93-10.79-30.77-14.38c-15.31-5.08-31-7.55-47.11-7.21
		c-10.21,0.22-20.29,1.53-30.23,3.98c-8.63,2.13-17.02,4.96-25.12,8.6c-8.29,3.73-16.15,8.27-23.69,13.36
		c-8.28,5.6-15.9,12-23.03,18.97c-5.03,4.91-9.76,10.12-14.16,15.62c-6.09,7.61-11.7,15.56-16.66,23.97
		c-5.22,8.84-9.83,17.98-13.75,27.48c-4.08,9.9-7.49,20.03-10.16,30.4c-3.35,13-5.63,26.19-6.74,39.59
		C113.4,264.55,113.14,271.05,113,277.09z"/>
	<path class="st0" d="M323.4,333.48c-12.85-0.1-24.86-1.15-36.77-3.46c-4.89-0.95-9.73-2.09-14.54-3.34
		c-0.21-0.06-0.42-0.12-0.63-0.19c-1.38-0.47-1.49-0.78-0.4-1.69c2.07-1.75,4.16-3.47,6.3-5.12c10.73-8.26,22.41-14.88,34.96-19.94
		c9.12-3.68,18.52-6.48,28.17-8.35c14.95-2.9,30.05-3.9,45.25-3.05c7.45,0.42,14.87,1.27,22.24,2.52
		c6.15,1.04,12.25,2.22,18.21,4.03c0.57,0.17,1.5,0.04,1.59,0.88c0.07,0.62-0.67,0.89-1.11,1.26
		c-11.78,10.06-24.81,18.08-39.11,24.05c-10.85,4.53-22.08,7.66-33.63,9.77C343.58,332.73,333.14,333.34,323.4,333.48z"/>
	<path class="st0" d="M258.78,332.15c0,5.93,0,11.87,0,17.8c0,2.13-0.01,2.1-2.22,2.09c-4.4-0.03-8.8-0.03-13.19-0.01
		c-2.47,0.01-2.52,0.04-2.45-2.53c0.17-6.15,0.33-12.3,0.61-18.45c0.28-6.15,0.72-12.28,1.05-18.43c0.45-8.34,1.31-16.65,2.15-24.95
		c0.88-8.76,2.32-17.41,4.66-25.91c2.64-9.62,5.92-18.99,10.1-28.07c5.35-11.61,11.71-22.61,19.15-32.98
		c1.66-2.32,3.41-4.58,5.21-6.8c0.86-1.06,0.96-1.96,0.29-3.16c-2.74-4.9-3.21-10.16-2-15.53c1.57-7,5.8-12.15,12.14-15.33
		c5.75-2.88,11.81-3.27,17.89-0.88c8.43,3.31,13.46,9.49,14.67,18.43c1.59,11.76-5.98,22.42-17.54,25.08
		c-3.39,0.78-6.87,0.71-10.25-0.07c-1.32-0.31-2.05,0.02-2.84,0.92c-2.86,3.25-5.45,6.7-7.85,10.3c-5.1,7.64-9.22,15.82-12.6,24.34
		c-4.41,11.11-7.8,22.55-10.35,34.24c-2.42,11.11-4.18,22.3-5.36,33.61C259.11,314.58,258.66,323.35,258.78,332.15z"/>
	<path class="st0" d="M383.62,447.7c-2.15,2.92-25.23,13.82-38.87,18.23c-41.76,13.49-83.65,13.83-125.63,1.05
		c-16.46-5.01-39.12-15.9-42.2-19.29C179.03,447.27,381.54,447.29,383.62,447.7z"/>
	<path class="st0" d="M212.16,288.94c-13.2,0.27-25.95-2.04-38.14-7.15c-11.63-4.88-21.75-11.96-30.57-20.98
		c-5.56-5.69-10.26-12.01-14.55-18.67c-1.38-2.15-2.64-4.39-3.86-6.64c-0.86-1.57-0.75-1.79,0.96-2.27
		c5.17-1.46,10.45-2.21,15.8-2.62c8.98-0.68,17.88-0.01,26.65,1.93c9.37,2.07,18.17,5.64,26.46,10.47
		c9.89,5.77,18.47,13.14,26.14,21.6c5.47,6.04,10.24,12.6,14.73,19.38c0.2,0.31,0.4,0.62,0.57,0.94c0.62,1.2,0.52,1.5-0.85,1.79
		c-5.02,1.08-10.08,1.92-15.21,2.2C217.59,289.06,214.87,288.94,212.16,288.94z"/>
	<path class="st0" d="M364.8,227.91c-15.18,0.19-29.95-12.42-29.72-30.23c0.21-16.87,14.16-29.41,29.65-29.45
		c16.33-0.05,30.12,12.88,30.06,30.15C394.74,214.75,381.26,228,364.8,227.91z"/>
	<path class="st0" d="M275.5,183.94c0.14,15.61-12.75,29.72-29.82,29.69c-17.27-0.03-29.91-14.11-29.86-29.92
		c0.05-16.53,13.5-29.89,29.97-29.84C262.62,153.93,275.76,167.88,275.5,183.94z"/>
	<path class="st0" d="M375.27,136.72c0.23,16.34-13.09,29.57-28.79,30.08c-17.21,0.56-30.4-13.23-30.94-28.6
		c-0.6-17.17,12.91-30.93,29.56-31.11C361.72,106.92,375.12,120.27,375.27,136.72z"/>
	<path class="st0" d="M316.04,208.57c16.08-0.21,29.85,13.05,29.73,29.94c-0.12,16.27-12.93,29.58-29.86,29.65
		c-17.06,0.07-30.17-14.05-29.83-30.53C286.39,221.95,299.56,208.28,316.04,208.57z"/>
	<path class="st0" d="M281.33,97.22c15.54-0.53,30.26,12.48,30.06,30.32c-0.18,16.01-13.65,29.37-29.86,29.32
		c-17.01-0.06-29.69-14.12-29.83-29.57C251.55,110.36,265.82,96.82,281.33,97.22z"/>
	<path class="st0" d="M208.55,399.5c-0.01,6.64-0.77,13.16-3,19.45c-1.08,3.06-2.57,5.91-4.69,8.38c-4.83,5.64-11.1,7.32-18.22,6.38
		c-7.88-1.04-12.6-6.06-15.6-12.95c-3.37-7.77-3.88-16.01-3.63-24.34c0.19-6.26,1.07-12.43,3.6-18.2
		c2.94-6.71,7.57-11.71,15.2-12.89c9.51-1.47,17.33,2.27,21.79,11.1c2.52,4.98,3.58,10.36,4.16,15.84
		C208.42,394.67,208.43,397.09,208.55,399.5z M192.36,399.61c0-3.8,0.1-7.61-0.03-11.4c-0.09-2.55-0.44-5.08-1.5-7.48
		c-0.98-2.21-2.66-3.29-4.98-3.27c-2.34,0.02-3.99,1.24-4.89,3.42c-0.65,1.57-1.03,3.19-1.24,4.87c-0.38,2.91-0.45,5.84-0.47,8.76
		c-0.06,6.22-0.21,12.44,0.46,18.64c0.22,2.05,0.7,4.03,1.77,5.83c1.08,1.82,2.71,2.63,4.78,2.5c1.95-0.12,3.49-1,4.39-2.81
		c0.79-1.59,1.23-3.27,1.45-5.03C192.67,408.98,192.41,404.29,192.36,399.61z"/>
	<path class="st0" d="M368.32,400.02c0.04,5.46-0.56,11.35-2.2,17.09c-0.9,3.17-2.2,6.18-4.08,8.94c-4,5.86-9.61,8.07-16.49,7.41
		c-8.38-0.81-13.09-5.84-15.72-14.12c-1.56-4.92-2.04-10.04-2.21-15.17c-0.22-6.52-0.1-13.03,1.18-19.47
		c0.77-3.9,1.9-7.67,4.02-11.08c2.75-4.41,6.61-7.2,11.8-7.94c5.61-0.8,10.81,0.12,15.17,4.04c2.51,2.25,4.15,5.1,5.3,8.22
		C367.33,384.03,368.34,390.96,368.32,400.02z M342.81,399.56c0.02,0,0.03,0,0.05,0c0,4.61-0.04,9.22,0.02,13.84
		c0.03,2.2,0.36,4.38,1.35,6.39c0.76,1.56,1.94,2.56,3.8,2.47c1.9-0.1,3.1-1.12,3.74-2.88c0.71-1.94,1.16-3.95,1.17-6
		c0.04-9.22,0.06-18.45,0.01-27.67c-0.01-2.27-0.47-4.52-1.38-6.62c-0.64-1.48-1.85-2.23-3.44-2.34c-1.52-0.1-2.7,0.52-3.52,1.81
		c-0.56,0.87-0.94,1.82-1.16,2.83c-0.43,2.01-0.66,4.04-0.64,6.1C342.83,391.51,342.81,395.54,342.81,399.56z"/>
	<path class="st0" d="M413.79,402.23c-0.02,3.83-0.49,10.24-2.63,16.41c-0.94,2.7-2.04,5.31-3.75,7.65
		c-3.11,4.25-7.12,6.88-12.47,7.22c-5.67,0.36-10.81-0.92-14.75-5.26c-2.92-3.21-4.56-7.14-5.46-11.35
		c-2.24-10.51-2.19-21.08-0.52-31.65c0.67-4.21,2.08-8.18,4.31-11.88c6.09-10.1,21.18-10.28,27.94-2.53
		c2.5,2.87,4.04,6.24,5.12,9.85C413.09,385.74,413.86,392.2,413.79,402.23z M398.56,400.5c0-4.61-0.01-8.42,0-12.22
		c0-1.76-0.1-3.51-0.36-5.25c-0.21-1.38-0.57-2.71-1.13-4c-1.19-2.74-5.09-3.22-7.01-0.45c-0.5,0.73-0.79,1.56-0.98,2.43
		c-0.44,1.93-0.74,3.88-0.75,5.87c-0.04,6.88-0.07,13.76-0.08,20.64c0,1.76,0.03,3.51,0.11,5.27c0.09,2.13,0.34,4.24,1.03,6.26
		c0.71,2.09,2.27,3.2,4.24,3.19c1.78-0.01,3-0.98,3.78-3.12c0.58-1.59,0.89-3.24,1.01-4.93
		C398.74,409.36,398.45,404.53,398.56,400.5z"/>
	<path class="st0" d="M160.21,408.69c-0.27,10.83-3.07,17.1-9.18,21.5c-6.92,4.98-16.35,4.81-22.88,0.96
		c-4.71-2.78-7.63-6.93-9.73-11.8c-0.85-1.96-0.79-2.14,1.06-3.04c2.96-1.43,5.97-2.75,8.93-4.19c1.05-0.52,1.63-0.29,2.04,0.74
		c0.75,1.92,1.71,3.72,3.05,5.31c1.4,1.66,3.19,2.57,5.31,2.79c2.6,0.27,4.85-0.5,6.22-2.83c1.36-2.32,0.92-4.68-0.43-6.86
		c-1.2-1.93-3.1-3.06-5.09-4.05c-3.28-1.63-6.71-2.91-9.89-4.76c-5.08-2.97-8.12-7.35-9.03-13.09c-0.64-4.06-0.74-8.12,0.84-12.12
		c3.34-8.43,12.35-13.58,21.24-11.88c7.53,1.43,12.51,5.98,15.5,12.9c0.38,0.87,0.37,1.52-0.6,1.98c-3.24,1.53-6.47,3.09-9.7,4.66
		c-0.79,0.38-1.21,0.08-1.53-0.65c-0.66-1.47-1.4-2.88-2.54-4.08c-0.95-0.99-2.05-1.67-3.35-1.98c-2.67-0.63-4.93,0.46-6.01,2.82
		c-1.13,2.47-0.31,5.18,2.12,6.94c2.33,1.69,4.97,2.8,7.59,3.93c2.43,1.05,4.8,2.2,7.02,3.62
		C157.15,399.35,160.39,404.75,160.21,408.69z"/>
	<path class="st0" d="M316.27,386.21c0,5.64,0,11.29,0,16.93c0,0.44,0.01,0.88,0.01,1.32c0,0.92,0.47,1.29,1.38,1.27
		c1.39-0.03,2.78,0.01,4.18-0.02c1.03-0.02,1.43,0.44,1.41,1.47c-0.05,2.56-0.02,5.13-0.06,7.69c-0.03,1.51-0.14,1.61-1.64,1.65
		c-1.1,0.03-2.2,0.03-3.3,0.03c-1.94-0.01-2.03,0.04-2.04,1.9c-0.01,3.96-0.01,7.91,0.01,11.87c0.01,2.28-0.03,2.33-2.31,2.33
		c-3.37,0-6.74,0.03-10.12,0.01c-1.89-0.01-1.91-0.09-1.9-2.03c0.03-4.1,0.04-8.2,0.03-12.31c0-1.68-0.08-1.73-1.72-1.74
		c-5.64-0.02-11.29-0.03-16.93-0.04c-1.63,0-1.79-0.11-1.81-1.7c-0.04-2.71-0.02-5.42-0.04-8.13c-0.01-0.84,0.33-1.56,0.71-2.28
		c5.43-10.3,10.85-20.6,16.27-30.9c1.02-1.94,2.07-3.88,2.99-5.87c0.47-1.01,1.15-1.42,2.22-1.41c3.74,0.03,7.47,0.17,11.21,0.01
		c1.18-0.05,1.48,0.42,1.48,1.91c0,2.93-0.03,5.86-0.03,8.79C316.27,380.05,316.28,383.13,316.27,386.21
		C316.28,386.21,316.27,386.21,316.27,386.21z M302.27,385.7c-0.5,0.01-0.59,0.31-0.72,0.55c-0.91,1.83-1.79,3.67-2.71,5.5
		c-2.05,4.11-4.13,8.22-6.17,12.34c-0.69,1.39-0.54,1.61,1.05,1.61c2.26,0.01,4.52,0,6.79-0.03c1.93-0.02,1.98-0.06,1.98-1.95
		c0-5.48-0.01-10.95-0.03-16.43C302.46,386.75,302.52,386.17,302.27,385.7z"/>
	<path class="st0" d="M265.21,393.85c0,8.35,0,16.71,0,25.06c0,0.37,0.05,0.73,0.05,1.1c-0.01,1.01,0.45,1.43,1.48,1.4
		c1.76-0.05,3.52-0.04,5.28-0.01c1.62,0.03,1.82,0.21,1.85,1.74c0.04,2.71-0.01,5.42,0.03,8.13c0.01,0.94-0.4,1.35-1.29,1.36
		c-0.44,0.01-0.88,0.01-1.32,0.01c-8.72,0-17.45-0.01-26.17-0.01c-0.37,0-0.73-0.01-1.1,0c-1.05,0.04-1.41-0.53-1.4-1.5
		c0.03-2.78,0.04-5.57,0.03-8.35c0-1.05,0.51-1.41,1.5-1.39c1.76,0.03,3.52,0.02,5.28,0c1.94-0.02,2.01-0.09,2.02-1.95
		c0.01-3.15,0-6.3,0-9.45c0-8.13,0-16.27,0-24.4c0-0.22,0.01-0.44,0-0.66c-0.05-1.66-0.21-1.82-1.77-1.45
		c-1.85,0.44-3.69,0.94-5.53,1.42c-1.23,0.32-1.45,0.22-1.47-1.04c-0.05-2.86,0.01-5.72-0.05-8.57c-0.03-1.29,0.81-1.59,1.75-1.88
		c3.47-1.04,6.64-2.7,9.7-4.59c0.43-0.27,0.97-0.48,1.25-0.87c1.13-1.57,2.68-1.84,4.46-1.69c1.17,0.09,2.35-0.01,3.52,0.03
		c1.81,0.06,1.99,0.24,1.99,2.07c0.02,4.76,0,9.53,0,14.29c0,3.74,0,7.48,0,11.21C265.25,393.85,265.23,393.85,265.21,393.85z"/>
	<path class="st0" d="M447.45,393.84c0,8.28,0,16.56,0,24.84c0,0.44,0.02,0.88,0,1.32c-0.04,1.04,0.5,1.43,1.48,1.42
		c1.76-0.03,3.52-0.04,5.28-0.02c1.84,0.02,1.92,0.12,1.94,2.06c0.02,2.42,0.03,4.84,0.01,7.25c-0.01,1.81-0.15,1.95-2.06,1.95
		c-4.76,0.01-9.53-0.01-14.29-0.02c-4.1,0-8.21,0.01-12.31,0.01c-2.69,0-2.68,0-2.66-2.82c0.02-2.27,0.04-4.54-0.02-6.81
		c-0.03-1.14,0.42-1.62,1.53-1.62c1.9,0,3.81-0.07,5.71,0c1.17,0.04,1.57-0.46,1.55-1.55c-0.03-1.9,0-3.81,0-5.71
		c0-9.38,0-18.75,0-28.13c0-0.37,0.01-0.73,0-1.1c-0.07-1.62-0.27-1.8-1.84-1.43c-1.78,0.42-3.53,0.94-5.31,1.4
		c-1.53,0.39-1.6,0.34-1.62-1.29c-0.03-2.64-0.03-5.27-0.02-7.91c0.01-1.68,0.03-1.66,1.75-2.24c3.55-1.2,6.94-2.76,10.05-4.86
		c0.24-0.16,0.56-0.28,0.72-0.5c1.24-1.72,3.02-1.8,4.89-1.73c1.24,0.05,2.49,0.01,3.74-0.04c1.01-0.04,1.52,0.35,1.5,1.39
		c-0.02,0.88-0.02,1.76-0.02,2.64C447.45,378.16,447.45,386,447.45,393.84z"/>
	<path class="st0" d="M97.64,399.56c0-10.47,0-20.95,0-31.42c0-1.58,0.11-1.79,1.74-1.81c3.88-0.05,7.77,0.02,11.65-0.02
		c1.25-0.01,1.42,0.66,1.42,1.67c-0.01,4.54,0.01,9.08,0.01,13.62c0,15.97,0.01,31.93-0.01,47.9c-0.01,3.58,0.31,3.1-3.23,3.13
		c-3.22,0.02-6.45,0.03-9.67-0.01c-1.79-0.02-1.89-0.19-1.89-1.87c0-10.4,0-20.8,0-31.2C97.66,399.56,97.65,399.56,97.64,399.56z"/>
	<path class="st1" d="M85.61,123.07c1.91,0,3.81,0.03,5.72-0.01c1.98-0.04,2.16-0.21,1.76-2.21c-0.76-3.73-1.61-7.44-2.46-11.15
		c-0.37-1.62,0.32-3.5,1.66-4.37c0.71-0.46,1.21-0.06,1.76,0.37c4,3.21,8.01,6.4,12.02,9.6c2.86,2.28,5.74,4.54,8.6,6.82
		c1.37,1.09,1.38,1.24,0.21,2.6c-1.77,2.06-1.31,2.28-3.68,0.39c-4.69-3.74-9.38-7.48-14.06-11.23c-0.28-0.22-0.51-0.6-0.92-0.41
		c-0.53,0.24-0.37,0.73-0.28,1.13c0.67,3,1.34,6,2.04,9c0.82,3.53,0.82,3.56-2.75,3.59c-3,0.03-6.01,0.05-9.01,0.08
		c-0.42,0.01-0.95-0.11-1.18,0.35c-0.33,0.64,0.3,0.91,0.65,1.2c4.68,3.76,9.38,7.49,14.07,11.23c0.29,0.23,0.58,0.44,0.87,0.67
		c0.65,0.49,0.74,1.04,0.17,1.67c-2.27,2.49-1.67,2.89-4.47,0.59c-6.34-5.2-12.8-10.24-19.21-15.35c-1.68-1.34-1.63-1.31-0.21-3
		c0.81-0.97,1.7-1.49,3.01-1.44c1.9,0.08,3.81,0.02,5.71,0.02C85.61,123.18,85.61,123.13,85.61,123.07z"/>
	<path class="st1" d="M521.54,314.57c-1.48-0.7-3.01-0.86-4.48-1.18c-4.94-1.08-9.89-2.09-14.83-3.16
		c-0.66-0.14-1.68,0.03-1.79-0.93c-0.14-1.16-0.05-2.41,0.78-3.32c0.54-0.6,1.4-0.22,2.1-0.07c3.87,0.82,7.72,1.69,11.59,2.51
		c4.08,0.87,8.17,1.7,12.25,2.57c0.64,0.14,1.27,0.34,1.92,0.49c0.81,0.2,0.99,0.69,0.85,1.48c-0.3,1.75-0.97,3.04-2.76,3.85
		c-3.46,1.58-6.79,3.43-10.19,5.15c-1.51,0.76-1.52,0.75-0.4,2.14c2.53,3.13,5.07,6.25,7.57,9.4c0.94,1.18,1.02,3.27,0.3,4.47
		c-0.44,0.73-1.06,0.63-1.73,0.49c-4.8-1.03-9.59-2.06-14.39-3.08c-3.44-0.73-6.89-1.4-10.32-2.19c-3.1-0.72-2.77-0.42-2.12-3.66
		c0.2-0.98,0.77-1.26,1.78-1.02c2.64,0.63,5.29,1.18,7.94,1.73c3.37,0.7,6.75,1.38,10.12,2.07c0.5,0.1,1,0.28,1.5-0.16
		c0.02-1.03-0.75-1.67-1.33-2.38c-1.8-2.21-3.64-4.4-5.46-6.6c-1.24-1.5-1.19-1.91,0.53-2.79c2.73-1.41,5.52-2.72,8.24-4.14
		C520,315.78,521,315.58,521.54,314.57z"/>
	<path class="st1" d="M444.75,91.41c-2.22,0.09-4.31,0.79-6.45,1.16c-1.8,0.31-3.58,0.75-5.38,1.09c-1.71,0.32-2.06-0.02-2-1.81
		c0.11-3.14,0.2-6.29,0.29-9.43c0.01-0.22,0.01-0.44-0.02-0.66c-0.07-0.49,0.11-1.17-0.42-1.39c-0.66-0.28-1.04,0.36-1.4,0.8
		c-3.82,4.53-7.63,9.07-11.45,13.61c-0.19,0.22-0.35,0.47-0.54,0.69c-0.14,0.17-0.29,0.4-0.47,0.45c-1.58,0.41-1.95-1.25-2.99-1.8
		c-0.69-0.36-0.42-0.99,0.01-1.49c1.52-1.78,3.05-3.55,4.56-5.35c4.18-4.98,8.36-9.98,12.53-14.97c1.21-1.45,1.28-1.37,2.77-0.33
		c1.28,0.9,1.75,1.96,1.68,3.52c-0.18,3.87-0.21,7.75-0.29,11.62c-0.04,1.7,0.11,1.81,1.93,1.46c3.81-0.74,7.61-1.49,11.42-2.23
		c1.76-0.34,3.66,0.48,4.5,1.9c0.35,0.6-0.01,0.94-0.35,1.34c-1.88,2.24-3.75,4.49-5.63,6.74c-3.62,4.32-7.26,8.62-10.86,12.95
		c-1.81,2.17-1.99,2.18-4.06,0.23c-0.82-0.77-0.87-1.39-0.15-2.22c1.2-1.38,2.36-2.79,3.54-4.19c2.93-3.46,5.86-6.93,8.78-10.39
		C444.54,92.44,444.87,92.21,444.75,91.41z"/>
	<path class="st1" d="M266.64,50.62c-1.78,0.07-1.79,0.07-1.99-1.73c-0.63-5.6-1.23-11.2-1.89-16.79c-0.1-0.82,0.19-2.07-0.78-2.3
		c-0.95-0.23-1.29,0.97-1.73,1.69c-1.6,2.54-3.15,5.1-4.76,7.63c-1,1.58-1.3,1.62-2.64,0.33c-2.32-2.23-4.58-4.52-6.89-6.77
		c-0.5-0.49-0.98-1.38-1.74-1.03c-0.77,0.36-0.38,1.32-0.31,2c0.63,5.59,1.31,11.18,1.98,16.77c0.06,0.51,0.13,1.02,0.16,1.52
		c0.04,0.57-0.22,0.95-0.79,1.16c-2.57,0.94-3.42,0.43-3.73-2.21c-0.95-8.07-1.92-16.13-2.85-24.2c-0.1-0.89-0.71-2.09,0.3-2.63
		c1.06-0.57,2.38-0.73,3.62-0.27c0.7,0.26,1.17,0.84,1.69,1.37c2.63,2.65,5.25,5.3,7.92,7.9c1.27,1.24,1.48,1.19,2.44-0.33
		c1.98-3.16,4.03-6.28,5.87-9.53c0.97-1.72,2.37-2.21,4.13-2.31c0.91-0.05,1.35,0.31,1.44,1.23c0.14,1.53,0.32,3.06,0.49,4.58
		c0.8,7.12,1.61,14.25,2.41,21.37C269.26,50.52,269.26,50.52,266.64,50.62z"/>
	<path class="st1" d="M85.8,151.08c-0.48-1.04-1.28-1.29-1.96-1.67c-4.9-2.78-9.8-5.55-14.7-8.32c-0.45-0.25-0.89-0.5-1.32-0.79
		c-0.64-0.44-0.74-0.94-0.34-1.68c1.43-2.64,1.38-2.61,4.02-1.09c7.04,4.03,14.11,8.02,21.17,12.03c0.45,0.25,0.9,0.49,1.33,0.77
		c0.32,0.2,0.52,0.49,0.45,0.91c-0.17,1.07-1.77,2.89-2.8,3.09c-4.81,0.95-9.62,1.93-14.44,2.82c-3.67,0.68-7.27,1.68-10.97,2.18
		c-0.49,0.07-1.13,0.16-1.25,0.73c-0.14,0.71,0.56,0.95,1.04,1.23c4,2.3,8.01,4.56,12.02,6.84c1.27,0.72,2.55,1.43,3.81,2.18
		c1.2,0.72,1.29,1.1,0.61,2.29c-0.15,0.25-0.35,0.47-0.51,0.71c-0.91,1.3-0.92,1.32-2.37,0.5c-7.58-4.29-15.15-8.58-22.71-12.88
		c-0.55-0.31-1.43-0.59-1.17-1.36c0.36-1.08,0.77-2.26,1.97-2.77c0.39-0.17,0.86-0.17,1.29-0.26c8.61-1.72,17.22-3.44,25.82-5.16
		C85.05,151.31,85.31,151.22,85.8,151.08z"/>
	<path class="st1" d="M127.53,83.26c-0.04,1.08,0.66,1.69,1.17,2.37c3.43,4.57,6.88,9.12,10.32,13.68c0.88,1.17,0.85,1.37-0.28,2.33
		c-0.22,0.19-0.46,0.36-0.7,0.53c-1.37,0.99-1.36,0.98-2.39-0.37c-5.07-6.72-10.15-13.44-15.22-20.16
		c-0.09-0.12-0.19-0.23-0.25-0.36c-0.33-0.69-1.42-1.28-0.84-2.07c0.71-0.97,1.67-1.92,3.12-1.71c1.09,0.16,2.17,0.37,3.24,0.61
		c6.8,1.48,13.59,2.99,20.39,4.46c1,0.22,2.02,0.35,3.04,0.42c0.84,0.05,1.03-0.43,0.6-1.11c-0.35-0.56-0.74-1.09-1.14-1.62
		c-3.3-4.39-6.63-8.76-9.91-13.16c-0.4-0.54-1.29-1.11-0.77-1.87c0.61-0.89,1.53-1.6,2.58-1.96c0.69-0.24,0.99,0.49,1.33,0.94
		c1.98,2.63,3.95,5.28,5.93,7.91c3.31,4.38,6.64,8.75,9.95,13.14c0.99,1.32,0.93,1.3-0.35,2.39c-1.01,0.87-1.99,1.19-3.39,0.88
		c-7.36-1.65-14.75-3.19-22.14-4.72C130.44,83.51,129.05,83.01,127.53,83.26z"/>
	<path class="st1" d="M480.17,118.69c-0.2,0.76-0.39,1.46-0.56,2.17c-1.89,7.83-3.77,15.66-5.66,23.49
		c-0.05,0.21-0.14,0.42-0.17,0.64c-0.06,0.49-0.37,1.09,0.08,1.45c0.6,0.49,1.07-0.11,1.52-0.43c4.9-3.47,9.8-6.94,14.69-10.42
		c1.6-1.14,1.59-1.15,2.77,0.38c0.18,0.23,0.38,0.44,0.59,0.65c0.66,0.69,0.55,1.24-0.22,1.79c-2.27,1.61-4.49,3.29-6.76,4.9
		c-4.83,3.43-9.67,6.85-14.53,10.24c-0.66,0.46-1.37,1.66-2.18,0.85c-0.9-0.9-2.19-1.84-1.74-3.53c0.62-2.34,1.2-4.68,1.77-7.03
		c1.49-6.19,2.96-12.39,4.45-18.59c0.1-0.43,0.32-0.93-0.03-1.25c-0.5-0.45-0.96,0.05-1.35,0.33c-2.99,2.11-5.95,4.26-8.93,6.39
		c-2.02,1.45-4.05,2.89-6.09,4.31c-1.24,0.86-1.41,0.82-2.34-0.29c-0.33-0.39-0.64-0.8-0.96-1.21c-0.45-0.58-0.36-1.07,0.24-1.48
		c0.42-0.29,0.83-0.61,1.25-0.9c6.67-4.76,13.35-9.53,20.02-14.29c0.06-0.04,0.12-0.09,0.18-0.12c0.76-0.28,1.3-1.5,2.28-0.77
		C479.38,116.6,479.92,117.58,480.17,118.69z"/>
	<path class="st1" d="M46.25,280.12c-5.18,0.39-10.36,0.79-15.54,1.16c-0.61,0.04-1.48,0.3-1.71-0.53c-0.28-1.04-0.5-2.18,0-3.2
		c0.23-0.48,0.91-0.39,1.41-0.42c3.28-0.25,6.57-0.48,9.86-0.72c5.18-0.38,10.36-0.79,15.55-1.13c0.88-0.06,1.95-0.57,2.63,0.48
		c0.62,0.95,0.27,3.12-0.66,4.08c-1.68,1.73-3.42,3.41-5.11,5.12c-4.27,4.31-8.54,8.63-12.81,12.95c-0.26,0.26-0.5,0.53-0.73,0.82
		c-0.57,0.74-0.47,1.08,0.41,1.11c1.02,0.04,2.05-0.04,3.07-0.12c4.89-0.35,9.78-0.72,14.67-1.07c0.66-0.05,1.32-0.04,1.98-0.04
		c0.69,0.01,1.1,0.34,1.13,1.06c0.02,0.37,0.03,0.73,0.04,1.1c0.04,1.64-0.07,1.78-1.62,1.9c-4.45,0.32-8.9,0.61-13.35,0.94
		c-4.09,0.3-8.17,0.64-12.25,0.95c-0.78,0.06-1.77,0.43-2.19-0.45c-0.48-0.98-0.59-2.14-0.01-3.17c0.28-0.5,0.72-0.92,1.13-1.33
		c5.98-6.02,11.97-12.04,17.96-18.05c0.15-0.16,0.32-0.3,0.45-0.48c0.48-0.65,0.29-1.07-0.56-1.1c-1.24-0.04-2.49-0.01-3.73-0.01
		C46.25,280.01,46.25,280.06,46.25,280.12z"/>
	<path class="st1" d="M314.36,30.9c-0.54,0.4-0.5,1.03-0.6,1.59c-1.02,5.77-2.03,11.54-3.05,17.31c-0.14,0.77,0.04,1.79-0.9,2.07
		c-0.99,0.29-2.06,0.02-2.98-0.43c-0.74-0.37-0.42-1.18-0.32-1.8c0.42-2.6,0.89-5.2,1.35-7.79c1.01-5.77,2.03-11.54,3.04-17.31
		c0.4-2.27,1.65-2.89,3.65-1.76c0.61,0.34,0.85,0.98,1.19,1.54c4.23,7.02,8.45,14.04,12.7,21.05c0.46,0.76,0.69,2.12,1.8,1.86
		c0.84-0.2,0.65-1.48,0.8-2.32c0.97-5.63,1.94-11.26,2.93-16.88c0.3-1.68,0.56-1.81,2.42-1.5c1.78,0.3,2.06,0.64,1.77,2.27
		c-1.45,8.37-2.9,16.74-4.38,25.1c-0.13,0.75,0,1.94-0.95,2.01c-1.17,0.09-2.52,0.16-3.47-0.9c-0.29-0.32-0.5-0.72-0.73-1.1
		c-4.42-7.33-8.85-14.66-13.27-21.99C315.11,31.5,315,30.94,314.36,30.9z"/>
	<path class="st1" d="M74.18,188.96c-0.12,4.45-1.33,8.48-4.27,11.94c-6.35,7.48-17.56,6.35-23.14-0.45
		c-3.83-4.67-4.28-9.93-2.3-15.51c0.61-1.73,1.47-3.32,2.54-4.83c3.18-4.47,10.18-7.57,16.87-5.27
		C70.08,177,74.15,182.46,74.18,188.96z M47.58,190.23c0.15,6.89,5.02,11.26,11.35,11.24c7.28-0.03,11.17-5.84,11.11-11.78
		c-0.07-6.97-5.15-11.02-11.04-11.06C52.25,178.58,48.06,183.79,47.58,190.23z"/>
	<path class="st1" d="M398.87,56.9c-1.48-1.67-2.71-3.32-4.32-4.59c-2.69-2.13-5.6-3.75-9.18-3.64c-4.73,0.14-8.94,3.41-10.43,8.06
		c-1.46,4.56-0.01,9.13,3.88,12.12c2.14,1.64,4.6,2.51,7.24,2.95c1.03,0.17,1.67-0.08,2.09-1.07c0.46-1.08,1.01-2.11,1.55-3.15
		c0.35-0.67,0.17-1.08-0.49-1.4c-0.99-0.48-1.94-1.04-2.94-1.49c-0.97-0.44-1.09-1.08-0.64-1.94c0.2-0.39,0.39-0.79,0.61-1.17
		c0.39-0.68,0.93-0.87,1.66-0.51c2.3,1.13,4.6,2.24,6.9,3.37c0.7,0.35,0.93,0.83,0.56,1.6c-1.45,3.04-2.87,6.09-4.3,9.13
		c-0.38,0.81-1.02,1.24-1.94,1.14c-6.81-0.68-12.97-2.76-16.93-8.76c-3.56-5.39-3.12-11.29,0.66-16.65
		c4.51-6.39,12.74-8.14,19.99-4.47c2.8,1.41,5.06,3.45,7.16,5.73c0.79,0.85,0.87,1.61,0.23,2.52
		C399.79,55.35,399.64,56.18,398.87,56.9z"/>
	<path class="st1" d="M67.2,210.22c0.16,1.61-0.42,2.95-0.91,4.31c-0.23,0.63-0.82,0.76-1.38,0.96c-2.34,0.84-4.66,1.74-7,2.57
		c-1.53,0.54-2.96,1.26-4.31,2.14c-0.49,0.32-1.04,0.64-1.34,1.1c-0.69,1.03-1.44,2.24-1.1,3.44c0.27,0.94,1.6,0.79,2.48,1
		c2.7,0.65,5.43,1.2,8.14,1.82c1.51,0.35,1.51,0.38,1.26,1.92c-0.07,0.43-0.14,0.87-0.24,1.29c-0.23,1.05-0.81,1.44-1.92,1.18
		c-3.27-0.78-6.56-1.49-9.84-2.25c-3.99-0.92-7.97-1.85-11.96-2.77c-1.42-0.33-2.85-0.68-4.28-0.94c-0.9-0.17-1.38-0.64-1.12-1.5
		c1.02-3.48,1.08-7.27,3.19-10.42c1.67-2.5,3.96-3.92,7.01-3.67c3.1,0.25,5.64,1.5,6.87,4.61c0.29,0.74,0.5,1.74,1.63,1.06
		c4.05-2.44,8.68-3.46,12.99-5.28C65.88,210.57,66.33,210.11,67.2,210.22z M47.79,219.8c0.09-2.52-1.25-4.31-3.56-4.76
		c-2.16-0.42-4.09,0.7-4.98,2.95c-0.35,0.88-0.54,1.81-0.82,2.71c-0.35,1.1,0.11,1.62,1.18,1.84c1.21,0.25,2.41,0.57,3.61,0.86
		C47.2,224.34,47.64,223.99,47.79,219.8z"/>
	<path class="st1" d="M299.63,50.81c-2.13,0-2.13,0-2.99-2.04c-0.71-1.69-1.41-3.38-2.13-5.07c-0.74-1.74-0.93-1.81-2.78-1.83
		c-2.86-0.03-5.72-0.05-8.56-0.23c-1.42-0.09-2.15,0.47-2.65,1.71c-0.72,1.76-1.58,3.47-2.28,5.24c-0.49,1.25-1.17,1.72-2.62,1.71
		c-2.77-0.01-2.78-0.26-1.65-2.72c3.25-7.05,6.56-14.06,9.84-21.09c0.65-1.39,1.34-2.78,1.83-4.23c0.44-1.31,1.29-1.55,2.52-1.59
		c1.19-0.04,1.66,0.51,2.06,1.5c2.39,5.9,4.84,11.79,7.26,17.68c1.22,2.98,2.46,5.95,3.64,8.95
		C301.87,50.79,301.82,50.81,299.63,50.81z M288.12,28.33c-0.18-0.01-0.37-0.02-0.55-0.03c-1.48,2.66-2.57,5.52-3.86,8.27
		c-0.35,0.74,0.03,1.09,0.79,1.11c2.12,0.07,4.23,0.15,6.35,0.2c0.78,0.02,1.08-0.37,0.78-1.11
		C290.47,33.95,289.29,31.14,288.12,28.33z"/>
	<path class="st1" d="M364.27,64.09c0.07,1.9-0.12,1.96-1.81,1.5c-1.82-0.5-2.61-1.55-2.67-3.41c-0.06-1.82-0.39-3.63-0.49-5.46
		c-0.06-1.03-0.51-1.62-1.45-1.94c-3.05-1.01-6.11-2.01-9.15-3.07c-0.88-0.31-1.52-0.2-2.14,0.51c-1.44,1.65-2.92,3.27-4.4,4.88
		c-0.43,0.47-0.81,1.17-1.55,1.08c-1.09-0.13-2.12-0.54-3.09-1.04c-0.27-0.14-0.29-0.51-0.11-0.78c0.24-0.36,0.53-0.69,0.82-1.02
		c6.23-7.08,12.46-14.16,18.67-21.26c0.69-0.79,1.22-1.52,2.54-1.11c1.3,0.4,1.72,1.18,1.84,2.37c0.34,3.2,0.73,6.4,1.06,9.6
		c0.62,6.04,1.22,12.08,1.82,18.12C364.21,63.45,364.25,63.81,364.27,64.09z M358.52,49.88c-0.28-3.17-0.51-5.78-0.76-8.39
		c-0.04-0.41-0.04-0.92-0.6-1.02c-0.41-0.07-0.67,0.26-0.9,0.53c-1.7,1.99-3.41,3.98-5.07,6c-0.74,0.9-0.67,1.12,0.43,1.53
		c1.84,0.68,3.7,1.33,5.57,1.92C358.37,50.82,358.55,50.62,358.52,49.88z"/>
	<path class="st1" d="M180.56,57.5c0-4.76,0.03-9.52-0.02-14.27c-0.01-1.14,0.22-1.92,1.36-2.45c1.02-0.48,1.73-0.4,2.55,0.37
		c7.05,6.59,14.14,13.15,21.21,19.73c0.27,0.25,0.51,0.53,0.77,0.78c0.58,0.57,0.46,1.02-0.26,1.34c-0.53,0.24-1.11,0.4-1.61,0.7
		c-0.9,0.56-1.59,0.41-2.33-0.32c-1.46-1.44-3.02-2.76-4.47-4.21c-0.99-1-1.97-1.32-3.33-0.71c-2.87,1.29-5.77,2.5-8.68,3.7
		c-0.92,0.38-1.11,1.06-1.09,1.93c0.03,1.98-0.02,3.96,0.1,5.93c0.09,1.53-0.33,2.56-1.92,2.94c-0.42,0.1-0.79,0.37-1.19,0.55
		c-0.64,0.29-0.99,0.04-1.04-0.63c-0.04-0.58-0.04-1.17-0.04-1.76C180.57,66.57,180.57,62.04,180.56,57.5
		C180.57,57.5,180.56,57.5,180.56,57.5z M185.11,47.69c-0.14,0.08-0.29,0.16-0.43,0.24c0,2.98-0.01,5.96,0,8.95
		c0,0.86,0.39,1.23,1.26,0.87c1.96-0.83,3.92-1.65,5.86-2.49c0.6-0.26,0.74-0.72,0.23-1.2C189.74,51.92,187.42,49.81,185.11,47.69z"
		/>
	<path class="st1" d="M412.9,62.83c-0.45-0.05-0.75,0.17-0.95,0.49c-1.2,1.84-2.37,3.69-3.56,5.54c-0.56,0.87-0.02,1.34,0.64,1.77
		c2.27,1.47,4.54,2.94,6.82,4.41c0.37,0.24,0.75,0.46,1.12,0.7c0.7,0.44,0.77,1,0.31,1.67c-0.21,0.3-0.37,0.63-0.59,0.93
		c-0.86,1.2-0.97,1.26-2.25,0.48c-2.37-1.45-4.71-2.96-7.05-4.45c-1.65-1.05-1.94-1.01-2.97,0.56c-0.92,1.41-1.87,2.8-2.74,4.24
		c-0.88,1.45-0.8,1.73,0.61,2.63c2.28,1.46,4.57,2.9,6.85,4.35c0.37,0.24,0.71,0.52,1.1,0.73c0.97,0.54,1.21,1.22,0.5,2.14
		c-0.13,0.17-0.25,0.36-0.37,0.55c-0.94,1.42-1.04,1.47-2.38,0.61c-2.89-1.86-5.76-3.75-8.64-5.63c-1.1-0.72-2.18-1.48-3.31-2.15
		c-1.03-0.61-0.93-1.26-0.34-2.16c2.85-4.34,5.66-8.71,8.47-13.08c1.9-2.95,3.78-5.92,5.66-8.88c1.01-1.59,1.16-1.61,2.71-0.6
		c3.36,2.19,6.75,4.35,10.13,6.52c0.55,0.36,1.11,0.7,1.66,1.08c0.57,0.39,0.72,0.89,0.31,1.5c-0.25,0.36-0.5,0.73-0.71,1.11
		c-0.54,0.95-1.17,1.14-2.14,0.5c-2.37-1.58-4.8-3.09-7.19-4.64C414.05,63.37,413.51,63,412.9,62.83z"/>
	<path class="st1" d="M47.74,310.64c1.12-0.2,1.3,0.64,1.46,1.45c0.52,2.58,1.02,5.17,1.51,7.75c0.43,2.24,0.69,2.46,2.9,2.06
		c1.58-0.28,3.16-0.61,4.73-0.98c1.5-0.36,1.65-0.59,1.37-2.16c-0.54-2.95-1.15-5.88-1.69-8.83c-0.12-0.67-0.59-1.49,0.23-2.01
		c0.82-0.52,1.82-0.63,2.75-0.46c0.81,0.15,0.72,1.02,0.84,1.63c0.75,3.73,1.46,7.46,2.19,11.2c0.11,0.57,0.21,1.15,0.33,1.72
		c0.43,2.05,0.37,2.2-1.73,2.6c-8.26,1.6-16.52,3.16-24.74,4.96c-2.03,0.45-2.14,0.32-2.57-1.76c-0.85-4.16-1.71-8.31-2.53-12.48
		c-0.13-0.68-0.58-1.49,0.25-2c0.83-0.51,1.81-0.68,2.75-0.5c0.79,0.15,0.78,0.97,0.9,1.6c0.57,2.87,1.11,5.74,1.7,8.61
		c0.34,1.67,0.44,1.75,1.99,1.46c1.8-0.34,3.59-0.71,5.37-1.13c1.42-0.33,1.52-0.47,1.25-1.98c-0.44-2.45-0.96-4.88-1.46-7.32
		c-0.03-0.14-0.07-0.28-0.1-0.43C44.94,311.36,45.4,310.74,47.74,310.64z"/>
	<path class="st1" d="M460.85,102.23c-0.5,0.03-0.78,0.26-1.05,0.51c-1.51,1.39-3.01,2.79-4.53,4.16c-0.8,0.72-0.63,1.34,0.03,2.04
		c1.9,2.03,3.77,4.09,5.64,6.15c0.47,0.52,1.3,0.99,1.03,1.79c-0.33,1-1.24,1.63-2.11,2.16c-0.57,0.35-0.92-0.24-1.26-0.6
		c-1.45-1.55-2.89-3.12-4.32-4.68c-0.74-0.81-1.48-1.61-2.2-2.44c-0.59-0.68-1.1-0.49-1.67,0.04c-1.54,1.46-3.07,2.93-4.65,4.34
		c-0.95,0.84-0.57,1.46,0.11,2.19c2.05,2.19,4.07,4.41,6.11,6.61c0.47,0.51,1.39,0.91,1.06,1.73c-0.39,0.95-1.2,1.66-2.17,2.07
		c-0.54,0.23-0.98-0.18-1.33-0.56c-3.23-3.49-6.44-6.99-9.66-10.49c-0.71-0.77-0.8-1.39,0.09-2.2c3.57-3.25,7.07-6.59,10.62-9.87
		c2.96-2.73,5.93-5.44,8.93-8.13c1.12-1.01,1.18-1,2.24,0.12c3.07,3.25,6.12,6.51,9.16,9.78c0.42,0.46,1.14,0.95,0.7,1.67
		c-0.53,0.86-1.16,1.74-2.19,2.05c-0.57,0.17-0.88-0.41-1.22-0.78c-2.08-2.27-4.16-4.54-6.24-6.8
		C461.6,102.74,461.3,102.3,460.85,102.23z"/>
	<path class="st1" d="M532.09,291.55c-0.28,3.21-0.54,6.42-0.84,9.62c-0.14,1.44-0.36,1.55-2.29,1.38
		c-1.46-0.13-1.72-0.35-1.62-1.71c0.21-2.99,0.5-5.98,0.7-8.97c0.13-1.87,0.04-1.94-1.85-2.12c-1.6-0.15-3.2-0.34-4.81-0.42
		c-1.86-0.1-1.95-0.02-2.12,1.89c-0.2,2.26-0.33,4.52-0.49,6.79c-0.03,0.36-0.02,0.73-0.06,1.1c-0.2,1.93-1.84,2.76-3.58,1.83
		c-0.76-0.41-0.59-1.1-0.53-1.74c0.24-2.7,0.52-5.39,0.73-8.09c0.18-2.26,0.14-2.27-2.17-2.46c-1.6-0.13-3.21-0.31-4.81-0.37
		c-1.7-0.07-1.87,0.11-2.02,1.8c-0.25,2.99-0.46,5.98-0.72,8.97c-0.06,0.68,0.24,1.63-0.76,1.83c-1,0.2-2.05,0.09-2.98-0.4
		c-0.34-0.18-0.3-0.63-0.27-1c0.41-4.89,0.83-9.77,1.21-14.66c0.09-1.17,0.69-1.45,1.75-1.35c5.46,0.5,10.93,0.97,16.4,1.44
		c3.21,0.27,6.42,0.49,9.63,0.76c1.79,0.15,1.86,0.21,1.8,1.97c-0.05,1.32-0.18,2.63-0.28,3.94
		C532.1,291.55,532.09,291.55,532.09,291.55z"/>
	<path class="st1" d="M123.32,97.89c-0.26,0.29-0.53,0.64-0.84,0.94c-2.09,2.05-4.19,4.09-6.3,6.12c-1.09,1.05-1.11,1.16-0.08,2.27
		c1.2,1.28,2.43,2.54,3.65,3.8c1.48,1.53,1.49,1.53,3.09-0.01c2.1-2.03,4.19-4.08,6.31-6.09c0.45-0.43,0.82-1.31,1.56-0.95
		c0.9,0.44,1.71,1.19,2.11,2.14c0.31,0.73-0.46,1.17-0.9,1.61c-2.87,2.82-5.75,5.63-8.64,8.44c-2.4,2.33-2.41,2.34-4.74-0.05
		c-5.63-5.76-11.25-11.53-16.86-17.3c-1.55-1.59-1.53-1.66,0-3.13c3.16-3.05,6.34-6.08,9.46-9.17c0.79-0.79,1.39-0.99,2.15-0.08
		c0.24,0.28,0.54,0.5,0.77,0.78c0.86,1.02,0.85,1.24-0.12,2.17c-2.16,2.08-4.33,4.15-6.48,6.25c-1.36,1.33-1.35,1.35,0,2.77
		c1.27,1.32,2.61,2.58,3.81,3.95c0.75,0.86,1.26,0.69,1.96,0c2.08-2.06,4.2-4.08,6.3-6.11c1.45-1.4,1.5-1.4,2.86,0.16
		C122.76,96.8,123.23,97.18,123.32,97.89z"/>
	<path class="st1" d="M515.99,199.99c-0.33-1.06,0.06-1.65,0.2-2.28c0.5-2.23,0.31-4.35-0.85-6.37c-0.71-1.24-1.7-2.05-3.14-2.05
		c-1.49,0-2.41,0.94-3.02,2.19c-0.58,1.19-0.94,2.46-1.17,3.76c-0.44,2.45-0.92,4.89-2.11,7.13c-2.4,4.51-8.21,5.87-12.21,2.73
		c-2.32-1.83-3.14-4.51-3.57-7.31c-0.08-0.5-0.05-1.02-0.03-1.54c0.12-4.01,1.09-4.99,5.51-5.44c-0.04,1.07-0.73,1.88-1.04,2.82
		c-0.75,2.27-0.7,4.47,0.37,6.61c0.69,1.38,1.73,2.44,3.38,2.43c1.58-0.02,2.74-0.85,3.52-2.25c0.58-1.03,0.98-2.11,1.24-3.26
		c0.47-2.07,0.89-4.16,1.55-6.17c1.44-4.44,5.69-6.72,9.85-5.3c2.5,0.85,4.17,2.69,5.13,5.11c0.7,1.78,0.93,3.67,0.88,5.6
		c-0.04,1.54-0.65,2.5-2.13,2.91C517.59,199.51,516.83,199.74,515.99,199.99z"/>
	<path class="st1" d="M507.57,235.87c0.02,0.88-0.63,1.13-0.94,1.59c-1.48,2.22-2.3,4.57-1.65,7.26c0.41,1.7,1.4,2.91,3.12,3.35
		c1.54,0.39,2.67-0.45,3.69-1.46c0.79-0.78,1.35-1.72,1.8-2.73c0.69-1.53,1.36-3.08,2.11-4.58c0.46-0.91,0.98-1.81,1.6-2.61
		c1.86-2.4,4.31-3.46,7.33-2.94c3.13,0.54,5.07,2.55,6.09,5.4c0.8,2.24,0.8,4.61,0.19,6.93c-0.58,2.22-1.17,2.69-3.51,2.87
		c-0.56,0.04-1.16,0.22-1.77-0.29c0.09-0.91,0.64-1.69,1.03-2.53c0.91-1.97,0.89-3.98,0.1-5.97c-1.09-2.77-3.63-3.28-5.75-1.19
		c-0.85,0.84-1.3,1.93-1.8,2.99c-1.05,2.24-1.79,4.63-3.27,6.68c-2.12,2.94-6.09,4.5-9.51,3.36c-2.23-0.75-3.85-2.37-4.76-4.58
		c-1.39-3.39-1.03-6.72,0.41-10.01c0.25-0.57,0.56-1.04,1.2-1.16C504.71,235.97,506.13,235.78,507.57,235.87z"/>
	<path class="st1" d="M49.86,257.71c-3.64-2.31-7.11-3.7-10.41-5.43c-2.53-1.32-5.09-2.58-7.64-3.87c-0.58-0.29-1.35-0.48-1.4-1.25
		c-0.07-1.01-0.28-2.07,0.19-3.03c0.38-0.77,0.98-0.35,1.5-0.09c2.63,1.28,5.27,2.55,7.89,3.85c5.71,2.83,11.4,5.68,17.1,8.53
		c0.65,0.33,1.32,0.65,1.93,1.05c0.67,0.44,0.59,0.99-0.04,1.39c-0.42,0.28-0.92,0.45-1.4,0.62c-8.76,3.12-17.52,6.24-26.28,9.34
		c-2.35,0.83-2.59,1.19-2.51-1.96c0.04-1.42,0.83-1.86,1.95-2.24c5.25-1.82,10.5-3.68,15.74-5.54
		C47.51,258.72,48.49,258.28,49.86,257.71z"/>
	<path class="st1" d="M499.21,155.04c-0.16-0.35-0.34-0.83-0.57-1.28c-0.98-1.88-2-3.74-2.98-5.63c-0.72-1.39-0.67-1.47,0.6-2.24
		c1.88-1.14,2.12-1.13,3.17,0.86c2.85,5.36,5.63,10.76,8.45,16.14c0.51,0.97,1.06,1.92,1.59,2.88c0.33,0.6,0.29,1-0.36,1.45
		c-2.57,1.79-2.55,1.8-4.03-1.13c-0.86-1.7-1.72-3.39-2.64-5.05c-0.75-1.35-0.86-1.39-2.21-0.71c-2.36,1.18-4.68,2.42-7.01,3.65
		c-4.34,2.28-8.69,4.54-12.98,6.9c-1.02,0.56-1.59,0.52-2.06-0.55c-0.15-0.33-0.42-0.61-0.57-0.93c-0.9-1.85-0.57-1.98,0.87-2.71
		c4.82-2.47,9.65-4.92,14.43-7.46c1.81-0.96,3.54-2.05,5.4-2.92C498.76,156.09,499.2,155.79,499.21,155.04z"/>
	<path class="st1" d="M515.94,269.67c-3.66,0-7.32,0.01-10.97-0.01c-0.69,0-1.6,0.25-1.86-0.71c-0.31-1.13-0.5-2.32,0.1-3.4
		c0.26-0.47,0.93-0.33,1.43-0.34c4.61-0.11,9.22-0.22,13.83-0.31c2.63-0.05,5.27-0.06,7.9-0.13c2.22-0.06,2.3-0.14,2.31-2.43
		c0.01-1.97-0.09-3.95-0.11-5.92c-0.01-1.83,0.01-1.83,1.8-1.93c1.84-0.1,2.06,0.04,2.18,1.83c0.09,1.39,0.03,2.78,0.07,4.17
		c0.13,5.56,0.28,11.12,0.38,16.68c0.04,2.08-0.42,2.42-2.44,2.25c-1.08-0.09-1.57-0.56-1.57-1.65c0-2.27-0.04-4.53-0.06-6.8
		c-0.02-1.55-0.2-1.76-1.78-1.76c-3.73-0.02-7.46-0.01-11.19-0.01C515.94,269.35,515.94,269.51,515.94,269.67z"/>
	<path class="st1" d="M174.54,76.78c0.05,0.56-0.16,0.84-0.44,1.09c-2.14,1.89-2.97,1.73-4.35-0.78
		c-3.4-6.15-6.82-12.29-10.24-18.42c-0.93-1.67-0.96-1.67-2.68-0.74c-1.86,1.01-3.71,2.05-5.57,3.08c-1.42,0.79-1.6,0.75-2.43-0.58
		c-1.1-1.75-1.08-2.03,0.75-3.05c6.05-3.41,12.12-6.79,18.2-10.15c0.54-0.3,1.2-0.87,1.82-0.37c0.81,0.65,1.32,1.59,1.42,2.63
		c0.06,0.69-0.61,0.91-1.13,1.19c-1.93,1.04-3.86,2.09-5.77,3.17c-1.62,0.91-1.65,1.04-0.72,2.71c3.45,6.2,6.91,12.39,10.36,18.59
		C174.05,75.72,174.31,76.32,174.54,76.78z"/>
	<path class="st1" d="M528.89,228.58c-1.93-0.3-3.5-1.43-5.2-2.18c-2.94-1.3-5.82-2.74-8.72-4.14c-1.16-0.56-2.31-0.68-3.61-0.36
		c-3.91,0.96-7.84,1.8-11.77,2.7c-1.59,0.36-1.67,0.32-2.09-1.32c-0.07-0.28-0.13-0.57-0.18-0.86c-0.34-1.84-0.34-1.87,1.51-2.31
		c3.63-0.85,7.25-1.74,10.91-2.47c1.77-0.35,3.06-1.2,4.15-2.59c2.48-3.17,5.03-6.28,7.54-9.42c0.5-0.62,0.93-1.31,1.64-1.75
		c1.75,2.46,1.73,4.42-0.05,6.56c-1.73,2.08-3.47,4.16-5.19,6.25c-1.1,1.33-1.07,1.65,0.49,2.44c2.54,1.28,5.09,2.57,7.71,3.68
		c1.49,0.63,2.47,1.43,2.59,3.13C528.69,226.79,529.33,227.57,528.89,228.58z"/>
	<path class="st1" d="M211.57,61.44c-1.14,0.16-1.36-0.5-1.56-1.13c-0.7-2.31-1.38-4.63-2.07-6.94c-1.81-6.1-3.62-12.19-5.44-18.28
		c-0.49-1.65-0.43-1.82,1.22-2.37c0.21-0.07,0.42-0.11,0.64-0.17c1.78-0.48,1.83-0.49,2.34,1.19c1.53,5.04,3.01,10.09,4.51,15.14
		c0.62,2.1,1.29,4.19,1.86,6.31c0.3,1.08,0.82,1.41,1.91,1.06c2.86-0.91,5.73-1.76,8.6-2.63c0.49-0.15,0.99-0.28,1.47-0.44
		c0.92-0.31,1.38,0.14,1.65,0.94c0.12,0.35,0.2,0.7,0.28,1.06c0.33,1.44,0.25,1.63-1.15,2.05c-3.71,1.1-7.44,2.17-11.16,3.26
		C213.57,60.8,212.46,61.16,211.57,61.44z"/>
	<path class="st1" d="M31.83,236.88c0.01-0.15,0.02-0.29,0.04-0.44c0.24-2.4,0.36-2.48,2.68-2.14c8.34,1.23,16.67,2.44,25.01,3.67
		c0.68,0.1,1.75-0.1,1.8,0.84c0.06,1.12,0.2,2.38-0.55,3.39c-0.29,0.39-0.8,0.28-1.24,0.22c-5.66-0.8-11.32-1.6-16.97-2.4
		c-3.12-0.44-6.23-0.9-9.35-1.34C31.73,238.47,31.7,238.44,31.83,236.88z"/>
</g>
</svg>
