<?xml version="1.0" encoding="utf-8"?>
<!-- Generator: Adobe Illustrator 27.0.0, SVG Export Plug-In . SVG Version: 6.00 Build 0)  -->
<svg version="1.1" id="Layer_1" xmlns="http://www.w3.org/2000/svg" xmlns:xlink="http://www.w3.org/1999/xlink" x="0px" y="0px"
	 viewBox="0 0 573 499" style="enable-background:new 0 0 573 499;" xml:space="preserve">
<style type="text/css">
	.st0{fill:#D8D9D3;}
	.st1{fill:#FFFFFF;}
	.st2{fill:#2C70B4;}
	.st3{fill:#9FA2A3;}
	.st4{fill:#FCFDFF;}
	.st5{fill:none;}
</style>
<g id="ISO_20000">
	<path class="st0" d="M302.38,472.89c0.01,0.1,0.01,0.21,0.01,0.31c-4.3,0-8.59,0-12.89,0c0-0.11,0-0.21,0-0.32
		C293.8,472.89,298.09,472.89,302.38,472.89z"/>
	<circle class="st1" cx="297.13" cy="245.37" r="222.33"/>
	<path class="st2" d="M302.38,472.89c-4.29,0-8.58,0-12.87-0.01c-3.61-0.24-7.21-0.51-10.82-0.72c-6.8-0.39-13.54-1.27-20.25-2.38
		c-10.77-1.79-21.37-4.34-31.77-7.67c-17.83-5.71-34.71-13.49-50.62-23.37c-14.01-8.71-26.93-18.81-38.77-30.3
		c-13.94-13.53-25.95-28.58-36.06-45.15c-9.66-15.83-17.24-32.6-22.78-50.28c-3.39-10.83-5.95-21.86-7.67-33.08
		c-1.9-12.44-2.88-24.96-2.77-37.54c0.06-6.87,0.58-13.71,1.24-20.55c1-10.32,2.75-20.51,5.19-30.58
		c6.97-28.83,19.14-55.26,36.43-79.35c8.72-12.14,18.52-23.34,29.45-33.53c18.68-17.42,39.65-31.4,63-41.81
		c15.34-6.85,31.24-11.91,47.7-15.24c8.05-1.63,16.17-2.79,24.37-3.5c8.74-0.76,17.49-1.23,26.27-0.93
		c7.35,0.25,14.68,0.77,21.99,1.64c11.64,1.39,23.1,3.68,34.38,6.86c21.57,6.07,41.78,15.18,60.67,27.23
		c15.59,9.94,29.75,21.63,42.49,35.01c15.15,15.91,27.76,33.64,37.81,53.18c8.93,17.37,15.48,35.6,19.74,54.64
		c1.98,8.85,3.34,17.81,4.24,26.84c1.03,10.33,1.38,20.67,0.98,31.04c-0.36,9.37-1.28,18.69-2.78,27.96
		c-1.81,11.21-4.4,22.23-7.87,33.03c-9.37,29.15-23.99,55.37-43.89,78.64c-20.36,23.81-44.61,42.64-72.68,56.54
		c-16.89,8.36-34.57,14.46-53,18.39c-9.9,2.11-19.89,3.6-30,4.27C309.96,472.41,306.17,472.65,302.38,472.89z M295.86,461.4
		c5.46,0.06,10.91-0.22,16.36-0.62c7.04-0.51,14.02-1.38,20.97-2.57c19.95-3.42,39-9.6,57.22-18.4
		c24.25-11.71,45.3-27.77,63.87-47.15c2.29-2.39,4.48-4.88,6.62-7.41c17.69-20.78,31.03-44.04,39.93-69.85
		c4.93-14.3,8.29-28.95,10.12-43.97c0.89-7.31,1.37-14.64,1.6-21.99c0.26-8.59-0.23-17.15-1.04-25.7
		c-0.55-5.79-1.34-11.56-2.39-17.27c-1.66-9.03-3.89-17.93-6.67-26.7c-4.22-13.29-9.67-26.05-16.38-38.26
		c-6.95-12.66-15.13-24.5-24.4-35.58c-9.87-11.8-20.95-22.37-33.09-31.81c-12-9.32-24.87-17.25-38.55-23.86
		c-8.34-4.03-16.9-7.52-25.69-10.43c-14-4.63-28.32-7.82-42.98-9.5c-6.34-0.72-12.7-1.13-19.06-1.39c-8.4-0.34-16.8,0.09-25.17,0.8
		c-7.82,0.66-15.58,1.8-23.27,3.38c-11.65,2.4-23.06,5.69-34.17,9.96c-16.2,6.23-31.44,14.24-45.71,24.12
		c-6.59,4.56-12.92,9.45-18.95,14.74c-7.24,6.35-14.09,13.07-20.42,20.33c-8.64,9.91-16.41,20.44-23.21,31.69
		c-6.07,10.04-11.27,20.51-15.61,31.41c-4.93,12.38-8.68,25.11-11.27,38.19c-1.6,8.06-2.8,16.18-3.34,24.38
		c-0.45,7.02-0.72,14.05-0.56,21.11c0.18,7.97,0.61,15.91,1.58,23.83c1.39,11.34,3.75,22.47,6.95,33.42
		c5.97,20.37,14.77,39.44,26.33,57.24c6.23,9.58,13.28,18.53,20.87,27.05c1.39,1.56,2.49,3.5,4.7,4.18
		c0.21,0.06,0.35,0.33,0.51,0.51c3.15,3.52,6.64,6.7,10.11,9.9c9.3,8.58,19.34,16.22,29.98,23.05c8.98,5.76,18.36,10.83,28.12,15.15
		c9.76,4.32,19.8,7.87,30.12,10.64C258.23,458.93,276.89,461.38,295.86,461.4z"/>
	<path class="st2" d="M451.91,245.42c0.09,84.75-68.26,155.24-155.05,155.52c-87.11,0.27-156.13-70.13-156.13-155.58
		c0.01-86.34,70.33-156.63,157.56-155.58C383.62,90.81,452.03,160.35,451.91,245.42z M296.24,101.34
		c-78.71-0.1-144.72,63.98-143.93,145.54c0.77,79.97,66.52,143.57,146.06,142.5c77.34-1.04,142.07-63.87,142-144.17
		C440.3,164.69,374.84,101.16,296.24,101.34z"/>
	<g>
		<path class="st3" d="M293.83,96.82c11.55,0.1,23.02,0.85,34.35,3.35c24.21,5.35,45.78,15.99,64.73,31.95
			c8.95,7.53,16.85,16.06,23.8,25.47c0.29,0.39,0.75,0.66,1.13,0.99c0.23,1.29,1.16,2.17,1.85,3.18
			c59.82,87.6,11.28,208.34-92.52,230.08c-81.1,16.99-160.84-35.82-176.87-117.13c-15.96-80.98,37.44-160.04,118.33-175.23
			C276.97,97.91,285.37,97.13,293.83,96.82z M325.79,247.33c-0.18,21.8,8.57,36.11,27.16,43.91c16.24,6.82,32.83,6.56,49.25,0.93
			c13.82-4.74,22.69-14.43,26.3-28.82c2.69-10.71,2.68-21.35,0.54-32.16c-2.8-14.14-10.97-23.76-24.03-29.24
			c-16.12-6.76-32.63-7.36-49.24-1.94c-13.97,4.55-23.64,13.52-27.5,28.04C326.58,234.35,325.83,240.8,325.79,247.33z
			 M298.69,204.45c-0.3-0.04-0.53-0.02-0.71-0.1c-1.47-0.75-2.88-1.63-4.39-2.27c-16.32-6.91-32.84-8.32-49-0.08
			c-17.32,8.83-19.51,33.14-4.57,45.62c5.6,4.68,12.23,7.14,19.05,9.23c10.14,3.11,20.28,6.19,30.42,9.29
			c1.75,0.54,3.52,1.41,3.44,3.44c-0.09,2.1-2.02,2.54-3.79,2.99c-4.25,1.07-8.58,1.47-12.9,1.01
			c-10.11-1.09-19.01-4.57-24.87-13.53c-0.62-0.95-1.32-1.42-2.5-1.41c-5.26,0.08-10.53,0.11-15.79,0.09
			c-1.24,0-1.84,0.25-1.87,1.68c-0.23,10.63-0.45,21.25-0.01,31.88c0.05,1.23,0.29,1.85,1.72,1.83c5.88-0.09,11.76-0.1,17.65-0.08
			c1.23,0,1.79-0.27,1.95-1.66c0.59-4.98,0.66-4.97,5.04-2.63c0.36,0.19,0.71,0.42,1.09,0.58c15.92,6.78,32.07,8.5,48.26,1.28
			c13.02-5.81,19.66-21.1,15-34.18c-3.83-10.76-11.82-17.37-22.5-20.88c-3.62-1.19-7.32-2.11-10.98-3.16
			c-7.81-2.26-15.64-4.47-23.43-6.82c-2.25-0.68-4.96-1.51-4.62-4.54c0.32-2.84,3-3.32,5.34-3.84c0.1-0.02,0.2-0.06,0.3-0.06
			c10.55-0.14,21.18,1.06,28.76,8.81c4.63,4.73,9.14,5.62,14.87,5.25c2.57-0.17,5.16-0.16,7.74-0.05c1.94,0.09,2.71-0.46,2.67-2.57
			c-0.17-9.49-0.23-18.99-0.2-28.48c0-1.92-0.87-2.21-2.43-2.19c-4.54,0.06-9.09,0.2-13.62,0.03c-3.27-0.12-5.41,0.51-4.76,4.43
			C299.11,203.7,298.81,204.1,298.69,204.45z M194.11,294.09c9.49,0,18.98-0.07,28.47,0.05c2.22,0.03,2.74-0.64,2.69-2.76
			c-0.14-5.98-0.14-11.97,0-17.95c0.05-2.01-0.68-2.42-2.47-2.39c-3.3,0.05-6.6-0.12-9.9-0.17c-1.48-0.02-2.1-0.53-2.09-2.2
			c0.1-14.96,0.13-29.92,0.07-44.87c-0.01-2.01,0.77-2.41,2.54-2.38c3.2,0.06,6.4-0.17,9.59-0.1c1.75,0.04,2.31-0.56,2.28-2.29
			c-0.1-6.39-0.12-12.79-0.08-19.18c0.01-1.66-0.41-2.33-2.24-2.32c-19.19,0.05-38.38,0.04-57.56-0.02
			c-1.86-0.01-2.52,0.53-2.49,2.44c0.1,6.29,0.11,12.58-0.01,18.87c-0.04,2.02,0.77,2.37,2.53,2.36c3.19-0.02,6.39,0.25,9.58,0.28
			c1.46,0.02,1.92,0.54,1.91,2.01c-0.05,15.06-0.05,30.12,0,45.18c0.01,1.8-0.71,2.28-2.36,2.28c-3.2-0.02-6.4,0.21-9.59,0.15
			c-1.72-0.03-2.36,0.51-2.34,2.27c0.07,6.09,0.09,12.17-0.02,18.26c-0.04,2.08,0.73,2.55,2.7,2.53
			C174.92,294.04,184.52,294.09,194.11,294.09z M360.22,186.61c-0.53-0.95-0.95-1.86-1.51-2.69c-2.77-4.11-5.68-8.13-9.09-11.72
			c-1.79-1.89-1.41-2.73,0.69-3.76c2.31-1.14,4.54-2.45,6.7-3.83c1.64-1.04,2.88-0.88,4.38,0.35c6.97,5.72,13.36,12.01,18.59,19.36
			c1.62,2.27,3.32,3.11,5.93,2.38c-14.46-24.19-48.44-49.61-91.41-49.68c-40.06-0.07-71.86,16.54-95.32,49.6
			c4.07,0.72,4.07,0.72,5.98-1.8c5.49-7.28,11.55-14,18.84-19.54c1.03-0.78,1.92-1.75,3.52-0.71c2.58,1.69,5.3,3.17,8.04,4.61
			c1.61,0.84,1.71,1.53,0.52,2.93c-3.35,3.92-6.55,7.97-9.23,12.39c-0.45,0.74-1.9,1.57-0.74,2.55c0.88,0.74,2.26,0.34,3.24-0.2
			c0.66-0.36,1.11-1.17,1.58-1.84c2.75-3.87,5.7-7.58,8.82-11.16c1.23-1.41,2.31-1.58,3.98-0.91c3.44,1.37,6.94,2.6,10.45,3.8
			c6.08,2.06,6.07,2.02,3.7,7.8c-0.32,0.77-1.66,1.91-0.03,2.45c1.12,0.37,2.72,0.64,3.51-0.98c0.64-1.29,1.36-2.56,1.85-3.9
			c0.68-1.84,1.69-2.45,3.73-2.01c7.07,1.51,14.24,2.35,21.47,2.49c1.69,0.03,2.54,0.6,2.37,2.35c-0.13,1.29,0.03,2.2,1.73,2.08
			c1.3-0.1,2.62,0.06,2.39-1.84c-0.28-2.24,1.05-2.48,2.82-2.53c5.89-0.17,11.71-0.96,17.51-1.97c5.32-0.93,5.43-1.01,7.88,3.98
			c1.15,2.35,2.64,2.86,4.99,2.04c-0.4-2.39-1.7-4.4-2.61-6.56c-0.53-1.24-0.31-1.74,1.05-2.11c5.37-1.46,10.57-3.44,15.69-5.61
			c1.65-0.7,2.44-0.06,3.39,1.03c3.14,3.56,6.21,7.2,8.79,11.18C355.87,186.91,357.54,187.53,360.22,186.61z M199.63,304.77
			c21.43,32.79,61.95,54.56,107.27,49.28c16.29-1.9,31.49-7.12,45.46-15.77c13.91-8.61,25.34-19.72,34.39-33.42
			c-3.11-1.05-4.71,0.19-6.28,2.37c-4.84,6.72-10.58,12.64-16.78,18.14c-2.28,2.03-4.18,2.93-6.85,0.67
			c-1.47-1.24-3.38-1.95-5.08-2.92c-3.17-1.81-3.15-1.8-0.82-4.67c3.54-4.35,7.06-8.72,9.73-13.76c-2.94-0.89-4.63,0.09-6.08,2.45
			c-2.38,3.87-5.28,7.37-8.27,10.79c-1.12,1.28-2.12,1.53-3.72,0.87c-3.61-1.49-7.28-2.86-10.98-4.11c-5.78-1.96-5.78-1.89-3.48-7.6
			c0.32-0.8,1.53-2,0.11-2.53c-1.04-0.39-2.69-0.8-3.51,0.89c-0.67,1.39-1.52,2.71-2.09,4.13c-0.68,1.68-1.56,2.31-3.5,1.91
			c-6.87-1.43-13.83-2.27-20.84-2.67c-1.85-0.11-3.57-0.24-3.16-2.88c0.25-1.56-0.91-1.51-2-1.55c-1.21-0.05-2.08,0.17-1.86,1.65
			c0.39,2.55-1.14,2.84-3.16,2.89c-5.47,0.14-10.9,0.8-16.29,1.72c-6.28,1.07-6.28,1.08-9.44-4.54c-0.2-0.36-0.33-0.77-0.6-1.08
			c-0.97-1.13-2.36-1.01-3.4-0.52c-1.27,0.6-0.07,1.59,0.19,2.35c0.42,1.26,0.95,2.51,1.59,3.68c0.93,1.71,0.81,2.66-1.35,3.22
			c-5.09,1.32-10.03,3.11-14.85,5.2c-1.8,0.78-2.79,0.34-3.94-1.01c-3.14-3.69-6.37-7.34-8.91-11.48c-1.42-2.31-3.02-2.73-5.44-1.69
			c2.98,5.49,6.81,10.21,10.7,14.87c1.31,1.57,1.15,2.25-0.6,3.14c-2.48,1.26-4.88,2.67-7.23,4.16c-1.66,1.05-2.85,0.8-4.36-0.44
			c-7.08-5.78-13.42-12.25-18.66-19.72C203.97,304.51,202.28,303.99,199.63,304.77z"/>
		<path class="st2" d="M325.79,247.33c0.05-6.52,0.79-12.97,2.46-19.27c3.86-14.52,13.53-23.49,27.5-28.04
			c16.62-5.42,33.13-4.82,49.24,1.94c13.06,5.48,21.23,15.11,24.03,29.24c2.14,10.8,2.15,21.44-0.54,32.16
			c-3.61,14.39-12.48,24.08-26.3,28.82c-16.41,5.63-33,5.88-49.25-0.93C334.36,283.44,325.61,269.13,325.79,247.33z M394.13,250.06
			c-0.13-7.18,0.01-12.44-0.54-17.68c-0.65-6.1-3.3-9.46-9.12-10.99c-2.69-0.71-5.46-1.05-8.26-0.69
			c-9.24,1.19-12.18,3.93-13.43,13.15c-1.2,8.83-0.93,17.7,0.4,26.5c1.06,6.98,3.97,9.86,10.84,11.25c2.95,0.6,5.96,0.62,8.93,0.09
			c6.52-1.17,9.96-4.99,10.57-11.83C393.87,255.97,394.01,252.05,394.13,250.06z"/>
		<path class="st2" d="M298.69,204.45c0.13-0.35,0.42-0.75,0.36-1.09c-0.65-3.92,1.49-4.55,4.76-4.43
			c4.53,0.17,9.08,0.03,13.62-0.03c1.56-0.02,2.44,0.27,2.43,2.19c-0.02,9.49,0.03,18.99,0.2,28.48c0.04,2.11-0.73,2.65-2.67,2.57
			c-2.57-0.11-5.17-0.12-7.74,0.05c-5.73,0.37-10.24-0.52-14.87-5.25c-7.58-7.75-18.2-8.95-28.76-8.81c-0.1,0-0.2,0.04-0.3,0.06
			c-2.35,0.52-5.02,1-5.34,3.84c-0.34,3.03,2.37,3.86,4.62,4.54c7.79,2.35,15.61,4.56,23.43,6.82c3.66,1.06,7.36,1.98,10.98,3.16
			c10.68,3.5,18.67,10.12,22.5,20.88c4.65,13.08-1.99,28.37-15,34.18c-16.19,7.22-32.34,5.5-48.26-1.28
			c-0.38-0.16-0.73-0.39-1.09-0.58c-4.38-2.34-4.44-2.35-5.04,2.63c-0.17,1.39-0.73,1.67-1.95,1.66
			c-5.88-0.02-11.77-0.01-17.65,0.08c-1.43,0.02-1.67-0.59-1.72-1.83c-0.44-10.63-0.22-21.25,0.01-31.88
			c0.03-1.43,0.63-1.68,1.87-1.68c5.26,0.02,10.53-0.01,15.79-0.09c1.19-0.02,1.88,0.46,2.5,1.41c5.85,8.97,14.76,12.45,24.87,13.53
			c4.32,0.46,8.65,0.06,12.9-1.01c1.77-0.45,3.7-0.88,3.79-2.99c0.09-2.04-1.68-2.91-3.44-3.44c-10.14-3.1-20.29-6.18-30.42-9.29
			c-6.82-2.09-13.45-4.55-19.05-9.23c-14.94-12.48-12.75-36.79,4.57-45.62c16.16-8.24,32.68-6.83,49,0.08
			c1.51,0.64,2.92,1.52,4.39,2.27C298.15,204.44,298.38,204.41,298.69,204.45z"/>
		<path class="st2" d="M194.11,294.09c-9.59,0-19.19-0.05-28.78,0.04c-1.96,0.02-2.74-0.45-2.7-2.53
			c0.11-6.08,0.09-12.17,0.02-18.26c-0.02-1.76,0.61-2.3,2.34-2.27c3.19,0.06,6.39-0.17,9.59-0.15c1.65,0.01,2.37-0.48,2.36-2.28
			c-0.05-15.06-0.05-30.12,0-45.18c0-1.46-0.45-1.99-1.91-2.01c-3.2-0.04-6.39-0.31-9.58-0.28c-1.77,0.01-2.57-0.34-2.53-2.36
			c0.12-6.29,0.11-12.58,0.01-18.87c-0.03-1.91,0.63-2.44,2.49-2.44c19.19,0.06,38.38,0.08,57.56,0.02
			c1.83-0.01,2.25,0.67,2.24,2.32c-0.04,6.39-0.03,12.79,0.08,19.18c0.03,1.74-0.53,2.33-2.28,2.29c-3.19-0.07-6.4,0.16-9.59,0.1
			c-1.77-0.03-2.54,0.36-2.54,2.38c0.06,14.96,0.03,29.92-0.07,44.87c-0.01,1.67,0.61,2.18,2.09,2.2c3.3,0.05,6.6,0.22,9.9,0.17
			c1.8-0.03,2.52,0.38,2.47,2.39c-0.14,5.98-0.14,11.97,0,17.95c0.05,2.12-0.47,2.79-2.69,2.76
			C213.1,294.02,203.6,294.09,194.11,294.09z"/>
		<path class="st3" d="M394.13,250.06c-0.12,1.99-0.26,5.9-0.61,9.8c-0.62,6.84-4.05,10.66-10.57,11.83
			c-2.96,0.53-5.98,0.51-8.93-0.09c-6.87-1.39-9.78-4.27-10.84-11.25c-1.34-8.8-1.6-17.67-0.4-26.5
			c1.25-9.23,4.19-11.96,13.43-13.15c2.8-0.36,5.57-0.02,8.26,0.69c5.82,1.53,8.47,4.9,9.12,10.99
			C394.14,237.63,393.99,242.88,394.13,250.06z"/>
		<path class="st3" d="M290.64,167.09c0,2.99-0.07,5.97,0.03,8.96c0.05,1.62-0.33,2.53-2.15,2.51c-6.82-0.06-13.53-0.98-20.2-2.32
			c-1.42-0.28-1.45-1-0.8-2.16c3.75-6.65,7.95-12.98,12.77-18.9c0.74-0.91,1.53-1.27,2.65-1.06c8.83,1.64,7.46-1.08,7.74,8.03
			c0.05,1.65,0.01,3.29,0.01,4.94C290.68,167.09,290.66,167.09,290.64,167.09z"/>
		<path class="st3" d="M294.99,166.92c0-3.19,0.08-6.39-0.04-9.58c-0.06-1.58,0.53-2.21,2.03-2.35c1.74-0.17,3.47-0.47,5.19-0.76
			c1-0.17,1.73,0.02,2.41,0.89c4.66,5.91,9.1,11.95,12.74,18.56c0.91,1.65,0.58,2.28-1.19,2.62c-6.28,1.21-12.59,2.06-18.99,2.23
			c-1.88,0.05-2.26-0.71-2.22-2.33c0.07-3.09,0.02-6.18,0.02-9.27C294.97,166.92,294.98,166.92,294.99,166.92z"/>
		<path class="st3" d="M340.58,168.56c-5.41,2.42-10.5,4.28-15.78,5.68c-1.52,0.4-2.23,0.01-2.96-1.23
			c-3.76-6.38-7.83-12.56-12.3-18.47c-0.98-1.29-0.99-1.85,0.58-2.73c3.12-1.75,5.73-1.89,8.99,0.14
			C326.74,156.67,333.92,161.88,340.58,168.56z"/>
		<path class="st3" d="M245.18,168.53c0.42-0.47,0.8-0.95,1.24-1.36c6.76-6.25,14.06-11.79,22.17-16.19
			c1.45-0.79,6.27,0.13,7.49,1.3c0.82,0.79,0.16,1.34-0.23,1.84c-4.8,6.09-8.8,12.71-12.73,19.36c-0.68,1.15-1.48,1.29-2.57,0.98
			c-4.75-1.36-9.48-2.8-14.03-4.74C245.95,169.48,245.37,169.31,245.18,168.53z"/>
		<path class="st3" d="M316.26,143.58c-11.36,9.83-36.25,9.85-47.4,0.02C284.78,140.17,300.36,139.91,316.26,143.58z"/>
		<path class="st3" d="M229.86,161.03c5.81-4.45,11.88-7.83,18.27-10.64c3.85-1.69,7.77-3.23,11.71-4.71
			c1.01-0.38,2.24-0.44,3.31-0.28c0.97,0.15,2.07,0.8,2.29,1.81c0.21,0.93-1,1.14-1.64,1.55c-7.63,4.93-14.89,10.34-21.42,16.67
			c-1.21,1.17-2.24,1.45-3.8,0.7C235.63,164.73,232.81,163.12,229.86,161.03z"/>
		<path class="st3" d="M355.58,160.79c-3.44,1.93-6.5,3.57-9.49,5.33c-1.37,0.81-2.06-0.04-2.88-0.84
			c-6.59-6.41-13.91-11.87-21.74-16.68c-0.69-0.42-2.13-0.62-1.6-1.81c0.43-0.98,1.49-1.75,2.77-1.55c1.01,0.16,2,0.48,2.98,0.77
			C336.24,149.18,346.02,154.04,355.58,160.79z"/>
		<path class="st3" d="M301.41,313.16c5.16,0.2,10.23,1.05,15.31,1.91c2.62,0.44,2.59,1.27,1.4,3.3
			c-3.53,6.06-7.45,11.84-11.64,17.46c-1.18,1.58-2.42,1.89-4.21,1.68c-6.73-0.76-6.81-0.72-6.95-7.52
			c-0.1-4.53,0.16-9.07,0.01-13.6c-0.1-3,0.93-4.17,3.92-3.41C299.95,313.16,300.69,313.11,301.41,313.16z"/>
		<path class="st3" d="M291.32,324.85c0,3.19-0.07,6.39,0.03,9.58c0.05,1.57-0.51,2.32-2.06,2.36c-0.21,0.01-0.43-0.01-0.61,0.06
			c-5.13,1.82-8.31-0.35-11.05-4.68c-3.03-4.77-6.29-9.4-9.11-14.32c-0.97-1.69-0.9-2.41,1.28-2.8c6.2-1.1,12.43-1.75,18.7-2.23
			c2.23-0.17,2.87,0.62,2.76,2.75c-0.15,3.08-0.04,6.18-0.04,9.27C291.25,324.85,291.29,324.85,291.32,324.85z"/>
		<path class="st3" d="M262,316.97c1.24-0.33,1.62,0.59,2.07,1.4c3.64,6.58,7.88,12.78,12.26,18.87c1.1,1.53,0.71,1.96-0.82,2.84
			c-3.12,1.81-5.71,1.46-8.75-0.37c-7.09-4.27-13.73-9.05-19.73-14.75c-1.44-1.36-1.93-2.11,0.41-3.06
			C252.2,319.98,257.02,318.25,262,316.97z"/>
		<path class="st3" d="M341.07,322.82c-7.15,7.74-15.37,13.64-24.46,18.39c-0.96,0.5-6.19-1.13-6.73-2.01
			c-0.42-0.69,0.11-1.17,0.43-1.6c4.62-6.19,8.81-12.66,12.52-19.43c0.53-0.96,1.13-1.4,2.21-1.13
			C330.48,318.44,335.86,320.05,341.07,322.82z"/>
		<path class="st3" d="M269.59,348.23c9.78-9.79,38.4-9.8,47.53,0.02C301.18,351.76,285.52,351.91,269.59,348.23z"/>
		<path class="st3" d="M323.37,346.62c-1.12-0.31-2.29-0.87-2.71-1.86c-0.6-1.4,1.03-1.49,1.77-1.95
			c7.64-4.73,14.72-10.18,21.16-16.44c1.29-1.25,2.33-1.71,4-0.75c2.81,1.62,5.98,2.64,8.21,5.17c-2.13,2.29-4.84,3.77-7.49,5.31
			c-7.4,4.3-15.23,7.63-23.45,10.05C324.37,346.3,323.88,346.46,323.37,346.62z"/>
		<path class="st3" d="M230.15,330.79c3.37-1.9,6.25-3.47,9.06-5.15c1.3-0.77,2.17-0.53,3.22,0.5c6.66,6.5,14.13,11.97,21.95,17
			c0.64,0.41,2.14,0.68,1.45,1.82c-0.58,0.96-1.59,1.97-3.08,1.51c-2.26-0.71-4.53-1.35-6.76-2.12
			C246.89,341.19,238.46,336.76,230.15,330.79z"/>
	</g>
	<path class="st2" d="M243.06,427.4c-1.88,2.87-4.42,4.56-7.8,4.55c-5.06-0.01-9.29-2.09-12.65-5.81c-2.47-2.73-3.13-6.08-2.55-9.63
		c0.69-4.2,2.49-7.94,5.35-11.13c4.13-4.61,9.67-5.85,15.37-3.48c2.94,1.22,5.52,2.95,7.28,5.68c1.77,2.75,1.77,5.6,0.44,8.7
		c-1.84-0.92-3.52-1.79-5.23-2.61c-0.55-0.26-0.71-0.61-0.54-1.17c1.36-4.46-4.52-7.76-8.47-5.79c-0.27,0.14-0.57,0.25-0.81,0.43
		c-4.64,3.43-7.27,7.94-6.92,13.82c0.21,3.44,3.81,6.07,7.2,5.56c1.16-0.17,2.05-0.79,2.82-1.61c0.37-0.4,0.7-0.61,1.26-0.31
		c1.46,0.77,2.95,1.5,4.42,2.26C242.5,427,242.74,427.19,243.06,427.4z"/>
	<path class="st2" d="M370.46,411.95c0.13-0.65-0.31-1.14-0.55-1.66c-1.1-2.46-2.21-4.92-3.4-7.34c-0.43-0.88-0.28-1.31,0.62-1.65
		c1.03-0.39,2.01-0.91,3.01-1.36c1.38-0.61,1.39-0.61,2,0.7c1.98,4.28,3.95,8.57,5.93,12.85c1.97,4.27,3.95,8.55,6,12.98
		c-1.49,0.7-2.99,1.37-4.46,2.09c-0.67,0.33-1.14,0.29-1.45-0.48c-0.13-0.32-0.27-0.69-0.67-0.89c-0.54,0.05-0.52,0.58-0.68,0.92
		c-2.34,4.98-8.79,6.61-13.06,3.13c-3.75-3.06-5.52-7.18-5.15-12.01c0.4-5.15,5.55-8.69,10.59-7.46
		C369.6,411.86,369.96,412.18,370.46,411.95z M375.29,423.08c-0.21-2.58-1.36-5.27-3.78-7.3c-1.5-1.26-3.19-1.45-4.96-0.55
		c-1.68,0.85-2.51,2.35-2.25,4.42c0.35,2.74,1.46,5.17,3.39,7.16c1.34,1.38,2.95,1.91,4.84,1.12
		C374.41,427.14,375.28,425.82,375.29,423.08z"/>
	<path class="st2" d="M264.48,435.83c-1.4,2.95-3.56,4.4-6.55,4.62c-2.82,0.21-5.48-0.45-7.96-1.77c-3.81-2.03-5.56-5.54-4.87-9.8
		c0.28-1.76,0.82-3.45,1.64-5.04c2.3-4.47,6.25-6.36,11.15-5.31c0.24,0.05,0.48,0.12,0.71,0.18c6.81,1.8,9.43,6.83,7.12,13.9
		c-0.28,0.85-0.71,0.78-1.39,0.58c-3.8-1.17-7.62-2.3-11.41-3.48c-2.08-0.65-2.03-0.66-2.32,1.58c-0.38,2.91,1.82,5.36,4.72,5.37
		c1.22,0,2.32-0.48,2.95-1.56c0.52-0.91,1.1-0.91,1.97-0.59C261.54,434.98,262.9,435.34,264.48,435.83z M261.19,426.56
		c0.03-2.42-1.33-4.03-3.66-4.44c-2.17-0.38-4.47,0.97-5.11,2.98c-0.16,0.52-0.04,0.81,0.48,0.97c2.4,0.72,4.79,1.45,7.19,2.18
		c0.64,0.19,0.91-0.15,1.01-0.71C261.16,427.17,261.17,426.81,261.19,426.56z"/>
	<path class="st2" d="M348.14,418.67c4.59-0.05,7.28,2.04,8.92,5.65c1.63,3.58,1.61,3.59-2.11,4.68c-3.29,0.96-6.59,1.9-9.87,2.87
		c-1.29,0.38-1.28,0.41-0.76,1.62c1.13,2.64,2.96,3.76,5.43,3.34c2.04-0.35,3.29-1.61,3.42-3.68c0.05-0.83,0.32-1.21,1.08-1.41
		c1.19-0.3,2.38-0.6,3.53-1c0.89-0.31,1.14,0.12,1.14,0.84c-0.01,1.88-0.47,3.63-1.73,5.1c-2.77,3.23-8.91,5.02-12.97,3.73
		c-2.55-0.81-4.25-2.61-5.37-4.97c-1.03-2.18-1.57-4.48-1.53-6.93c0.06-3.55,1.58-6.23,4.65-8
		C344.03,419.3,346.23,418.6,348.14,418.67z M342.8,426.94c-0.02,1.84,0.07,1.9,1.85,1.4c1.94-0.55,3.88-1.1,5.82-1.67
		c1.31-0.39,1.36-0.54,0.76-1.78c-0.99-2.03-2.7-2.88-4.82-2.39C344.14,423.01,342.82,424.64,342.8,426.94z"/>
	<path class="st2" d="M318.5,446.04c-2.12,0.16-2.15,0.16-2.38-1.95c-0.43-4.08-0.83-8.17-1.25-12.26
		c-0.24-2.36-0.24-2.36-2.53-2.14c-0.31,0.03-0.61,0.03-0.92,0.06c-0.59,0.06-0.95-0.16-0.96-0.8c0-0.06-0.02-0.12-0.01-0.18
		c0.07-0.92-0.64-1.93-0.11-2.69c0.5-0.72,1.61-0.29,2.44-0.46c1.4-0.28,1.45-0.25,1.26-1.63c-0.15-1.1-0.17-2.18-0.01-3.29
		c0.37-2.46,1.8-3.98,4.1-4.69c1.71-0.53,3.49-0.61,5.28-0.62c0.72-0.01,1,0.32,1.03,0.98c0,0.06,0.01,0.12,0.01,0.18
		c0.05,0.85,0.4,1.84,0.08,2.51c-0.33,0.68-1.45,0.29-2.22,0.43c-1.7,0.33-2.3,1.01-2.32,2.73c0,0.25,0,0.49,0.01,0.74
		c0.08,1.77,0.1,1.79,1.95,1.68c0.43-0.03,0.86-0.07,1.28-0.12c1.75-0.23,1.75-0.23,1.93,1.61c0.2,2.14,0.2,2.14-1.96,2.41
		c-2.68,0.34-2.64,0.34-2.32,3.12c0.48,4.14,0.93,8.28,1.35,12.43c0.15,1.51,0.1,1.52-1.35,1.71
		C320.09,445.9,319.29,445.96,318.5,446.04z"/>
	<path class="st2" d="M294.86,419.89c0.27,1.62-0.11,3-0.16,4.4c-0.05,1.4-0.04,1.4,1.39,1.48c0.24,0.01,0.49,0,0.73,0.02
		c2.67,0.18,2.91,0.51,2.55,3.18c-0.1,0.75-0.35,1.1-1.17,0.99c-0.91-0.13-1.83-0.12-2.74-0.22c-0.9-0.1-1.16,0.31-1.21,1.14
		c-0.19,2.99-0.48,5.98-0.64,8.97c-0.12,2.21,0.65,2.98,2.87,3.12c1.87,0.12,1.87,0.12,1.65,1.94c-0.25,2.03-0.25,2.01-2.24,2.05
		c-1.42,0.03-2.82-0.09-4.21-0.33c-2.78-0.49-4.1-1.98-4.02-4.81c0.09-3.18,0.38-6.35,0.58-9.53c0.01-0.12,0.04-0.24,0.05-0.36
		c0.3-2.68,0.3-2.68-2.35-2.87c-1.53-0.11-1.53-0.11-1.38-1.63c0.23-2.43,0.23-2.43,2.78-2.24c1.34,0.1,1.34,0.1,1.47-1.17
		c0.04-0.37,0.08-0.73,0.07-1.1c-0.01-0.78,0.33-1.22,1.1-1.44C291.57,421,293.13,420.45,294.86,419.89z"/>
	<path class="st2" d="M275.33,426.78c1.68-1.71,3.47-2.65,5.71-2.45c0.3,0.03,0.61,0.07,0.91,0.11c0.71,0.1,1.12,0.42,0.92,1.22
		c-0.1,0.42-0.13,0.85-0.23,1.26c-0.21,0.89,0.03,2.02-0.65,2.61c-0.66,0.56-1.61-0.17-2.46-0.19c-2.8-0.07-4.44,0.93-5.15,3.69
		c-0.63,2.42-0.96,4.93-1.43,7.39c-0.09,0.48-0.17,0.97-0.26,1.45c-0.42,2.25-0.42,2.25-2.74,1.83c-0.78-0.14-1.57-0.31-2.36-0.4
		c-0.92-0.1-1.23-0.43-1.04-1.44c0.88-4.82,1.68-9.66,2.5-14.49c0.21-1.27,0.39-2.54,0.54-3.82c0.08-0.72,0.25-1.13,1.14-0.92
		c1.25,0.29,2.54,0.44,3.81,0.63c0.77,0.11,1.04,0.52,0.89,1.27C275.31,425.19,275.06,425.84,275.33,426.78z"/>
	<path class="st2" d="M307.8,436.57c0.43,2.87,0.4,5.75,0.46,8.63c0.03,1.45,0.01,1.46-1.35,1.51c-1.22,0.04-2.46,0-3.67,0.11
		c-0.79,0.07-0.94-0.26-0.96-0.92c-0.08-2.63-0.21-5.26-0.29-7.9c-0.11-3.49-0.22-6.98-0.3-10.47c-0.04-1.6,0-1.6,1.62-1.68
		c0.92-0.04,1.84-0.07,2.76-0.08c1.59-0.01,1.69,0.03,1.72,1.6C307.83,430.44,307.8,433.51,307.8,436.57z"/>
	<path class="st2" d="M327.49,424.49c-0.12-0.43,0.19-0.75,0.75-0.85c1.44-0.27,2.89-0.52,4.33-0.79c0.85-0.16,0.87,0.5,0.96,1.01
		c0.41,2.1,0.79,4.21,1.18,6.31c0.71,3.85,1.41,7.7,2.12,11.54c0.28,1.53,0.28,1.54-1.31,1.86c-1.14,0.23-2.29,0.38-3.43,0.63
		c-0.72,0.16-0.99-0.09-1.11-0.78c-0.39-2.23-0.82-4.45-1.23-6.67c-0.71-3.85-1.41-7.7-2.12-11.54
		C327.61,425.04,327.57,424.86,327.49,424.49z"/>
	<path class="st2" d="M332.56,417.78c0.08,0.62-0.21,0.85-0.7,0.93c-1.51,0.26-3.02,0.53-4.52,0.81c-0.62,0.12-0.91-0.11-1.01-0.72
		c-0.15-0.97-0.28-1.94-0.51-2.89c-0.17-0.7,0.01-1.03,0.72-1.15c1.45-0.25,2.89-0.51,4.34-0.79c0.67-0.13,1.04,0.13,1.15,0.81
		C332.2,415.81,332.39,416.83,332.56,417.78z"/>
	<path class="st2" d="M304.39,421.66c-2.99,0.1-2.99,0.1-3.08-2.91c-0.01-0.31-0.01-0.61-0.02-0.92c-0.01-0.59,0.24-0.92,0.86-0.93
		c1.53-0.02,3.06-0.05,4.59-0.09c0.51-0.01,0.82,0.18,0.82,0.73c0,0.24,0.02,0.49,0.02,0.73
		C307.7,421.56,307.7,421.56,304.39,421.66z"/>
	<path class="st4" d="M375.29,423.08c-0.01,2.74-0.87,4.06-2.76,4.85c-1.89,0.79-3.5,0.26-4.84-1.12c-1.93-1.99-3.04-4.42-3.39-7.16
		c-0.26-2.07,0.56-3.56,2.25-4.42c1.77-0.9,3.46-0.71,4.96,0.55C373.93,417.82,375.08,420.51,375.29,423.08z"/>
	<path class="st4" d="M261.19,426.56c-0.02,0.24-0.03,0.61-0.1,0.97c-0.1,0.56-0.37,0.9-1.01,0.71c-2.4-0.73-4.79-1.46-7.19-2.18
		c-0.52-0.16-0.65-0.45-0.48-0.97c0.64-2.01,2.94-3.36,5.11-2.98C259.86,422.54,261.23,424.14,261.19,426.56z"/>
	<path class="st4" d="M342.8,426.94c0.02-2.3,1.34-3.93,3.6-4.45c2.13-0.48,3.83,0.36,4.82,2.39c0.61,1.24,0.55,1.4-0.76,1.78
		c-1.93,0.57-3.88,1.12-5.82,1.67C342.87,428.84,342.79,428.78,342.8,426.94z"/>
	<path class="st2" d="M346.53,313.9c0.33,0.86,0.66,1.72,0.99,2.58c2,7.5,2.09,15.03,0.06,22.52c-1.16,4.27-3.37,7.88-7.54,9.94
		c-4.42,2.18-12.7,2.25-17.11-2.08c-1.37-1.34-2.48-2.87-3.25-4.63c-1.91-4.34-2.59-8.91-2.55-13.62c0.03-2.94,0.08-5.88,0.54-8.8
		c0.22-0.84,0.43-1.68,0.65-2.52c0.33-0.33,0.32-0.78,0.45-1.19c2.24-7.21,7.59-11.04,15.4-10.54c1.62,0.1,3.08,0.74,4.67,0.85
		c0.37,0.15,0.74,0.3,1.11,0.46c0.03,0.1,0.1,0.14,0.2,0.12c0,0,0.08,0.03,0.08,0.03c2.09,1.21,3.85,2.76,5.15,4.82
		C345.8,312.51,345.94,313.33,346.53,313.9z M326.33,321.92c-0.02,0.34-0.04,0.69-0.07,1.03c-0.07,0.29-0.17,0.58-0.19,0.88
		c-0.29,3.55,0.01,7.09,0.31,10.61c0.2,2.31,0.83,4.57,2.27,6.5c0.72,0.96,1.58,1.7,2.78,1.96c2.89,0.63,5.18-0.4,6.64-3
		c0.48-0.85,0.84-1.76,1.08-2.72c1.24-4.94,0.79-9.96,0.66-14.96c-0.01-0.36-0.19-0.71-0.28-1.06c0.16-1.3-0.4-2.45-0.79-3.63
		c-0.9-2.46-2.24-4.42-5.18-4.59c-3.01-0.31-5.16,1.16-6.07,4.15C326.78,318.63,326.38,320.23,326.33,321.92z"/>
	<path class="st2" d="M381.01,313.9c0.33,0.86,0.66,1.72,0.99,2.58c2,7.5,2.09,15.03,0.06,22.52c-1.16,4.27-3.37,7.88-7.54,9.94
		c-4.42,2.18-12.7,2.25-17.11-2.08c-1.37-1.34-2.48-2.87-3.25-4.63c-1.91-4.34-2.59-8.91-2.55-13.62c0.03-2.94,0.08-5.88,0.54-8.8
		c0.22-0.84,0.43-1.68,0.65-2.52c0.33-0.33,0.32-0.78,0.45-1.19c2.24-7.21,7.59-11.04,15.4-10.54c1.62,0.1,3.08,0.74,4.67,0.85
		c0.37,0.15,0.74,0.3,1.11,0.46c0.03,0.1,0.1,0.14,0.2,0.12c0,0,0.08,0.03,0.08,0.03c2.09,1.21,3.85,2.76,5.15,4.82
		C380.27,312.51,380.41,313.33,381.01,313.9z M360.8,321.92c-0.02,0.34-0.04,0.69-0.07,1.03c-0.07,0.29-0.17,0.58-0.19,0.88
		c-0.29,3.55,0.01,7.09,0.31,10.61c0.2,2.31,0.83,4.57,2.27,6.5c0.72,0.96,1.58,1.7,2.78,1.96c2.89,0.63,5.18-0.4,6.64-3
		c0.48-0.85,0.84-1.76,1.08-2.72c1.24-4.94,0.79-9.96,0.66-14.96c-0.01-0.36-0.19-0.71-0.28-1.06c0.16-1.3-0.4-2.45-0.79-3.63
		c-0.9-2.46-2.24-4.42-5.18-4.59c-3.01-0.31-5.16,1.16-6.07,4.15C361.26,318.63,360.85,320.23,360.8,321.92z"/>
	<path class="st2" d="M311.61,311.55c0.36,0.64,0.72,1.28,1.08,1.92c-0.02,0.21,0.06,0.38,0.26,0.47c0,0,0,0.03,0,0.03
		c0.08,0.36,0.12,0.74,0.47,0.98c0.26,1.38,0.61,2.73,1.17,4.03c0.87,5.23,0.94,10.48,0.3,15.74c-0.29,2.38-0.92,4.69-1.86,6.9
		c-1.76,4.11-4.6,7.13-9.04,8.21c-3.76,0.92-7.56,0.89-11.18-0.7c-3.58-1.57-5.75-4.46-7.18-7.99c-1.25-3.1-1.74-6.37-1.97-9.68
		c-0.04-0.61-0.11-1.22-0.16-1.83c0.18-1.22,0.16-2.43,0.01-3.65c0.28-2.69,0.39-5.39,1.02-8.03c0.43-1.26,0.86-2.51,1.28-3.77
		c0.86-1.47,1.59-3.02,2.74-4.32c1.86-2.1,4.27-3.23,6.85-4.09c0.36-0.03,0.73-0.07,1.09-0.1c0.55,0.06,1.09,0.06,1.6-0.21
		c0.33,0.11,0.65,0.05,0.95-0.09c1.62,0.24,3.28,0.2,4.88,0.66C307.16,306.96,309.73,308.77,311.61,311.55z M292.5,328.56
		c0,0.12,0,0.24,0,0.36c0,0.37,0,0.75,0.01,1.12c0.02,0.85-0.03,1.72,0.07,2.56c0.34,2.73,0.79,5.39,2.19,7.89
		c1.91,3.42,7.48,3.21,9.26,0.1c1.91-3.34,2.31-6.9,2.23-10.6c0.33-1.2,0.24-2.41,0.1-3.62c0.19-1.83-0.12-3.64-0.39-5.43
		c-0.19-1.29-0.29-2.67-1.07-3.82c-0.82-2.56-2.47-4.05-5.25-4.21c-2.66-0.15-4.34,1.14-5.4,3.45c-1.74,3.64-1.86,7.53-1.74,11.46
		C292.5,328.06,292.5,328.31,292.5,328.56z"/>
	<path class="st2" d="M240.13,306.93c0.86,0.47,1.73,0.93,2.59,1.4c1.46,1.12,2.53,2.58,3.56,4.07c0.45,1.22,0.9,2.43,1.34,3.65
		c-0.07,0.41-0.15,0.82,0.19,1.17l-0.01,0.02c0.52,5.25-1.13,9.64-5.18,13.1c-0.98,0.84-2,1.61-3.06,2.33
		c-2.78,1.9-5.7,3.59-8.29,5.76c-1.08,0.91-2.11,1.84-2.9,3.04c0.47,0.7,1.14,0.42,1.7,0.42c5.21,0.02,10.43,0.01,15.64,0.01
		c0.43,0,0.86,0.02,1.29,0c0.85-0.04,1.23,0.34,1.22,1.2c-0.02,1.78-0.02,3.56,0,5.33c0.01,0.76-0.25,1.17-1.06,1.12
		c-0.31-0.02-0.61,0-0.92,0c-9.32,0-18.64,0-27.97,0c-2.09,0-2.13-0.08-1.9-2.21c0.5-4.6,2.55-8.4,5.97-11.47
		c3.16-2.83,6.73-5.11,10.24-7.46c2.11-1.41,4.09-2.91,5.43-5.12c2.22-3.67,0.74-8.31-3.15-9.78c-2.47-0.93-5.13-0.21-6.78,1.87
		c-1.13,1.43-1.74,3.08-1.94,4.89c-0.06,0.55-0.09,1.1-0.14,1.65c-0.08,0.78-0.44,1.2-1.31,1.18c-2.08-0.04-4.17-0.03-6.26-0.01
		c-0.76,0-1.11-0.3-1.12-1.09c-0.08-7.01,3.59-15.05,12.77-16.32c0.3-0.04,0.58-0.17,0.87-0.26c0.94,0.19,1.88,0.07,2.82,0.03
		c0.88,0.3,1.79,0.28,2.71,0.27c0.36,0.06,0.72,0.12,1.07,0.18C238.34,306.46,239.32,306.49,240.13,306.93z"/>
	<path class="st3" d="M271.78,327.01c0.37-1.15,0.77-2.29,1.58-3.22c1.76,0.37,3.53,0.68,5.27,1.12c1.62,0.41,3.38,0.16,4.88,1.08
		c0.15,1.22,0.17,2.43-0.01,3.65c-3.32-0.25-6.55-1.01-9.72-1.98C273.11,327.45,272.27,327.74,271.78,327.01z"/>
	<path class="st3" d="M314.59,318.97c-0.56-1.29-0.91-2.65-1.17-4.03c1.36-0.05,2.58,0.5,3.86,0.84c0.78,0.2,1,0.8,1.03,1.51
		c-0.22,0.84-0.43,1.68-0.65,2.52C316.55,319.85,315.7,318.94,314.59,318.97z"/>
	<path class="st3" d="M298.1,305.46c-0.51,0.27-1.05,0.26-1.6,0.21C296.98,305.2,297.55,305.36,298.1,305.46z"/>
	<path class="st0" d="M312.95,313.93c-0.2-0.09-0.28-0.26-0.26-0.47C312.88,313.56,312.99,313.71,312.95,313.93z"/>
	<path class="st0" d="M340.14,306.99c-0.1,0.02-0.17-0.03-0.2-0.12c0.07-0.05,0.15-0.1,0.22-0.15
		C340.16,306.8,340.15,306.89,340.14,306.99z"/>
	<path class="st3" d="M333.57,312.96c-1.83,1.67-3.85,3.06-6.07,4.15C328.41,314.12,330.56,312.65,333.57,312.96z"/>
	<path class="st3" d="M304.89,317.11c-3.23-0.01-6.45-0.54-9.69-0.34c-0.38,0.02-0.72-0.09-0.96-0.42c1.06-2.31,2.74-3.6,5.4-3.45
		C302.42,313.06,304.07,314.55,304.89,317.11z"/>
	<path class="st0" d="M292.5,328.56c0.04,0.09,0.1,0.17,0.12,0.26c0.01,0.02-0.08,0.07-0.12,0.1
		C292.5,328.8,292.5,328.68,292.5,328.56z"/>
	<path class="st0" d="M233.8,305.45c0.92-0.07,1.86-0.38,2.71,0.27C235.59,305.73,234.68,305.75,233.8,305.45z"/>
	<path class="st0" d="M247.63,316.04c0.35,0.34,0.29,0.75,0.19,1.17C247.47,316.87,247.56,316.45,247.63,316.04z"/>
	<path class="st3" d="M268.51,317.88c-1.78-0.4-3.07-1.63-4.59-2.6c0.93-0.29,5.25-0.47,5.96-0.27c0.34,0.09,0.44,0.38,0.51,0.69
		C269.87,316.52,269.42,317.4,268.51,317.88z"/>
	<path class="st2" d="M276.56,311.55c0.36,0.64,0.72,1.28,1.08,1.92c-0.02,0.21,0.06,0.38,0.26,0.47c0,0,0,0.03,0,0.03
		c0.08,0.36,0.12,0.74,0.47,0.98c0.26,1.38,0.61,2.73,1.17,4.03c0.87,5.23,0.94,10.48,0.3,15.74c-0.29,2.38-0.92,4.69-1.86,6.9
		c-1.76,4.11-4.6,7.13-9.04,8.21c-3.76,0.92-7.56,0.89-11.18-0.7c-3.58-1.57-5.75-4.46-7.18-7.99c-1.25-3.1-1.74-6.37-1.97-9.68
		c-0.04-0.61-0.11-1.22-0.16-1.83c0.18-1.22,0.16-2.43,0.01-3.65c0.28-2.69,0.39-5.39,1.02-8.03c0.43-1.26,0.86-2.51,1.28-3.77
		c0.86-1.47,1.59-3.02,2.74-4.32c1.86-2.1,4.27-3.23,6.85-4.09c0.36-0.03,0.73-0.07,1.09-0.1c0.55,0.06,1.09,0.06,1.6-0.21
		c0.33,0.11,0.65,0.05,0.95-0.09c1.62,0.24,3.28,0.2,4.88,0.66C272.1,306.96,274.67,308.77,276.56,311.55z M257.44,328.56
		c0,0.12,0,0.24,0,0.36c0,0.37,0,0.75,0.01,1.12c0.02,0.85-0.03,1.72,0.07,2.56c0.34,2.73,0.79,5.39,2.19,7.89
		c1.91,3.42,7.48,3.21,9.26,0.1c1.91-3.34,2.31-6.9,2.23-10.6c0.33-1.2,0.24-2.41,0.1-3.62c0.19-1.83-0.12-3.64-0.39-5.43
		c-0.19-1.29-0.29-2.67-1.07-3.82c-0.82-2.56-2.47-4.05-5.25-4.21c-2.66-0.15-4.34,1.14-5.4,3.45c-1.74,3.64-1.86,7.53-1.74,11.46
		C257.44,328.06,257.44,328.31,257.44,328.56z"/>
	<path id="SVGID_x5F_1_x5F_" class="st5" d="M463.01,244.85c0,92.57-75.04,167.6-167.6,167.6s-167.6-75.04-167.6-167.6
		s75.04-167.6,167.6-167.6S463.01,152.28,463.01,244.85z"/>
	<text>	<textPath  xlink:href="#SVGID_x5F_1_x5F_" startOffset="5534.4492%">
<tspan  class="st2" style="font-family:'Impact'; font-size:40.5891px;">IT Service Management</tspan>	</textPath>
</text>
</g>
</svg>
