<?xml version="1.0" encoding="utf-8"?>
<!-- Generator: Adobe Illustrator 27.0.0, SVG Export Plug-In . SVG Version: 6.00 Build 0)  -->
<svg version="1.1" id="Layer_1" xmlns="http://www.w3.org/2000/svg" xmlns:xlink="http://www.w3.org/1999/xlink" x="0px" y="0px"
	 viewBox="0 0 573 499" style="enable-background:new 0 0 573 499;" xml:space="preserve">
<style type="text/css">
	.st0{fill:#D8D9D3;}
	.st1{fill:#2C70B4;}
	.st2{fill:#FCFDFF;}
</style>
<g id="ISO_27001">
	<path class="st0" d="M282.97,480.83c0.01,0.11,0.01,0.21,0.01,0.32c-4.4,0-8.8,0-13.19,0c0-0.11,0-0.22,0-0.33
		C274.18,480.82,278.57,480.83,282.97,480.83z"/>
	<path class="st1" d="M282.97,480.83c-4.39,0-8.79-0.01-13.18-0.01c-3.69-0.25-7.38-0.52-11.07-0.73c-6.96-0.4-13.86-1.3-20.73-2.44
		c-11.03-1.83-21.88-4.44-32.53-7.85c-18.26-5.85-35.54-13.81-51.82-23.93c-14.35-8.92-27.57-19.25-39.7-31.02
		c-14.27-13.85-26.57-29.26-36.92-46.23c-9.89-16.21-17.65-33.37-23.32-51.48c-3.47-11.09-6.09-22.38-7.85-33.87
		c-1.95-12.74-2.95-25.55-2.83-38.44c0.06-7.03,0.6-14.04,1.27-21.04c1.02-10.57,2.82-21,5.31-31.31
		c7.13-29.51,19.6-56.58,37.3-81.25c8.93-12.43,18.96-23.89,30.15-34.33c19.13-17.83,40.6-32.15,64.5-42.81
		c15.71-7.01,31.99-12.2,48.84-15.6c8.24-1.67,16.56-2.86,24.95-3.58c8.95-0.77,17.91-1.26,26.89-0.95
		c7.53,0.26,15.03,0.79,22.52,1.68c11.92,1.42,23.65,3.77,35.2,7.02c22.08,6.22,42.78,15.54,62.12,27.88
		c15.96,10.18,30.46,22.14,43.5,35.85c15.51,16.29,28.42,34.44,38.71,54.45c9.15,17.78,15.85,36.44,20.21,55.95
		c2.02,9.06,3.42,18.23,4.34,27.48c1.06,10.57,1.41,21.17,1.01,31.78c-0.37,9.59-1.31,19.14-2.84,28.63
		c-1.86,11.47-4.5,22.76-8.06,33.82c-9.59,29.84-24.56,56.69-44.94,80.51c-20.84,24.37-45.67,43.65-74.41,57.88
		c-17.29,8.56-35.4,14.81-54.26,18.83c-10.13,2.16-20.37,3.69-30.72,4.37C290.73,480.33,286.85,480.58,282.97,480.83z M276.3,469.06
		c5.59,0.06,11.17-0.23,16.75-0.63c7.2-0.52,14.35-1.41,21.47-2.63c20.43-3.5,39.93-9.83,58.58-18.84
		c24.83-11.99,46.38-28.43,65.4-48.28c2.34-2.45,4.58-5,6.78-7.58c18.11-21.27,31.77-45.09,40.88-71.51
		c5.05-14.64,8.48-29.64,10.36-45.01c0.91-7.49,1.41-14.99,1.63-22.51c0.26-8.79-0.23-17.56-1.06-26.31
		c-0.57-5.93-1.37-11.83-2.45-17.68c-1.7-9.25-3.98-18.36-6.83-27.34c-4.32-13.61-9.9-26.67-16.77-39.18
		c-7.12-12.96-15.49-25.09-24.98-36.43c-10.11-12.08-21.45-22.9-33.88-32.57c-12.28-9.55-25.46-17.66-39.46-24.43
		c-8.54-4.13-17.3-7.7-26.3-10.68c-14.33-4.74-28.99-8.01-44-9.73c-6.49-0.74-13-1.16-19.52-1.42c-8.6-0.35-17.2,0.09-25.77,0.82
		c-8,0.67-15.96,1.85-23.82,3.46c-11.93,2.45-23.61,5.82-34.99,10.2c-16.58,6.38-32.19,14.58-46.8,24.69
		c-6.75,4.67-13.23,9.68-19.4,15.09c-7.41,6.5-14.43,13.38-20.91,20.81c-8.85,10.14-16.8,20.93-23.76,32.44
		c-6.22,10.28-11.54,21-15.98,32.16c-5.05,12.68-8.89,25.71-11.54,39.1c-1.63,8.25-2.87,16.57-3.41,24.96
		c-0.47,7.19-0.73,14.39-0.57,21.61c0.18,8.16,0.63,16.29,1.62,24.4c1.42,11.61,3.84,23,7.12,34.21
		c6.11,20.85,15.12,40.38,26.96,58.6c6.37,9.81,13.6,18.97,21.37,27.7c1.42,1.59,2.55,3.59,4.81,4.28c0.21,0.06,0.36,0.34,0.53,0.53
		c3.22,3.61,6.8,6.86,10.35,10.13c9.52,8.79,19.8,16.6,30.7,23.6c9.2,5.9,18.79,11.09,28.79,15.51c9.99,4.42,20.28,8.06,30.83,10.9
		C237.76,466.54,256.87,469.04,276.3,469.06z"/>
	<path class="st2" d="M276.3,469.06c-19.43-0.02-38.54-2.52-57.31-7.56c-10.56-2.83-20.84-6.47-30.83-10.9
		c-10-4.42-19.59-9.61-28.79-15.51c-10.9-6.99-21.18-14.81-30.7-23.6c-3.55-3.27-7.12-6.53-10.35-10.13
		c-0.17-0.19-0.32-0.46-0.53-0.53c-2.26-0.69-3.39-2.68-4.81-4.28c-7.77-8.73-14.99-17.89-21.37-27.7
		c-11.84-18.22-20.85-37.75-26.96-58.6c-3.28-11.21-5.7-22.61-7.12-34.21c-0.99-8.11-1.43-16.23-1.62-24.4
		c-0.16-7.22,0.11-14.42,0.57-21.61c0.54-8.39,1.78-16.71,3.41-24.96c2.65-13.38,6.49-26.42,11.54-39.1
		c4.45-11.16,9.77-21.88,15.98-32.16c6.96-11.52,14.92-22.3,23.76-32.44c6.48-7.43,13.5-14.31,20.91-20.81
		c6.17-5.41,12.66-10.42,19.4-15.09c14.6-10.11,30.22-18.31,46.8-24.69c11.38-4.38,23.06-7.74,34.99-10.2
		c7.87-1.62,15.82-2.79,23.82-3.46c8.57-0.72,17.17-1.17,25.77-0.82c6.52,0.26,13.03,0.68,19.52,1.42c15.01,1.71,29.67,4.99,44,9.73
		c9,2.98,17.76,6.55,26.3,10.68c14,6.77,27.18,14.88,39.46,24.43c12.44,9.67,23.78,20.49,33.88,32.57
		c9.49,11.34,17.86,23.46,24.98,36.43c6.86,12.51,12.45,25.56,16.77,39.18c2.85,8.98,5.13,18.09,6.83,27.34
		c1.08,5.85,1.88,11.75,2.45,17.68c0.83,8.75,1.33,17.52,1.06,26.31c-0.23,7.52-0.72,15.03-1.63,22.51
		c-1.87,15.38-5.31,30.38-10.36,45.01c-9.11,26.42-22.77,50.24-40.88,71.51c-2.2,2.58-4.44,5.14-6.78,7.58
		c-19.02,19.85-40.56,36.29-65.4,48.28c-18.65,9-38.16,15.34-58.58,18.84c-7.12,1.22-14.27,2.11-21.47,2.63
		C287.47,468.83,281.89,469.12,276.3,469.06z M436.07,247.93c0.12-87.1-69.92-158.3-157.28-159.35
		c-89.31-1.08-161.31,70.89-161.32,159.29c-0.01,87.48,70.67,159.57,159.85,159.29C366.17,406.88,436.16,334.71,436.07,247.93z
		 M391.29,83.72c0.09,0.1,0.18,0.2,0.27,0.3c-0.38,0.64-0.76,1.28-1.15,1.92c-3.75,6.09-7.5,12.19-11.24,18.28
		c-0.77,1.25-0.76,1.27,0.4,2.01c1.01,0.64,2.07,1.2,3.03,1.9c0.84,0.61,1.26,0.4,1.75-0.43c1.4-2.38,2.87-4.72,4.32-7.07
		c3.42-5.56,6.84-11.12,10.26-16.68c0.8-1.3,0.79-1.32-0.53-2.15c-1.97-1.23-3.96-2.43-5.94-3.63c-1.42-0.86-1.42-0.85-2.72,0.26
		c-5.38,4.62-10.77,9.24-16.16,13.85c-0.35,0.3-0.64,0.81-1.29,0.64c-0.12-0.5,0.01-0.99,0.12-1.47c0.93-3.97,1.88-7.93,2.81-11.9
		c0.73-3.11,1.42-6.24,2.19-9.34c0.19-0.79,0.12-1.27-0.62-1.71c-2.32-1.38-4.62-2.79-6.9-4.24c-0.73-0.46-1.14-0.27-1.48,0.42
		c-0.11,0.22-0.27,0.42-0.4,0.63c-3.45,5.61-6.91,11.23-10.36,16.84c-1.38,2.25-2.74,4.5-4.15,6.73c-0.41,0.65-0.45,1.09,0.3,1.51
		c1.1,0.61,2.17,1.27,3.21,1.96c0.64,0.42,1.02,0.23,1.35-0.37c0.21-0.38,0.46-0.75,0.69-1.12c3.68-5.99,7.35-11.98,11.05-17.96
		c0.35-0.57,0.57-1.27,1.38-1.71c-0.13,0.71-0.21,1.3-0.34,1.88c-1.53,6.79-3.07,13.58-4.6,20.37c-0.3,1.34-1.05,2.85-0.69,4
		c0.4,1.28,2.22,1.67,3.42,2.45c1.31,0.85,1.34,0.81,2.57-0.2c4.17-3.43,8.34-6.86,12.51-10.29
		C386.66,87.51,388.98,85.62,391.29,83.72z M87.49,207.51c-0.64,0.25-1.25,0.03-1.83-0.15c-0.68-0.21-0.92,0.1-1.06,0.67
		c-0.36,1.4-0.71,2.8-1.11,4.18c-0.19,0.64,0,0.93,0.64,1.05c0.74,0.14,1.47,0.32,2.2,0.51c5.46,1.44,10.92,2.87,16.36,4.36
		c0.94,0.26,1.39,0.14,1.6-0.84c0.23-1.1,0.56-2.19,0.84-3.28c0.39-1.54,0.39-1.55-1.17-1.97c-3.33-0.9-6.67-1.77-9.99-2.71
		c-1.27-0.36-2.49-0.87-3.4-1.91c-1.23-1.41-1.23-2.96-0.51-4.57c0.68-1.52,1.97-2.07,3.52-1.99c0.87,0.04,1.74,0.23,2.59,0.45
		c3.4,0.89,6.78,1.83,10.18,2.72c1.3,0.34,1.35,0.31,1.72-0.95c0.33-1.14,0.56-2.32,0.94-3.45c0.31-0.93,0.14-1.32-0.87-1.57
		c-3.23-0.79-6.43-1.7-9.63-2.57c-1.21-0.33-2.42-0.68-3.47-1.4c-1.57-1.07-2.07-2.72-1.45-4.65c0.62-1.92,1.79-2.74,3.8-2.67
		c1.08,0.04,2.1,0.34,3.13,0.61c3.27,0.88,6.55,1.73,9.8,2.67c0.88,0.25,1.29,0.05,1.5-0.8c0.31-1.28,0.63-2.56,1.01-3.82
		c0.24-0.77,0.1-1.16-0.74-1.34c-1.04-0.22-2.06-0.57-3.09-0.84c-3.4-0.89-6.77-1.87-10.2-2.62c-2.49-0.55-4.91-0.2-6.77,1.81
		c-2.1,2.27-3.44,7.48-0.86,11.03c0.23,0.32,0.73,0.56,0.47,1.1C86.31,196.34,84.73,201.26,87.49,207.51z M467.28,216.94
		c0.56-0.46,1.09-0.38,1.55-0.44c0.84-0.11,1.22-0.46,1.09-1.36c-0.18-1.3-0.28-2.62-0.41-3.93c-0.07-0.71-0.41-0.95-1.13-0.84
		c-5.71,0.85-11.48,1.24-17.21,1.84c-0.91,0.1-2.12-0.18-2.69,0.49c-0.65,0.76,0.03,1.91,0,2.89c-0.02,0.5,0.04,1,0.09,1.5
		c0.15,1.45,0.18,1.47,1.58,1.42c0.56-0.02,1.13-0.06,1.69-0.11c3-0.3,6-0.58,8.99-0.91c1.02-0.11,2.01,0.02,2.98,0.29
		c1.78,0.51,2.75,1.84,2.83,3.78c0.09,1.88-0.67,3.02-2.54,3.71c-1.31,0.48-2.69,0.58-4.06,0.71c-3.06,0.28-6.12,0.59-9.19,0.84
		c-0.98,0.08-1.32,0.45-1.18,1.42c0.18,1.24,0.3,2.5,0.35,3.75c0.04,0.91,0.39,1.2,1.29,1.1c2.87-0.33,5.74-0.6,8.61-0.9
		c1.44-0.15,2.88-0.29,4.32-0.17c1.62,0.13,2.88,0.8,3.51,2.41c1.06,2.73-0.08,4.92-2.93,5.57c-1.9,0.43-3.86,0.48-5.79,0.69
		c-2.31,0.26-4.62,0.48-6.93,0.69c-0.78,0.07-1.11,0.38-1,1.19c0.15,1.12,0.23,2.25,0.34,3.37c0.17,1.68,0.17,1.7,1.75,1.56
		c3-0.27,6.01-0.52,9-0.88c1.55-0.19,3.14-0.19,4.66-0.6c2.43-0.65,4.4-1.85,5.26-4.37c1.11-3.25-0.01-8.37-3.39-10.37
		c-0.25-0.15-0.58-0.24-0.61-0.62C472.88,227.01,471.55,219.87,467.28,216.94z M189.37,95.66c3.53-0.18,7.07-1.94,10.21-4.59
		c1.35-1.14,2.45-2.49,3.29-4.07c2.66-4.97-0.74-12.76-7.56-12.06c-1.5,0.15-2.99,0.33-4.48,0.58c-2.35,0.4-4.66,1.05-7.06,1.06
		c-2.78,0.02-4.24-2.48-2.9-4.93c1.75-3.22,5.63-3.9,8.33-1.44c0.42,0.38,0.71,0.6,1.28,0.27c1.42-0.81,2.86-1.57,4.31-2.32
		c0.67-0.34,0.73-0.71,0.32-1.33c-1.65-2.5-3.9-3.82-6.95-3.7c-2.72,0.11-5.11,1.17-7.41,2.52c-2.08,1.22-3.91,2.73-5.23,4.79
		c-1.78,2.78-1.89,5.64-0.33,8.55c1.5,2.8,3.92,3.92,7,3.88c1.01-0.01,2.01-0.04,3-0.24c1.84-0.37,3.69-0.73,5.53-1.12
		c1.11-0.23,2.22-0.43,3.36-0.38c2.43,0.11,3.81,2.15,3.07,4.48c-0.53,1.66-1.72,2.73-3.17,3.58c-2.67,1.56-4.85,1.28-6.89-0.98
		c-0.6-0.66-1.03-0.7-1.74-0.28c-1.19,0.7-2.43,1.31-3.63,1.99c-1.12,0.63-1.14,0.67-0.45,1.68
		C183.05,94.19,185.47,95.67,189.37,95.66z M440.47,179.26c-1.35,0.9-2.87,1.41-4.47,1.73c-1.65,0.32-3.01-0.18-3.98-1.5
		c-1.11-1.51-1.79-3.18-1.16-5.1c0.08-0.23,0.21-0.51,0.4-0.63c1.26-0.76,0.9-1.67,0.37-2.69c-0.46-0.89-0.85-1.82-1.22-2.75
		c-0.3-0.74-0.72-0.72-1.32-0.37c-1.9,1.12-2.87,2.81-2.87,4.98c0.01,4.34,1.62,8.1,4.55,11.24c1.46,1.56,3.39,2.3,5.58,2.34
		c2.31,0.04,4.48-0.53,6.57-1.44c3.05-1.33,6.08-2.69,9.13-4.03c2.13-0.93,4.25-1.88,6.41-2.73c0.96-0.37,1.1-0.82,0.65-1.69
		c-0.49-0.95-0.86-1.95-1.31-2.92c-0.6-1.31-0.61-1.29-1.9-0.81c-0.38,0.14-0.73,0.54-1.24,0.17c0.08-0.22,0.13-0.46,0.24-0.66
		c2.15-3.98-0.99-11.02-6.16-11.99c-4.8-0.9-8.79,0.74-12.12,4.08c-2.13,2.14-2.88,4.79-2.16,7.8c0.74,3.05,2.33,5.39,5.41,6.49
		C440.09,178.85,440.35,178.9,440.47,179.26z M222.24,434.25c-0.33-0.22-0.57-0.41-0.84-0.55c-1.51-0.77-3.03-1.52-4.53-2.31
		c-0.57-0.3-0.91-0.09-1.29,0.32c-0.78,0.84-1.7,1.47-2.88,1.65c-3.47,0.52-7.16-2.18-7.37-5.7c-0.36-6.02,2.33-10.63,7.08-14.14
		c0.25-0.18,0.55-0.3,0.83-0.44c4.05-2.02,10.07,1.36,8.67,5.92c-0.18,0.57-0.01,0.93,0.56,1.2c1.75,0.84,3.47,1.73,5.35,2.67
		c1.36-3.17,1.36-6.09-0.45-8.91c-1.8-2.8-4.44-4.57-7.46-5.82c-5.84-2.43-11.51-1.16-15.74,3.56c-2.92,3.26-4.76,7.09-5.47,11.39
		c-0.6,3.63,0.08,7.06,2.61,9.86c3.44,3.81,7.77,5.94,12.95,5.95C217.71,438.92,220.31,437.19,222.24,434.25z M352.67,418.43
		c-0.5,0.24-0.88-0.09-1.28-0.18c-5.16-1.26-10.44,2.36-10.85,7.63c-0.38,4.96,1.43,9.17,5.27,12.3c4.38,3.57,10.97,1.9,13.37-3.2
		c0.16-0.35,0.14-0.89,0.7-0.94c0.4,0.21,0.55,0.58,0.68,0.91c0.32,0.79,0.79,0.82,1.48,0.49c1.51-0.74,3.04-1.43,4.57-2.14
		c-2.1-4.54-4.12-8.91-6.14-13.29c-2.02-4.39-4.04-8.77-6.07-13.16c-0.62-1.35-0.63-1.35-2.04-0.72c-1.03,0.46-2.03,0.99-3.09,1.39
		c-0.93,0.35-1.08,0.79-0.64,1.69c1.21,2.48,2.35,5,3.48,7.52C352.35,417.27,352.8,417.77,352.67,418.43z M101.61,174.24
		c0.63-1.35,1.25-2.72,1.91-4.05c0.45-0.9,0.73-1.55-0.4-2.34c-1.3-0.91-1.3-2.28-0.41-3.88c0.72-1.3,1.84-1.82,3.32-1.48
		c0.49,0.11,0.96,0.29,1.42,0.48c1.14,0.48,1.17,0.53,0.68,1.64c-0.84,1.89-1.67,3.78-2.16,5.81c-0.41,1.72-0.66,3.43-0.16,5.2
		c1.19,4.19,6.72,5.96,10.07,3.2c2.79-2.29,3.97-6.36,2.84-9.82c-0.08-0.23-0.21-0.46-0.01-0.72c0.3-0.19,0.6-0.02,0.86,0.08
		c1.04,0.4,1.63,0.05,2.02-0.97c0.4-1.05,0.92-2.06,1.41-3.08c0.35-0.72,0.22-1.11-0.6-1.39c-3.74-1.29-7.25-3.12-10.85-4.74
		c-1.15-0.51-2.29-1.01-3.52-1.29c-2.65-0.61-4.85,0.1-6.49,2.29c-1.83,2.45-3.04,5.2-3.51,8.22
		C97.55,170.57,98.82,172.97,101.61,174.24z M397.86,119.1c0.09,0.68-0.46,1.03-0.67,1.53c-0.16,0.39-0.17,0.74,0.16,1.02
		c1.31,1.11,2.47,2.43,4.01,3.39c2.77-3.86,6-7.12,8.97-10.6c0.74-0.86,1.4-1.78,1.88-2.81c0.84-1.83,0.93-3.69-0.15-5.41
		c-2.05-3.29-4.86-5.76-8.58-6.99c-1.85-0.61-3.73-0.42-5.39,0.8c-1.07,0.78-1.09,0.92-0.14,1.81c0.92,0.85,1.91,1.63,2.8,2.52
		c0.65,0.65,1.11,0.66,1.9,0.11c1.36-0.95,2.61-0.69,3.88,0.55c1.08,1.04,1.29,2.22,0.59,3.58c-0.26,0.5-0.62,0.94-0.93,1.41
		c-0.48,0.72-0.97,0.88-1.66,0.2c-0.62-0.62-1.3-1.19-1.99-1.73c-1.93-1.52-3.92-2.94-6.37-3.54c-2.75-0.67-5.2,0.28-6.89,2.69
		c-1.53,2.17-1.59,4.76,0.03,7.04c1.94,2.73,4.37,4.68,8.02,4.34C397.5,118.97,397.68,119.06,397.86,119.1z M428.14,156.86
		c-0.09,1.06-1.58,1.24-1.25,2.23c0.26,0.81,0.88,1.51,1.35,2.25c0.3,0.48,0.65,0.93,0.91,1.42c0.44,0.83,0.9,0.85,1.62,0.28
		c3.15-2.5,6.68-4.44,10-6.69c0.83-0.56,1.68-1.11,2.42-1.78c2.37-2.12,2.92-4.53,1.73-7.47c-0.66-1.64-1.56-3.14-2.62-4.55
		c-0.95-1.26-2.03-2.4-3.39-3.21c-1.84-1.1-3.74-1.34-5.74-0.43c-0.56,0.25-0.83,0.54-0.45,1.13c0.85,1.32,1.7,2.63,2.54,3.96
		c0.34,0.54,0.74,0.53,1.27,0.29c0.7-0.31,1.41-0.44,2.18-0.09c2.38,1.09,2.86,3.74,0.95,5.53c-0.36,0.34-0.8,0.61-1.19,0.92
		c-0.58,0.47-0.99,0.33-1.37-0.28c-0.49-0.8-1-1.6-1.55-2.36c-1.28-1.79-2.66-3.49-4.51-4.75c-2.59-1.77-5.37-1.69-7.84,0.23
		c-2.29,1.78-3.02,4.33-1.91,7.25C422.51,153.96,424.5,156.38,428.14,156.86z M150.25,123.97c0.21-5.9-5.75-10.71-9.84-11.39
		c-0.93-0.15-1.85-0.26-2.81-0.13c-3.61,0.5-6.2,2.57-8.32,5.35c-1.76,2.32-2.83,4.91-2.5,7.88c0.53,4.82,3.57,7.74,7.7,9.7
		c2.86,1.36,5.74,1.06,8.51-0.42c1.06-0.57,2.03-1.27,2.87-2.12C148.34,130.4,150.11,127.58,150.25,123.97z M453.56,207.38
		c-0.19-1.58-0.84-2.95-1.18-4.4c-0.22-0.95-0.64-1.34-1.66-1.32c-1.71,0.02-2.77-1-3.38-2.53c-1.11-2.8,0.14-5.31,3.21-6.61
		c0.8-0.34,1.26-0.3,1.51,0.64c0.39,1.45,0.86,2.88,1.29,4.32c0.86,2.82,1.73,5.63,2.56,8.46c0.2,0.68,0.45,0.91,1.2,0.67
		c1.44-0.47,2.87-0.94,4.16-1.74c2.62-1.62,4.2-3.95,4.41-7.05c0.19-2.84-0.59-5.47-2.04-7.89c-1.59-2.65-3.95-4.21-7.03-4.48
		c-3.76-0.33-7.23,0.63-10.27,2.89c-1.83,1.36-2.95,3.23-3.23,5.54c-0.51,4.29,0.69,8.1,3.54,11.29
		C448.43,207.16,450.79,207.87,453.56,207.38z M244.16,442.88c-1.61-0.5-3-0.87-4.35-1.36c-0.89-0.33-1.48-0.33-2.02,0.61
		c-0.64,1.11-1.77,1.61-3.02,1.6c-2.97-0.01-5.22-2.52-4.84-5.49c0.3-2.29,0.25-2.28,2.38-1.62c3.89,1.21,7.8,2.36,11.69,3.56
		c0.69,0.21,1.14,0.28,1.42-0.59c2.36-7.24-0.32-12.39-7.29-14.23c-0.24-0.06-0.48-0.13-0.73-0.18c-5.02-1.07-9.07,0.86-11.42,5.43
		c-0.84,1.63-1.39,3.36-1.67,5.16c-0.7,4.36,1.08,7.95,4.99,10.03c2.54,1.35,5.26,2.02,8.15,1.81
		C240.51,447.39,242.73,445.9,244.16,442.88z M80.5,248.19c0,0.63-0.03,1.26,0.01,1.88c0.31,5.02,3.53,8.75,8.45,9.74
		c1.55,0.31,3.13,0.27,4.69,0.09c4.51-0.51,7.62-3.25,8.75-7.64c0.56-2.16,0.6-4.35,0.21-6.54c-0.72-4.01-2.77-7.09-6.79-8.25
		c-4.26-1.23-8.48-1.08-12.09,2.01c-1.42,1.21-2.26,2.83-2.79,4.61C80.53,245.43,80.42,246.8,80.5,248.19z M329.82,425.31
		c-1.97-0.07-4.21,0.65-6.31,1.86c-3.14,1.82-4.69,4.56-4.76,8.2c-0.04,2.5,0.51,4.86,1.57,7.09c1.14,2.42,2.88,4.26,5.49,5.09
		c4.16,1.32,10.44-0.52,13.28-3.82c1.29-1.51,1.77-3.29,1.78-5.22c0-0.73-0.25-1.18-1.17-0.86c-1.18,0.41-2.4,0.72-3.61,1.03
		c-0.78,0.2-1.06,0.59-1.11,1.44c-0.13,2.12-1.41,3.41-3.5,3.77c-2.53,0.44-4.4-0.71-5.56-3.41c-0.53-1.23-0.54-1.27,0.78-1.66
		c3.36-1,6.74-1.95,10.11-2.94c3.81-1.11,3.82-1.13,2.16-4.79C337.27,427.39,334.52,425.26,329.82,425.31z M215.59,61.33
		c-2.78,0.22-5.77,1.22-8.23,3.48c-1.68,1.55-2.64,3.5-2.81,5.79c-0.25,3.44,0.64,6.6,2.54,9.46c1.53,2.31,3.64,3.81,6.48,4.02
		c4.39,0.33,8.16-1.15,11.26-4.21c1.6-1.58,2.12-3.65,1.94-5.9c-0.06-0.83-0.38-1.13-1.21-0.8c-1.11,0.44-2.22,0.87-3.36,1.21
		c-0.84,0.25-1.2,0.58-1.14,1.57c0.1,1.65-0.78,2.83-2.29,3.57c-2.88,1.4-6.16-0.07-7.05-3.18c-0.18-0.64,0.05-0.92,0.62-1.11
		c1.25-0.43,2.48-0.9,3.72-1.35c2.9-1.03,5.8-2.05,8.69-3.09c1.17-0.42,1.18-0.46,0.76-1.61c-0.46-1.3-1-2.58-1.8-3.72
		C221.88,62.82,219.38,61.36,215.59,61.33z M456.3,272.23c0.14-1.68,0.23-3.12,0.4-4.55c0.11-0.93-0.15-1.46-1.1-1.83
		c-1.65-0.64-2.3-2.02-2.26-3.76c0.06-3.27,2.6-4.9,5.74-4.82c0.54,0.01,0.8,0.27,0.77,0.81c-0.07,1.31-0.13,2.63-0.22,3.94
		c-0.21,3.13-0.41,6.26-0.66,9.38c-0.07,0.95,0.21,1.42,1.22,1.37c1.13-0.06,2.27,0.06,3.38-0.08c3.98-0.5,6.69-2.62,7.92-6.51
		c0.4-1.27,0.57-2.57,0.58-3.89c0.03-4.37-1.5-7.86-5.7-9.74c-2.58-1.16-5.32-1.51-8.1-1.16c-3.01,0.38-5.58,1.68-7.03,4.46
		c-2.01,3.87-2.25,7.93-0.61,12C451.62,270.28,453.55,271.67,456.3,272.23z M423.89,118.78c-1.06-1.28-2.14-2.57-3.2-3.88
		c-0.41-0.5-0.77-0.52-1.24-0.08c-0.97,0.89-1.96,1.77-2.97,2.61c-3.85,3.23-7.72,6.43-11.57,9.66c-1.11,0.93-1.1,0.95-0.22,2.04
		c0.71,0.88,1.43,1.75,2.16,2.61c0.92,1.07,0.93,1.06,2.06,0.12c2.41-2.01,4.81-4.03,7.22-6.04c1.22-1.02,2.57-1.82,4.13-2.18
		c1.7-0.38,3.2,0.3,4.18,1.84c0.97,1.52,0.91,2.83-0.25,4.33c-0.38,0.49-0.83,0.95-1.3,1.36c-1.18,1.04-2.38,2.05-3.58,3.05
		c-1.69,1.41-3.37,2.82-5.08,4.21c-0.66,0.54-1.07,0.99-0.27,1.8c0.83,0.85,1.53,1.83,2.3,2.74c0.94,1.11,0.95,1.11,2.03,0.22
		c2.56-2.13,5.11-4.26,7.66-6.41c1.1-0.93,2.28-1.78,3.23-2.88c1.52-1.76,2.41-3.75,1.65-6.06c-1.17-3.57-3.37-6.13-7.35-6.67
		c-0.42-0.06-0.89-0.02-1.31-0.38C422.51,119.96,423.52,119.69,423.89,118.78z M149.34,102.49c-0.77-0.41-1.12-0.94-1.51-1.41
		c-0.36-0.42-0.68-0.47-1.11-0.11c-1.33,1.14-2.67,2.26-4.06,3.44c1.58,1.85,3.09,3.6,4.58,5.37c2.7,3.22,5.39,6.45,8.09,9.67
		c1.09,1.3,1.09,1.3,2.45,0.17c0.77-0.64,1.55-1.28,2.3-1.94c1.07-0.94,1.07-0.96,0.16-2.06c-1.96-2.37-3.95-4.71-5.91-7.08
		c-1.01-1.21-1.87-2.51-2.24-4.08c-0.43-1.84,0.24-3.44,1.92-4.48c1.46-0.91,2.8-0.78,4.32,0.46c0.98,0.79,1.78,1.76,2.59,2.73
		c2,2.41,4.03,4.81,6.01,7.24c0.54,0.66,0.97,0.86,1.68,0.2c0.92-0.86,1.92-1.61,2.87-2.43c1-0.86,1-0.88,0.14-1.91
		c-2.57-3.08-5.15-6.16-7.73-9.24c-0.77-0.92-1.58-1.79-2.59-2.45c-1.24-0.82-2.6-1.25-4.1-1.09c-3.25,0.35-6.61,3.23-7.43,6.39
		C149.55,100.66,149.5,101.47,149.34,102.49z M89.88,296.05c-0.59,0.18-1.12,0.36-1.66,0.49c-0.68,0.17-0.92,0.52-0.72,1.23
		c0.37,1.33,0.71,2.67,1.01,4.01c0.17,0.74,0.57,0.89,1.23,0.71c1.33-0.37,2.65-0.76,3.99-1.09c4.74-1.19,9.49-2.36,14.24-3.56
		c1.48-0.37,1.48-0.43,1.13-1.93c-0.21-0.92-0.45-1.83-0.68-2.74c-0.43-1.69-0.43-1.66-2.09-1.29c-3.61,0.8-7.14,1.91-10.8,2.52
		c-1.1,0.18-2.14,0.02-3.15-0.31c-1.77-0.58-2.52-2.01-2.67-3.74c-0.13-1.55,0.73-2.58,2.04-3.31c0.95-0.53,1.98-0.8,3.01-1.06
		c3.28-0.82,6.58-1.62,9.86-2.45c1.27-0.32,1.28-0.36,0.96-1.68c-0.28-1.16-0.64-2.3-0.84-3.47c-0.18-1.01-0.59-1.17-1.55-0.92
		c-4.06,1.07-8.15,2.05-12.22,3.06c-1.04,0.26-2.04,0.62-2.96,1.17c-1.41,0.84-2.41,2.01-2.86,3.59c-0.84,2.96,0.27,7.99,3.76,9.88
		C89.21,295.35,89.62,295.43,89.88,296.05z M465.82,284.98c0.62-0.18,1.09,0.05,1.57,0.15c0.66,0.13,1.06,0.04,1.21-0.73
		c0.27-1.42,0.62-2.82,0.93-4.23c0.14-0.62-0.1-0.9-0.74-1.01c-1.42-0.23-2.84-0.51-4.25-0.82c-4.78-1.04-9.56-2.1-14.34-3.14
		c-1.4-0.3-1.4-0.29-1.73,1.14c-0.22,0.98-0.45,1.96-0.66,2.94c-0.36,1.66-0.36,1.66,1.21,2.02c0.24,0.06,0.49,0.09,0.74,0.15
		c3,0.67,6.01,1.3,9,2.01c1.41,0.33,2.75,0.91,3.8,1.96c1.21,1.21,1.51,2.88,0.81,4.53c-0.64,1.52-1.83,2.16-3.44,2.13
		c-0.94-0.02-1.87-0.1-2.8-0.31c-3.43-0.76-6.87-1.48-10.3-2.24c-0.56-0.12-1.18-0.4-1.34,0.45c-0.34,1.76-0.89,3.48-1.03,5.37
		c2.99,0.65,5.86,1.31,8.74,1.9c2.21,0.46,4.37,1.16,6.65,1.28c2.49,0.13,4.67-0.57,5.98-2.8c1.82-3.1,2.31-6.34,0.38-9.63
		C466.04,285.77,465.74,285.5,465.82,284.98z M268.23,70.66c0.51,0.6,0.43,1.13,0.44,1.6c0.01,0.71,0.26,1.04,1.01,0.97
		c1.37-0.12,2.75-0.24,4.13-0.29c0.93-0.04,1.07-0.42,1-1.32c-0.37-4.25-0.64-8.51-0.96-12.76c-0.16-2.12-0.39-4.24-0.54-6.37
		c-0.05-0.72-0.3-1-1.04-0.92c-1.37,0.14-2.75,0.24-4.13,0.31c-0.85,0.04-1.02,0.48-0.95,1.24c0.22,2.62,0.4,5.25,0.59,7.88
		c0.13,1.81,0.37,3.64-0.05,5.43c-0.54,2.3-2.26,3.57-4.51,3.45c-1.97-0.1-3.22-1.34-3.56-3.71c-0.23-1.61-0.31-3.25-0.45-4.87
		c-0.2-2.44-0.37-4.88-0.6-7.31c-0.13-1.36-0.18-1.38-1.59-1.3c-1.13,0.06-2.25,0.28-3.37,0.27c-1.07-0.01-1.24,0.49-1.16,1.4
		c0.17,2,0.26,4,0.42,6c0.21,2.62,0.34,5.26,0.71,7.87c0.52,3.73,2.89,5.77,6.64,5.93c2.9,0.12,5.47-0.61,7.39-2.97
		C267.76,71.01,267.97,70.87,268.23,70.66z M330.43,75.57c-0.11-0.93-0.22-1.61-0.26-2.29c-0.19-3.38-0.35-6.77-0.53-10.15
		c-0.06-1.07-0.19-2.13-0.22-3.19c-0.02-0.6-0.29-0.93-0.83-1.08c-1.84-0.53-3.68-1.06-5.63-1.62c-0.15,1.01,0.02,1.81,0.13,2.61
		c0.83,6.03,1.57,12.07,2.53,18.07c0.31,1.94-0.12,3.34-1.43,4.71c-1.28,1.34-2.38,2.86-3.71,4.48c1.5,0.46,2.76,0.79,3.97,1.25
		c1.15,0.44,1.87,0.26,2.69-0.79c4.54-5.77,9.18-11.47,13.79-17.2c1.65-2.05,3.29-4.11,4.99-6.22c-1.31-0.77-2.7-0.93-4-1.35
		c-1.78-0.58-1.67-0.66-2.87,1.05c-2.39,3.38-4.8,6.76-7.21,10.13C331.46,74.47,331.18,75.04,330.43,75.57z M239.29,77.55
		c2.68-0.1,5.99-1.07,8.66-3.67c1.69-1.64,2.29-3.7,2.1-6.01c-0.06-0.75-0.38-1.12-1.23-0.89c-1.21,0.32-2.45,0.54-3.67,0.81
		c-1.3,0.29-1.32,0.29-1.31,1.71c0.01,1.39-0.32,2.61-1.56,3.43c-1.9,1.24-4.21,0.97-5.54-0.86c-2.17-2.98-2.85-6.4-2.32-10
		c0.26-1.78,1.52-2.85,3.25-3.27c1.86-0.45,3.26,0.25,4.23,2.25c0.4,0.83,0.77,1.11,1.7,0.83c1.19-0.37,2.43-0.61,3.67-0.83
		c0.83-0.15,1.06-0.45,0.7-1.26c-1.17-2.67-3.11-4.38-6.02-4.83c-2.81-0.43-5.52,0.05-8.07,1.24c-3.09,1.44-5.07,3.85-5.69,7.26
		c-0.5,2.73-0.05,5.38,0.97,7.92C230.76,75.42,233.97,77.55,239.29,77.55z M299.47,453.34c0.81-0.08,1.63-0.15,2.44-0.25
		c1.48-0.19,1.54-0.2,1.38-1.75c-0.43-4.24-0.89-8.48-1.38-12.72c-0.33-2.84-0.36-2.84,2.38-3.19c2.22-0.29,2.22-0.29,2.01-2.47
		c-0.18-1.89-0.18-1.88-1.97-1.65c-0.44,0.06-0.87,0.1-1.31,0.13c-1.89,0.11-1.91,0.09-1.99-1.72c-0.01-0.25-0.02-0.5-0.01-0.75
		c0.02-1.77,0.64-2.46,2.37-2.8c0.78-0.15,1.93,0.25,2.27-0.44c0.33-0.68-0.03-1.7-0.08-2.57c0-0.06-0.01-0.13-0.01-0.19
		c-0.03-0.67-0.32-1.01-1.05-1c-1.83,0.01-3.65,0.09-5.41,0.64c-2.36,0.73-3.83,2.28-4.2,4.81c-0.17,1.13-0.15,2.24,0.01,3.37
		c0.19,1.42,0.14,1.38-1.29,1.67c-0.85,0.17-1.98-0.27-2.49,0.47c-0.54,0.77,0.19,1.81,0.12,2.75c0,0.06,0.01,0.12,0.01,0.19
		c0.02,0.65,0.38,0.87,0.99,0.82c0.31-0.03,0.63-0.03,0.94-0.06c2.34-0.23,2.34-0.23,2.59,2.19c0.42,4.18,0.83,8.37,1.28,12.55
		C297.27,453.5,297.29,453.5,299.47,453.34z M81.71,265.75c0.09,1.42,0.08,1.49-0.3,1.7c-2.27,1.27-4.76,0.06-5.03-2.51
		c-0.2-1.92,0.25-2.18-2.38-1.78c-0.31,0.05-0.62,0.12-0.93,0.14c-0.61,0.03-0.89,0.31-0.87,0.95c0.07,1.94,0.11,3.89,0.81,5.75
		c0.88,2.35,2.58,3.65,5.07,3.86c0.75,0.06,1.51,0.05,2.26,0.01c2.29-0.13,2.29-0.15,2.58,2.09c0.23,1.78,0.23,1.78,1.92,1.6
		c2.32-0.25,2.32-0.25,2.09-2.61c-0.18-1.81-0.18-1.81,1.67-2.07c0.31-0.04,0.62-0.06,0.94-0.1c4.36-0.52,8.71-1.04,13.07-1.57
		c1.22-0.15,1.32-0.25,1.19-1.39c-0.16-1.37-0.4-2.73-0.55-4.1c-0.07-0.68-0.39-0.83-1-0.75c-2.3,0.3-4.6,0.59-6.9,0.87
		c-2.74,0.33-5.48,0.63-8.22,0.98c-0.87,0.11-1.32-0.15-1.31-1.07c0-0.25-0.05-0.5-0.09-0.75c-0.44-3.16-0.51-3.19-3.57-2.49
		c-0.65,0.15-0.85,0.4-0.75,1C81.52,264.36,81.63,265.23,81.71,265.75z M466.15,315.42c0.05-1.77-0.08-3.44-0.19-5.12
		c-0.07-1-0.52-1.45-1.4-1.67c-0.24-0.06-0.48-0.14-0.72-0.23c-1.26-0.48-1.24-0.47-0.86-1.75c0.25-0.82,1.01-1.72,0.62-2.45
		c-0.43-0.8-1.66-0.71-2.5-1.12c-0.89-0.43-1.25-0.01-1.47,0.8c-0.15,0.54-0.41,1.05-0.55,1.6c-0.23,0.89-0.72,1.04-1.53,0.74
		c-2.24-0.81-4.49-1.58-6.75-2.35c-1.48-0.51-2.95-1.08-4.46-1.48c-2.63-0.69-4.32,0.13-5.59,2.55c-0.73,1.4-1.25,2.89-1.58,4.42
		c-0.44,2.07-0.96,1.84,1.35,2.61c1.88,0.63,1.87,0.64,2.51-1.16c0.79-2.24,1.55-2.64,3.84-1.89c2.86,0.95,5.7,1.94,8.53,2.94
		c1.19,0.42,1.23,0.55,0.85,1.79c-0.07,0.24-0.18,0.47-0.27,0.7c-1.02,2.88-1,2.83,1.95,3.73c0.87,0.26,1.13-0.05,1.35-0.73
		c0.25-0.77,0.51-1.55,0.8-2.31c0.51-1.36,0.52-1.34,1.86-0.92C463.3,314.55,464.6,315.19,466.15,315.42z M106.32,139.37
		c-0.15,0.65-0.24,1.01-0.31,1.37c-0.16,0.86-0.26,1.74-0.47,2.59c-0.39,1.6-0.3,2.93,1.54,3.59c0.86,0.31,1.13,0.94,0.48,1.75
		c-0.16,0.19-0.27,0.42-0.4,0.64c-1.28,2.11-1.29,1.62,0.69,2.89c1.97,1.26,1.6,1.15,2.76-0.68c1.32-2.08,0.94-1.85,2.9-0.66
		c2.9,1.76,5.75,3.6,8.68,5.3c3.04,1.77,5.03,1.29,7.15-1.54c0.87-1.16,1.54-2.44,2.18-3.74c0.71-1.44,0.7-1.45-0.65-2.31
		c-1.9-1.21-1.9-1.21-3.1,0.64c-1.08,1.67-2.03,1.92-3.8,0.98c-0.39-0.21-0.75-0.45-1.13-0.68c-2.03-1.25-4.06-2.5-6.1-3.75
		c-1.88-1.15-1.88-1.15-0.75-3c1.65-2.7,1.64-2.69-1.2-4.15c-0.56-0.29-0.89-0.29-1.22,0.28c-0.5,0.87-1.09,1.69-1.58,2.57
		c-0.44,0.8-0.92,0.86-1.66,0.38C109.09,141.01,107.79,140.27,106.32,139.37z M275.27,426.56c-1.78,0.58-3.37,1.14-4.98,1.61
		c-0.79,0.23-1.14,0.68-1.13,1.48c0,0.37-0.04,0.75-0.08,1.13c-0.14,1.3-0.14,1.3-1.51,1.2c-2.61-0.19-2.61-0.19-2.85,2.3
		c-0.15,1.56-0.15,1.56,1.41,1.67c2.71,0.2,2.71,0.2,2.4,2.94c-0.01,0.12-0.04,0.25-0.05,0.37c-0.21,3.25-0.51,6.5-0.6,9.76
		c-0.08,2.9,1.27,4.42,4.11,4.92c1.42,0.25,2.86,0.37,4.31,0.34c2.04-0.04,2.04-0.02,2.3-2.09c0.23-1.86,0.23-1.86-1.69-1.98
		c-2.27-0.15-3.06-0.93-2.93-3.2c0.17-3.07,0.47-6.12,0.66-9.19c0.05-0.86,0.32-1.28,1.24-1.17c0.93,0.11,1.88,0.1,2.81,0.23
		c0.84,0.12,1.09-0.24,1.2-1.01c0.37-2.74,0.12-3.07-2.61-3.26c-0.25-0.02-0.5-0.01-0.75-0.02c-1.46-0.08-1.47-0.08-1.42-1.52
		C275.16,429.63,275.55,428.22,275.27,426.56z M317.56,50.01c-2.04,0.41-3.79,0.78-5.56,1.1c-0.61,0.11-0.76,0.5-0.94,1
		c-0.28,0.8,0.08,1.95-0.8,2.38c-0.79,0.38-1.7-0.18-2.56-0.33c-0.85-0.15-1.34,0.07-1.4,0.99c-0.02,0.31-0.13,0.61-0.19,0.92
		c-0.38,1.89-0.36,1.91,1.61,2.27c0.25,0.04,0.5,0.07,0.74,0.12c1.29,0.3,1.31,0.33,1.06,1.62c-0.38,1.97-0.78,3.94-1.15,5.91
		c-0.34,1.79-0.73,3.57-0.94,5.37c-0.36,3.07,0.66,4.51,3.63,5.47c1.14,0.37,2.3,0.59,3.49,0.72c3.09,0.35,2.67,0.72,3.29-2.42
		c0.24-1.21,0.21-1.21-1.01-1.4c-0.31-0.05-0.63-0.06-0.93-0.13c-2-0.48-2.57-1.35-2.19-3.41c0.56-3.02,1.17-6.03,1.72-9.05
		c0.16-0.89,0.44-1.43,1.47-1.02c0.28,0.11,0.62,0.09,0.93,0.15c3.09,0.59,3.15,0.54,3.44-2.63c0.05-0.55-0.05-0.82-0.6-0.93
		c-1.05-0.2-2.08-0.47-3.13-0.63c-0.81-0.12-1.04-0.49-0.88-1.28C316.97,53.31,317.23,51.78,317.56,50.01z M113.17,307.91
		c-0.49-1.36-1-2.78-1.51-4.19c-0.56-1.55-0.57-1.55-2.07-1.02c-8.04,2.86-16.08,5.73-24.12,8.6c-0.83,0.3-1.64,0.62-2.47,0.91
		c-0.53,0.18-0.67,0.53-0.49,1.02c0.57,1.6,1.15,3.19,1.72,4.78c0.18,0.5,0.46,0.71,0.99,0.47c0.28-0.13,0.59-0.2,0.89-0.31
		c7.68-2.75,15.36-5.5,23.04-8.24c1.12-0.4,2.25-0.8,3.37-1.21C112.86,308.59,113.27,308.49,113.17,307.91z M85.65,226.12
		c-1.01,0-1.51,0.01-2.01,0c-1.45-0.02-1.46-0.02-1.63,1.35c-0.13,1.06-0.25,2.12-0.32,3.19c-0.09,1.34-0.06,1.34,1.27,1.45
		c2.44,0.2,4.88,0.39,7.32,0.61c3.81,0.34,7.62,0.69,11.43,1.08c0.8,0.08,1.14-0.11,1.19-0.95c0.07-1.31,0.26-2.62,0.37-3.93
		c0.1-1.21,0.09-1.21-1.14-1.32c-2.94-0.28-5.88-0.54-8.81-0.83c-3.79-0.39-6.1-2.33-5.4-6.69c0.01-0.06,0.02-0.13,0.03-0.19
		c0.22-0.83-0.19-1.14-0.96-1.19c-0.94-0.06-1.87-0.18-2.81-0.24c-1.49-0.08-1.51-0.07-1.6,1.35c-0.03,0.43,0.02,0.88,0.05,1.31
		C82.8,223.09,83.84,224.61,85.65,226.12z M255.27,433.62c-0.27-0.96-0.02-1.62,0.11-2.29c0.15-0.77-0.13-1.19-0.91-1.3
		c-1.3-0.19-2.62-0.35-3.9-0.64c-0.91-0.21-1.08,0.2-1.17,0.94c-0.15,1.31-0.33,2.61-0.55,3.91c-0.83,4.95-1.65,9.9-2.55,14.83
		c-0.19,1.03,0.13,1.37,1.06,1.47c0.81,0.09,1.61,0.26,2.41,0.41c2.37,0.43,2.37,0.43,2.81-1.87c0.09-0.49,0.17-0.99,0.26-1.48
		c0.47-2.53,0.82-5.09,1.46-7.57c0.73-2.82,2.41-3.85,5.28-3.78c0.87,0.02,1.84,0.77,2.52,0.2c0.7-0.6,0.46-1.76,0.67-2.67
		c0.1-0.43,0.13-0.87,0.23-1.29c0.2-0.82-0.21-1.15-0.95-1.25c-0.31-0.04-0.62-0.09-0.93-0.11
		C258.83,430.91,256.99,431.86,255.27,433.62z M286.34,55.23c-0.12-0.04-0.24-0.09-0.36-0.13c0-0.67-0.03-1.35,0.01-2.01
		c0.05-0.83-0.36-1.1-1.13-1.1c-1.13-0.01-2.26-0.1-3.39-0.11c-1.51-0.03-1.54-0.01-1.54,1.57c0,4.64-0.32,9.27-0.58,13.9
		c-0.08,1.44-0.12,2.88-0.16,4.33c-0.03,1.33-0.02,1.35,1.41,1.49c1.19,0.11,2.38,0.15,3.56,0.25c0.8,0.07,1.14-0.25,1.17-1.05
		c0.09-2.38,0.2-4.76,0.34-7.14c0.07-1.19,0.13-2.39,0.34-3.55c0.43-2.43,2.02-3.88,4.26-4.1c1.04-0.1,2.39,0.51,3.04-0.28
		c0.66-0.81,0.2-2.18,0.32-3.29c0.02-0.19-0.01-0.38,0.03-0.56c0.25-1.01-0.31-1.12-1.14-1.16
		C289.93,52.15,287.88,53.11,286.34,55.23z M288.52,443.64c0-3.14,0.03-6.27-0.01-9.41c-0.03-1.61-0.13-1.65-1.76-1.64
		c-0.94,0.01-1.88,0.04-2.82,0.08c-1.66,0.07-1.69,0.08-1.66,1.72c0.08,3.57,0.19,7.15,0.31,10.72c0.09,2.7,0.21,5.39,0.3,8.08
		c0.02,0.68,0.17,1.02,0.98,0.94c1.25-0.12,2.51-0.07,3.76-0.11c1.4-0.05,1.42-0.06,1.38-1.54
		C288.92,449.53,288.96,446.58,288.52,443.64z M133.63,147.66c1.05-1.45,1.99-2.7,2.88-3.97c0.74-1.05,0.73-1.07-0.37-1.88
		c-2.02-1.48-4.06-2.93-6.09-4.4c-3.05-2.2-6.11-4.37-9.13-6.61c-0.8-0.59-1.25-0.53-1.78,0.3c-0.67,1.05-1.41,2.07-2.2,3.04
		c-0.66,0.81-0.41,1.24,0.36,1.77c1.76,1.2,3.46,2.47,5.19,3.72C126.15,142.27,129.8,144.9,133.63,147.66z M308.68,431.27
		c0.08,0.37,0.12,0.56,0.15,0.74c0.72,3.94,1.44,7.88,2.17,11.82c0.42,2.28,0.87,4.55,1.26,6.83c0.12,0.71,0.39,0.96,1.13,0.8
		c1.16-0.26,2.34-0.41,3.51-0.64c1.63-0.33,1.63-0.34,1.34-1.91c-0.72-3.94-1.44-7.88-2.17-11.82c-0.4-2.15-0.79-4.31-1.2-6.46
		c-0.1-0.53-0.12-1.2-0.99-1.04c-1.48,0.27-2.96,0.53-4.43,0.81C308.88,430.51,308.56,430.83,308.68,431.27z M302.93,55.71
		c0.18-2.19,0.29-2.17-1.35-2.31c-1.06-0.09-2.12-0.29-3.18-0.37c-1.31-0.11-1.34-0.08-1.51,1.21c-0.47,3.61-0.93,7.22-1.37,10.83
		c-0.32,2.62-0.58,5.24-0.89,7.86c-0.1,0.84,0.11,1.27,1.06,1.32c1.25,0.07,2.5,0.26,3.73,0.49c0.86,0.16,1.22-0.01,1.33-0.97
		C301.47,67.53,302.25,61.31,302.93,55.71z M302.86,49.23c0.74,0.19,1.07-0.29,1.12-1.12c0.02-0.31,0.08-0.62,0.11-0.93
		c0.29-2.83,0.29-2.9-2.54-3.1c-1.14-0.08-2.5-0.95-3.38-0.08c-0.82,0.8-0.34,2.27-0.6,3.42c-0.17,0.76,0.01,1.14,0.87,1.22
		C299.85,48.79,301.26,49.02,302.86,49.23z M116.35,127.64c-0.39-0.74-1.06-1-1.6-1.4c-2.27-1.67-2.29-1.67-3.93,0.65
		c-0.67,0.95-2,1.91-1.76,2.9c0.25,1.08,1.84,1.53,2.79,2.32c0.05,0.04,0.11,0.06,0.15,0.1c0.5,0.41,0.89,0.28,1.24-0.22
		C114.27,130.53,115.32,129.07,116.35,127.64z M313.87,424.4c-0.17-0.97-0.37-2.02-0.55-3.07c-0.11-0.7-0.49-0.95-1.18-0.82
		c-1.48,0.28-2.96,0.55-4.44,0.8c-0.72,0.12-0.91,0.46-0.73,1.18c0.24,0.97,0.37,1.97,0.52,2.96c0.09,0.63,0.4,0.86,1.03,0.74
		c1.54-0.29,3.08-0.56,4.63-0.83C313.66,425.27,313.95,425.03,313.87,424.4z M285.03,428.37c3.38-0.11,3.38-0.11,3.27-3.47
		c-0.01-0.25-0.02-0.5-0.03-0.75c-0.01-0.56-0.32-0.76-0.84-0.74c-1.57,0.04-3.13,0.06-4.7,0.09c-0.63,0.01-0.89,0.35-0.88,0.95
		c0.01,0.31,0.01,0.63,0.02,0.94C281.96,428.47,281.96,428.47,285.03,428.37z"/>
	<path class="st1" d="M436.07,247.93c0.09,86.77-69.89,158.95-158.75,159.23c-89.18,0.28-159.85-71.81-159.85-159.29
		c0.01-88.4,72-160.37,161.32-159.29C366.14,89.64,436.18,160.83,436.07,247.93z M276.68,100.42
		c-80.59-0.1-148.18,65.5-147.37,149.01c0.79,81.87,68.1,146.99,149.54,145.9c79.18-1.06,145.46-65.39,145.39-147.61
		C424.18,165.28,357.15,100.24,276.68,100.42z"/>
	<path class="st1" d="M391.29,83.72c-2.32,1.89-4.63,3.78-6.95,5.68c-4.17,3.43-8.34,6.86-12.51,10.29
		c-1.23,1.01-1.26,1.04-2.57,0.2c-1.2-0.78-3.02-1.17-3.42-2.45c-0.36-1.15,0.39-2.66,0.69-4c1.53-6.79,3.07-13.58,4.6-20.37
		c0.13-0.58,0.21-1.17,0.34-1.88c-0.81,0.44-1.03,1.14-1.38,1.71c-3.7,5.98-7.37,11.97-11.05,17.96c-0.23,0.37-0.48,0.74-0.69,1.12
		c-0.33,0.6-0.71,0.79-1.35,0.37c-1.05-0.69-2.12-1.35-3.21-1.96c-0.75-0.42-0.71-0.85-0.3-1.51c1.41-2.23,2.77-4.49,4.15-6.73
		c3.45-5.61,6.9-11.23,10.36-16.84c0.13-0.21,0.29-0.41,0.4-0.63c0.35-0.69,0.76-0.88,1.48-0.42c2.28,1.44,4.58,2.86,6.9,4.24
		c0.74,0.44,0.82,0.93,0.62,1.71c-0.77,3.1-1.46,6.23-2.19,9.34c-0.93,3.97-1.88,7.93-2.81,11.9c-0.11,0.48-0.25,0.97-0.12,1.47
		c0.65,0.17,0.93-0.34,1.29-0.64c5.39-4.61,10.78-9.23,16.16-13.85c1.29-1.11,1.3-1.12,2.72-0.26c1.99,1.2,3.97,2.41,5.94,3.63
		c1.33,0.82,1.33,0.85,0.53,2.15c-3.41,5.56-6.84,11.12-10.26,16.68c-1.45,2.35-2.92,4.69-4.32,7.07c-0.49,0.83-0.91,1.04-1.75,0.43
		c-0.96-0.7-2.02-1.26-3.03-1.9c-1.16-0.74-1.17-0.75-0.4-2.01c3.74-6.1,7.5-12.19,11.24-18.28c0.39-0.64,0.77-1.28,1.15-1.92
		C391.47,83.92,391.38,83.82,391.29,83.72z"/>
	<path class="st1" d="M87.49,207.51c-2.77-6.25-1.18-11.17,4.15-12.93c0.26-0.54-0.24-0.78-0.47-1.1
		c-2.58-3.55-1.24-8.76,0.86-11.03c1.86-2.01,4.27-2.36,6.77-1.81c3.43,0.75,6.8,1.73,10.2,2.62c1.03,0.27,2.05,0.61,3.09,0.84
		c0.83,0.18,0.97,0.57,0.74,1.34c-0.39,1.26-0.7,2.54-1.01,3.82c-0.21,0.85-0.62,1.06-1.5,0.8c-3.25-0.94-6.53-1.79-9.8-2.67
		c-1.03-0.28-2.06-0.57-3.13-0.61c-2.01-0.07-3.18,0.76-3.8,2.67c-0.63,1.93-0.12,3.58,1.45,4.65c1.05,0.72,2.26,1.07,3.47,1.4
		c3.21,0.87,6.41,1.78,9.63,2.57c1.01,0.25,1.19,0.64,0.87,1.57c-0.38,1.13-0.61,2.3-0.94,3.45c-0.37,1.26-0.41,1.29-1.72,0.95
		c-3.4-0.89-6.78-1.83-10.18-2.72c-0.85-0.22-1.72-0.41-2.59-0.45c-1.56-0.07-2.85,0.48-3.52,1.99c-0.72,1.61-0.73,3.16,0.51,4.57
		c0.91,1.04,2.13,1.55,3.4,1.91c3.32,0.93,6.66,1.8,9.99,2.71c1.56,0.42,1.56,0.43,1.17,1.97c-0.28,1.09-0.6,2.18-0.84,3.28
		c-0.21,0.98-0.66,1.1-1.6,0.84c-5.44-1.5-10.9-2.92-16.36-4.36c-0.73-0.19-1.46-0.37-2.2-0.51c-0.64-0.12-0.83-0.4-0.64-1.05
		c0.4-1.38,0.75-2.78,1.11-4.18c0.15-0.57,0.39-0.88,1.06-0.67C86.25,207.54,86.86,207.76,87.49,207.51z"/>
	<path class="st1" d="M467.28,216.94c4.27,2.93,5.6,10.07,0.82,13.7c0.03,0.37,0.37,0.47,0.61,0.62c3.38,2,4.5,7.12,3.39,10.37
		c-0.87,2.52-2.84,3.72-5.26,4.37c-1.53,0.41-3.11,0.41-4.66,0.6c-2.99,0.36-5.99,0.61-9,0.88c-1.58,0.14-1.58,0.12-1.75-1.56
		c-0.11-1.12-0.2-2.25-0.34-3.37c-0.11-0.81,0.23-1.12,1-1.19c2.31-0.21,4.62-0.43,6.93-0.69c1.93-0.22,3.89-0.26,5.79-0.69
		c2.85-0.65,3.99-2.83,2.93-5.57c-0.62-1.61-1.89-2.28-3.51-2.41c-1.44-0.11-2.89,0.02-4.32,0.17c-2.87,0.3-5.74,0.57-8.61,0.9
		c-0.89,0.1-1.25-0.18-1.29-1.1c-0.05-1.25-0.17-2.51-0.35-3.75c-0.14-0.98,0.21-1.35,1.18-1.42c3.07-0.24,6.13-0.55,9.19-0.84
		c1.37-0.13,2.76-0.23,4.06-0.71c1.87-0.69,2.63-1.82,2.54-3.71c-0.09-1.93-1.06-3.26-2.83-3.78c-0.97-0.28-1.95-0.41-2.98-0.29
		c-2.99,0.33-5.99,0.62-8.99,0.91c-0.56,0.06-1.13,0.09-1.69,0.11c-1.4,0.06-1.43,0.03-1.58-1.42c-0.05-0.5-0.11-1-0.09-1.5
		c0.03-0.98-0.65-2.13,0-2.89c0.58-0.68,1.78-0.4,2.69-0.49c5.74-0.6,11.5-0.99,17.21-1.84c0.73-0.11,1.07,0.13,1.13,0.84
		c0.13,1.31,0.23,2.63,0.41,3.93c0.12,0.9-0.25,1.25-1.09,1.36C468.37,216.56,467.84,216.48,467.28,216.94z"/>
	<path class="st1" d="M189.37,95.66c-3.9,0.02-6.31-1.47-8.1-4.06c-0.69-1-0.67-1.05,0.45-1.68c1.2-0.68,2.44-1.29,3.63-1.99
		c0.71-0.42,1.15-0.38,1.74,0.28c2.04,2.27,4.22,2.54,6.89,0.98c1.44-0.84,2.64-1.92,3.17-3.58c0.74-2.34-0.64-4.37-3.07-4.48
		c-1.13-0.05-2.25,0.15-3.36,0.38c-1.84,0.39-3.69,0.75-5.53,1.12c-0.99,0.2-1.99,0.23-3,0.24c-3.07,0.03-5.5-1.09-7-3.88
		c-1.56-2.92-1.45-5.77,0.33-8.55c1.32-2.06,3.15-3.57,5.23-4.79c2.29-1.35,4.69-2.4,7.41-2.52c3.05-0.13,5.3,1.2,6.95,3.7
		c0.41,0.61,0.35,0.98-0.32,1.33c-1.45,0.75-2.89,1.51-4.31,2.32c-0.57,0.33-0.86,0.11-1.28-0.27c-2.7-2.46-6.58-1.78-8.33,1.44
		c-1.34,2.46,0.12,4.95,2.9,4.93c2.4-0.02,4.71-0.67,7.06-1.06c1.49-0.25,2.98-0.43,4.48-0.58c6.82-0.7,10.22,7.09,7.56,12.06
		c-0.85,1.58-1.94,2.94-3.29,4.07C196.44,93.71,192.89,95.47,189.37,95.66z"/>
	<path class="st1" d="M440.47,179.26c-0.12-0.37-0.38-0.41-0.6-0.49c-3.08-1.11-4.67-3.44-5.41-6.49c-0.73-3,0.03-5.66,2.16-7.8
		c3.33-3.34,7.32-4.97,12.12-4.08c5.17,0.97,8.3,8.01,6.16,11.99c-0.11,0.21-0.16,0.45-0.24,0.66c0.51,0.38,0.87-0.02,1.24-0.17
		c1.29-0.49,1.3-0.5,1.9,0.81c0.45,0.97,0.82,1.98,1.31,2.92c0.45,0.87,0.3,1.31-0.65,1.69c-2.16,0.85-4.28,1.8-6.41,2.73
		c-3.05,1.33-6.08,2.7-9.13,4.03c-2.09,0.91-4.25,1.48-6.57,1.44c-2.2-0.03-4.13-0.77-5.58-2.34c-2.93-3.14-4.54-6.9-4.55-11.24
		c0-2.16,0.96-3.85,2.87-4.98c0.6-0.35,1.02-0.37,1.32,0.37c0.37,0.93,0.76,1.86,1.22,2.75c0.53,1.01,0.89,1.93-0.37,2.69
		c-0.19,0.12-0.32,0.39-0.4,0.63c-0.64,1.93,0.04,3.59,1.16,5.1c0.98,1.33,2.33,1.83,3.98,1.5
		C437.6,180.68,439.12,180.16,440.47,179.26z M444.25,177.16c2.38-0.15,4.89-1.17,6.89-3.25c1.48-1.53,1.75-3.21,0.93-5
		c-0.8-1.75-2.58-2.86-4.58-2.66c-2.62,0.26-5,1.22-6.93,3.06c-1.44,1.37-1.96,3.02-1.18,4.96
		C440.14,176.19,441.56,177.14,444.25,177.16z"/>
	<path class="st1" d="M222.24,434.25c-1.92,2.94-4.52,4.67-7.98,4.66c-5.18-0.01-9.51-2.14-12.95-5.95
		c-2.52-2.79-3.21-6.23-2.61-9.86c0.71-4.3,2.55-8.13,5.47-11.39c4.23-4.72,9.9-5.99,15.74-3.56c3.01,1.25,5.65,3.02,7.46,5.82
		c1.81,2.82,1.81,5.74,0.45,8.91c-1.88-0.94-3.61-1.83-5.35-2.67c-0.56-0.27-0.73-0.63-0.56-1.2c1.4-4.56-4.63-7.94-8.67-5.92
		c-0.28,0.14-0.58,0.25-0.83,0.44c-4.75,3.52-7.45,8.13-7.08,14.14c0.21,3.52,3.9,6.21,7.37,5.7c1.18-0.18,2.1-0.8,2.88-1.65
		c0.38-0.41,0.72-0.62,1.29-0.32c1.5,0.79,3.02,1.54,4.53,2.31C221.66,433.84,221.91,434.04,222.24,434.25z"/>
	<path class="st1" d="M352.67,418.43c0.14-0.66-0.32-1.16-0.56-1.7c-1.13-2.52-2.26-5.04-3.48-7.52c-0.44-0.9-0.29-1.34,0.64-1.69
		c1.05-0.4,2.06-0.93,3.09-1.39c1.41-0.63,1.42-0.63,2.04,0.72c2.03,4.38,4.05,8.77,6.07,13.16c2.02,4.38,4.04,8.75,6.14,13.29
		c-1.53,0.71-3.06,1.41-4.57,2.14c-0.69,0.34-1.17,0.3-1.48-0.49c-0.13-0.33-0.28-0.7-0.68-0.91c-0.55,0.05-0.53,0.59-0.7,0.94
		c-2.4,5.1-9,6.77-13.37,3.2c-3.84-3.13-5.65-7.35-5.27-12.3c0.41-5.28,5.68-8.9,10.85-7.63
		C351.79,418.34,352.16,418.67,352.67,418.43z M357.61,429.83c-0.21-2.64-1.39-5.39-3.87-7.47c-1.54-1.29-3.27-1.48-5.08-0.56
		c-1.72,0.87-2.57,2.41-2.3,4.52c0.35,2.8,1.5,5.29,3.47,7.33c1.37,1.41,3.02,1.95,4.95,1.15
		C356.72,433.99,357.6,432.63,357.61,429.83z"/>
	<path class="st1" d="M101.61,174.24c-2.79-1.27-4.06-3.67-3.57-6.83c0.47-3.02,1.68-5.77,3.51-8.22c1.63-2.19,3.83-2.9,6.49-2.29
		c1.23,0.28,2.38,0.78,3.52,1.29c3.6,1.61,7.11,3.44,10.85,4.74c0.82,0.28,0.94,0.68,0.6,1.39c-0.49,1.02-1.01,2.03-1.41,3.08
		c-0.39,1.02-0.98,1.36-2.02,0.97c-0.26-0.1-0.57-0.27-0.86-0.08c-0.2,0.25-0.07,0.49,0.01,0.72c1.12,3.46-0.06,7.53-2.84,9.82
		c-3.35,2.76-8.89,0.98-10.07-3.2c-0.5-1.76-0.25-3.47,0.16-5.2c0.49-2.02,1.31-3.92,2.16-5.81c0.5-1.12,0.47-1.16-0.68-1.64
		c-0.46-0.19-0.94-0.37-1.42-0.48c-1.47-0.34-2.6,0.18-3.32,1.48c-0.88,1.6-0.89,2.97,0.41,3.88c1.13,0.79,0.85,1.44,0.4,2.34
		C102.85,171.52,102.24,172.89,101.61,174.24z M109.58,169.86c-0.06,2.41,0.93,3.83,2.64,4.16c1.68,0.32,3.16-0.66,3.86-2.57
		c0.52-1.41,0.32-2.71-0.61-3.89c-0.88-1.12-2.07-1.8-3.3-2.44c-0.59-0.3-0.92-0.09-1.19,0.46
		C110.27,167.05,109.68,168.57,109.58,169.86z"/>
	<path class="st1" d="M397.86,119.1c-0.18-0.04-0.36-0.13-0.52-0.12c-3.64,0.35-6.08-1.6-8.02-4.34c-1.62-2.28-1.56-4.87-0.03-7.04
		c1.7-2.4,4.14-3.36,6.89-2.69c2.45,0.6,4.44,2.02,6.37,3.54c0.69,0.54,1.37,1.11,1.99,1.73c0.68,0.69,1.18,0.52,1.66-0.2
		c0.31-0.47,0.67-0.91,0.93-1.41c0.7-1.37,0.49-2.54-0.59-3.58c-1.28-1.24-2.53-1.5-3.88-0.55c-0.78,0.55-1.24,0.55-1.9-0.11
		c-0.89-0.89-1.88-1.66-2.8-2.52c-0.95-0.88-0.93-1.02,0.14-1.81c1.66-1.21,3.53-1.41,5.39-0.8c3.72,1.23,6.52,3.7,8.58,6.99
		c1.08,1.73,0.99,3.59,0.15,5.41c-0.48,1.03-1.14,1.94-1.88,2.81c-2.97,3.48-6.2,6.74-8.97,10.6c-1.54-0.96-2.7-2.28-4.01-3.39
		c-0.33-0.28-0.32-0.62-0.16-1.02C397.4,120.13,397.95,119.78,397.86,119.1z M397.3,109.57c-1.47,0-2.41,0.67-3.05,1.78
		c-0.64,1.1-0.47,2.22,0.25,3.19c1.65,2.22,3.98,3.05,6.82,0.66c2.63-2.22,2.24-1.85,0.07-3.76c-0.66-0.58-1.42-1.03-2.23-1.39
		C398.52,109.77,397.87,109.54,397.3,109.57z"/>
	<path class="st1" d="M428.14,156.86c-3.63-0.48-5.63-2.9-6.84-6.1c-1.11-2.92-0.39-5.47,1.91-7.25c2.47-1.92,5.25-2,7.84-0.23
		c1.84,1.26,3.22,2.96,4.51,4.75c0.55,0.76,1.06,1.56,1.55,2.36c0.37,0.61,0.79,0.75,1.37,0.28c0.39-0.32,0.82-0.58,1.19-0.92
		c1.91-1.79,1.43-4.44-0.95-5.53c-0.77-0.35-1.48-0.22-2.18,0.09c-0.53,0.24-0.93,0.25-1.27-0.29c-0.83-1.33-1.69-2.64-2.54-3.96
		c-0.38-0.59-0.11-0.88,0.45-1.13c2-0.91,3.91-0.67,5.74,0.43c1.37,0.82,2.44,1.95,3.39,3.21c1.06,1.41,1.96,2.91,2.62,4.55
		c1.18,2.95,0.64,5.36-1.73,7.47c-0.74,0.66-1.59,1.22-2.42,1.78c-3.33,2.24-6.85,4.19-10,6.69c-0.72,0.57-1.18,0.55-1.62-0.28
		c-0.26-0.5-0.61-0.95-0.91-1.42c-0.47-0.74-1.08-1.44-1.35-2.25C426.56,158.1,428.05,157.92,428.14,156.86z M430.29,154.81
		c1.46-0.05,2.9-0.78,4.29-1.65c0.29-0.18,0.38-0.49,0.2-0.81c-1.07-1.85-2.25-3.66-4.29-4.55c-2.15-0.94-4.55,0.65-4.53,2.91
		C425.98,152.76,428,154.77,430.29,154.81z"/>
	<path class="st1" d="M150.25,123.97c-0.14,3.61-1.92,6.42-4.39,8.88c-0.85,0.84-1.82,1.55-2.87,2.12
		c-2.77,1.48-5.64,1.78-8.51,0.42c-4.12-1.96-7.17-4.88-7.7-9.7c-0.33-2.97,0.75-5.56,2.5-7.88c2.11-2.79,4.7-4.86,8.32-5.35
		c0.96-0.13,1.88-0.03,2.81,0.13C144.5,113.27,150.46,118.08,150.25,123.97z M145.33,126.14c-0.04-0.2-0.08-0.65-0.23-1.05
		c-1.37-3.64-4.01-6.02-7.66-7.16c-1.89-0.59-3.58,0.12-4.83,1.71c-1.16,1.47-1.38,3.12-0.52,4.74c1.64,3.1,4.11,5.27,7.51,6.4
		C142.08,131.61,145.25,129.26,145.33,126.14z"/>
	<path class="st1" d="M453.56,207.38c-2.77,0.48-5.13-0.22-6.91-2.22c-2.86-3.19-4.05-7-3.54-11.29c0.27-2.3,1.39-4.17,3.23-5.54
		c3.04-2.26,6.51-3.23,10.27-2.89c3.07,0.27,5.43,1.83,7.03,4.48c1.46,2.42,2.24,5.06,2.04,7.89c-0.21,3.1-1.78,5.44-4.41,7.05
		c-1.29,0.79-2.72,1.27-4.16,1.74c-0.75,0.24-1,0.01-1.2-0.67c-0.83-2.83-1.7-5.64-2.56-8.46c-0.44-1.44-0.91-2.87-1.29-4.32
		c-0.25-0.94-0.7-0.98-1.51-0.64c-3.08,1.31-4.32,3.81-3.21,6.61c0.61,1.53,1.66,2.56,3.38,2.53c1.02-0.01,1.44,0.37,1.66,1.32
		C452.72,204.43,453.36,205.81,453.56,207.38z M456.91,190.94c-0.2,0.02-0.57,0.04-0.95,0.09c-0.56,0.08-0.72,0.4-0.55,0.94
		c0.75,2.46,1.48,4.92,2.23,7.38c0.18,0.6,0.53,0.72,1.15,0.47c2.15-0.87,3.36-2.68,3.02-4.64
		C461.36,192.53,459.59,190.95,456.91,190.94z"/>
	<path class="st1" d="M244.16,442.88c-1.43,3.02-3.65,4.51-6.71,4.73c-2.89,0.21-5.61-0.46-8.15-1.81
		c-3.91-2.08-5.69-5.67-4.99-10.03c0.29-1.8,0.84-3.53,1.67-5.16c2.35-4.58,6.4-6.51,11.42-5.43c0.24,0.05,0.49,0.12,0.73,0.18
		c6.97,1.84,9.65,6.99,7.29,14.23c-0.28,0.87-0.73,0.8-1.42,0.59c-3.89-1.2-7.8-2.35-11.69-3.56c-2.13-0.66-2.08-0.68-2.38,1.62
		c-0.39,2.98,1.86,5.48,4.84,5.49c1.25,0,2.38-0.49,3.02-1.6c0.54-0.93,1.13-0.93,2.02-0.61
		C241.16,442.01,242.55,442.38,244.16,442.88z M240.8,433.39c0.03-2.48-1.36-4.12-3.75-4.55c-2.22-0.39-4.58,0.99-5.24,3.05
		c-0.17,0.53-0.04,0.83,0.49,0.99c2.45,0.74,4.91,1.48,7.36,2.23c0.65,0.2,0.93-0.16,1.03-0.73
		C240.77,434.02,240.78,433.64,240.8,433.39z"/>
	<path class="st1" d="M80.5,248.19c-0.08-1.39,0.03-2.76,0.43-4.1c0.53-1.78,1.37-3.39,2.79-4.61c3.61-3.09,7.83-3.23,12.09-2.01
		c4.02,1.16,6.08,4.24,6.79,8.25c0.39,2.18,0.35,4.38-0.21,6.54c-1.13,4.39-4.25,7.12-8.75,7.64c-1.56,0.18-3.14,0.22-4.69-0.09
		c-4.91-0.99-8.14-4.72-8.45-9.74C80.46,249.45,80.5,248.82,80.5,248.19z M91.47,253.56c1.84,0.05,3.57-0.16,5.16-1.01
		c1.61-0.86,2.51-2.19,2.5-4.09c0-1.88-0.78-3.33-2.45-4.11c-3.29-1.53-6.67-1.58-9.98-0.09c-1.76,0.79-2.62,2.32-2.6,4.23
		c0.02,1.99,1,3.45,2.85,4.25C88.4,253.38,89.94,253.63,91.47,253.56z"/>
	<path class="st1" d="M329.82,425.31c4.7-0.05,7.45,2.09,9.13,5.78c1.67,3.66,1.65,3.68-2.16,4.79c-3.37,0.98-6.74,1.94-10.11,2.94
		c-1.32,0.39-1.31,0.42-0.78,1.66c1.16,2.7,3.03,3.85,5.56,3.41c2.09-0.36,3.37-1.65,3.5-3.77c0.05-0.85,0.33-1.24,1.11-1.44
		c1.21-0.31,2.43-0.61,3.61-1.03c0.92-0.32,1.17,0.12,1.17,0.86c-0.01,1.93-0.48,3.71-1.78,5.22c-2.83,3.31-9.12,5.14-13.28,3.82
		c-2.61-0.83-4.36-2.67-5.49-5.09c-1.05-2.23-1.61-4.59-1.57-7.09c0.06-3.64,1.62-6.38,4.76-8.2
		C325.61,425.95,327.86,425.24,329.82,425.31z M324.36,433.78c-0.02,1.88,0.07,1.95,1.89,1.43c1.99-0.56,3.98-1.13,5.96-1.71
		c1.34-0.4,1.39-0.56,0.77-1.83c-1.02-2.08-2.76-2.95-4.94-2.45C325.72,429.75,324.38,431.42,324.36,433.78z"/>
	<path class="st1" d="M215.59,61.33c3.78,0.03,6.29,1.48,8.13,4.13c0.79,1.14,1.33,2.42,1.8,3.72c0.41,1.16,0.41,1.19-0.76,1.61
		c-2.89,1.05-5.79,2.06-8.69,3.09c-1.24,0.44-2.47,0.92-3.72,1.35c-0.57,0.2-0.81,0.47-0.62,1.11c0.89,3.1,4.17,4.58,7.05,3.18
		c1.51-0.74,2.38-1.91,2.29-3.57c-0.06-1,0.3-1.32,1.14-1.57c1.14-0.34,2.25-0.77,3.36-1.21c0.83-0.33,1.14-0.02,1.21,0.8
		c0.18,2.24-0.34,4.32-1.94,5.9c-3.1,3.06-6.86,4.55-11.26,4.21c-2.84-0.22-4.95-1.72-6.48-4.02c-1.9-2.86-2.79-6.02-2.54-9.46
		c0.17-2.29,1.12-4.24,2.81-5.79C209.82,62.55,212.82,61.56,215.59,61.33z M209.9,70.15c0.01,0.1,0.01,0.29,0.04,0.47
		c0.21,1.35,0.43,1.51,1.7,1.07c2.12-0.73,4.23-1.5,6.34-2.28c1.09-0.41,1.13-0.59,0.58-1.62c-1.07-2-2.8-2.86-4.78-2.38
		C211.42,65.97,209.87,67.83,209.9,70.15z"/>
	<path class="st1" d="M456.3,272.23c-2.75-0.56-4.68-1.95-5.67-4.38c-1.64-4.06-1.4-8.13,0.61-12c1.45-2.78,4.02-4.08,7.03-4.46
		c2.78-0.35,5.52,0,8.1,1.16c4.2,1.88,5.73,5.37,5.7,9.74c-0.01,1.32-0.18,2.62-0.58,3.89c-1.23,3.89-3.93,6.01-7.92,6.51
		c-1.11,0.14-2.26,0.03-3.38,0.08c-1.01,0.05-1.3-0.42-1.22-1.37c0.25-3.12,0.45-6.25,0.66-9.38c0.09-1.31,0.15-2.63,0.22-3.94
		c0.03-0.54-0.23-0.8-0.77-0.81c-3.14-0.07-5.68,1.55-5.74,4.82c-0.03,1.73,0.62,3.11,2.26,3.76c0.95,0.37,1.21,0.9,1.1,1.83
		C456.53,269.11,456.44,270.54,456.3,272.23z M468.42,262.57c0.04-2.37-1.64-4.39-3.96-4.79c-0.62-0.11-0.95,0.05-1,0.72
		c-0.18,2.5-0.38,5-0.58,7.49c-0.06,0.72,0.23,1.02,0.97,1.03C466.48,267.04,468.37,265.22,468.42,262.57z"/>
	<path class="st1" d="M423.89,118.78c-0.37,0.91-1.39,1.18-1.71,2.01c0.42,0.36,0.88,0.32,1.31,0.38c3.98,0.54,6.18,3.09,7.35,6.67
		c0.76,2.31-0.13,4.31-1.65,6.06c-0.95,1.1-2.13,1.95-3.23,2.88c-2.54,2.15-5.1,4.28-7.66,6.41c-1.08,0.9-1.09,0.89-2.03-0.22
		c-0.77-0.91-1.47-1.89-2.3-2.74c-0.8-0.81-0.39-1.26,0.27-1.8c1.71-1.39,3.39-2.8,5.08-4.21c1.2-1.01,2.41-2.02,3.58-3.05
		c0.47-0.41,0.91-0.87,1.3-1.36c1.17-1.5,1.23-2.81,0.25-4.33c-0.98-1.54-2.48-2.23-4.18-1.84c-1.56,0.35-2.91,1.16-4.13,2.18
		c-2.41,2.01-4.81,4.03-7.22,6.04c-1.13,0.94-1.14,0.94-2.06-0.12c-0.74-0.86-1.45-1.73-2.16-2.61c-0.88-1.09-0.89-1.12,0.22-2.04
		c3.85-3.23,7.72-6.43,11.57-9.66c1.01-0.85,2-1.72,2.97-2.61c0.48-0.44,0.84-0.42,1.24,0.08
		C421.75,116.21,422.84,117.5,423.89,118.78z"/>
	<path class="st1" d="M149.34,102.49c0.16-1.02,0.21-1.83,0.41-2.6c0.82-3.16,4.18-6.04,7.43-6.39c1.5-0.16,2.86,0.28,4.1,1.09
		c1.01,0.66,1.82,1.53,2.59,2.45c2.58,3.08,5.16,6.16,7.73,9.24c0.86,1.03,0.86,1.05-0.14,1.91c-0.95,0.82-1.96,1.58-2.87,2.43
		c-0.7,0.66-1.14,0.45-1.68-0.2c-1.98-2.43-4.01-4.83-6.01-7.24c-0.8-0.97-1.61-1.93-2.59-2.73c-1.52-1.24-2.86-1.36-4.32-0.46
		c-1.68,1.04-2.35,2.64-1.92,4.48c0.37,1.57,1.23,2.87,2.24,4.08c1.97,2.36,3.95,4.71,5.91,7.08c0.91,1.1,0.91,1.12-0.16,2.06
		c-0.75,0.66-1.53,1.3-2.3,1.94c-1.35,1.12-1.36,1.12-2.45-0.17c-2.7-3.22-5.38-6.46-8.09-9.67c-1.49-1.77-2.99-3.52-4.58-5.37
		c1.39-1.18,2.73-2.3,4.06-3.44c0.42-0.36,0.75-0.32,1.11,0.11C148.22,101.55,148.56,102.09,149.34,102.49z"/>
	<path class="st1" d="M89.88,296.05c-0.26-0.63-0.67-0.71-0.98-0.88c-3.49-1.88-4.59-6.91-3.76-9.88c0.45-1.58,1.45-2.76,2.86-3.59
		c0.93-0.55,1.92-0.91,2.96-1.17c4.08-1.01,8.16-2,12.22-3.06c0.96-0.25,1.37-0.09,1.55,0.92c0.2,1.17,0.57,2.31,0.84,3.47
		c0.31,1.31,0.31,1.35-0.96,1.68c-3.28,0.83-6.57,1.62-9.86,2.45c-1.03,0.26-2.06,0.53-3.01,1.06c-1.31,0.73-2.18,1.76-2.04,3.31
		c0.15,1.73,0.9,3.16,2.67,3.74c1.01,0.33,2.05,0.49,3.15,0.31c3.66-0.6,7.19-1.72,10.8-2.52c1.67-0.37,1.66-0.4,2.09,1.29
		c0.23,0.91,0.47,1.82,0.68,2.74c0.35,1.5,0.35,1.55-1.13,1.93c-4.74,1.2-9.49,2.36-14.24,3.56c-1.34,0.34-2.66,0.72-3.99,1.09
		c-0.66,0.19-1.07,0.03-1.23-0.71c-0.3-1.35-0.64-2.68-1.01-4.01c-0.2-0.71,0.04-1.06,0.72-1.23
		C88.76,296.41,89.29,296.23,89.88,296.05z"/>
	<path class="st1" d="M465.82,284.98c-0.08,0.52,0.22,0.8,0.4,1.11c1.92,3.29,1.44,6.53-0.38,9.63c-1.31,2.23-3.5,2.92-5.98,2.8
		c-2.27-0.12-4.44-0.82-6.65-1.28c-2.88-0.59-5.75-1.25-8.74-1.9c0.15-1.88,0.69-3.61,1.03-5.37c0.17-0.85,0.79-0.57,1.34-0.45
		c3.43,0.75,6.87,1.47,10.3,2.24c0.93,0.21,1.86,0.29,2.8,0.31c1.61,0.03,2.8-0.61,3.44-2.13c0.7-1.65,0.4-3.32-0.81-4.53
		c-1.06-1.06-2.39-1.63-3.8-1.96c-2.99-0.71-6-1.35-9-2.01c-0.25-0.05-0.49-0.09-0.74-0.15c-1.57-0.36-1.57-0.37-1.21-2.02
		c0.21-0.98,0.44-1.96,0.66-2.94c0.32-1.43,0.33-1.45,1.73-1.14c4.78,1.04,9.56,2.1,14.34,3.14c1.41,0.31,2.83,0.59,4.25,0.82
		c0.64,0.11,0.88,0.39,0.74,1.01c-0.31,1.41-0.66,2.81-0.93,4.23c-0.15,0.77-0.55,0.85-1.21,0.73
		C466.91,285.03,466.44,284.79,465.82,284.98z"/>
	<path class="st1" d="M268.23,70.66c-0.25,0.22-0.46,0.36-0.61,0.54c-1.91,2.36-4.48,3.09-7.39,2.97c-3.75-0.16-6.11-2.19-6.64-5.93
		c-0.36-2.6-0.5-5.24-0.71-7.87c-0.16-2-0.25-4.01-0.42-6c-0.08-0.91,0.09-1.4,1.16-1.4c1.12,0.01,2.25-0.21,3.37-0.27
		c1.42-0.08,1.46-0.06,1.59,1.3c0.23,2.43,0.4,4.87,0.6,7.31c0.14,1.62,0.22,3.26,0.45,4.87c0.34,2.37,1.59,3.61,3.56,3.71
		c2.25,0.11,3.97-1.15,4.51-3.45c0.42-1.8,0.18-3.62,0.05-5.43c-0.19-2.63-0.37-5.25-0.59-7.88c-0.06-0.76,0.1-1.19,0.95-1.24
		c1.38-0.07,2.75-0.17,4.13-0.31c0.74-0.08,0.99,0.2,1.04,0.92c0.15,2.13,0.38,4.25,0.54,6.37c0.32,4.25,0.59,8.51,0.96,12.76
		c0.08,0.89-0.06,1.28-1,1.32c-1.38,0.06-2.75,0.17-4.13,0.29c-0.75,0.07-1-0.26-1.01-0.97C268.65,71.78,268.74,71.25,268.23,70.66z
		"/>
	<path class="st1" d="M330.43,75.57c0.76-0.52,1.03-1.1,1.39-1.59c2.41-3.37,4.82-6.74,7.21-10.13c1.21-1.71,1.1-1.62,2.87-1.05
		c1.3,0.42,2.69,0.58,4,1.35c-1.69,2.11-3.34,4.17-4.99,6.22c-4.6,5.72-9.25,11.42-13.79,17.2c-0.82,1.04-1.54,1.23-2.69,0.79
		c-1.21-0.46-2.47-0.78-3.97-1.25c1.33-1.62,2.43-3.14,3.71-4.48c1.31-1.37,1.75-2.76,1.43-4.71c-0.97-6.01-1.7-12.05-2.53-18.07
		c-0.11-0.8-0.27-1.6-0.13-2.61c1.94,0.56,3.79,1.09,5.63,1.62c0.54,0.16,0.81,0.48,0.83,1.08c0.04,1.07,0.17,2.13,0.22,3.19
		c0.18,3.38,0.34,6.77,0.53,10.15C330.2,73.96,330.32,74.64,330.43,75.57z"/>
	<path class="st1" d="M239.29,77.55c-5.32,0.01-8.53-2.13-10.15-6.18c-1.02-2.55-1.46-5.19-0.97-7.92c0.62-3.41,2.6-5.81,5.69-7.26
		c2.55-1.19,5.26-1.67,8.07-1.24c2.92,0.45,4.86,2.15,6.02,4.83c0.35,0.81,0.13,1.11-0.7,1.26c-1.23,0.22-2.47,0.46-3.67,0.83
		c-0.93,0.29-1.3,0-1.7-0.83c-0.97-2-2.37-2.7-4.23-2.25c-1.74,0.42-2.99,1.49-3.25,3.27c-0.53,3.61,0.14,7.02,2.32,10
		c1.34,1.84,3.65,2.11,5.54,0.86c1.24-0.81,1.57-2.03,1.56-3.43c-0.01-1.41,0.01-1.42,1.31-1.71c1.22-0.27,2.46-0.49,3.67-0.81
		c0.85-0.22,1.17,0.14,1.23,0.89c0.19,2.31-0.42,4.37-2.1,6.01C245.28,76.48,241.97,77.45,239.29,77.55z"/>
	<path class="st1" d="M299.47,453.34c-2.17,0.16-2.2,0.17-2.43-1.99c-0.44-4.18-0.85-8.37-1.28-12.55
		c-0.25-2.42-0.25-2.42-2.59-2.19c-0.31,0.03-0.63,0.03-0.94,0.06c-0.6,0.06-0.97-0.16-0.99-0.82c0-0.06-0.02-0.13-0.01-0.19
		c0.08-0.94-0.65-1.98-0.12-2.75c0.51-0.74,1.65-0.3,2.49-0.47c1.44-0.29,1.48-0.25,1.29-1.67c-0.15-1.13-0.18-2.24-0.01-3.37
		c0.37-2.52,1.84-4.07,4.2-4.81c1.75-0.54,3.58-0.62,5.41-0.64c0.73-0.01,1.02,0.33,1.05,1c0,0.06,0.01,0.13,0.01,0.19
		c0.06,0.87,0.41,1.89,0.08,2.57c-0.34,0.69-1.49,0.29-2.27,0.44c-1.74,0.33-2.35,1.03-2.37,2.8c0,0.25,0,0.5,0.01,0.75
		c0.08,1.82,0.1,1.84,1.99,1.72c0.44-0.03,0.88-0.07,1.31-0.13c1.79-0.23,1.79-0.24,1.97,1.65c0.21,2.19,0.21,2.19-2.01,2.47
		c-2.74,0.35-2.71,0.35-2.38,3.19c0.49,4.24,0.95,8.48,1.38,12.72c0.16,1.55,0.1,1.56-1.38,1.75
		C301.1,453.19,300.28,453.25,299.47,453.34z"/>
	<path class="st1" d="M81.71,265.75c-0.07-0.52-0.18-1.39-0.32-2.26c-0.09-0.61,0.11-0.86,0.75-1c3.07-0.7,3.14-0.67,3.57,2.49
		c0.03,0.25,0.09,0.5,0.09,0.75c-0.01,0.92,0.44,1.18,1.31,1.07c2.74-0.35,5.48-0.64,8.22-0.98c2.3-0.28,4.6-0.57,6.9-0.87
		c0.61-0.08,0.92,0.07,1,0.75c0.15,1.37,0.39,2.73,0.55,4.1c0.13,1.14,0.04,1.24-1.19,1.39c-4.36,0.53-8.71,1.05-13.07,1.57
		c-0.31,0.04-0.63,0.06-0.94,0.1c-1.85,0.26-1.85,0.26-1.67,2.07c0.24,2.36,0.24,2.36-2.09,2.61c-1.68,0.18-1.68,0.18-1.92-1.6
		c-0.29-2.23-0.29-2.22-2.58-2.09c-0.75,0.04-1.51,0.06-2.26-0.01c-2.5-0.21-4.19-1.51-5.07-3.86c-0.7-1.86-0.73-3.8-0.81-5.75
		c-0.02-0.64,0.25-0.92,0.87-0.95c0.31-0.02,0.62-0.09,0.93-0.14c2.64-0.41,2.18-0.14,2.38,1.78c0.27,2.57,2.75,3.78,5.03,2.51
		C81.78,267.24,81.8,267.17,81.71,265.75z"/>
	<path class="st1" d="M466.15,315.42c-1.55-0.23-2.85-0.87-4.21-1.29c-1.34-0.42-1.34-0.43-1.86,0.92c-0.29,0.76-0.54,1.54-0.8,2.31
		c-0.22,0.68-0.48,0.99-1.35,0.73c-2.95-0.9-2.97-0.85-1.95-3.73c0.08-0.24,0.19-0.46,0.27-0.7c0.38-1.24,0.34-1.37-0.85-1.79
		c-2.84-1-5.68-1.99-8.53-2.94c-2.28-0.76-3.04-0.35-3.84,1.89c-0.64,1.8-0.63,1.79-2.51,1.16c-2.31-0.77-1.8-0.54-1.35-2.61
		c0.33-1.53,0.84-3.02,1.58-4.42c1.27-2.42,2.96-3.24,5.59-2.55c1.51,0.39,2.98,0.97,4.46,1.48c2.25,0.77,4.51,1.55,6.75,2.35
		c0.82,0.29,1.31,0.14,1.53-0.74c0.14-0.54,0.41-1.05,0.55-1.6c0.22-0.8,0.58-1.23,1.47-0.8c0.84,0.41,2.07,0.31,2.5,1.12
		c0.39,0.73-0.37,1.62-0.62,2.45c-0.38,1.28-0.4,1.27,0.86,1.75c0.23,0.09,0.47,0.17,0.72,0.23c0.88,0.22,1.33,0.67,1.4,1.67
		C466.07,311.98,466.2,313.65,466.15,315.42z"/>
	<path class="st1" d="M106.32,139.37c1.47,0.89,2.77,1.64,4.02,2.46c0.74,0.49,1.22,0.42,1.66-0.38c0.48-0.88,1.07-1.7,1.58-2.57
		c0.33-0.57,0.66-0.56,1.22-0.28c2.84,1.46,2.85,1.44,1.2,4.15c-1.13,1.85-1.13,1.85,0.75,3c2.03,1.24,4.06,2.5,6.1,3.75
		c0.37,0.23,0.74,0.48,1.13,0.68c1.77,0.94,2.71,0.69,3.8-0.98c1.2-1.85,1.2-1.85,3.1-0.64c1.35,0.86,1.36,0.87,0.65,2.31
		c-0.64,1.3-1.31,2.57-2.18,3.74c-2.12,2.83-4.11,3.31-7.15,1.54c-2.93-1.7-5.78-3.54-8.68-5.3c-1.96-1.19-1.59-1.41-2.9,0.66
		c-1.16,1.83-0.79,1.93-2.76,0.68c-1.98-1.26-1.97-0.77-0.69-2.89c0.13-0.21,0.25-0.44,0.4-0.64c0.65-0.81,0.38-1.44-0.48-1.75
		c-1.84-0.67-1.93-1.99-1.54-3.59c0.21-0.85,0.31-1.73,0.47-2.59C106.08,140.38,106.18,140.02,106.32,139.37z"/>
	<path class="st1" d="M275.27,426.56c0.28,1.66-0.12,3.08-0.17,4.51c-0.05,1.43-0.04,1.44,1.42,1.52c0.25,0.01,0.5,0,0.75,0.02
		c2.73,0.18,2.98,0.52,2.61,3.26c-0.1,0.77-0.36,1.13-1.2,1.01c-0.93-0.13-1.88-0.12-2.81-0.23c-0.92-0.11-1.19,0.31-1.24,1.17
		c-0.19,3.06-0.49,6.12-0.66,9.19c-0.12,2.27,0.66,3.05,2.93,3.2c1.91,0.12,1.91,0.12,1.69,1.98c-0.25,2.08-0.25,2.05-2.3,2.09
		c-1.45,0.03-2.89-0.09-4.31-0.34c-2.84-0.51-4.19-2.02-4.11-4.92c0.09-3.26,0.39-6.5,0.6-9.76c0.01-0.12,0.04-0.25,0.05-0.37
		c0.31-2.74,0.31-2.74-2.4-2.94c-1.56-0.11-1.56-0.11-1.41-1.67c0.24-2.49,0.24-2.49,2.85-2.3c1.37,0.1,1.37,0.1,1.51-1.2
		c0.04-0.37,0.08-0.75,0.08-1.13c-0.01-0.8,0.34-1.25,1.13-1.48C271.9,427.69,273.5,427.14,275.27,426.56z"/>
	<path class="st1" d="M317.56,50.01c-0.33,1.78-0.58,3.3-0.91,4.81c-0.17,0.79,0.06,1.16,0.88,1.28c1.05,0.16,2.09,0.43,3.13,0.63
		c0.55,0.11,0.65,0.38,0.6,0.93c-0.3,3.17-0.35,3.22-3.44,2.63c-0.31-0.06-0.64-0.04-0.93-0.15c-1.03-0.41-1.31,0.13-1.47,1.02
		c-0.55,3.02-1.16,6.03-1.72,9.05c-0.38,2.06,0.2,2.93,2.19,3.41c0.3,0.07,0.62,0.08,0.93,0.13c1.22,0.19,1.25,0.19,1.01,1.4
		c-0.62,3.13-0.2,2.77-3.29,2.42c-1.19-0.14-2.35-0.36-3.49-0.72c-2.97-0.96-3.98-2.41-3.63-5.47c0.21-1.8,0.6-3.58,0.94-5.37
		c0.37-1.97,0.77-3.94,1.15-5.91c0.25-1.29,0.23-1.32-1.06-1.62c-0.24-0.06-0.5-0.08-0.74-0.12c-1.97-0.36-1.99-0.38-1.61-2.27
		c0.06-0.31,0.17-0.61,0.19-0.92c0.06-0.92,0.55-1.14,1.4-0.99c0.86,0.15,1.77,0.71,2.56,0.33c0.88-0.43,0.52-1.58,0.8-2.38
		c0.18-0.51,0.34-0.89,0.94-1C313.76,50.79,315.52,50.41,317.56,50.01z"/>
	<path class="st1" d="M113.17,307.91c0.09,0.58-0.31,0.68-0.66,0.81c-1.12,0.41-2.24,0.81-3.37,1.21
		c-7.68,2.75-15.36,5.5-23.04,8.24c-0.3,0.11-0.61,0.18-0.89,0.31c-0.53,0.25-0.82,0.04-0.99-0.47c-0.57-1.6-1.15-3.19-1.72-4.78
		c-0.17-0.49-0.04-0.84,0.49-1.02c0.83-0.29,1.65-0.62,2.47-0.91c8.04-2.87,16.08-5.74,24.12-8.6c1.5-0.54,1.51-0.53,2.07,1.02
		C112.17,305.13,112.68,306.55,113.17,307.91z"/>
	<path class="st1" d="M85.65,226.12c-1.81-1.51-2.84-3.03-3.01-5.01c-0.04-0.44-0.08-0.88-0.05-1.31c0.09-1.41,0.11-1.43,1.6-1.35
		c0.94,0.05,1.88,0.18,2.81,0.24c0.77,0.05,1.18,0.35,0.96,1.19c-0.02,0.06-0.02,0.12-0.03,0.19c-0.7,4.35,1.61,6.3,5.4,6.69
		c2.94,0.3,5.87,0.56,8.81,0.83c1.23,0.12,1.25,0.12,1.14,1.32c-0.11,1.31-0.3,2.62-0.37,3.93c-0.05,0.84-0.39,1.04-1.19,0.95
		c-3.81-0.39-7.62-0.74-11.43-1.08c-2.44-0.22-4.88-0.41-7.32-0.61c-1.34-0.11-1.36-0.11-1.27-1.45c0.07-1.06,0.19-2.13,0.32-3.19
		c0.17-1.37,0.18-1.37,1.63-1.35C84.14,226.12,84.63,226.12,85.65,226.12z"/>
	<path class="st1" d="M255.27,433.62c1.72-1.75,3.55-2.71,5.85-2.51c0.31,0.03,0.62,0.07,0.93,0.11c0.73,0.1,1.15,0.43,0.95,1.25
		c-0.1,0.42-0.13,0.87-0.23,1.29c-0.21,0.91,0.04,2.07-0.67,2.67c-0.68,0.58-1.65-0.17-2.52-0.2c-2.87-0.07-4.54,0.95-5.28,3.78
		c-0.64,2.48-0.99,5.04-1.46,7.57c-0.09,0.49-0.17,0.99-0.26,1.48c-0.43,2.31-0.43,2.3-2.81,1.87c-0.8-0.15-1.6-0.32-2.41-0.41
		c-0.94-0.1-1.25-0.44-1.06-1.47c0.9-4.93,1.72-9.89,2.55-14.83c0.22-1.3,0.4-2.6,0.55-3.91c0.09-0.74,0.25-1.15,1.17-0.94
		c1.28,0.29,2.6,0.45,3.9,0.64c0.79,0.12,1.07,0.53,0.91,1.3C255.25,431.99,255,432.66,255.27,433.62z"/>
	<path class="st1" d="M286.34,55.23c1.54-2.11,3.59-3.08,6.18-2.96c0.83,0.04,1.38,0.15,1.14,1.16c-0.04,0.18-0.01,0.38-0.03,0.56
		c-0.12,1.12,0.34,2.48-0.32,3.29c-0.64,0.79-2,0.18-3.04,0.28c-2.23,0.22-3.82,1.68-4.26,4.1c-0.21,1.17-0.27,2.37-0.34,3.55
		c-0.14,2.38-0.25,4.76-0.34,7.14c-0.03,0.8-0.37,1.12-1.17,1.05c-1.19-0.11-2.38-0.14-3.56-0.25c-1.43-0.14-1.44-0.16-1.41-1.49
		c0.04-1.44,0.08-2.88,0.16-4.33c0.25-4.63,0.58-9.26,0.58-13.9c0-1.58,0.03-1.59,1.54-1.57c1.13,0.02,2.26,0.1,3.39,0.11
		c0.77,0.01,1.18,0.27,1.13,1.1c-0.04,0.67-0.01,1.34-0.01,2.01C286.1,55.14,286.22,55.18,286.34,55.23z"/>
	<path class="st1" d="M288.52,443.64c0.44,2.94,0.41,5.89,0.48,8.84c0.03,1.49,0.01,1.5-1.38,1.54c-1.25,0.04-2.52,0-3.76,0.11
		c-0.81,0.08-0.96-0.26-0.98-0.94c-0.08-2.7-0.21-5.39-0.3-8.08c-0.12-3.57-0.23-7.15-0.31-10.72c-0.04-1.63,0-1.64,1.66-1.72
		c0.94-0.04,1.88-0.07,2.82-0.08c1.63-0.01,1.73,0.03,1.76,1.64C288.55,437.37,288.52,440.5,288.52,443.64z"/>
	<path class="st1" d="M133.63,147.66c-3.83-2.76-7.49-5.39-11.14-8.03c-1.73-1.24-3.43-2.52-5.19-3.72
		c-0.77-0.53-1.02-0.96-0.36-1.77c0.79-0.97,1.53-1.99,2.2-3.04c0.53-0.83,0.98-0.89,1.78-0.3c3.02,2.24,6.08,4.41,9.13,6.61
		c2.03,1.46,4.07,2.92,6.09,4.4c1.1,0.8,1.11,0.83,0.37,1.88C135.62,144.96,134.69,146.21,133.63,147.66z"/>
	<path class="st1" d="M308.68,431.27c-0.12-0.44,0.19-0.76,0.77-0.87c1.48-0.28,2.96-0.53,4.43-0.81c0.87-0.16,0.89,0.51,0.99,1.04
		c0.42,2.15,0.81,4.31,1.2,6.46c0.72,3.94,1.44,7.88,2.17,11.82c0.29,1.56,0.29,1.58-1.34,1.91c-1.17,0.24-2.35,0.39-3.51,0.64
		c-0.74,0.16-1.01-0.09-1.13-0.8c-0.4-2.28-0.84-4.55-1.26-6.83c-0.73-3.94-1.44-7.88-2.17-11.82
		C308.8,431.83,308.76,431.65,308.68,431.27z"/>
	<path class="st1" d="M302.93,55.71c-0.68,5.59-1.46,11.82-2.18,18.05c-0.11,0.97-0.48,1.13-1.33,0.97
		c-1.23-0.23-2.48-0.41-3.73-0.49c-0.95-0.06-1.16-0.48-1.06-1.32c0.31-2.62,0.57-5.24,0.89-7.86c0.44-3.61,0.9-7.22,1.37-10.83
		c0.17-1.3,0.2-1.32,1.51-1.21c1.06,0.09,2.12,0.28,3.18,0.37C303.23,53.55,303.12,53.53,302.93,55.71z"/>
	<path class="st1" d="M302.86,49.23c-1.6-0.22-3.01-0.45-4.44-0.58c-0.85-0.08-1.04-0.46-0.87-1.22c0.26-1.15-0.21-2.62,0.6-3.42
		c0.89-0.87,2.24,0,3.38,0.08c2.83,0.19,2.83,0.26,2.54,3.1c-0.03,0.31-0.09,0.62-0.11,0.93C303.93,48.94,303.6,49.42,302.86,49.23z
		"/>
	<path class="st1" d="M116.35,127.64c-1.02,1.43-2.08,2.89-3.11,4.36c-0.35,0.5-0.74,0.63-1.24,0.22c-0.05-0.04-0.11-0.06-0.15-0.1
		c-0.95-0.79-2.54-1.23-2.79-2.32c-0.23-1,1.09-1.95,1.76-2.9c1.64-2.32,1.66-2.32,3.93-0.65
		C115.29,126.64,115.96,126.89,116.35,127.64z"/>
	<path class="st1" d="M313.87,424.4c0.08,0.63-0.21,0.87-0.72,0.96c-1.54,0.27-3.09,0.54-4.63,0.83c-0.63,0.12-0.93-0.11-1.03-0.74
		c-0.15-0.99-0.28-1.99-0.52-2.96c-0.18-0.72,0.01-1.06,0.73-1.18c1.48-0.25,2.96-0.53,4.44-0.8c0.69-0.13,1.07,0.13,1.18,0.82
		C313.5,422.38,313.7,423.43,313.87,424.4z"/>
	<path class="st1" d="M285.03,428.37c-3.07,0.1-3.07,0.1-3.15-2.98c-0.01-0.31-0.01-0.63-0.02-0.94c-0.01-0.6,0.24-0.94,0.88-0.95
		c1.57-0.03,3.13-0.05,4.7-0.09c0.53-0.01,0.84,0.18,0.84,0.74c0,0.25,0.02,0.5,0.03,0.75
		C288.41,428.27,288.41,428.27,285.03,428.37z"/>
	<path class="st0" d="M276.68,100.42c80.47-0.18,147.5,64.86,147.57,147.31c0.07,82.21-66.21,146.54-145.39,147.61
		c-81.44,1.09-148.75-64.03-149.54-145.9C128.51,165.92,196.1,100.32,276.68,100.42z M251.63,331.46c0.5,0.75,1.37,0.45,2.05,0.66
		c3.25,0.99,6.55,1.76,9.95,2.02c0.06,0.62,0.12,1.25,0.17,1.87c0.24,3.39,0.74,6.73,2.02,9.91c1.46,3.61,3.68,6.57,7.35,8.18
		c3.71,1.63,7.6,1.66,11.45,0.72c4.55-1.12,7.46-4.2,9.25-8.41c0.97-2.26,1.61-4.62,1.91-7.06c0.65-5.38,0.58-10.76-0.31-16.12
		c1.13-0.03,2.01,0.9,3.14,0.86c-0.46,2.99-0.52,5.99-0.55,9.01c-0.05,4.82,0.65,9.5,2.61,13.95c0.79,1.8,1.93,3.37,3.33,4.74
		c4.51,4.43,12.99,4.36,17.52,2.13c4.27-2.11,6.54-5.81,7.72-10.18c2.08-7.66,1.99-15.37-0.06-23.05c0.95-0.16,1.76-0.64,2.54-1.17
		c1.24-0.84,2.45-1.74,3.7-2.56c3.25-2.13,6.25-4.62,9.07-7.25c4.9-4.57,9.71-9.26,13.67-14.72c1.34-1.85,2.82-3.62,3.96-5.85
		c-1.07-0.27-2-0.1-2.91-0.18c-0.85-0.07-1.5,0.28-1.93,0.94c-0.92,1.42-2.09,2.65-3.06,4.02c-1.35,1.89-2.85,3.65-4.45,5.32
		c-2.26,2.35-4.56,4.68-6.93,6.92c-1.54,1.46-3.24,2.76-4.88,4.1c-0.76,0.63-1.6,0.72-2.4,0.08c-2.34-1.88-5.12-3.06-7.77-4.88
		c1.94-2.58,4.15-4.96,5.86-7.7c1.74-2.79,3.67-5.46,5.1-8.53c-0.85-0.37-1.56-0.16-2.22-0.26c-1.39-0.22-2.22,0.44-2.86,1.58
		c-0.65,1.14-1.18,2.33-1.93,3.43c-1.9,2.8-4.02,5.42-6.1,8.08c-1.37,1.76-1.37,1.82-3.37,0.9c-2.62-1.21-5.28-2.3-8.05-3.12
		c-1.68-0.5-3.35-1.02-5.02-1.55c-0.78-0.25-1.12-0.67-0.75-1.55c0.57-1.39,0.9-2.86,1.58-4.22c0.52-1.05,0.93-2.15,1.03-3.28
		c-0.36-0.28-0.68-0.25-0.99-0.26c-2.74-0.08-2.74-0.08-3.61,2.45c-0.53,1.54-1.14,3.05-1.88,4.5c-0.36,0.7-0.75,1.04-1.63,0.79
		c-1.32-0.37-2.68-0.59-4.02-0.87c-3.61-0.75-7.27-1.2-10.93-1.52c-2.35-0.2-4.72-0.67-7.11-0.46c-0.97,0.09-1.38-0.33-1.32-1.31
		c0.05-0.81,0.01-1.63-0.01-2.45c-0.01-0.47-0.18-0.93-0.66-1.03c-0.92-0.19-1.92-0.37-2.75,0.09c-0.6,0.33-0.28,1.15-0.32,1.76
		c-0.03,0.5,0.01,1-0.01,1.51c-0.05,1.34-0.08,1.42-1.38,1.41c-3.38-0.01-6.73,0.42-10.09,0.72c-3.93,0.35-7.77,1.16-11.64,1.8
		c-1.51,0.25-1.89,0.11-2.44-1.3c-0.66-1.69-1.33-3.38-1.93-5.09c-0.25-0.71-0.65-1.03-1.37-1.02c-0.5,0.01-1.01-0.02-1.51,0
		c-1.32,0.05-1.53,0.36-1.02,1.63c0.73,1.8,1.53,3.57,2.25,5.37c0.64,1.6,0.56,1.83-1.08,2.23c-4.64,1.12-9.07,2.84-13.44,4.72
		c-1.02,0.44-1.61,0.23-2.28-0.51c-1.43-1.58-2.63-3.34-3.94-5c-1.59-2.02-2.91-4.23-4.15-6.47c-0.93-1.69-2.21-2.21-4.01-1.98
		c-1.18,0.15-1.31,0.32-0.72,1.37c1.99,3.55,4.19,6.97,6.57,10.27c0.84,1.16,1.8,2.24,2.63,3.41c0.81,1.15,0.79,1.26-0.42,2.02
		c-1.79,1.13-3.63,2.2-5.45,3.29c-0.62,0.37-1.12,0.81-1.16,1.59c-0.83-0.45-1.83-0.48-2.61-1.05c-0.08-0.25-0.24-0.41-0.44-0.58
		c-2.68-2.16-5.19-4.51-7.72-6.84c-1.06-0.98-1.83-2.21-2.84-3.25c-2.59-2.63-5.02-5.42-7.02-8.53c-0.8-1.24-1.68-1.98-3.2-1.71
		c-0.65,0.12-1.54-0.35-1.92,0.33c-0.46,0.8,0.44,1.37,0.83,1.93c4.38,6.29,9.38,12.03,15.01,17.23c0.29,0.27,0.54,0.5,0.55,0.91
		c-0.3,0.09-0.59,0.22-0.89,0.27c-9.4,1.3-13.16,9.53-13.07,16.71c0.01,0.8,0.36,1.12,1.14,1.12c2.13-0.01,4.27-0.03,6.4,0.01
		c0.88,0.02,1.26-0.41,1.34-1.21c0.06-0.56,0.09-1.13,0.15-1.69c0.2-1.85,0.83-3.54,1.99-5.01c1.69-2.13,4.41-2.87,6.94-1.91
		c3.98,1.5,5.5,6.25,3.22,10.01c-1.37,2.27-3.4,3.81-5.55,5.25c-3.6,2.4-7.25,4.74-10.48,7.64c-3.5,3.14-5.6,7.03-6.11,11.74
		c-0.24,2.18-0.19,2.27,1.95,2.27c9.54,0,19.09,0,28.63,0c0.31,0,0.63-0.02,0.94,0c0.83,0.05,1.1-0.37,1.09-1.15
		c-0.03-1.82-0.03-3.64,0-5.46c0.01-0.88-0.38-1.26-1.25-1.23c-0.44,0.02-0.88,0-1.32,0c-5.34,0-10.67,0.01-16.01-0.01
		c-0.57,0-1.26,0.29-1.74-0.43c0.8-1.23,1.86-2.19,2.97-3.11c2.65-2.23,5.64-3.96,8.49-5.9c1.09-0.74,2.13-1.53,3.14-2.39
		c4.14-3.54,5.83-8.04,5.3-13.42c3.3,2,6.73,3.72,10.25,5.3c2.17,0.98,4.45,1.64,6.6,2.63c-0.07,0.17-0.12,0.36-0.21,0.52
		c-2.77,5.17-4.84,10.6-6.06,16.35c-0.45,2.15-0.91,4.3-1.04,6.49c-0.11,1.82-0.09,1.83,1.65,1.85c2.13,0.02,4.27,0.02,6.4,0
		c1.54-0.01,1.59-0.03,1.67-1.53c0.16-2.95,0.53-5.87,1.15-8.76C248.47,339.89,249.61,335.54,251.63,331.46z M355.12,186.51
		c-1.78,0-3.95-0.25-6.04,0.05c-3.87,0.55-7.72,1.18-11.48,2.47c-6.27,2.16-11.85,5.4-16.69,9.86c-3.46,3.19-6.27,6.91-8.56,11.07
		c-3.86,7.01-5.75,14.49-5.98,22.43c-0.06,1.94,0.23,3.88,0.27,5.8c0.07,3.62,0.93,7.07,1.85,10.49c1.33,4.92,3.42,9.53,6.4,13.73
		c2.26,3.2,4.79,6.15,7.79,8.63c3.82,3.15,8.05,5.66,12.73,7.42c5.38,2.02,10.91,3.18,16.65,3.34c2.26,0.06,4.52,0.04,6.78,0
		c1.94-0.04,3.84-0.42,5.76-0.61c3.01-0.3,5.88-1.21,8.75-2.07c5.84-1.74,11.09-4.65,15.69-8.62c3.09-2.67,5.69-5.83,7.89-9.27
		c4.16-6.5,6.44-13.7,6.96-21.34c0.29-4.35,0.35-8.75-0.23-13.14c-0.57-4.31-1.63-8.45-3.28-12.45
		c-3.11-7.56-7.65-14.01-14.35-18.89c-4.46-3.25-9.32-5.6-14.6-7.03C366.23,186.95,360.91,186.16,355.12,186.51z M240,269.98
		c0.16-0.07,0.32-0.14,0.48-0.22c1.14,0.95,2.21,1.99,3.39,2.9c3.51,2.68,7.28,4.9,11.5,6.26c5.57,1.8,11.24,2.62,17.14,2.19
		c3.71-0.27,7.29-0.83,10.8-2.08c7.38-2.64,13.4-6.96,17.49-13.74c3.05-5.06,4.29-10.61,3.58-16.4
		c-0.93-7.62-4.94-13.51-11.17-17.96c-1.89-1.35-3.88-2.5-5.98-3.48c-3.47-1.61-7.07-2.85-10.79-3.7c-2.31-0.53-4.66-0.86-7-1.26
		c-3.33-0.56-6.69-0.78-10.01-1.3c-3.67-0.57-7.23-1.39-10.6-2.99c-2.7-1.28-4.06-3.58-4.56-6.3c-0.45-2.45-0.07-4.82,2.01-6.7
		c1.47-1.32,3.2-1.95,4.98-2.49c2.85-0.87,5.8-0.8,8.75-0.81c2.98-0.01,5.85,0.49,8.61,1.57c3.13,1.23,5.96,2.99,8.26,5.42
		c2.23,2.36,4.04,5.07,5.62,7.91c0.7,1.24,1.6,1.74,3.04,1.71c4.71-0.07,9.42-0.02,14.13-0.03c2.11,0,2.17-0.08,2.17-2.27
		c0.01-4.21,0-8.41,0-12.62c0-4.46,0.01-8.92-0.01-13.37c-0.01-1.45-0.05-1.47-1.5-1.5c-1.57-0.03-3.14-0.01-4.71-0.01
		c-3.71,0-7.41-0.01-11.12,0.01c-1.44,0.01-1.48,0.05-1.51,1.29c-0.04,1.82,0.01,3.64-0.02,5.46c-0.01,0.59,0.23,1.25-0.25,1.74
		c-0.52,0.08-0.73-0.27-1-0.51c-1.85-1.6-3.69-3.22-5.77-4.48c-4.95-3-10.41-4.59-16.14-4.94c-3.73-0.23-7.52-0.36-11.26,0.31
		c-4.09,0.73-8.01,2.01-11.71,3.89c-3.72,1.89-6.91,4.51-9.68,7.64c-3.42,3.84-5.29,8.37-5.56,13.44
		c-0.25,4.79,1.44,9.11,4.18,12.99c2.77,3.93,6.21,7.12,10.42,9.56c4.91,2.85,10.2,4.36,15.73,5.26c2.16,0.35,4.33,0.55,6.49,0.85
		c3.58,0.5,7.18,0.85,10.75,1.41c3.27,0.51,6.46,1.27,9.44,2.84c3.27,1.73,4.69,4.59,4.6,8c-0.1,3.87-2.28,6.64-5.83,8.3
		c-3.83,1.79-7.95,2.07-12.07,2.29c-2.44,0.13-4.88-0.25-7.25-0.78c-4.68-1.06-8.83-3.29-12.14-6.76c-2.24-2.34-4.29-4.91-5.55-7.97
		c-0.45-1.08-1.15-1.46-2.32-1.44c-3.83,0.06-7.66,0.02-11.49,0.02c-1.63,0-3.27,0.03-4.9-0.01c-0.86-0.02-1.31,0.29-1.25,1.19
		c0.02,0.31,0,0.63,0,0.94c0,9.23,0,18.46,0,27.69c0,0.38,0.02,0.75,0,1.13c-0.04,0.82,0.39,1.12,1.16,1.09c0.44-0.02,0.88,0,1.32,0
		c4.71,0,9.42,0.02,14.13-0.01c3.4-0.02,2.95,0.42,2.98-3.03C240.01,274.09,240,272.04,240,269.98z M185.92,279.17
		c8.54,0,17.08,0.01,25.62,0c1.66,0,1.68-0.03,1.68-1.68c0.01-4.83,0.01-9.67,0-14.5c-0.01-1.76-0.15-1.89-1.97-1.9
		c-4.21-0.01-8.41,0-12.62,0c-2.52,0-2.34,0.12-2.34-2.36c0-15.13,0-30.26,0-45.39c0-1.51,0-3.01,0-4.52c0.01-1.99,0.01-2,1.93-2.01
		c2.64-0.01,5.28,0,7.91,0c1.88,0,3.77,0.03,5.65-0.01c1.25-0.03,1.63-0.47,1.32-1.65c-0.25-0.94-0.21-1.86-0.22-2.8
		c-0.01-3.96,0-7.91-0.01-11.87c-0.01-1.74-0.02-1.75-1.8-1.76c-2.95-0.01-5.9-0.01-8.85-0.01c-13.88,0-27.76,0-41.63,0
		c-1.97,0-1.98,0.01-1.99,1.96c-0.01,3.52,0,7.03,0,10.55c0,1.32-0.03,2.64,0.01,3.95c0.04,1.41,0.22,1.58,1.67,1.63
		c0.44,0.02,0.88,0,1.32,0c4.08,0,8.16-0.01,12.25,0.01c1.67,0.01,1.67,0.03,1.7,1.67c0,0.19,0,0.38,0,0.57c0,16.57,0,33.15,0,49.72
		c0,0.44-0.01,0.88-0.01,1.32c0.01,0.72-0.37,1.01-1.06,0.99c-0.44-0.01-0.88,0.01-1.32,0.01c-4.27,0-8.54-0.01-12.81,0.01
		c-1.56,0.01-1.73,0.19-1.76,1.73c-0.03,1.76-0.01,3.52-0.01,5.27c0,3.08-0.01,6.15,0,9.23c0.01,1.82,0.02,1.82,1.72,1.85
		c0.44,0.01,0.88,0,1.32,0C169.72,279.17,177.82,279.17,185.92,279.17z M216.75,179.03c0.55,0.34,1.07,0.19,1.55,0.26
		c1.76,0.26,2.88-0.5,3.55-2.09c0.29-0.69,0.63-1.38,1.04-2c2.23-3.32,4.5-6.62,7.17-9.62c1.02-1.15,1.08-1.23,2.51-0.56
		c4.26,1.99,8.73,3.42,13.21,4.81c1.52,0.47,1.6,0.58,1.02,2.09c-0.11,0.29-0.29,0.55-0.41,0.84c-0.7,1.74-1.41,3.48-2.09,5.22
		c-0.16,0.42-0.24,0.88,0.22,1.18c1.07,0.69,3.31-0.05,3.81-1.25c0.74-1.79,1.53-3.57,2.17-5.4c0.35-1.01,0.95-1.23,1.86-1.07
		c3.01,0.54,5.98,1.22,9.03,1.56c4.04,0.45,8.05,1.04,12.13,1.03c0.38,0,0.75,0,1.13,0.02c0.76,0.03,1.15,0.43,1.16,1.19
		c0.02,0.88,0.03,1.76,0.01,2.64c-0.01,0.92,0.36,1.43,1.33,1.42c0.38-0.01,0.75,0,1.13,0c0.84,0.01,1.29-0.4,1.29-1.25
		c0-0.82-0.01-1.63,0.01-2.45c0.04-1.47,0.06-1.55,1.45-1.54c3.2,0.01,6.35-0.43,9.53-0.7c3.99-0.34,7.9-1.14,11.83-1.84
		c1.45-0.26,1.91-0.06,2.47,1.3c0.64,1.57,1.25,3.14,1.84,4.72c0.63,1.68,0.68,1.75,2.4,1.77c0.25,0,0.5,0.01,0.75,0
		c1.44-0.05,1.53-0.18,1-1.53c-0.76-1.92-1.54-3.84-2.3-5.76c-0.6-1.51-0.51-1.7,1.01-2.26c0.53-0.19,1.04-0.45,1.58-0.6
		c3.8-1.08,7.46-2.53,11.1-4.03c1.72-0.71,2.04-0.76,3.21,0.71c2.88,3.62,5.74,7.27,8.07,11.28c1.39,2.4,2.24,2.71,5.12,1.84
		c-0.97-2.31-2.26-4.46-3.64-6.51c-2.03-3-4.08-5.99-6.41-8.78c-0.9-1.07-0.88-1.17,0.38-1.9c2.27-1.31,4.61-2.51,6.69-4.13
		c0.8-0.62,1.37-0.56,2.14,0.03c2.38,1.84,4.63,3.83,6.83,5.86c4.75,4.39,8.71,9.49,12.6,14.63c0.39,0.51,0.72,1.08,1.43,1.09
		c1.1,0.02,2.21,0.15,3.27-0.08c0.11-0.72-0.25-1.1-0.5-1.52c-0.79-1.28-1.83-2.39-2.65-3.64c-2.44-3.75-5.61-6.88-8.57-10.19
		c-2.59-2.9-5.76-5.2-8.55-7.9c-2.13-2.07-4.51-3.81-6.9-5.47c-2.61-1.81-5.32-3.5-8.13-5.02c-6.64-3.59-13.5-6.59-20.79-8.58
		c-2.03-0.55-4.05-1.16-6.11-1.62c-3.53-0.8-7.11-1.28-10.72-1.66c-2.23-0.23-4.49-0.46-6.71-0.54c-4-0.14-8-0.25-12.02,0.21
		c-2.09,0.24-4.25,0.31-6.34,0.57c-3.89,0.48-7.71,1.39-11.53,2.32c-4.7,1.14-9.23,2.77-13.71,4.52c-2.68,1.05-5.35,2.23-7.81,3.72
		c-2.98,1.81-6.05,3.48-8.97,5.42c-4.87,3.25-9.32,6.95-13.58,10.91c-2.48,2.3-4.83,4.74-7.03,7.32c-2.52,2.96-4.93,5.98-7.13,9.18
		c-0.37,0.54-0.76,1.14-0.77,1.9c0.92,0.35,1.81,0.11,2.66,0.19c1,0.1,1.6-0.37,2.14-1.19c3.99-6.06,9-11.23,14.21-16.22
		c1.58-1.51,3.34-2.83,4.98-4.27c0.52-0.45,0.87-0.46,1.46-0.08c2.43,1.55,4.91,3.01,7.36,4.52c1.16,0.71,1.21,0.87,0.38,1.81
		c-2.7,3.06-4.94,6.46-7.13,9.89C218.43,175.4,217.27,177.05,216.75,179.03z M356.02,332.54c0-6.84,0.01-13.68,0-20.52
		c0-1.58-0.03-1.6-1.52-1.61c-1.57-0.02-3.14,0.04-4.71-0.02c-0.87-0.03-1.22,0.33-1.41,1.13c-0.94,3.89-3.6,6-7.33,6.99
		c-1.34,0.36-2.69,0.63-4.08,0.58c-0.91-0.03-1.22,0.39-1.2,1.25c0.03,1.44,0.05,2.89-0.01,4.33c-0.04,1.02,0.41,1.28,1.34,1.27
		c2.7-0.04,5.4-0.03,8.1-0.01c1.52,0.01,1.54,0.03,1.55,1.59c0.01,4.96,0.01,9.92,0.01,14.87c0,3.58-0.01,7.15,0.01,10.73
		c0.01,1.34,0.06,1.4,1.36,1.41c2.01,0.03,4.02,0.02,6.03,0.01c1.85-0.01,1.86-0.01,1.86-1.87
		C356.02,345.97,356.02,339.25,356.02,332.54z"/>
	<path class="st2" d="M444.25,177.16c-2.69-0.02-4.11-0.96-4.88-2.89c-0.78-1.94-0.25-3.59,1.18-4.96c1.93-1.84,4.31-2.79,6.93-3.06
		c2.01-0.2,3.78,0.9,4.58,2.66c0.82,1.79,0.55,3.47-0.93,5C449.14,175.99,446.63,177,444.25,177.16z"/>
	<path class="st2" d="M357.61,429.83c-0.01,2.8-0.89,4.16-2.83,4.96c-1.94,0.81-3.58,0.27-4.95-1.15c-1.97-2.04-3.12-4.53-3.47-7.33
		c-0.27-2.11,0.58-3.65,2.3-4.52c1.81-0.92,3.54-0.72,5.08,0.56C356.22,424.44,357.4,427.19,357.61,429.83z"/>
	<path class="st2" d="M109.58,169.86c0.1-1.3,0.68-2.81,1.4-4.28c0.27-0.55,0.6-0.76,1.19-0.46c1.24,0.63,2.43,1.31,3.3,2.44
		c0.93,1.19,1.12,2.48,0.61,3.89c-0.7,1.91-2.17,2.89-3.86,2.57C110.52,173.7,109.53,172.27,109.58,169.86z"/>
	<path class="st2" d="M397.3,109.57c0.57-0.03,1.22,0.2,1.85,0.48c0.81,0.36,1.57,0.81,2.23,1.39c2.18,1.9,2.57,1.54-0.07,3.76
		c-2.83,2.38-5.17,1.56-6.82-0.66c-0.72-0.97-0.89-2.09-0.25-3.19C394.89,110.25,395.83,109.57,397.3,109.57z"/>
	<path class="st2" d="M430.29,154.81c-2.3-0.04-4.31-2.05-4.33-4.11c-0.02-2.25,2.37-3.85,4.53-2.91c2.04,0.89,3.22,2.7,4.29,4.55
		c0.19,0.33,0.09,0.63-0.2,0.81C433.2,154.03,431.76,154.76,430.29,154.81z"/>
	<path class="st2" d="M145.33,126.14c-0.08,3.12-3.25,5.47-5.73,4.64c-3.4-1.13-5.86-3.3-7.51-6.4c-0.86-1.63-0.64-3.27,0.52-4.74
		c1.25-1.59,2.94-2.29,4.83-1.71c3.66,1.13,6.29,3.51,7.66,7.16C145.25,125.49,145.29,125.94,145.33,126.14z"/>
	<path class="st2" d="M456.91,190.94c2.68,0.01,4.45,1.59,4.9,4.23c0.34,1.97-0.87,3.77-3.02,4.64c-0.62,0.25-0.96,0.13-1.15-0.47
		c-0.75-2.46-1.48-4.92-2.23-7.38c-0.16-0.54-0.01-0.86,0.55-0.94C456.34,190.97,456.72,190.96,456.91,190.94z"/>
	<path class="st2" d="M240.8,433.39c-0.02,0.25-0.03,0.62-0.1,0.99c-0.1,0.57-0.38,0.92-1.03,0.73c-2.45-0.74-4.91-1.49-7.36-2.23
		c-0.53-0.16-0.66-0.46-0.49-0.99c0.66-2.06,3.01-3.44,5.24-3.05C239.44,429.27,240.83,430.92,240.8,433.39z"/>
	<path class="st2" d="M91.47,253.56c-1.53,0.07-3.06-0.18-4.52-0.81c-1.86-0.8-2.83-2.26-2.85-4.25c-0.02-1.91,0.85-3.43,2.6-4.23
		c3.32-1.5,6.7-1.45,9.98,0.09c1.67,0.78,2.45,2.24,2.45,4.11c0,1.9-0.89,3.23-2.5,4.09C95.04,253.4,93.3,253.62,91.47,253.56z"/>
	<path class="st2" d="M324.36,433.78c0.02-2.36,1.37-4.03,3.68-4.56c2.18-0.5,3.92,0.37,4.94,2.45c0.62,1.27,0.56,1.43-0.77,1.83
		c-1.98,0.59-3.97,1.15-5.96,1.71C324.42,435.73,324.34,435.66,324.36,433.78z"/>
	<path class="st2" d="M209.9,70.15c-0.03-2.32,1.51-4.17,3.87-4.74c1.98-0.48,3.72,0.38,4.78,2.38c0.55,1.03,0.51,1.21-0.58,1.62
		c-2.1,0.79-4.21,1.55-6.34,2.28c-1.27,0.44-1.49,0.28-1.7-1.07C209.92,70.43,209.91,70.25,209.9,70.15z"/>
	<path class="st2" d="M468.42,262.57c-0.05,2.65-1.94,4.47-4.57,4.45c-0.73-0.01-1.02-0.31-0.97-1.03c0.2-2.5,0.4-5,0.58-7.49
		c0.05-0.67,0.38-0.83,1-0.72C466.77,258.18,468.46,260.2,468.42,262.57z"/>
	<path class="st2" d="M355.12,186.51c5.78-0.35,11.1,0.44,16.31,1.85c5.28,1.43,10.14,3.77,14.6,7.03
		c6.7,4.89,11.24,11.33,14.35,18.89c1.65,4,2.7,8.14,3.28,12.45c0.58,4.39,0.52,8.79,0.23,13.14c-0.51,7.64-2.79,14.84-6.96,21.34
		c-2.2,3.44-4.8,6.6-7.89,9.27c-4.61,3.97-9.85,6.88-15.69,8.62c-2.87,0.86-5.73,1.77-8.75,2.07c-1.92,0.19-3.83,0.58-5.76,0.61
		c-2.26,0.04-4.52,0.07-6.78,0c-5.74-0.16-11.26-1.32-16.65-3.34c-4.68-1.76-8.92-4.26-12.73-7.42c-3-2.48-5.52-5.43-7.79-8.63
		c-2.98-4.21-5.07-8.81-6.4-13.73c-0.92-3.42-1.78-6.86-1.85-10.49c-0.04-1.92-0.33-3.86-0.27-5.8c0.23-7.94,2.12-15.42,5.98-22.43
		c2.29-4.16,5.1-7.88,8.56-11.07c4.84-4.46,10.42-7.7,16.69-9.86c3.76-1.29,7.61-1.92,11.48-2.47
		C351.17,186.26,353.34,186.51,355.12,186.51z M376.83,233.67c-0.2-2.27,0.23-5.39-0.33-8.52c-0.8-4.47-2.03-8.71-4.77-12.45
		c-2.29-3.12-5.3-5.17-8.94-6.19c-3.96-1.11-8.02-1.18-12.08-0.47c-6.39,1.1-10.97,4.62-13.89,10.34
		c-2.57,5.03-2.85,10.56-3.3,16.02c-0.15,1.86,0.16,3.74,0.25,5.61c0.15,2.94,0.4,5.85,0.82,8.76c0.69,4.74,2.8,8.6,6.71,11.48
		c2.05,1.51,4.35,2.42,6.69,3.28c3.69,1.36,7.52,1.3,11.32,0.87c2.96-0.33,5.69-1.56,8.2-3.12c2.85-1.77,5.28-4,6.79-7.1
		c1.71-3.5,2.24-7.27,2.49-11.07C376.96,238.93,376.83,236.72,376.83,233.67z"/>
	<path class="st2" d="M240,269.98c0,2.05,0.01,4.11,0,6.16c-0.03,3.44,0.42,3.01-2.98,3.03c-4.71,0.02-9.42,0.01-14.13,0.01
		c-0.44,0-0.88-0.02-1.32,0c-0.77,0.03-1.19-0.27-1.16-1.09c0.02-0.38,0-0.75,0-1.13c0-9.23,0-18.46,0-27.69
		c0-0.31,0.02-0.63,0-0.94c-0.06-0.91,0.39-1.21,1.25-1.19c1.63,0.03,3.27,0.01,4.9,0.01c3.83,0,7.66,0.04,11.49-0.02
		c1.17-0.02,1.87,0.36,2.32,1.44c1.27,3.05,3.31,5.63,5.55,7.97c3.31,3.47,7.46,5.7,12.14,6.76c2.36,0.53,4.81,0.91,7.25,0.78
		c4.12-0.22,8.24-0.5,12.07-2.29c3.55-1.66,5.73-4.42,5.83-8.3c0.09-3.41-1.33-6.27-4.6-8c-2.98-1.58-6.17-2.33-9.44-2.84
		c-3.57-0.56-7.17-0.91-10.75-1.41c-2.16-0.3-4.34-0.5-6.49-0.85c-5.53-0.9-10.82-2.4-15.73-5.26c-4.2-2.44-7.64-5.63-10.42-9.56
		c-2.74-3.88-4.43-8.2-4.18-12.99c0.27-5.07,2.15-9.6,5.56-13.44c2.78-3.12,5.96-5.75,9.68-7.64c3.69-1.88,7.61-3.15,11.71-3.89
		c3.74-0.67,7.52-0.53,11.26-0.31c5.73,0.35,11.19,1.93,16.14,4.94c2.08,1.26,3.93,2.88,5.77,4.48c0.27,0.24,0.49,0.59,1,0.51
		c0.48-0.49,0.24-1.15,0.25-1.74c0.03-1.82-0.01-3.64,0.02-5.46c0.02-1.24,0.07-1.28,1.51-1.29c3.71-0.02,7.41-0.01,11.12-0.01
		c1.57,0,3.14-0.02,4.71,0.01c1.45,0.02,1.49,0.05,1.5,1.5c0.02,4.46,0.01,8.92,0.01,13.37c0,4.21,0,8.41,0,12.62
		c0,2.19-0.07,2.27-2.17,2.27c-4.71,0.01-9.42-0.04-14.13,0.03c-1.44,0.02-2.34-0.47-3.04-1.71c-1.58-2.84-3.39-5.55-5.62-7.91
		c-2.3-2.43-5.13-4.19-8.26-5.42c-2.76-1.08-5.63-1.58-8.61-1.57c-2.95,0.01-5.9-0.06-8.75,0.81c-1.78,0.54-3.52,1.17-4.98,2.49
		c-2.08,1.88-2.46,4.25-2.01,6.7c0.5,2.72,1.87,5.01,4.56,6.3c3.37,1.61,6.92,2.42,10.6,2.99c3.33,0.52,6.69,0.74,10.01,1.3
		c2.34,0.4,4.68,0.73,7,1.26c3.73,0.85,7.32,2.08,10.79,3.7c2.1,0.98,4.09,2.12,5.98,3.48c6.23,4.45,10.24,10.34,11.17,17.96
		c0.71,5.79-0.53,11.35-3.58,16.4c-4.09,6.78-10.11,11.1-17.49,13.74c-3.51,1.26-7.09,1.81-10.8,2.08
		c-5.89,0.43-11.57-0.39-17.14-2.19c-4.22-1.36-7.98-3.57-11.5-6.26c-1.18-0.9-2.25-1.94-3.39-2.9
		C240.32,269.84,240.16,269.91,240,269.98z"/>
	<path class="st2" d="M185.92,279.17c-8.1,0-16.2,0-24.3,0c-0.44,0-0.88,0.01-1.32,0c-1.7-0.03-1.71-0.03-1.72-1.85
		c-0.01-3.08,0-6.15,0-9.23c0-1.76-0.02-3.52,0.01-5.27c0.02-1.54,0.2-1.73,1.76-1.73c4.27-0.02,8.54-0.01,12.81-0.01
		c0.44,0,0.88-0.01,1.32-0.01c0.68,0.01,1.07-0.27,1.06-0.99c-0.01-0.44,0.01-0.88,0.01-1.32c0-16.57,0-33.15,0-49.72
		c0-0.19,0-0.38,0-0.57c-0.03-1.64-0.03-1.67-1.7-1.67c-4.08-0.01-8.16-0.01-12.25-0.01c-0.44,0-0.88,0.01-1.32,0
		c-1.45-0.05-1.64-0.22-1.67-1.63c-0.03-1.32-0.01-2.64-0.01-3.95c0-3.52-0.01-7.03,0-10.55c0-1.94,0.01-1.95,1.99-1.96
		c13.88,0,27.76,0,41.63,0c2.95,0,5.9-0.01,8.85,0.01c1.78,0.01,1.8,0.02,1.8,1.76c0.01,3.96,0,7.91,0.01,11.87
		c0,0.93-0.04,1.86,0.22,2.8c0.32,1.18-0.07,1.62-1.32,1.65c-1.88,0.05-3.77,0.01-5.65,0.01c-2.64,0-5.28-0.01-7.91,0
		c-1.92,0.01-1.92,0.02-1.93,2.01c-0.01,1.51,0,3.01,0,4.52c0,15.13,0,30.26,0,45.39c0,2.47-0.18,2.36,2.34,2.36
		c4.21,0,8.41-0.01,12.62,0c1.82,0.01,1.97,0.14,1.97,1.9c0.01,4.83,0.01,9.67,0,14.5c0,1.65-0.03,1.68-1.68,1.68
		C203.01,279.18,194.47,279.17,185.92,279.17z"/>
	<path class="st2" d="M216.75,179.03c0.52-1.98,1.68-3.63,2.74-5.29c2.19-3.43,4.43-6.83,7.13-9.89c0.83-0.94,0.78-1.1-0.38-1.81
		c-2.45-1.51-4.93-2.97-7.36-4.52c-0.59-0.38-0.94-0.37-1.46,0.08c-1.64,1.45-3.4,2.76-4.98,4.27
		c-5.21,4.99-10.23,10.16-14.21,16.22c-0.54,0.82-1.15,1.29-2.14,1.19c-0.86-0.08-1.74,0.16-2.66-0.19c0.01-0.77,0.39-1.36,0.77-1.9
		c2.2-3.2,4.62-6.22,7.13-9.18c2.2-2.59,4.56-5.02,7.03-7.32c4.26-3.96,8.71-7.66,13.58-10.91c2.92-1.95,5.99-3.61,8.97-5.42
		c2.45-1.49,5.12-2.67,7.81-3.72c4.48-1.75,9.01-3.38,13.71-4.52c3.82-0.93,7.64-1.84,11.53-2.32c2.09-0.26,4.25-0.33,6.34-0.57
		c4.02-0.46,8.03-0.34,12.02-0.21c2.22,0.08,4.47,0.31,6.71,0.54c3.61,0.37,7.19,0.86,10.72,1.66c2.05,0.47,4.07,1.07,6.11,1.62
		c7.29,1.99,14.15,4.99,20.79,8.58c2.81,1.52,5.52,3.21,8.13,5.02c2.4,1.66,4.77,3.4,6.9,5.47c2.78,2.7,5.95,5,8.55,7.9
		c2.96,3.31,6.13,6.44,8.57,10.19c0.82,1.25,1.86,2.36,2.65,3.64c0.26,0.42,0.61,0.8,0.5,1.52c-1.06,0.24-2.17,0.1-3.27,0.08
		c-0.71-0.01-1.04-0.58-1.43-1.09c-3.89-5.14-7.85-10.24-12.6-14.63c-2.2-2.03-4.45-4.03-6.83-5.86c-0.78-0.6-1.35-0.65-2.14-0.03
		c-2.08,1.61-4.41,2.82-6.69,4.13c-1.26,0.73-1.28,0.82-0.38,1.9c2.33,2.79,4.39,5.78,6.41,8.78c1.38,2.04,2.67,4.19,3.64,6.51
		c-2.88,0.87-3.73,0.56-5.12-1.84c-2.33-4.02-5.19-7.66-8.07-11.28c-1.17-1.47-1.49-1.42-3.21-0.71c-3.64,1.5-7.3,2.95-11.1,4.03
		c-0.54,0.15-1.05,0.41-1.58,0.6c-1.53,0.56-1.61,0.74-1.01,2.26c0.76,1.92,1.54,3.84,2.3,5.76c0.54,1.35,0.45,1.48-1,1.53
		c-0.25,0.01-0.5,0-0.75,0c-1.71-0.02-1.77-0.08-2.4-1.77c-0.59-1.58-1.21-3.16-1.84-4.72c-0.55-1.36-1.02-1.56-2.47-1.3
		c-3.93,0.7-7.83,1.5-11.83,1.84c-3.17,0.27-6.33,0.71-9.53,0.7c-1.39,0-1.42,0.07-1.45,1.54c-0.02,0.82-0.01,1.63-0.01,2.45
		c0,0.86-0.45,1.26-1.29,1.25c-0.38,0-0.75,0-1.13,0c-0.96,0.01-1.34-0.5-1.33-1.42c0.01-0.88,0-1.76-0.01-2.64
		c-0.01-0.75-0.41-1.16-1.16-1.19c-0.38-0.01-0.75-0.02-1.13-0.02c-4.07,0.01-8.09-0.58-12.13-1.03c-3.05-0.34-6.03-1.03-9.03-1.56
		c-0.91-0.16-1.51,0.06-1.86,1.07c-0.63,1.83-1.42,3.61-2.17,5.4c-0.5,1.2-2.74,1.93-3.81,1.25c-0.46-0.3-0.38-0.76-0.22-1.18
		c0.68-1.75,1.39-3.49,2.09-5.22c0.12-0.29,0.3-0.55,0.41-0.84c0.58-1.51,0.5-1.62-1.02-2.09c-4.48-1.39-8.95-2.82-13.21-4.81
		c-1.43-0.67-1.49-0.59-2.51,0.56c-2.67,3-4.94,6.29-7.17,9.62c-0.42,0.62-0.75,1.31-1.04,2c-0.67,1.59-1.79,2.35-3.55,2.09
		C217.81,179.23,217.3,179.37,216.75,179.03z M251.55,140.53c0.03,0.64,0.53,0.83,0.93,1.11c2.41,1.68,5.23,2.51,7.97,3.23
		c4.34,1.13,8.81,1.75,13.34,1.67c2.83-0.05,5.66-0.1,8.48,0.02c2.09,0.08,4.14-0.22,6.16-0.52c1.23-0.18,2.48-0.16,3.71-0.48
		c2.49-0.65,4.95-1.33,7.33-2.31c1.21-0.5,2.49-0.83,3.55-1.65c0.36-0.28,0.74-0.52,0.59-1.05c-0.13-0.47-0.59-0.39-0.94-0.46
		c-3.91-0.78-7.74-1.9-11.73-2.35c-3.85-0.44-7.7-0.78-11.56-0.96c-4.13-0.19-8.24,0.24-12.35,0.68c-2.61,0.27-5.21,0.53-7.77,1.14
		c-1.94,0.46-3.86,1.01-5.86,1.22C252.76,139.86,252.04,139.99,251.55,140.53z M252.92,167.82c3.62,0.71,7.08,1.4,10.62,1.76
		c3.6,0.37,7.2,0.75,10.82,0.68c1.36-0.03,1.44-0.07,1.44-1.35c0.02-5.64,0-11.28,0.02-16.92c0-0.93-0.28-1.38-1.28-1.36
		c-1.5,0.03-2.98-0.09-4.48-0.28c-1.88-0.25-3.83-0.41-5.46,1.15c-3.41,3.25-6.48,6.8-8.85,10.87
		C254.76,164.06,253.44,165.63,252.92,167.82z M279.58,160.29c0,2.7-0.01,5.4,0,8.09c0.01,1.86,0.02,1.85,1.87,1.88
		c3.76,0.05,7.48-0.41,11.2-0.84c2.53-0.29,5.06-0.74,7.56-1.23c2.24-0.44,2.31-0.55,1.21-2.48c-3.14-5.5-6.51-10.83-11.59-14.82
		c-0.59-0.47-1.18-0.6-1.89-0.65c-2.33-0.16-4.59,0.56-6.92,0.42c-1.38-0.08-1.43,0.04-1.44,1.52
		C279.56,154.9,279.58,157.6,279.58,160.29z M261.71,149c-2.3-0.4-4.2-0.82-5.94-1.63c-1.09-0.51-1.96-0.4-3.01,0.09
		c-3.77,1.76-7.16,4.11-10.54,6.49c-2.68,1.88-5.03,4.13-7.28,6.5c-0.89,0.94-0.73,1.45,0.46,1.88c3.29,1.19,6.56,2.4,9.86,3.54
		c0.93,0.32,1.9,0.61,2.92,0.64c0.71,0.02,1.2-0.19,1.49-0.86c0.8-1.85,1.88-3.54,2.99-5.21c1.66-2.49,3.25-5.03,5.3-7.26
		C259.14,151.9,260.3,150.59,261.71,149z M293.99,148.95c0.17,1.1,0.83,1.68,1.45,2.28c2.2,2.14,4.2,4.47,5.83,7.07
		c1.4,2.22,2.89,4.38,4.01,6.78c0.72,1.55,1.39,1.78,2.99,1.18c0.59-0.22,1.17-0.4,1.77-0.58c3.47-1.05,6.87-2.3,10.2-3.75
		c0.85-0.37,0.9-0.68,0.3-1.39c-0.24-0.29-0.53-0.54-0.79-0.8c-3.68-3.69-7.96-6.61-12.29-9.47c-1.84-1.21-3.83-2.09-5.79-3.06
		c-0.48-0.24-0.92-0.33-1.43-0.08C298.34,148.09,296.22,148.39,293.99,148.95z M249.6,145.05c0.1-0.73-0.1-0.9-0.27-1.08
		c-0.39-0.41-0.82-0.78-1.19-1.21c-0.6-0.68-1.23-0.88-2.17-0.61c-1.74,0.52-3.46,1.06-5.11,1.83c-2.95,1.37-5.94,2.65-8.81,4.19
		c-3.24,1.74-6.43,3.53-9.38,5.74c-0.84,0.63-0.8,0.78,0.03,1.53c1.75,1.58,3.97,2.37,5.97,3.52c1.45,0.83,1.33,1.14,2.81-0.37
		c2.29-2.32,4.67-4.52,7.22-6.56c3.23-2.59,6.76-4.71,10.31-6.82C249.27,145.07,249.61,144.99,249.6,145.05z M308.68,141.96
		c-1.21,0.21-1.73,1.16-2.42,1.84c-0.84,0.82-0.77,1.05,0.27,1.65c0.32,0.19,0.67,0.34,1,0.52c4.01,2.11,7.53,4.92,11.08,7.69
		c1.94,1.51,3.62,3.28,5.35,5.01c0.55,0.54,1.04,0.73,1.83,0.42c2.46-0.97,4.64-2.44,6.82-3.88c0.71-0.46,0.64-0.86-0.12-1.45
		c-1.18-0.91-2.5-1.64-3.76-2.43c-5.1-3.19-10.43-5.89-16.05-8.03C311.35,142.78,309.96,142.38,308.68,141.96z"/>
	<path class="st2" d="M219.23,310.91c0.04-0.78,0.54-1.22,1.16-1.59c1.82-1.09,3.66-2.15,5.45-3.29c1.21-0.77,1.24-0.88,0.42-2.02
		c-0.83-1.17-1.79-2.25-2.63-3.41c-2.38-3.3-4.58-6.72-6.57-10.27c-0.59-1.06-0.46-1.23,0.72-1.37c1.8-0.22,3.08,0.29,4.01,1.98
		c1.23,2.24,2.55,4.45,4.15,6.47c1.31,1.67,2.51,3.42,3.94,5c0.67,0.74,1.27,0.95,2.28,0.51c4.37-1.88,8.8-3.6,13.44-4.72
		c1.64-0.4,1.72-0.63,1.08-2.23c-0.72-1.8-1.52-3.57-2.25-5.37c-0.51-1.27-0.31-1.58,1.02-1.63c0.5-0.02,1,0.01,1.51,0
		c0.72-0.01,1.12,0.31,1.37,1.02c0.6,1.71,1.26,3.4,1.93,5.09c0.56,1.42,0.94,1.55,2.44,1.3c3.87-0.65,7.71-1.45,11.64-1.8
		c3.36-0.3,6.7-0.73,10.09-0.72c1.3,0,1.33-0.07,1.38-1.41c0.02-0.5-0.02-1.01,0.01-1.51c0.04-0.61-0.28-1.42,0.32-1.76
		c0.83-0.46,1.84-0.28,2.75-0.09c0.48,0.1,0.65,0.56,0.66,1.03c0.01,0.82,0.05,1.63,0.01,2.45c-0.06,0.98,0.36,1.4,1.32,1.31
		c2.39-0.22,4.75,0.26,7.11,0.46c3.66,0.31,7.32,0.77,10.93,1.52c1.34,0.28,2.7,0.5,4.02,0.87c0.87,0.25,1.27-0.09,1.63-0.79
		c0.74-1.46,1.35-2.96,1.88-4.5c0.87-2.53,0.87-2.53,3.61-2.45c0.31,0.01,0.63-0.02,0.99,0.26c-0.1,1.13-0.51,2.23-1.03,3.28
		c-0.67,1.36-1,2.83-1.58,4.22c-0.37,0.89-0.02,1.31,0.75,1.55c1.67,0.53,3.34,1.06,5.02,1.55c2.77,0.82,5.43,1.91,8.05,3.12
		c2,0.92,1.99,0.86,3.37-0.9c2.08-2.66,4.2-5.28,6.1-8.08c0.75-1.1,1.28-2.29,1.93-3.43c0.65-1.14,1.47-1.8,2.86-1.58
		c0.66,0.11,1.36-0.11,2.22,0.26c-1.43,3.07-3.36,5.74-5.1,8.53c-1.71,2.74-3.92,5.12-5.86,7.7c2.65,1.83,5.43,3.01,7.77,4.88
		c0.81,0.65,1.64,0.55,2.4-0.08c1.64-1.35,3.34-2.65,4.88-4.1c2.37-2.24,4.67-4.56,6.93-6.92c1.6-1.67,3.1-3.42,4.45-5.32
		c0.98-1.37,2.14-2.61,3.06-4.02c0.43-0.66,1.08-1.02,1.93-0.94c0.91,0.08,1.84-0.09,2.91,0.18c-1.14,2.23-2.62,4-3.96,5.85
		c-3.95,5.46-8.77,10.14-13.67,14.72c-2.82,2.63-5.81,5.12-9.07,7.25c-1.26,0.82-2.46,1.72-3.7,2.56c-0.78,0.53-1.59,1.01-2.54,1.17
		c-0.34-0.88-0.68-1.76-1.01-2.64c-0.03-0.7,0.29-1.12,0.91-1.48c1.07-0.63,2.09-1.36,3.1-2.09c1.14-0.83,1.13-1.32-0.09-2.08
		c-1.86-1.15-3.84-2.09-5.62-3.37c-0.75-0.54-1.4-0.45-2.2,0.11c-0.86,0.6-1.45,1.6-2.56,1.86l-0.08-0.03
		c0.01-0.09,0.01-0.19,0.02-0.28c-0.07,0.05-0.15,0.1-0.22,0.16c-0.38-0.16-0.76-0.31-1.14-0.47c-0.29-0.49-1.06-0.39-1.38-1.32
		c0.38-0.3,0.93-0.63,1.37-1.07c1.1-1.12,1.05-1.3-0.28-2.03c-1.38-0.75-2.97-1-4.35-1.69c-2.65-1.33-5.54-1.85-8.32-2.75
		c-0.83-0.27-1.27,0.08-1.63,0.79c-0.6,1.17-1.25,2.3-1.9,3.44c-2.33,4.07-5.07,7.85-8.32,11.24c-0.48,0.5-0.96,0.99-1.68,1.12
		l0-0.03c0.04-0.23-0.07-0.38-0.27-0.48c-0.37-0.66-0.74-1.31-1.1-1.97c-0.1-0.71,0.29-1.17,0.76-1.62
		c3.75-3.61,6.24-8.09,8.75-12.56c0.46-0.82,0.24-1.31-0.65-1.51c-0.79-0.18-1.59-0.29-2.39-0.42c-3.01-0.48-6.03-0.93-9.07-1.23
		c-2.92-0.29-5.84-0.53-8.76-0.64c-1.41-0.06-1.45,0.04-1.47,1.51c-0.02,3.39-0.01,6.77-0.02,10.16c-0.31,0.15-0.64,0.21-0.98,0.1
		c-0.57-0.11-1.15-0.27-1.64,0.21c-0.37,0.04-0.75,0.07-1.12,0.11c0-3.39,0-6.78-0.01-10.16c-0.01-1.92-0.02-1.98-2.01-1.92
		c-3.18,0.1-6.35,0.39-9.52,0.7c-3.42,0.33-6.81,0.74-10.16,1.52c-1.48,0.34-1.58,0.4-0.78,1.78c1.34,2.32,2.76,4.59,4.19,6.86
		c0.37,0.58,0.82,1.11,0.93,1.82c-1.49,0.1-2.99,0.16-4.48-0.05c-1.53-2.72-3.06-5.44-4.58-8.16c-0.47-0.85-1.21-0.81-1.96-0.63
		c-4.2,1-8.24,2.53-12.21,4.2c-1.53,0.65-1.49,0.86-0.38,2.1c0.74,0.82,1.84,1.35,2.12,2.55c-1.74,0.08-3.48,0.16-5.22-0.06
		c-0.08-0.46-0.42-0.75-0.73-1.07c-1.05-1.07-1.06-1.09-2.38-0.43c-0.89,0.45-1.76,0.97-2.64,1.42c-1.38,0.71-2.57,1.81-4.14,2.15
		C221,311.86,220.12,311.39,219.23,310.91z"/>
	<path class="st1" d="M328.17,318.04c0.34,0.88,0.68,1.76,1.01,2.64c2.04,7.68,2.14,15.39,0.06,23.05
		c-1.19,4.37-3.45,8.07-7.72,10.18c-4.52,2.24-13,2.31-17.52-2.13c-1.4-1.38-2.54-2.94-3.33-4.74c-1.96-4.44-2.66-9.12-2.61-13.95
		c0.03-3.01,0.09-6.02,0.55-9.01c0.22-0.86,0.44-1.72,0.67-2.58c0.34-0.33,0.33-0.8,0.46-1.21c2.3-7.39,7.77-11.31,15.77-10.79
		c1.65,0.11,3.16,0.76,4.78,0.87c0.38,0.16,0.76,0.31,1.14,0.47c0.03,0.1,0.1,0.14,0.21,0.13c0,0,0.08,0.03,0.08,0.03
		c2.14,1.24,3.95,2.83,5.27,4.94C327.42,316.62,327.57,317.46,328.17,318.04z M307.49,326.26c-0.02,0.35-0.05,0.7-0.07,1.06
		c-0.07,0.3-0.17,0.6-0.2,0.9c-0.3,3.63,0.01,7.26,0.32,10.86c0.21,2.36,0.85,4.68,2.33,6.65c0.74,0.99,1.62,1.74,2.85,2
		c2.96,0.64,5.3-0.41,6.8-3.07c0.49-0.87,0.86-1.8,1.1-2.78c1.27-5.06,0.81-10.19,0.68-15.31c-0.01-0.36-0.19-0.72-0.29-1.08
		c0.16-1.33-0.41-2.51-0.81-3.72c-0.92-2.52-2.3-4.53-5.3-4.7c-3.08-0.31-5.29,1.19-6.22,4.25
		C307.95,322.89,307.54,324.53,307.49,326.26z"/>
	<path class="st1" d="M292.42,315.63c0.37,0.66,0.74,1.31,1.1,1.97c-0.02,0.22,0.06,0.39,0.27,0.48c0,0,0,0.03,0,0.03
		c0.08,0.37,0.12,0.76,0.48,1c0.27,1.41,0.62,2.8,1.2,4.12c0.89,5.36,0.96,10.73,0.31,16.12c-0.3,2.44-0.94,4.8-1.91,7.06
		c-1.8,4.21-4.71,7.3-9.25,8.41c-3.85,0.94-7.74,0.91-11.45-0.72c-3.66-1.61-5.89-4.57-7.35-8.18c-1.28-3.18-1.78-6.52-2.02-9.91
		c-0.04-0.62-0.11-1.25-0.17-1.87c0.19-1.24,0.16-2.49,0.01-3.74c0.28-2.75,0.4-5.52,1.04-8.22c0.44-1.29,0.88-2.57,1.32-3.86
		c0.88-1.51,1.63-3.09,2.81-4.42c1.91-2.15,4.37-3.31,7.02-4.19c0.37-0.04,0.75-0.07,1.12-0.11c0.56,0.06,1.12,0.07,1.64-0.21
		c0.34,0.11,0.66,0.05,0.98-0.1c1.66,0.25,3.36,0.2,5,0.68C287.86,310.94,290.49,312.79,292.42,315.63z M272.85,333.06
		c0,0.12,0,0.24,0,0.36c0,0.38,0,0.77,0.01,1.15c0.02,0.88-0.03,1.76,0.07,2.62c0.35,2.79,0.81,5.51,2.24,8.07
		c1.96,3.5,7.65,3.29,9.48,0.1c1.96-3.42,2.36-7.06,2.28-10.85c0.34-1.23,0.25-2.47,0.1-3.71c0.2-1.88-0.12-3.73-0.39-5.56
		c-0.2-1.32-0.29-2.73-1.09-3.91c-0.84-2.62-2.53-4.15-5.38-4.31c-2.72-0.15-4.44,1.17-5.53,3.53c-1.78,3.73-1.91,7.71-1.78,11.73
		C272.85,332.54,272.85,332.8,272.85,333.06z"/>
	<path class="st1" d="M219.23,310.91c0.88,0.48,1.77,0.95,2.65,1.43c1.5,1.14,2.59,2.64,3.65,4.16c0.46,1.24,0.92,2.49,1.38,3.73
		c-0.07,0.42-0.16,0.84,0.2,1.2l-0.01,0.02c0.53,5.38-1.16,9.87-5.3,13.42c-1,0.86-2.05,1.65-3.14,2.39
		c-2.85,1.94-5.84,3.67-8.49,5.9c-1.1,0.93-2.16,1.88-2.97,3.11c0.48,0.72,1.17,0.43,1.74,0.43c5.34,0.02,10.67,0.01,16.01,0.01
		c0.44,0,0.88,0.02,1.32,0c0.87-0.04,1.26,0.35,1.25,1.23c-0.02,1.82-0.02,3.64,0,5.46c0.01,0.77-0.26,1.19-1.09,1.15
		c-0.31-0.02-0.63,0-0.94,0c-9.54,0-19.09,0-28.63,0c-2.14,0-2.19-0.09-1.95-2.27c0.51-4.71,2.61-8.6,6.11-11.74
		c3.23-2.9,6.89-5.24,10.48-7.64c2.16-1.44,4.18-2.98,5.55-5.25c2.28-3.76,0.76-8.51-3.22-10.01c-2.53-0.95-5.25-0.22-6.94,1.91
		c-1.16,1.46-1.78,3.16-1.99,5.01c-0.06,0.56-0.09,1.13-0.15,1.69c-0.08,0.8-0.45,1.23-1.34,1.21c-2.13-0.04-4.27-0.03-6.4-0.01
		c-0.78,0-1.13-0.31-1.14-1.12c-0.09-7.18,3.67-15.41,13.07-16.71c0.3-0.04,0.6-0.17,0.89-0.27c0.96,0.19,1.93,0.07,2.89,0.03
		c0.9,0.3,1.84,0.29,2.77,0.28c0.37,0.06,0.73,0.12,1.1,0.19C217.4,310.43,218.4,310.46,219.23,310.91z"/>
	<path class="st1" d="M231.77,310.27c1.74,0.23,3.48,0.15,5.22,0.06c2.18,0.01,4.36,0.06,6.54,0.04c3.49-0.03,6.98,0.13,10.46-0.09
		c1.49,0.21,2.98,0.15,4.48,0.05c2.29,0.11,2.29,0.11,2.28,2.39c0,0.25,0.03,0.5,0.05,0.75c-0.13,1.51-0.11,3.02,0,4.52
		c-0.34,0.38-0.68,0.77-1.02,1.15c-1.61,1.41-3.01,2.99-4.1,4.84c-0.98,1.29-1.75,2.71-2.42,4.18c-0.83,0.96-1.24,2.12-1.62,3.3
		c-2.02,4.07-3.17,8.43-4.12,12.85c-0.62,2.89-0.99,5.81-1.15,8.76c-0.08,1.5-0.13,1.52-1.67,1.53c-2.13,0.02-4.27,0.02-6.4,0
		c-1.73-0.01-1.76-0.03-1.65-1.85c0.13-2.2,0.59-4.35,1.04-6.49c1.21-5.75,3.29-11.18,6.06-16.35c0.09-0.16,0.14-0.35,0.21-0.52
		c0.74-1.09,1.47-2.19,1.96-3.43c0.93-1.19,1.91-2.35,2.38-3.83c0.93-0.5,1.4-1.4,1.93-2.24c0.64-1,0.64-1.04-0.27-1.08
		c-1.19-0.06-2.38-0.05-3.57-0.05c-4.75,0.01-9.51,0.05-14.26,0.05c-1.55,0-1.61-0.05-1.63-1.35c-0.04-1.94,0.04-3.88-0.03-5.82
		C230.42,310.62,230.91,310.33,231.77,310.27z"/>
	<path class="st1" d="M356.02,332.54c0,6.71,0,13.43,0,20.14c0,1.86-0.01,1.86-1.86,1.87c-2.01,0.01-4.02,0.02-6.03-0.01
		c-1.3-0.02-1.36-0.07-1.36-1.41c-0.02-3.58-0.01-7.15-0.01-10.73c0-4.96,0.01-9.92-0.01-14.87c0-1.56-0.03-1.58-1.55-1.59
		c-2.7-0.02-5.4-0.03-8.1,0.01c-0.93,0.01-1.39-0.25-1.34-1.27c0.06-1.44,0.04-2.89,0.01-4.33c-0.02-0.86,0.29-1.28,1.2-1.25
		c1.39,0.04,2.74-0.23,4.08-0.58c3.73-1,6.39-3.1,7.33-6.99c0.19-0.79,0.54-1.16,1.41-1.13c1.57,0.06,3.14,0,4.71,0.02
		c1.5,0.02,1.52,0.03,1.52,1.61C356.02,318.85,356.02,325.69,356.02,332.54z"/>
	<path class="st2" d="M216.62,309.86c-0.37-0.06-0.73-0.12-1.1-0.19c-0.87-0.66-1.83-0.35-2.77-0.28c-0.96,0.04-1.93,0.16-2.89-0.03
		c-0.01-0.41-0.26-0.64-0.55-0.91c-5.63-5.2-10.63-10.94-15.01-17.23c-0.39-0.56-1.29-1.13-0.83-1.93c0.39-0.68,1.27-0.22,1.92-0.33
		c1.52-0.27,2.4,0.47,3.2,1.71c2,3.11,4.43,5.9,7.02,8.53c1.02,1.03,1.78,2.26,2.84,3.25c2.53,2.33,5.04,4.68,7.72,6.84
		C216.38,309.45,216.54,309.61,216.62,309.86z"/>
	<path class="st2" d="M245.91,325.95c-0.49,1.24-1.22,2.34-1.96,3.43c-2.15-0.99-4.43-1.65-6.6-2.63c-3.52-1.58-6.95-3.3-10.25-5.3
		c0,0,0.01-0.02,0.01-0.02c0.1-0.43,0.16-0.85-0.2-1.19c-0.46-1.24-0.92-2.49-1.38-3.73c0.39-0.02,0.71,0.13,1.06,0.3
		c1.3,0.62,2.4,1.57,3.65,2.24c2.8,1.48,5.55,3.09,8.54,4.16C241.18,324.05,243.36,325.48,245.91,325.95z"/>
	<path class="st2" d="M251.63,331.46c0.37-1.18,0.78-2.35,1.62-3.3c1.8,0.38,3.61,0.69,5.4,1.14c1.66,0.42,3.46,0.17,5,1.11
		c0.15,1.25,0.17,2.49-0.01,3.74c-3.4-0.26-6.7-1.03-9.95-2.02C253,331.92,252.14,332.21,251.63,331.46z"/>
	<path class="st2" d="M295.47,323.23c-0.58-1.32-0.93-2.71-1.2-4.12c1.39-0.05,2.65,0.52,3.95,0.86c0.8,0.21,1.02,0.81,1.06,1.55
		c-0.22,0.86-0.44,1.72-0.67,2.58C297.48,324.14,296.6,323.2,295.47,323.23z"/>
	<path class="st0" d="M376.83,233.67c0,3.05,0.12,5.26-0.03,7.44c-0.26,3.81-0.79,7.57-2.49,11.07c-1.51,3.1-3.94,5.33-6.79,7.1
		c-2.51,1.56-5.24,2.79-8.2,3.12c-3.8,0.43-7.63,0.49-11.32-0.87c-2.34-0.86-4.64-1.78-6.69-3.28c-3.91-2.88-6.02-6.74-6.71-11.48
		c-0.42-2.91-0.68-5.82-0.82-8.76c-0.09-1.87-0.41-3.75-0.25-5.61c0.45-5.47,0.72-11,3.3-16.02c2.92-5.72,7.5-9.24,13.89-10.34
		c4.07-0.7,8.13-0.64,12.08,0.47c3.64,1.02,6.65,3.07,8.94,6.19c2.74,3.73,3.97,7.97,4.77,12.45
		C377.06,228.28,376.63,231.4,376.83,233.67z"/>
	<path class="st0" d="M251.55,140.53c0.49-0.54,1.21-0.67,1.85-0.74c2-0.21,3.92-0.76,5.86-1.22c2.56-0.61,5.16-0.86,7.77-1.14
		c4.11-0.43,8.22-0.86,12.35-0.68c3.86,0.18,7.71,0.52,11.56,0.96c4,0.46,7.82,1.57,11.73,2.35c0.35,0.07,0.81,0,0.94,0.46
		c0.15,0.53-0.23,0.77-0.59,1.05c-1.07,0.82-2.34,1.15-3.55,1.65c-2.39,0.98-4.85,1.66-7.33,2.31c-1.23,0.32-2.48,0.3-3.71,0.48
		c-2.02,0.3-4.07,0.6-6.16,0.52c-2.82-0.11-5.65-0.07-8.48-0.02c-4.53,0.09-9.01-0.54-13.34-1.67c-2.74-0.71-5.56-1.55-7.97-3.23
		C252.07,141.36,251.58,141.17,251.55,140.53z"/>
	<path class="st0" d="M252.92,167.82c0.53-2.19,1.85-3.76,2.84-5.45c2.37-4.06,5.43-7.61,8.85-10.87c1.63-1.55,3.58-1.39,5.46-1.15
		c1.5,0.2,2.98,0.31,4.48,0.28c1-0.02,1.29,0.43,1.28,1.36c-0.02,5.64,0,11.28-0.02,16.92c0,1.28-0.08,1.32-1.44,1.35
		c-3.63,0.07-7.22-0.32-10.82-0.68C260,169.22,256.53,168.53,252.92,167.82z"/>
	<path class="st0" d="M279.58,160.29c0-2.7-0.02-5.4,0.01-8.09c0.01-1.48,0.06-1.61,1.44-1.52c2.33,0.14,4.6-0.59,6.92-0.42
		c0.71,0.05,1.29,0.18,1.89,0.65c5.09,3.99,8.45,9.32,11.59,14.82c1.1,1.93,1.03,2.04-1.21,2.48c-2.51,0.49-5.03,0.94-7.56,1.23
		c-3.72,0.43-7.44,0.89-11.2,0.84c-1.86-0.03-1.87-0.02-1.87-1.88C279.57,165.69,279.58,162.99,279.58,160.29z"/>
	<path class="st0" d="M261.71,149c-1.41,1.59-2.57,2.9-3.75,4.18c-2.05,2.23-3.64,4.77-5.3,7.26c-1.11,1.67-2.2,3.36-2.99,5.21
		c-0.29,0.68-0.78,0.88-1.49,0.86c-1.02-0.02-1.98-0.31-2.92-0.64c-3.3-1.15-6.58-2.36-9.86-3.54c-1.19-0.43-1.35-0.94-0.46-1.88
		c2.25-2.36,4.6-4.61,7.28-6.5c3.38-2.38,6.77-4.73,10.54-6.49c1.05-0.49,1.92-0.6,3.01-0.09
		C257.51,148.18,259.41,148.61,261.71,149z"/>
	<path class="st0" d="M293.99,148.95c2.23-0.56,4.35-0.86,6.26-1.83c0.5-0.26,0.95-0.16,1.43,0.08c1.96,0.97,3.95,1.85,5.79,3.06
		c4.33,2.86,8.61,5.78,12.29,9.47c0.27,0.27,0.55,0.52,0.79,0.8c0.6,0.71,0.54,1.02-0.3,1.39c-3.33,1.45-6.73,2.69-10.2,3.75
		c-0.6,0.18-1.19,0.37-1.77,0.58c-1.61,0.59-2.27,0.37-2.99-1.18c-1.12-2.39-2.61-4.56-4.01-6.78c-1.64-2.6-3.63-4.92-5.83-7.07
		C294.82,150.63,294.16,150.05,293.99,148.95z"/>
	<path class="st0" d="M249.6,145.05c0.01-0.06-0.33,0.01-0.59,0.17c-3.55,2.1-7.08,4.22-10.31,6.82c-2.55,2.04-4.93,4.25-7.22,6.56
		c-1.48,1.51-1.37,1.2-2.81,0.37c-2-1.15-4.22-1.94-5.97-3.52c-0.82-0.74-0.87-0.9-0.03-1.53c2.94-2.21,6.14-4,9.38-5.74
		c2.87-1.54,5.86-2.82,8.81-4.19c1.66-0.77,3.37-1.31,5.11-1.83c0.93-0.28,1.57-0.07,2.17,0.61c0.37,0.42,0.8,0.8,1.19,1.21
		C249.5,144.15,249.7,144.33,249.6,145.05z"/>
	<path class="st0" d="M308.68,141.96c1.28,0.42,2.67,0.82,4.01,1.33c5.62,2.14,10.95,4.85,16.05,8.03c1.27,0.79,2.58,1.52,3.76,2.43
		c0.76,0.59,0.83,0.99,0.12,1.45c-2.19,1.44-4.36,2.91-6.82,3.88c-0.79,0.31-1.28,0.13-1.83-0.42c-1.73-1.72-3.41-3.49-5.35-5.01
		c-3.55-2.77-7.07-5.58-11.08-7.69c-0.33-0.18-0.68-0.33-1-0.52c-1.04-0.61-1.11-0.83-0.27-1.65
		C306.95,143.12,307.47,142.17,308.68,141.96z"/>
	<path class="st0" d="M260.8,313.46c-0.02-0.25-0.05-0.5-0.05-0.75c0.02-2.28,0.02-2.28-2.28-2.39c-0.11-0.71-0.56-1.23-0.93-1.82
		c-1.43-2.27-2.85-4.54-4.19-6.86c-0.8-1.38-0.7-1.44,0.78-1.78c3.35-0.78,6.74-1.19,10.16-1.52c3.17-0.31,6.34-0.6,9.52-0.7
		c1.99-0.06,2,0,2.01,1.92c0.01,3.39,0.01,6.78,0.01,10.16c-2.65,0.88-5.11,2.04-7.02,4.19c-1.18,1.33-1.93,2.91-2.81,4.42
		c0-0.54-0.29-0.96-0.7-1.23c-1.39-0.92-2.48-2.17-3.67-3.3C261.39,313.57,261.11,313.49,260.8,313.46z"/>
	<path class="st0" d="M292.42,315.63c-1.93-2.84-4.56-4.69-7.86-5.65c-1.64-0.48-3.34-0.43-5-0.68c0-3.39-0.01-6.77,0.02-10.16
		c0.01-1.47,0.05-1.56,1.47-1.51c2.93,0.12,5.84,0.35,8.76,0.64c3.04,0.3,6.06,0.75,9.07,1.23c0.8,0.13,1.6,0.24,2.39,0.42
		c0.89,0.21,1.11,0.7,0.65,1.51c-2.5,4.47-5,8.95-8.75,12.56C292.71,314.46,292.32,314.93,292.42,315.63z"/>
	<path class="st0" d="M299.28,321.51c-0.04-0.73-0.26-1.34-1.06-1.55c-1.31-0.34-2.56-0.91-3.95-0.86c-0.36-0.24-0.4-0.63-0.48-1
		c0.72-0.13,1.21-0.62,1.68-1.12c3.25-3.39,5.99-7.17,8.32-11.24c0.65-1.14,1.3-2.28,1.9-3.44c0.36-0.71,0.8-1.06,1.63-0.79
		c2.78,0.9,5.67,1.42,8.32,2.75c1.38,0.69,2.97,0.94,4.35,1.69c1.33,0.72,1.38,0.91,0.28,2.03c-0.43,0.44-0.98,0.77-1.37,1.07
		c0.32,0.94,1.09,0.83,1.38,1.32c-1.62-0.11-3.13-0.76-4.78-0.87c-8-0.51-13.47,3.41-15.77,10.79
		C299.61,320.71,299.62,321.18,299.28,321.51z"/>
	<path class="st0" d="M245.91,325.95c-2.55-0.48-4.73-1.91-7.13-2.76c-2.99-1.07-5.74-2.67-8.54-4.16
		c-1.25-0.66-2.35-1.62-3.65-2.24c-0.35-0.17-0.67-0.31-1.06-0.3c-1.06-1.52-2.15-3.02-3.65-4.16c1.57-0.34,2.76-1.43,4.14-2.15
		c0.88-0.46,1.75-0.98,2.64-1.42c1.32-0.66,1.32-0.64,2.38,0.43c0.31,0.31,0.65,0.6,0.73,1.07c-0.85,0.06-1.35,0.35-1.31,1.37
		c0.08,1.94,0,3.88,0.03,5.82c0.02,1.31,0.08,1.35,1.63,1.35c4.75,0,9.51-0.04,14.26-0.05c1.19,0,2.38-0.01,3.57,0.05
		c0.91,0.04,0.91,0.08,0.27,1.08c-0.07-0.31-0.18-0.61-0.53-0.7c-0.73-0.21-5.15-0.02-6.1,0.28c1.56,1,2.88,2.26,4.7,2.66
		C247.82,323.6,246.84,324.76,245.91,325.95z"/>
	<path class="st0" d="M253.99,310.27c-3.49,0.22-6.98,0.06-10.46,0.09c-2.18,0.02-4.36-0.02-6.54-0.04
		c-0.27-1.21-1.38-1.73-2.12-2.55c-1.11-1.24-1.15-1.45,0.38-2.1c3.97-1.67,8-3.2,12.21-4.2c0.75-0.18,1.49-0.22,1.96,0.63
		C250.93,304.84,252.46,307.55,253.99,310.27z"/>
	<path class="st0" d="M328.17,318.04c-0.61-0.58-0.75-1.42-1.18-2.11c-1.33-2.11-3.14-3.7-5.27-4.94c1.11-0.26,1.69-1.25,2.56-1.85
		c0.8-0.56,1.46-0.64,2.2-0.11c1.78,1.28,3.76,2.22,5.62,3.37c1.22,0.75,1.23,1.25,0.09,2.08c-1.01,0.73-2.02,1.46-3.1,2.09
		C328.47,316.92,328.15,317.34,328.17,318.04z"/>
	<path class="st0" d="M278.59,309.4c-0.52,0.28-1.08,0.27-1.64,0.21C277.44,309.13,278.02,309.3,278.59,309.4z"/>
	<path class="st0" d="M293.79,318.08c-0.21-0.09-0.28-0.26-0.27-0.48C293.72,317.7,293.83,317.85,293.79,318.08z"/>
	<path class="st0" d="M321.63,310.97c-0.1,0.02-0.17-0.03-0.21-0.13c0.07-0.05,0.15-0.1,0.22-0.16
		C321.64,310.78,321.64,310.87,321.63,310.97z"/>
	<path class="st0" d="M321.01,325.49c0.1,0.36,0.28,0.72,0.29,1.08c0.13,5.12,0.59,10.25-0.68,15.31c-0.25,0.98-0.61,1.91-1.1,2.78
		c-1.5,2.66-3.84,3.71-6.8,3.07c-1.23-0.27-2.11-1.02-2.85-2c-1.48-1.98-2.12-4.29-2.33-6.65c-0.31-3.61-0.62-7.23-0.32-10.86
		c0.03-0.3,0.13-0.6,0.2-0.9c0,1.04,0,2.09,0,3.28c2.92-1.01,5.64-1.85,8.28-2.88C317.48,327.01,319.13,325.97,321.01,325.49z"/>
	<path class="st0" d="M314.9,317.08c3,0.17,4.37,2.18,5.3,4.7c-2.01,0.47-3.78,1.54-5.68,2.28c-2.29,0.9-4.49,2.11-7.04,2.2
		c0.05-1.73,0.46-3.37,1.19-4.93C310.96,320.21,313.03,318.79,314.9,317.08z"/>
	<path class="st2" d="M307.49,326.26c2.55-0.09,4.74-1.3,7.04-2.2c1.9-0.74,3.67-1.81,5.68-2.28c0.4,1.21,0.97,2.38,0.81,3.72
		c-1.88,0.47-3.52,1.52-5.31,2.22c-2.64,1.03-5.35,1.88-8.28,2.88c0-1.19,0-2.24,0-3.28C307.44,326.96,307.47,326.61,307.49,326.26z
		"/>
	<path class="st2" d="M314.9,317.08c-1.87,1.71-3.94,3.13-6.22,4.25C309.62,318.27,311.82,316.76,314.9,317.08z"/>
	<path class="st0" d="M286.93,334.52c0.08,3.79-0.32,7.44-2.28,10.86c-1.82,3.19-7.52,3.39-9.48-0.1c-1.43-2.56-1.89-5.28-2.24-8.07
		c-0.11-0.86-0.05-1.75-0.07-2.62c0.67,0.45,1.42,0.38,2.17,0.37C279,334.89,282.98,335.18,286.93,334.52z"/>
	<path class="st0" d="M272.85,332.29c-0.12-4.02,0.01-8,1.78-11.73c0.24,0.34,0.59,0.45,0.99,0.43c3.32-0.2,6.61,0.33,9.92,0.35
		c0.8,1.18,0.9,2.59,1.09,3.91c0.27,1.83,0.59,3.69,0.39,5.56c-2.42,0.18-4.83,0.47-7.27,0.36c-1.69-0.07-3.38,0.06-5.06-0.04
		C273.72,331.08,273.2,331.48,272.85,332.29z"/>
	<path class="st0" d="M263.65,330.41c-1.54-0.94-3.34-0.69-5-1.11c-1.78-0.45-3.6-0.77-5.4-1.14c0.67-1.48,1.44-2.89,2.42-4.18
		c0.76,0.09,1.44-0.14,2.17-0.37c2.23-0.71,4.47-1.42,6.85-1.43C264.05,324.89,263.93,327.66,263.65,330.41z"/>
	<path class="st2" d="M272.85,332.29c0.35-0.8,0.87-1.21,1.84-1.15c1.68,0.1,3.38-0.03,5.06,0.04c2.44,0.1,4.85-0.19,7.27-0.36
		c0.15,1.24,0.24,2.48-0.1,3.71c-3.95,0.66-7.93,0.37-11.9,0.42c-0.74,0.01-1.5,0.08-2.17-0.37c0-0.38,0-0.77-0.01-1.15
		c0.04-0.03,0.13-0.08,0.13-0.1c-0.03-0.09-0.08-0.18-0.13-0.26C272.85,332.8,272.85,332.54,272.85,332.29z"/>
	<path class="st2" d="M264.69,322.19c-2.38,0-4.62,0.72-6.85,1.43c-0.72,0.23-1.41,0.46-2.17,0.37c1.09-1.85,2.49-3.43,4.1-4.84
		c0.24-0.01,0.49-0.01,0.73-0.03c0.29-0.03,0.66,0.06,0.8-0.28c0.17-0.44-0.2-0.64-0.5-0.84c-0.11-1.51-0.12-3.02,0-4.52
		c0.31,0.03,0.6,0.11,0.83,0.34c1.19,1.14,2.28,2.38,3.67,3.3c0.41,0.27,0.7,0.69,0.7,1.23
		C265.57,319.61,265.13,320.9,264.69,322.19z"/>
	<path class="st2" d="M285.54,321.33c-3.31-0.01-6.6-0.55-9.92-0.35c-0.39,0.02-0.74-0.09-0.99-0.43c1.08-2.36,2.8-3.68,5.53-3.53
		C283.01,317.19,284.7,318.71,285.54,321.33z"/>
	<path class="st0" d="M272.85,333.06c0.04,0.09,0.1,0.17,0.13,0.26c0.01,0.02-0.08,0.07-0.13,0.1
		C272.85,333.3,272.85,333.18,272.85,333.06z"/>
	<path class="st0" d="M212.75,309.4c0.94-0.07,1.9-0.38,2.77,0.28C214.59,309.68,213.65,309.7,212.75,309.4z"/>
	<path class="st0" d="M226.91,320.24c0.36,0.35,0.3,0.77,0.2,1.19C226.75,321.08,226.84,320.66,226.91,320.24z"/>
	<path class="st2" d="M248.29,322.12c-1.82-0.41-3.14-1.67-4.7-2.66c0.96-0.3,5.37-0.48,6.1-0.28c0.34,0.1,0.45,0.39,0.53,0.7
		C249.69,320.73,249.22,321.62,248.29,322.12z"/>
	<path class="st0" d="M260.79,317.98c0.3,0.2,0.67,0.4,0.5,0.84c-0.13,0.34-0.51,0.25-0.8,0.28c-0.24,0.03-0.48,0.02-0.73,0.03
		C260.11,318.75,260.45,318.37,260.79,317.98z"/>
</g>
</svg>
