<?xml version="1.0" encoding="utf-8"?>
<!-- Generator: Adobe Illustrator 27.0.0, SVG Export Plug-In . SVG Version: 6.00 Build 0)  -->
<svg version="1.1" id="Layer_1" xmlns="http://www.w3.org/2000/svg" xmlns:xlink="http://www.w3.org/1999/xlink" x="0px" y="0px"
	 viewBox="0 0 573 499" style="enable-background:new 0 0 573 499;" xml:space="preserve">
<style type="text/css">
	.st0{fill:url(#SVGID_1_);}
	.st1{fill:url(#SVGID_00000093871531407701469010000005597083964609100191_);}
	.st2{clip-path:url(#SVGID_00000029759860050566914730000000883398320103123355_);}
	.st3{fill:#FFFFFF;}
	.st4{fill:url(#SVGID_00000083062198864822383820000002122987464232401283_);}
	.st5{fill:url(#SVGID_00000004543581065061144570000015980721461127223221_);}
	.st6{fill:url(#SVGID_00000165227809399435642350000012328639443749711753_);}
	.st7{fill-rule:evenodd;clip-rule:evenodd;fill:#00529B;}
	.st8{fill:#00529B;}
	.st9{fill:url(#SVGID_00000070806814864293520950000003552677522613142173_);}
</style>
<g id="MAKE_IN_INDIA">
	<linearGradient id="SVGID_1_" gradientUnits="userSpaceOnUse" x1="495.1382" y1="-178.9483" x2="171.5582" y2="503.9177">
		<stop  offset="0" style="stop-color:#E8E7E7"/>
		<stop  offset="0.2539" style="stop-color:#FFFFFF"/>
		<stop  offset="0.5104" style="stop-color:#929292"/>
		<stop  offset="0.5274" style="stop-color:#9A9A9A"/>
		<stop  offset="0.6523" style="stop-color:#D4D4D4"/>
		<stop  offset="0.7124" style="stop-color:#EAEAEA"/>
		<stop  offset="0.8869" style="stop-color:#8E8E8E"/>
		<stop  offset="1" style="stop-color:#C6C5C4"/>
	</linearGradient>
	<circle class="st0" cx="294.01" cy="245.5" r="223.99"/>
	
		<linearGradient id="SVGID_00000065765219807671507740000014701876685490064003_" gradientUnits="userSpaceOnUse" x1="294.011" y1="468.0066" x2="294.011" y2="23.9203">
		<stop  offset="0" style="stop-color:#C3C3C3"/>
		<stop  offset="0.0692" style="stop-color:#BBBBBB"/>
		<stop  offset="0.1743" style="stop-color:#A7A6A7"/>
		<stop  offset="0.3023" style="stop-color:#848484"/>
		<stop  offset="0.4471" style="stop-color:#565556"/>
		<stop  offset="0.4767" style="stop-color:#4B4A4B"/>
		<stop  offset="0.4816" style="stop-color:#8F8E8F"/>
		<stop  offset="0.4856" style="stop-color:#C3C3C3"/>
		<stop  offset="0.5594" style="stop-color:#D0D0D0"/>
		<stop  offset="0.7" style="stop-color:#E3E3E3"/>
		<stop  offset="0.845" style="stop-color:#EEEEEE"/>
		<stop  offset="1" style="stop-color:#F2F2F2"/>
	</linearGradient>
	<circle style="fill:url(#SVGID_00000065765219807671507740000014701876685490064003_);" cx="294.01" cy="245.5" r="221.39"/>
	<g>
		<defs>
			
				<ellipse id="SVGID_00000061437103482731126750000004952870927951045261_" transform="matrix(0.7071 -0.7071 0.7071 0.7071 -87.4809 279.8024)" cx="294.01" cy="245.5" rx="206.12" ry="206.12"/>
		</defs>
		<clipPath id="SVGID_00000112611422500041385460000007421354669885165742_">
			<use xlink:href="#SVGID_00000061437103482731126750000004952870927951045261_"  style="overflow:visible;"/>
		</clipPath>
		<g style="clip-path:url(#SVGID_00000112611422500041385460000007421354669885165742_);">
			<g>
				<rect x="70.55" y="19.37" class="st3" width="446.32" height="452.27"/>
				
					<radialGradient id="SVGID_00000067915344840979663030000010698106320029789876_" cx="293.7064" cy="245.4999" r="224.6514" gradientUnits="userSpaceOnUse">
					<stop  offset="0" style="stop-color:#FFFFFF"/>
					<stop  offset="1" style="stop-color:#ECECEC"/>
				</radialGradient>
				
					<rect x="70.55" y="19.37" style="fill:url(#SVGID_00000067915344840979663030000010698106320029789876_);" width="446.32" height="452.27"/>
				
					<radialGradient id="SVGID_00000031898255388968952350000002652346259113191084_" cx="300.0485" cy="254.89" r="227.6324" gradientUnits="userSpaceOnUse">
					<stop  offset="0.4184" style="stop-color:#50B748"/>
					<stop  offset="0.5193" style="stop-color:#4EB146"/>
					<stop  offset="0.6508" style="stop-color:#47A141"/>
					<stop  offset="0.7992" style="stop-color:#3C8639"/>
					<stop  offset="0.959" style="stop-color:#2D612D"/>
					<stop  offset="1" style="stop-color:#29562A"/>
				</radialGradient>
				
					<rect x="70.55" y="321.37" style="fill:url(#SVGID_00000031898255388968952350000002652346259113191084_);" width="446.32" height="150.26"/>
				
					<radialGradient id="SVGID_00000062893061532090529490000004563135699409113480_" cx="298.9327" cy="241.5005" r="228.7479" gradientUnits="userSpaceOnUse">
					<stop  offset="0.043" style="stop-color:#FFC807"/>
					<stop  offset="0.2136" style="stop-color:#FEC209"/>
					<stop  offset="0.4456" style="stop-color:#FCB00E"/>
					<stop  offset="0.713" style="stop-color:#F89416"/>
					<stop  offset="1" style="stop-color:#F26D21"/>
				</radialGradient>
				
					<rect x="70.55" y="19.37" style="fill:url(#SVGID_00000062893061532090529490000004563135699409113480_);" width="446.32" height="150.26"/>
			</g>
			<g id="Make_In_IndiA_00000044145125309702107310000011268705194957772717_">
				<path class="st7" d="M448.01,224.62c-0.23,1.6-1.26,3.02-2.68,3.71c-0.54,0.26-1.1,0.4-1.67,0.43c-0.32,1.97-1.38,3.4-3.15,4.26
					c-2.03,0.98-4.69,1.08-7.26,1.18c-3.38,0.13-8.03,0.42-11.22,1.48c-3.11,4.35,2.28,6.07,4.95,2.35c2.77,1.13,6.63,3.62,4.4,6.93
					c-0.2,0.3-0.41,0.61-0.62,1.03c-0.51,1.02-0.46,2.27-0.41,3.58c0.06,1.36,0.11,2.76-0.42,4.11c-0.4,1.01-1.06,1.75-1.95,2.18
					c-1.38,0.66-3.02,0.5-4.6,0.34c-0.72-0.07-1.4-0.14-2.02-0.13l-0.81,0.02l-0.23-0.78c-0.26-0.88-0.32-1.56-0.35-2.07
					c-0.03-0.36-0.05-0.6-0.14-0.81c-0.09-0.11-0.17-0.22-0.26-0.34c-0.18-0.16-0.45-0.33-0.86-0.55l-0.05-0.02
					c-0.52-0.28-0.88-0.44-1.13-0.53h0l0,0c-0.11-1.49-0.35-2.98-0.84-4.43c-0.37-1.07-0.88-2.1-1.51-3.05
					c-0.64-0.95-1.41-1.8-2.25-2.56c-0.83-0.76-1.71-1.44-2.57-2.1c-0.87-0.67-1.72-1.32-2.5-2.02c-0.78-0.7-1.51-1.43-2.1-2.24
					c-0.3-0.4-0.56-0.83-0.77-1.25c-0.23-0.46-0.42-0.93-0.58-1.41c-0.34-0.95-0.53-1.95-0.58-2.95c-0.06-1.01,0.04-2.03,0.22-3.05
					c0.36-2.05,1.16-4.04,1.95-6.06c0.81-2.01,1.67-4.05,2.26-6.2c0.58-2.14,0.87-4.42,0.43-6.58c0.04,2.19-0.47,4.31-1.26,6.31
					c-0.77,2.01-1.77,3.92-2.7,5.91c-0.94,1.97-1.83,4.04-2.33,6.28c-0.25,1.12-0.36,2.29-0.31,3.46c0.05,1.17,0.26,2.34,0.64,3.46
					c0.19,0.55,0.42,1.1,0.67,1.61c0.28,0.55,0.59,1.04,0.95,1.52c0.71,0.94,1.55,1.76,2.42,2.48c1.75,1.43,3.61,2.59,5.27,3.9
					c1.64,1.3,2.99,2.94,3.85,4.87c0.63,1.35,1.13,2.91,1.45,4.39l0.01-0.01c0.15,0.62,0.28,1.23,0.4,1.85
					c0.5,2,0.64,3.52-1.84,6.05c-0.63,0.65-1.49,1.2-2.31,1.74c-0.42,0.27-0.8,0.53-1.15,0.77c-0.7,0.62-1.34,1.3-1.79,2.2
					c-0.01,0.09-0.01,0.17-0.01,0.25l0.11,2.31l-1.83-1.4c-1.56-1.2-2.29-2.89-3-4.52c-0.52-1.19-0.98-2.27-1.71-3.08
					c-0.84,2.23-2.68,4.65-4.01,5.94c-0.6,0.58-1.23,1.24-1.85,1.87c-1,1.03-2.03,2.1-3,2.92l-1.17,0.99l-0.53-1.45
					c-0.28-0.79-0.27-2.04-0.25-3.49c0-0.4,0.01-0.91,0-1.41l-0.02,0l0.02,0c0.37-1.05,0.6-2.16,0.73-3.27
					c0.23-2.11,0.08-4.28-0.59-6.35c-0.17-0.51-0.39-1.03-0.63-1.49c-0.24-0.48-0.48-0.95-0.75-1.42c-0.53-0.92-1.12-1.82-1.74-2.67
					c-1.25-1.73-2.65-3.32-4.09-4.86c-2.87-3.11-6.18-5.79-9.48-8.36l-4.99-3.8c-0.83-0.64-1.64-1.27-2.45-1.93l-2.45-1.95
					c-3.26-2.57-6.43-5.25-8.83-8.52c-1.21-1.62-2.21-3.39-2.94-5.27c-0.73-1.88-1.19-3.87-1.41-5.89c-0.23-2.02-0.2-4.08-0.04-6.13
					c0.08-1.03,0.21-2.05,0.37-3.07c0.16-1.01,0.39-2,0.71-2.97c0.61-1.95,1.57-3.8,2.92-5.35c1.34-1.55,3.09-2.76,5.07-3.45
					c-1.01,0.26-2,0.66-2.91,1.18c-0.92,0.53-1.77,1.19-2.52,1.94c-1.51,1.51-2.62,3.4-3.38,5.4c-0.38,1-0.67,2.04-0.89,3.08
					c-0.21,1.04-0.39,2.08-0.52,3.13c-0.28,2.11-0.35,4.25-0.19,6.39c0.16,2.14,0.58,4.27,1.34,6.31c0.74,2.04,1.78,3.96,3.03,5.71
					c1.26,1.76,2.73,3.34,4.27,4.8c1.55,1.46,3.18,2.81,4.81,4.12l2.47,1.94c0.82,0.65,1.66,1.3,2.49,1.93l5.02,3.76
					c1.67,1.25,3.32,2.51,4.91,3.83c1.59,1.33,3.12,2.7,4.59,4.16c1.47,1.47,2.88,2.98,4.16,4.59c0.63,0.8,1.24,1.64,1.79,2.5
					c0.54,0.87,1.07,1.76,1.43,2.69c0.74,1.87,1,3.96,0.92,6.01c-0.04,1.03-0.18,2.06-0.43,3.06c-0.01,0.05-0.1,0.19-0.11,0.23
					l0.02,0c-0.06,0.09-0.13,0.19-0.21,0.3c-0.75,1.18-1.18,2.6-1.65,4.1c-0.61,1.97-1.23,4.01-2.65,5.64
					c-0.74,0.84-1.65,1.61-2.52,2.35c-0.35,0.3-0.69,0.59-1.01,0.87c-0.38,0.25-0.79,0.44-1.18,0.65c0,0.06-0.01,0.22-0.05,0.61
					l0.05-0.61c-0.07,0.04-0.19,0.15-0.26,0.19c-0.23,0.11-0.46,0.22-0.68,0.33c-0.99,0.45-2,0.88-3.03,1.22
					c-0.52,0.18-1.03,0.33-1.55,0.46c-0.1,0.02-0.2,0.04-0.29,0.06c0.92-1.1,1.62-2.4,2.02-3.77c0.54-1.8,0.61-3.7,0.42-5.53
					c-0.21-1.84-0.67-3.63-1.35-5.34c-0.68-1.71-1.55-3.34-2.6-4.85c-0.53-0.76-1.1-1.49-1.73-2.18c-0.62-0.68-1.27-1.31-1.94-1.92
					c-1.34-1.23-2.75-2.36-4.18-3.44c-2.87-2.17-5.87-4.09-8.66-6.21c-2.8-2.12-5.42-4.43-7.49-7.21c-0.51-0.69-1-1.41-1.43-2.14
					c-0.44-0.75-0.85-1.51-1.24-2.29c-0.78-1.56-1.42-3.19-1.95-4.85c-0.53-1.67-0.98-3.36-1.3-5.09c-0.33-1.73-0.53-3.48-0.64-5.23
					c-0.19-3.51,0.08-7.07,1.05-10.5c-1.28,3.33-1.81,6.93-1.82,10.52c-0.01,1.8,0.13,3.6,0.38,5.38c0.25,1.79,0.61,3.56,1.11,5.29
					c0.49,1.74,1.1,3.44,1.85,5.1c0.37,0.82,0.78,1.65,1.23,2.43c0.47,0.81,0.95,1.57,1.49,2.32c1.07,1.49,2.28,2.86,3.58,4.14
					c1.3,1.27,2.7,2.42,4.13,3.52c2.86,2.19,5.84,4.15,8.67,6.24c1.16,0.87,1.94,1.37,4.08,3.3c0.64,0.58,1.27,1.19,1.87,1.81
					c0.58,0.61,1.12,1.27,1.63,1.96c1,1.39,1.85,2.9,2.52,4.49c0.66,1.58,1.18,3.23,1.42,4.93c0.25,1.69,0.21,3.41-0.19,5.05
					c-0.4,1.63-1.23,3.15-2.43,4.36l-0.84,0.85l1.17-0.05c0.62-0.03,1.18-0.17,1.72-0.34c0.55-0.16,1.07-0.36,1.59-0.57
					c1.03-0.43,2.04-0.91,3.02-1.44c0.21-0.12,0.43-0.25,0.65-0.37v0c0.11,0.47,0.23,0.93,0.35,1.42c0.52,2.06,0.77,4.2,1.01,6.28
					c0.2,1.65,0.39,3.35,0.73,4.97c0.44,2.16,1.96,4.41,3.43,6.59c1.82,2.7,3.71,5.5,3.86,8.47c1,0.26,3.37,0.53,4.6,0.68
					c1.47,0.17,2.02,0.24,2.33,0.33c2.35,0.73,2.77,0.95,3.35,2.41c0.13,0.34,0.31,0.78,0.64,1.39c0.12,0.23,0.3,0.52,0.48,0.81
					c0.58,0.94,1.22,2,1.43,3.05c0.31,1.62,0.04,2.97-0.81,4.01c-1.2,1.45-3.46,2.16-6.91,2.16c-1.39,0-2.72-0.11-3.79-0.2
					l-0.63-0.05c-0.91-0.07-1.93-0.09-3.01-0.11c-2.21-0.04-4.5-0.08-6.37-0.55c-3.76-0.94-4.31-3.12-4.88-5.43
					c-0.17-0.68-0.34-1.37-0.6-2.12c-0.59-1.65-2.09-2.46-3.82-3.39c-1.64-0.88-3.34-1.79-4.41-3.53c-0.5-0.81-0.8-1.59-1.09-2.34
					c-0.42-1.08-0.82-2.1-1.79-3.12c-0.74-0.79-1.57-1.47-2.44-2.2c-1.28-1.07-2.61-2.17-3.66-3.61c-2.2-2.99-4.97-6.95-6.91-11.15
					c-0.2-0.4-0.35-0.82-0.52-1.27l-0.01-0.01c-1.03-1.22-2.23-2.27-3.74-2.96c-0.27-0.12-0.55-0.24-0.84-0.34
					c-0.1,0.01-0.2,0.03-0.3,0.04c-0.58,0.08-1.18,0.15-1.77,0.15c-4.2-0.01-7.72-1.44-10.78-4.34c-0.44-0.43-0.84-0.9-1.22-1.38
					c-0.76-0.94-1.33-1.58-1.98-1.82l0.02-0.01l0.02-0.01l0,0l0,0c-0.08-0.03-0.18-0.05-0.28-0.07c-0.06-0.01-0.13-0.02-0.2-0.03
					c0.07,0.01,0.14,0.02,0.2,0.03c0.11,0.02,0.2,0.04,0.28,0.07c0.74-0.42,1.5-0.78,2.29-1.13c0.91-0.42,1.85-0.81,2.79-1.24
					c0.94-0.44,1.89-0.92,2.78-1.54c1.76-1.2,3.34-2.76,4.45-4.59c1.12-1.84,1.77-3.86,2.09-5.91c-1.02,1.81-2.01,3.58-3.24,5.11
					c-1.22,1.53-2.68,2.82-4.3,3.92c-1.57,1.08-3.45,1.93-5.22,3.02c-0.89,0.55-1.77,1.16-2.54,1.9l0.03,0.02
					c-0.18,0.15-0.4,0.36-0.7,0.67l0.03,0.01c-0.07,0.07-0.13,0.15-0.19,0.22c-1.07,0.92-2.35,2.82-2.91,3.66
					c-0.17,0.25-0.32,0.48-0.45,0.67c-1.43,2.04-2.65,4.3-3.83,6.48c-1.21,2.25-2.47,4.59-3.99,6.74c-0.65,0.92-1.33,1.84-1.98,2.73
					c-1.68,2.27-3.4,4.61-4.73,7.1c-1.02,1.93-1.66,3.69-1.94,5.38c-0.32,1.84-0.36,2.79-0.34,3.25c0.32-0.03,0.66-0.06,0.94,0.01
					c1.1,0.24,1.93,1.06,2.34,1.52c0.4,0.47,0.57,0.98,0.69,1.35c0.05,0.16,0.11,0.32,0.16,0.41c0.09,0.03,0.3,0.05,0.44,0.07
					c0.17,0.02,0.36,0.04,0.57,0.08c0.74,0.16,1.44,0.43,2.11,0.69l0.31,0.12c1.27,0.49,3.01,1.16,3.7,2.63
					c0.72,1.51,0.82,2.76,0.3,3.83c-0.88,1.84-3.36,2.42-5.36,2.89c-2.29,0.53-5.78,1.17-9.4,1.17c-3.02,0-5.58-0.45-7.61-1.33
					c-1.62-0.71-4.42-2.2-5.08-4.29c-0.6-1.89,0.25-3.35,0.94-4.53c0.25-0.42,0.48-0.82,0.64-1.22c0.28-0.68,0.34-1.02,0.36-1.16
					c-0.1-0.05-0.26-0.11-0.37-0.17c-0.54-0.24-1.28-0.57-2.02-1.33c-1.87-1.93-0.99-5.51-0.79-6.21c0.49-1.73,1.14-3.21,1.76-4.64
					c0.98-2.23,1.9-4.33,2.01-7.04c0.2-4.59,1.42-8.84,2.59-12.96c0.69-2.4,1.4-4.89,1.91-7.43c0.36-1.8,0.11-2.44-0.07-2.65
					c-0.21-0.25-0.68-0.38-1.42-0.38c-0.56,0-1.25,0.07-2.23,0.22c-1.55,0.24-3.34,0.35-5.48,0.35c-1.58,0-3.16-0.06-4.56-0.11
					c-0.5-0.02-1.01-0.03-1.53-0.03c-1.32-0.02-2.69-0.03-4.05-0.27c-2.63-0.46-5.43-1.62-8.15-2.75c-1.45-0.6-2.81-1.16-4.11-1.61
					c-0.92-0.31-1.87-0.72-2.88-1.15c-2.28-0.96-4.62-1.96-6.66-1.96l-0.13,0c-1.88,0.04-2.88,1.58-4.04,3.37
					c-0.34,0.52-0.69,1.06-1.07,1.57c-1.14,1.53-1.81,3.04-2.24,5.07c-0.21,1-0.39,2.01-0.59,3.07c-0.66,3.6-1.34,7.31-3.1,10.56
					c-0.47,0.87-1,1.69-1.51,2.48c-1.59,2.45-2.96,4.57-2.37,7.52c0.57,2.88,3.22,4.99,5.79,7.03c0.95,0.76,1.85,1.48,2.66,2.23
					c3.16,2.98,5.56,3.98,9.49,3.98c0.37,0,0.79-0.01,1.21-0.03c0.43-0.02,0.84-0.05,1.22-0.09c0.54-0.04,1.06-0.09,1.58-0.09
					c1.23,0,2.71,0.22,4.25,1.88c1.09,1.16,2.75,3.78,2.61,5.87c-0.28,3.98-5.23,4.1-8.84,4.19c-0.98,0.03-1.92,0.04-2.57,0.15
					c-0.77,0.11-1.54,0.24-2.35,0.37c-2.31,0.39-4.68,0.79-7.12,0.79c-1.07,0-2.05-0.07-3.01-0.22c-2.58-0.42-3.35-1.37-4.41-2.69
					c-0.28-0.34-0.59-0.73-0.98-1.16c-1.22-1.36-2.63-2.12-4.26-3c-0.29-0.16-0.6-0.32-0.9-0.49c-3.69-2.05-6.61-4.59-9.78-7.46
					c-0.69-0.63-1.49-1.3-2.35-2.02c-2.47-2.08-5.28-4.43-6.83-6.83c-1.74-2.68-1.15-6.25-0.64-9.39c0.19-1.14,0.36-2.21,0.41-3.13
					c0.25-4.94-0.38-8.81-1.97-12.16l-0.12-0.26c-0.43-0.91-1.15-2.43-2-2.79c-0.14-0.05-0.24-0.09-0.34-0.1l-0.25-0.02
					c-0.2,0.03-0.4,0.24-0.84,0.82c-0.47,0.61-1.05,1.38-2.04,1.89c-1.8,0.93-3.73,1.22-5.59,1.48c-2.19,0.32-4.25,0.62-5.85,1.96
					c-0.96,0.81-1.77,1.71-2.57,2.66c-1.39,2.87-4.3,5.58-6.66,6.71c-1.03,0.49-2.1,0.73-3.14,0.97c-0.03,0.01-0.06,0.02-0.08,0.02
					c-1.43,0.57-2.91,1.17-4.07,1.97c-2,1.38-3.16,3.42-4.37,5.75c-0.88,1.67-1.17,3.22-1.5,5.03c-0.15,0.84-0.32,1.69-0.54,2.61
					c-0.09,0.37-0.19,0.73-0.29,1.1c-0.56,2.13-1.1,4.16-0.48,6.17c0.61-0.03,1.25-0.28,1.93-0.54c0.95-0.37,2.06-0.8,3.3-0.69
					c2.44,0.19,4.66,1.83,6.29,3.03c1.74,1.28,2.99,3.87,3.04,6.3c0.04,1.86-0.63,3.44-1.88,4.45c-1.28,1.03-3.67,1.3-5.58,1.51
					c-0.43,0.05-0.82,0.09-1.12,0.14c-1.96,0.3-4.1,0.56-6.33,0.54c-0.24,0-0.49,0-0.74-0.01c-3.67-0.02-8.71-0.06-10.27-4.26
					c-0.68-1.83-1.03-3.59-1.37-5.29c-0.56-2.77-1.08-5.37-2.96-7.85c-2.49-3.3-1.96-6.44-1.4-9.76c0.11-0.65,0.23-1.33,0.32-2.02
					c0.34-2.45,0.5-4.51,0.16-6.56c-0.08-0.47-0.28-1.08-0.5-1.73c-0.47-1.41-0.99-3.01-0.64-4.36c0.75-2.93,3.5-3.92,5.93-4.79
					c1.27-0.45,2.47-0.89,3.31-1.54c-0.88-6.49,2.09-13.14,4.49-18.52c0.74-1.67,1.33-3.44,1.97-5.32c1.03-3.08,2.1-6.26,3.87-8.93
					l0.62-0.94c2.01-3.02,4.08-6.15,5.96-9.31c0.27-0.45,0.54-0.89,0.8-1.31c1.09-1.78,2.12-3.46,2.87-5.5
					c1.06-2.87,2.15-5.15,3.53-7.29c-2.73,0.15-7.92,0.21-18.02,0.32c-9.67,0.1-20.62,0.21-22.82,0.56
					c-6.41,1.04-21.93,4.74-27.81,16.72c-2.15,4.38-3.3,11.46-0.76,16.67c1.85,3.8,8.04,10.14,11.87,10.47
					c0.51,0.04,1,0.08,1.47,0.12c4.81,0.4,7.99,0.66,12.58,3.76c3.09,2.09,6.43,5.25,10.2,9.66l1.11,1.31l-1.66,0.43
					c-4.1,1.06-8.34,2.15-12.53,2.15c-2.98,0-5.71-0.54-8.34-1.65c-3.27-1.38-5.43-2.3-6.99-5.74c-0.17-0.37-0.23-0.87-0.33-1.8
					c-0.06-0.51-0.15-1.4-0.27-1.82c-6.94-2.5-11.83-6.71-14.54-12.52c-2.49-5.36-3.03-11.84-1.6-19.26
					c1.09-5.67,4.08-10.65,8.63-14.39c15.98-13.15,34.61-14,54.32-14.89l2.58-0.12c8.4-0.39,14.81-1.66,22.87-4.51
					c8.96-3.17,16.49-5.63,24.91-6.08l0.18-0.01c2.2-0.11,4.53-0.16,6.94-0.16c7.14,0,14.38,0.48,21.37,0.94
					c6.96,0.46,14.16,0.93,21.24,0.93c0.89,0,1.78,0,2.68-0.02c9.2-0.17,18.34-1.66,27.18-3.12c3.77-0.62,7.67-1.26,11.54-1.79
					l0.45-0.06c5.15-0.71,10.13-1.97,15.2-2.89c0.18-0.03,0.35-0.07,0.52-0.11c-0.01,0.01-0.02,0.02-0.04,0.03h0
					c-0.26,0.19-0.52,0.4-0.77,0.6c-0.77,0.66-1.5,1.36-2.19,2.12c-0.67,0.77-1.29,1.57-1.87,2.41c-0.58,0.84-1.08,1.73-1.55,2.63
					c-0.47,0.91-0.89,1.84-1.24,2.8c-0.35,0.96-0.65,1.94-0.89,2.94c-0.12,0.5-0.22,1-0.32,1.51l-0.24,1.47
					c-0.63,3.86-1.43,7.72-3.02,11.22c-0.82,1.73-1.84,3.38-3.31,4.58c-0.73,0.61-1.57,1.07-2.49,1.37c-0.92,0.3-1.9,0.41-2.89,0.39
					c0.97,0.21,2,0.26,3.01,0.08c1.01-0.17,1.99-0.59,2.87-1.15c0.87-0.57,1.63-1.3,2.3-2.09c0.67-0.79,1.22-1.66,1.72-2.56
					c0.99-1.79,1.69-3.71,2.26-5.65c0.29-0.97,0.53-1.95,0.75-2.93c0.22-0.98,0.4-1.97,0.57-2.96l0.24-1.47
					c0.08-0.47,0.17-0.93,0.27-1.4c0.21-0.93,0.48-1.85,0.79-2.76c0.31-0.91,0.65-1.8,1.06-2.68c0.4-0.88,0.85-1.73,1.33-2.57
					c0.48-0.83,1.01-1.64,1.6-2.41c0.57-0.78,1.19-1.52,1.87-2.22c0.49-0.53,1.02-1.03,1.57-1.5l0.01-0.04l0.07-0.01
					c0.49-0.42,1-0.82,1.54-1.2c0.34-0.19,0.69-0.38,1.04-0.57c1.43-0.77,2.13-1.8,2.99-3.09c0.45-0.67,0.91-1.36,1.51-2.07
					c1.24-1.45,2.67-2.93,4.7-3.91c0.59-0.29,1.2-0.52,1.87-0.71c2.61-0.74,5.19-1.41,8.12-1.34c0.46,0.01,0.9,0.01,1.32,0.02
					c1.69,0.01,3.29,0.02,5.19,0.5c1.58,0.4,2.82,0.26,4.54-0.51c1.05-0.48,2.09-1,3.14-1.52c0.61-0.3,1.22-0.61,1.81-0.9
					c3.37-1.63,7.34-3.3,12.01-2.43c2.28,0.42,4.56,0.04,6.98-0.38c0.17-0.03,0.34-0.07,0.5-0.1l0.01,0.01
					c2.27-0.39,4.6-0.76,7.04-0.43c1.82,0.25,3.59,0.59,5.25,2.17c0.72,0.69,1.15,1.58,1.54,2.37c0.27,0.56,0.58,1.19,0.84,1.35
					c0.5,0.32,1.24,0.47,2.01,0.64c1.1,0.23,2.35,0.5,3.44,1.33c1.74,1.32,3.13,3.33,4.04,5.81c0.28,0.75,0.44,1.6,0.63,2.52
					c0.68,3.39,1.27,4.94,3.67,4.6c0.25-0.04,0.52-0.13,0.82-0.27c0.73-0.36,1.53-1.03,2.1-1.75l1.66-2.14l0.25,2.7
					c0.22,2.29-0.59,4.17-2.29,5.38c1.19,0.96,2.75,2.41,4.04,4.24c0.51,0.67,0.92,1.42,1.31,2.14c0.14,0.25,0.27,0.49,0.4,0.74
					l-0.1,0.07c0.26,0.66,0.47,1.34,0.62,2.06c0.15,0.8,0.17,1.21,0.17,1.48c0,0.07,0,0.11,0.01,0.16c0.04,0.15,0.47,0.84,0.73,1.26
					c0.58,0.95,1.46,1.9,2.3,2.81c0.23,0.25,0.45,0.49,0.66,0.72c1.01,1.13,1.91,2.18,2.78,3.21c1.71,2.01,3.32,3.92,5.49,5.95
					c0.27,0.25,0.52,0.48,0.75,0.68C447.22,221.15,448.38,222.18,448.01,224.62L448.01,224.62z M332.76,270.02
					c-0.09,0-0.18,0.01-0.27,0.02l-0.02,0.02l0.02-0.02C332.58,270.03,332.67,270.03,332.76,270.02L332.76,270.02z M419.33,197.13
					c-1.1,0.41-2.26,0.66-3.43,0.85c-2.35,0.39-4.82,0.52-7.31,1.31c-0.61,0.21-1.22,0.45-1.81,0.76c-0.59,0.31-1.16,0.69-1.67,1.13
					c-1.03,0.88-1.82,2.03-2.3,3.24c-0.26,0.62-0.42,1.27-0.5,1.94c-0.08,0.67-0.04,1.35,0.13,2c0.18,0.64,0.48,1.26,0.91,1.75
					c0.43,0.49,0.96,0.86,1.53,1.11c-0.46-0.41-0.86-0.88-1.12-1.39c-0.27-0.51-0.43-1.06-0.46-1.62c-0.08-1.11,0.25-2.21,0.77-3.19
					c0.54-1,1.24-1.87,2.11-2.53c0.86-0.67,1.87-1.14,2.97-1.49c2.19-0.71,4.63-0.97,7.05-1.64c1.21-0.33,2.42-0.77,3.52-1.43
					c1.09-0.66,2.06-1.55,2.69-2.62C421.47,196.12,420.44,196.73,419.33,197.13L419.33,197.13z M217.24,266.95
					c0,0,9.81-18.05,28.32-18.76C245.56,248.19,226.47,245.05,217.24,266.95L217.24,266.95z M248.59,237.16
					c-0.31-5.43,0.67-10.07-1.74-16.07c-0.39-0.96-1.25-1.6-2.04-2.27c4.18,3.58,1.29,12.21,3.08,22.93
					c1.79,10.73,14.63,16.9,14.63,16.9c-1.99-1.48-3.91-3.08-5.67-4.84C252.29,249.28,248.96,243.68,248.59,237.16L248.59,237.16z
					 M307.64,252.69c-0.66,1.14-1.04,2.41-1.28,3.67c-0.45,2.55-0.39,5.12-0.07,7.65c0.05,0.32,0.1,0.62,0.13,0.91
					c0.04,0.29,0.07,0.59,0.09,0.88c0.06,0.59,0.07,1.19,0.07,1.78c0,1.19-0.08,2.4-0.23,3.6c-0.26,2.42-0.79,4.88-0.92,7.4
					c0.86-2.35,1.75-4.67,2.32-7.16c0.28-1.24,0.46-2.51,0.53-3.8c0.03-0.65,0.03-1.29,0-1.94c-0.02-0.33-0.06-0.65-0.09-0.97
					c-0.03-0.33-0.08-0.64-0.12-0.94c-0.31-2.4-0.49-4.83-0.32-7.22c0.09-1.19,0.28-2.37,0.68-3.48c0.4-1.11,1.07-2.13,2.13-2.82
					c-0.61,0.16-1.19,0.49-1.68,0.92C308.39,251.59,307.99,252.13,307.64,252.69L307.64,252.69z"/>
				<polygon class="st3" points="219.69,250.35 219.69,237.48 218.1,243.39 212.83,243.39 211.28,237.52 211.28,250.35 
					205.78,250.35 205.78,220.56 211.18,220.56 215.49,234.17 219.79,220.56 225.19,220.56 225.19,250.35 219.69,250.35 				"/>
				<path class="st8" d="M225.43,220.32h-0.47h-4.99h-0.35l-0.1,0.33l-4.03,12.73l-4.03-12.73l-0.1-0.33h-0.35h-4.98h-0.47v0.47
					v29.32v0.47h0.47h5.02h0.47v-0.47v-10.78l1.04,3.94l0.09,0.35h0.36h4.9h0.36l0.09-0.35l1.08-4.01v10.85v0.47h0.47h5.03h0.47
					v-0.47v-29.32V220.32L225.43,220.32z M224.95,220.79v29.32h-5.03V235.7l-2.01,7.45h-4.9l-1.97-7.45v14.41h-5.02v-29.32h4.98
					l4.48,14.16l4.48-14.16H224.95L224.95,220.79z"/>
				<path class="st3" d="M236.73,226.05h-3.17v10.08h3.17V226.05L236.73,226.05z M236.73,250.35v-8.71h-3.17v8.71h-5.5v-26.46
					c0-1.84,1.49-3.33,3.33-3.33h7.54c1.84,0,3.33,1.5,3.33,3.33v26.46H236.73L236.73,250.35z"/>
				<path class="st8" d="M233.8,226.29h2.7v9.61h-2.7V226.29L233.8,226.29z M238.94,220.32h-7.54c-1.97,0-3.57,1.6-3.57,3.57v26.22
					v0.47h0.47h5.02h0.47v-0.47v-8.24h2.7v8.24v0.47h0.47h5.07h0.47v-0.47v-20.4v-4.69v-1.13
					C242.51,221.92,240.91,220.32,238.94,220.32L238.94,220.32z M233.33,236.37h3.64v-10.56h-3.64V236.37L233.33,236.37z
					 M238.94,220.79c1.67,0,3.1,1.38,3.1,3.1v1.13v4.69v20.4h-5.07v-8.71h-3.64v8.71h-5.02v-26.22c0-1.72,1.38-3.1,3.1-3.1H238.94
					L238.94,220.79z"/>
				<polygon class="st3" points="254.17,250.35 254.08,250 250.37,238.16 250.31,238.16 250.31,250.35 244.81,250.35 244.81,220.56 
					250.31,220.56 250.31,232.57 254.14,220.56 259.74,220.56 254.98,235.41 259.74,250.35 254.17,250.35 				"/>
				<path class="st8" d="M260.07,220.32h-0.65h-5.11h-0.35l-0.1,0.33l-3.31,10.4v-10.26v-0.47h-0.47h-5.03h-0.47v0.47v29.32v0.47
					h0.47h5.03h0.47v-0.47v-10.58l3.31,10.55l0.04,0.15l0.09,0.35h0.37h5.06h0.65l-0.2-0.62l-4.65-14.55l4.65-14.48L260.07,220.32
					L260.07,220.32z M259.42,220.79l-4.69,14.62l4.69,14.7h-5.06l-0.04-0.17l-3.77-12.02h-0.46v12.19h-5.03v-29.32h5.03v12.11h0.38
					l3.85-12.11H259.42L259.42,220.79z"/>
				<polygon class="st3" points="260.69,250.35 260.69,220.56 274.9,220.56 274.9,226.05 266.19,226.05 266.19,232.66 
					273.14,232.66 273.14,238.16 266.19,238.16 266.19,244.81 274.9,244.81 274.9,250.35 260.69,250.35 				"/>
				<path class="st8" d="M275.14,220.32h-0.47h-13.74h-0.47v0.47v29.32v0.47h0.47h13.74h0.47v-0.47v-5.07v-0.47h-0.47h-8.24v-6.18
					h6.48h0.47v-0.47v-5.03v-0.47h-0.47h-6.48v-6.14h8.24h0.47v-0.47v-5.03V220.32L275.14,220.32z M274.67,220.79v5.03h-8.71v7.08
					h6.95v5.03h-6.95v7.12h8.71v5.07h-13.74v-29.32H274.67L274.67,220.79z"/>
				<polygon class="st3" points="283.9,220.56 289.39,220.56 289.39,250.35 283.9,250.35 283.9,220.56 				"/>
				<path class="st8" d="M289.63,220.32h-0.47h-5.02h-0.47v0.47v29.32v0.47h0.47h5.02h0.47v-0.47v-29.32V220.32L289.63,220.32z
					 M289.15,250.11h-5.02v-29.32h5.02V250.11L289.15,250.11z"/>
				<polygon class="st3" points="300.62,250.35 297.35,238.97 297.35,250.35 291.85,250.35 291.85,220.56 297.24,220.56 
					300.52,231.24 300.52,220.56 306.06,220.56 306.06,250.35 300.62,250.35 				"/>
				<path class="st8" d="M306.29,220.32h-0.47h-5.07h-0.47v0.47v8.87l-2.76-9.01l-0.1-0.33h-0.35h-4.98h-0.47v0.47v29.32v0.47h0.47
					h5.03h0.47v-0.47v-9.47l2.76,9.6l0.1,0.34h0.36h5.02h0.47v-0.47v-29.32V220.32L306.29,220.32z M305.82,220.79v29.32h-5.02
					l-3.69-12.82v12.82h-5.03v-29.32h4.98l3.69,12.02v-12.02H305.82L305.82,220.79z"/>
				<polygon class="st3" points="316.06,220.56 321.55,220.56 321.55,250.35 316.06,250.35 316.06,220.56 				"/>
				<path class="st8" d="M321.79,220.32h-0.47h-5.03h-0.47v0.47v29.32v0.47h0.47h5.03h0.47v-0.47v-29.32V220.32L321.79,220.32z
					 M321.32,250.11h-5.03v-29.32h5.03V250.11L321.32,250.11z"/>
				<polygon class="st3" points="332.78,250.35 329.51,238.97 329.51,250.35 324.01,250.35 324.01,220.56 329.41,220.56 
					332.69,231.24 332.69,220.56 338.22,220.56 338.22,250.35 332.78,250.35 				"/>
				<path class="st8" d="M338.46,220.32h-0.47h-5.07h-0.47v0.47v8.87l-2.76-9.01l-0.1-0.33h-0.35h-4.98h-0.47v0.47v29.32v0.47h0.47
					h5.03h0.47v-0.47v-9.47l2.76,9.6l0.1,0.34h0.36h5.03h0.47v-0.47v-29.32V220.32L338.46,220.32z M337.99,220.79v29.32h-5.03
					l-3.69-12.82v12.82h-5.03v-29.32h4.98l3.69,12.02v-12.02H337.99L337.99,220.79z"/>
				<path class="st3" d="M349.44,226.05h-3.18v18.76h3.18V226.05L349.44,226.05z M340.76,250.35v-29.79h10.88
					c1.84,0,3.34,1.5,3.34,3.33v23.12c0,1.81-1.53,3.34-3.34,3.34H340.76L340.76,250.35z"/>
				<path class="st8" d="M346.5,226.29h2.7v18.28h-2.7V226.29L346.5,226.29z M351.64,220.32H341h-0.47v0.47v29.32v0.47H341h10.64
					c1.94,0,3.57-1.64,3.57-3.57v-23.12C355.21,221.92,353.61,220.32,351.64,220.32L351.64,220.32z M346.03,245.05h3.65v-19.23
					h-3.65V245.05L346.03,245.05z M351.64,220.79c1.68,0,3.1,1.38,3.1,3.1v23.12c0,1.68-1.42,3.1-3.1,3.1H341v-29.32H351.64
					L351.64,220.79z"/>
				<polygon class="st3" points="357.77,220.56 363.26,220.56 363.26,250.35 357.77,250.35 357.77,220.56 				"/>
				<path class="st8" d="M363.5,220.32h-0.47H358h-0.47v0.47v29.32v0.47H358h5.02h0.47v-0.47v-29.32V220.32L363.5,220.32z
					 M363.03,250.11H358v-29.32h5.02V250.11L363.03,250.11z"/>
				<path class="st3" d="M374.4,226.05h-3.17v10.08h3.17V226.05L374.4,226.05z M374.4,250.35v-8.71h-3.17v8.71h-5.5v-26.46
					c0-1.84,1.5-3.33,3.33-3.33h7.54c1.84,0,3.34,1.5,3.34,3.33v26.46H374.4L374.4,250.35z"/>
				<path class="st8" d="M371.46,226.29h2.7v9.61h-2.7V226.29L371.46,226.29z M376.6,220.32h-7.54c-1.97,0-3.57,1.6-3.57,3.57v26.22
					v0.47h0.47h5.03h0.47v-0.47v-8.24h2.7v8.24v0.47h0.47h5.07h0.47v-0.47v-20.4v-4.69v-1.13
					C380.17,221.92,378.57,220.32,376.6,220.32L376.6,220.32z M370.99,236.37h3.64v-10.56h-3.64V236.37L370.99,236.37z
					 M376.6,220.79c1.68,0,3.1,1.38,3.1,3.1v1.13v4.69v20.4h-5.07v-8.71h-3.64v8.71h-5.03v-26.22c0-1.72,1.38-3.1,3.1-3.1H376.6
					L376.6,220.79z"/>
			</g>
		</g>
	</g>
	
		<radialGradient id="SVGID_00000134958855015219614560000001148614605576122753_" cx="294.0109" cy="245.5" r="206.1173" gradientUnits="userSpaceOnUse">
		<stop  offset="0.8408" style="stop-color:#FFFFFF"/>
		<stop  offset="0.9652" style="stop-color:#DFDFDF"/>
		<stop  offset="1" style="stop-color:#FFFFFF"/>
	</radialGradient>
	<circle style="fill:url(#SVGID_00000134958855015219614560000001148614605576122753_);" cx="294.01" cy="245.5" r="206.12"/>
	<g>
		<path class="st3" d="M145.53,346.47l2.91,3.43c-0.99,1.03-1.51,2.07-1.58,3.12c-0.06,1.05,0.31,2.15,1.12,3.3
			c0.85,1.21,1.74,1.96,2.65,2.24c0.91,0.28,1.68,0.19,2.32-0.26c0.41-0.29,0.67-0.66,0.77-1.13c0.11-0.46,0.04-1.09-0.2-1.89
			c-0.17-0.54-0.62-1.72-1.37-3.55c-0.96-2.35-1.38-4.17-1.28-5.46c0.15-1.82,0.91-3.21,2.28-4.18c0.88-0.62,1.9-0.93,3.05-0.94
			c1.15,0,2.28,0.36,3.4,1.09c1.12,0.73,2.18,1.81,3.19,3.25c1.65,2.34,2.41,4.44,2.29,6.3c-0.12,1.86-0.96,3.37-2.51,4.56
			l-2.81-3.66c0.78-0.79,1.18-1.59,1.19-2.39c0.02-0.81-0.35-1.74-1.09-2.8c-0.77-1.1-1.58-1.81-2.44-2.13
			c-0.55-0.21-1.05-0.16-1.5,0.16c-0.41,0.29-0.63,0.72-0.66,1.3c-0.04,0.74,0.39,2.16,1.28,4.28c0.89,2.12,1.43,3.77,1.61,4.95
			c0.19,1.18,0.08,2.28-0.31,3.3c-0.4,1.02-1.14,1.92-2.24,2.69c-0.99,0.7-2.13,1.06-3.42,1.07c-1.29,0.02-2.52-0.37-3.71-1.16
			c-1.19-0.79-2.35-1.99-3.49-3.62c-1.66-2.36-2.43-4.53-2.3-6.51C142.82,349.88,143.77,348.08,145.53,346.47z"/>
		<path class="st3" d="M154.18,369.95l15.5-14.49l11.55,12.36l-2.62,2.45l-8.41-9l-3.44,3.21l7.82,8.37l-2.61,2.44l-7.82-8.37
			l-4.22,3.94l8.7,9.32l-2.61,2.44L154.18,369.95z"/>
		<path class="st3" d="M170.25,386.45l13.41-16.22l3.55,2.94l-11.13,13.46l8.83,7.3l-2.28,2.76L170.25,386.45z"/>
		<path class="st3" d="M186.58,399.47l11.49-17.84l13.15,8.47l-1.94,3.02l-9.28-5.97l-2.72,4.22l8.01,5.16l-1.94,3.02l-8.01-5.16
			l-4.88,7.58L186.58,399.47z"/>
		<path class="st3" d="M214.49,409.18l1.69-3.7l7.81,3.57l-1.69,3.7L214.49,409.18z"/>
		<path class="st3" d="M232.34,422.8l5.84-20.4l9.32,2.67c2.34,0.67,4,1.34,4.95,2.01s1.62,1.57,1.99,2.69
			c0.37,1.12,0.38,2.28,0.04,3.49c-0.44,1.53-1.28,2.66-2.54,3.38c-1.25,0.72-2.88,0.93-4.88,0.64c0.81,0.79,1.44,1.59,1.88,2.39
			c0.45,0.8,0.97,2.14,1.57,4.03l1.54,4.75l-5.3-1.52l-1.93-5.36c-0.68-1.91-1.18-3.13-1.48-3.67c-0.3-0.53-0.66-0.94-1.09-1.23
			c-0.43-0.29-1.15-0.58-2.16-0.87l-0.9-0.26l-2.44,8.52L232.34,422.8z M240.14,412.3l3.28,0.94c2.13,0.61,3.48,0.9,4.05,0.89
			c0.58-0.02,1.07-0.18,1.49-0.51s0.71-0.79,0.89-1.4c0.2-0.69,0.16-1.3-0.12-1.83c-0.27-0.53-0.75-0.96-1.44-1.28
			c-0.35-0.15-1.42-0.48-3.21-0.99l-3.46-0.99L240.14,412.3z"/>
		<path class="st3" d="M256.14,429.13l3.2-20.97l16.73,2.55l-0.54,3.55l-12.17-1.86l-0.71,4.65l11.33,1.73l-0.54,3.53l-11.33-1.73
			l-0.87,5.71l12.6,1.92l-0.54,3.53L256.14,429.13z"/>
		<path class="st3" d="M278.76,432.16l0.77-21.03l4.6,0.17l-0.64,17.46l11.45,0.42l-0.13,3.57L278.76,432.16z"/>
		<path class="st3" d="M298.94,432.49l-0.88-21.2l4.6-0.19l0.88,21.2L298.94,432.49z"/>
		<path class="st3" d="M329.48,429.43l-4.97,0.66l-2.61-4.52l-9.04,1.19l-1.24,5.02l-4.85,0.64l6.04-22.2l4.83-0.64L329.48,429.43z
			 M319.97,422.22l-4.15-7.39l-2.03,8.21L319.97,422.22z"/>
		<path class="st3" d="M333.57,428.47l-5.52-20.49l4.33-1.17l12.71,11.25l-3.69-13.68l4.13-1.11l5.52,20.49l-4.46,1.2L334.1,414
			l3.6,13.36L333.57,428.47z"/>
		<path class="st3" d="M361.88,419.67l-6.66-16.32l-6.27,2.56l-1.36-3.32l16.79-6.85l1.36,3.32l-6.26,2.55l6.66,16.32L361.88,419.67
			z"/>
		<path class="st3" d="M384.25,409.07l-10.61-18.37l3.99-2.3l10.61,18.37L384.25,409.07z"/>
		<path class="st3" d="M393.18,403.97l-12.34-17.26l3.65-2.61l15.84,6.1l-8.24-11.53l3.48-2.49l12.34,17.26l-3.76,2.69l-15.53-5.91
			l8.04,11.26L393.18,403.97z"/>
		<path class="st3" d="M398.42,373.86l6.09-5.82c1.37-1.31,2.51-2.22,3.42-2.71c1.22-0.66,2.5-0.98,3.84-0.97
			c1.34,0.02,2.65,0.34,3.95,0.98c1.3,0.63,2.63,1.67,4.01,3.11c1.21,1.26,2.08,2.51,2.62,3.75c0.65,1.51,0.93,2.98,0.82,4.4
			c-0.08,1.08-0.47,2.23-1.17,3.46c-0.53,0.92-1.41,1.97-2.64,3.14l-6.27,5.99L398.42,373.86z M404.23,373.26l9.71,10.16l2.49-2.38
			c0.93-0.89,1.55-1.58,1.87-2.07c0.42-0.64,0.66-1.28,0.73-1.92c0.07-0.64-0.11-1.41-0.54-2.31c-0.43-0.9-1.21-1.95-2.35-3.13
			s-2.12-1.99-2.95-2.41c-0.83-0.42-1.62-0.61-2.37-0.58c-0.75,0.03-1.49,0.28-2.23,0.75c-0.56,0.35-1.52,1.17-2.87,2.47
			L404.23,373.26z"/>
		<path class="st3" d="M430.1,372.03l-16.15-13.77l2.99-3.51l16.15,13.77L430.1,372.03z"/>
		<path class="st3" d="M448.5,347.25l-2.84,4.13l-5.1-1.09l-5.16,7.52l2.91,4.28l-2.77,4.03l-12.46-19.34l2.76-4.02L448.5,347.25z
			 M436.77,349.49l-8.27-1.86l4.75,7L436.77,349.49z"/>
	</g>
	<g>
		<path class="st3" d="M169.47,129.83c1.06,0.22,2.03,0.44,2.91,0.66s1.67,0.49,2.37,0.81c1.37,0.56,2.31,1.21,2.82,1.96
			c0.8,1.17,1.01,2.51,0.62,4.02c-0.46,1.52-1.38,2.75-2.75,3.69c-2.02,1.38-4.98,1.66-8.87,0.82c-3.85-0.83-6.52-2.33-8-4.49
			c-0.26-0.37-0.36-0.78-0.3-1.22c0.07-0.48,0.29-0.85,0.66-1.11c0.24-0.17,0.55-0.21,0.92-0.14c0.39,0.1,0.72,0.27,1.01,0.52
			l1.15,1.68c1.45,1.42,3.08,2.3,4.89,2.63c1.78,0.35,3.32,0.08,4.61-0.8c0.94-0.65,1.52-1.5,1.74-2.56
			c0.25-1.08,0.08-2.05-0.5-2.89c-0.39-0.57-1.01-1.04-1.86-1.41c-0.81-0.32-1.76-0.49-2.85-0.52c-1.48,1.01-2.9,1.6-4.25,1.76
			c-1.37,0.25-2.31,0-2.83-0.75c-0.37-0.55-0.49-1.12-0.36-1.73c0.15-0.65,0.48-1.15,0.99-1.5c0.48-0.33,0.99-0.51,1.52-0.55
			c0.58-0.07,1.1,0.01,1.54,0.26c0.91-0.63,1.6-1.35,2.06-2.18c0.4-0.86,0.42-1.55,0.06-2.07c-0.43-0.62-1.12-0.97-2.08-1.04
			c-0.93-0.02-1.79,0.24-2.6,0.8c-0.62,0.42-1.22,0.99-1.81,1.68c-0.56,0.68-1.01,1.39-1.34,2.12c-0.83,0.35-1.73,0.47-2.71,0.38
			c-0.91-0.11-1.7-0.46-2.38-1.05c0.13-0.56,0.61-1.3,1.46-2.2c0.89-0.9,2.02-1.82,3.39-2.76c1.32-0.9,3.31-1.12,5.97-0.64
			c2.72,0.51,4.5,1.37,5.34,2.59c0.44,0.65,0.62,1.46,0.54,2.43C170.45,127.88,170.08,128.83,169.47,129.83z M194.28,134.26
			c0.63-0.07,1.16,0.08,1.58,0.45c0.43,0.36,0.66,0.83,0.69,1.39c0.02,0.61-0.17,1.14-0.57,1.59c-0.4,0.46-0.91,0.72-1.54,0.78
			c-0.37,0.04-0.72-0.02-1.05-0.15l-0.13-0.02c-0.32-0.18-0.58-0.41-0.76-0.68c-0.19-0.27-0.29-0.6-0.32-0.99
			c0-0.18-0.07-0.36-0.19-0.53c-0.12-0.17-0.49-0.23-1.12-0.16c-0.33,0.04-0.71,0.09-1.16,0.13c-0.44,0.05-0.87,0.09-1.29,0.11
			c-0.49,0.04-0.99,0.09-1.5,0.15l-4.51,0.52l0.04-0.03l0.08-0.06c0.03-0.02,0.03-0.04,0.01-0.06l0.04-0.03l0.04-0.03l0.01-0.06
			c0.03-0.02,0.04-0.03,0.03-0.05c-0.01-0.01,0-0.03,0.03-0.05l0.06-0.09l0.04-0.03l-0.02-0.04l0.04-0.03l-0.02-0.04l0.04-0.03
			l-0.02-0.04l0.04-0.03l0.01-0.06l-0.03-0.04l0.04-0.03c0.01-0.04,0.01-0.08,0.01-0.12c0-0.03,0-0.07,0.01-0.12l0.01-0.07
			c-0.02-0.02-0.02-0.06-0.01-0.1l0.01-0.07l-0.03-0.04c-0.02-0.02-0.02-0.04,0-0.05c0.01-0.01,0.01-0.03-0.01-0.05l-0.01-0.1
			l-0.02-0.04c-0.02-0.02-0.02-0.04-0.01-0.05c0.01-0.01,0.01-0.03,0-0.05l-0.05-0.07l-0.02-0.04l0.04-0.03l-0.03-0.04l-0.05-0.07
			l-0.03-0.04l-0.02-0.04l-0.03-0.04l-0.03-0.04l-0.08-0.11l-4.47-6.53c-0.1,0.14-0.19,0.28-0.28,0.41
			c-0.09,0.13-0.17,0.26-0.24,0.38c-0.19,0.24-0.34,0.4-0.45,0.47c-0.65,0.44-1.51,0.63-2.58,0.56c-1.1-0.05-1.81-0.31-2.14-0.78
			c-0.17-0.25-0.24-0.47-0.22-0.67c0.01-0.22,0.09-0.39,0.25-0.5c0.13-0.09,0.52-0.23,1.15-0.4c0.53-0.15,0.92-0.3,1.16-0.47
			c0.43-0.3,0.8-0.64,1.12-1.04c0.24-0.28,0.36-0.52,0.34-0.72l-4.5-6.56l-0.45,0.04l-4.68,0.53l-4.9,0.56
			c-0.63,0.07-1.16-0.08-1.6-0.44c-0.44-0.35-0.67-0.84-0.69-1.44c-0.02-0.61,0.17-1.13,0.58-1.58c0.41-0.44,0.92-0.71,1.53-0.8
			c0.6-0.05,1.12,0.11,1.56,0.46c0.44,0.36,0.67,0.84,0.69,1.44c0.01,0.14,0.07,0.3,0.18,0.48c0.11,0.18,0.48,0.26,1.13,0.21
			c0.11-0.01,0.27-0.03,0.46-0.07c0.19-0.04,0.44-0.07,0.74-0.09l13.57-9.3l1.94,2.83l-5.69,3.9l12.29,17.94
			c0.39,0.57,0.76,0.92,1.09,1.03c0.34,0.12,0.69,0.16,1.06,0.12l0.28-0.03c0.14-0.02,0.29-0.04,0.44-0.05
			c0.15-0.01,0.3-0.03,0.44-0.05L194.28,134.26z"/>
		<path class="st3" d="M206.55,129.56c0.38,0.41,0.54,0.91,0.48,1.48c-0.02,0.59-0.25,1.09-0.7,1.5c-0.45,0.41-0.99,0.61-1.62,0.6
			c-0.62,0.02-1.12-0.18-1.5-0.59c-0.38-0.41-0.57-0.91-0.55-1.5c0.02-0.18-0.02-0.36-0.12-0.55c-0.1-0.19-0.46-0.28-1.09-0.29
			c-0.33,0-0.73,0.01-1.18,0.01c-0.46,0-0.9,0-1.31-0.02c-0.49-0.01-0.99-0.02-1.51-0.02l-4.5-0.02c0.33-0.21,0.53-0.53,0.59-0.98
			c0.06-0.37-0.01-0.76-0.23-1.16l-8.98-16.98l-0.45-0.02l-4.71-0.01l-4.93,0c-0.63-0.01-1.15-0.21-1.54-0.62
			c-0.4-0.4-0.57-0.91-0.52-1.51c0.02-0.59,0.26-1.08,0.71-1.48c0.46-0.4,0.99-0.6,1.61-0.62c0.63,0.01,1.15,0.21,1.54,0.62
			c0.4,0.4,0.57,0.91,0.52,1.51c0,0.14,0.04,0.3,0.12,0.5c0.08,0.19,0.45,0.31,1.09,0.34c0.12,0.01,0.27,0,0.46-0.01
			c0.19-0.02,0.44-0.02,0.74-0.01l7.7-4.07l6.67,0.36l-4.33,2.29l10.16,19.22c0.32,0.61,0.65,1,0.97,1.15
			c0.32,0.15,0.67,0.23,1.04,0.24l0.28,0.01c0.14-0.01,0.29-0.01,0.44,0c0.15,0.01,0.28,0.01,0.4,0.02l2.71,0
			C205.66,128.94,206.17,129.14,206.55,129.56z"/>
		<path class="st3" d="M192.41,102.47l5.63-2.52l6.63,0.8l-10.86,4.86L192.41,102.47z M210.7,122.37c-0.21-0.07-0.44-0.14-0.68-0.19
			c-0.24-0.06-0.48-0.15-0.71-0.28c-2.39-1.27-4.37-2.62-5.93-4.03c-1.56-1.41-2.72-2.97-3.49-4.68c-0.62-1.38-0.52-2.8,0.28-4.29
			c0.79-1.51,2.04-2.64,3.73-3.4l6.17-2.76l1.4,3.14l-4.69,2.1c-1.46,0.65-2.52,1.57-3.17,2.75c-0.67,1.22-0.76,2.37-0.28,3.44
			c0.6,1.35,1.57,2.5,2.89,3.46c0.65,0.5,1.39,0.93,2.21,1.29c0.82,0.36,1.7,0.66,2.63,0.9c0.2,0.04,0.37,0.1,0.53,0.16
			c0.15,0.06,0.3,0.13,0.44,0.2c0.27,0.21,0.44,0.38,0.5,0.52c0.12,0.28,0.09,0.57-0.09,0.88c-0.11,0.31-0.34,0.55-0.7,0.71
			C211.53,122.39,211.18,122.41,210.7,122.37z"/>
		<path class="st3" d="M214.55,112.58c-1.73-0.84-2.92-2.16-3.57-3.94c-0.29-0.79-0.12-1.67,0.5-2.63c0.63-0.94,1.58-1.68,2.83-2.23
			l-2.22-6.12l-6.21,2.26l-1.17-3.23l8.83-3.21l6.46,1.3l-2.81,1.02l2.15,5.9l6.39-2.33l1.17,3.23l-6.39,2.33l1.37,3.78
			c0.28,0.76,0.22,1.57-0.16,2.42c-0.47,0.81-1.13,1.37-1.99,1.69C218.02,113.44,216.29,113.36,214.55,112.58z"/>
		<path class="st3" d="M243.28,115.86c0.29,0.48,0.35,1,0.17,1.55c-0.14,0.58-0.47,1.01-0.99,1.32c-0.52,0.31-1.09,0.39-1.71,0.26
			c-0.61-0.11-1.06-0.4-1.35-0.88c-0.29-0.48-0.37-1.01-0.23-1.58c0.05-0.17,0.05-0.36-0.01-0.56c-0.06-0.2-0.4-0.37-1.01-0.51
			c-0.32-0.06-0.71-0.14-1.16-0.23c-0.45-0.09-0.88-0.19-1.28-0.29c-0.48-0.11-0.97-0.22-1.47-0.33l-4.4-0.94
			c0.37-0.14,0.63-0.42,0.78-0.84c0.14-0.35,0.14-0.75,0.02-1.18L225.3,93.2l-0.44-0.11l-4.61-0.98l-4.83-1.01
			c-0.62-0.14-1.08-0.44-1.39-0.92c-0.31-0.48-0.37-1.01-0.2-1.59c0.14-0.57,0.47-1.01,1-1.3c0.53-0.29,1.09-0.39,1.7-0.28
			c0.62,0.14,1.08,0.44,1.39,0.92c0.31,0.48,0.38,1.01,0.2,1.59c-0.03,0.13-0.02,0.31,0.02,0.51c0.04,0.21,0.38,0.39,1,0.56
			c0.11,0.03,0.26,0.06,0.46,0.08c0.19,0.02,0.44,0.07,0.73,0.14l8.37-2.41l6.45,1.71l-4.7,1.36l6.03,20.89
			c0.19,0.67,0.43,1.11,0.71,1.32c0.28,0.22,0.61,0.37,0.97,0.45l0.27,0.06c0.14,0.02,0.29,0.05,0.43,0.09
			c0.15,0.04,0.27,0.07,0.38,0.1l2.66,0.55C242.53,115.07,242.99,115.38,243.28,115.86z"/>
		<path class="st3" d="M253.34,112.24c0.61,0.17,1.05,0.5,1.33,0.99c0.28,0.49,0.31,1.01,0.1,1.55c-0.17,0.57-0.53,0.99-1.07,1.26
			c-0.54,0.28-1.11,0.33-1.72,0.16c-0.6-0.14-1.04-0.46-1.32-0.95c-0.28-0.49-0.32-1.02-0.11-1.6c0.03-0.16,0.03-0.35,0-0.56
			c-0.03-0.21-0.35-0.4-0.96-0.57c-0.32-0.08-0.7-0.18-1.15-0.29c-0.44-0.11-0.87-0.23-1.26-0.36c-0.47-0.14-0.95-0.28-1.45-0.41
			l-4.39-1.18c0.34-0.11,0.64-0.38,0.87-0.8c0.14-0.4,0.17-0.8,0.08-1.18l-4.28-18.73l-0.43-0.13l-4.55-1.23l-4.76-1.28l-0.05,0.01
			c-0.58-0.18-1-0.51-1.28-1.01c-0.28-0.49-0.32-1.02-0.11-1.6c0.17-0.56,0.53-0.98,1.07-1.24c0.54-0.26,1.11-0.32,1.72-0.18
			c0.61,0.17,1.04,0.5,1.31,1c0.26,0.5,0.31,1.03,0.14,1.59c-0.04,0.13-0.04,0.3-0.01,0.51c0.03,0.21,0.35,0.41,0.97,0.61
			c0.21,0.04,0.59,0.14,1.12,0.3l14.12-3.23l0.77,3.35l-4.77,1.09l4.84,21.2c0.15,0.68,0.37,1.13,0.64,1.36
			c0.27,0.23,0.59,0.4,0.94,0.5l0.27,0.08l0.81,0.23L253.34,112.24z M251.97,73.09c3.53,1.67,5.6,3.87,6.23,6.6
			c0.05,0.23,0.01,0.46-0.14,0.68c-0.15,0.22-0.35,0.36-0.61,0.42c-0.22,0.05-0.49-0.01-0.8-0.19c-0.21-0.17-0.37-0.39-0.5-0.67
			c-0.95-1.95-2.49-3.37-4.64-4.27c-2.18-0.89-4.48-1.06-6.9-0.51c-1.62,0.37-2.96,1.11-4.01,2.22c-0.97,1.18-1.33,2.31-1.08,3.4
			c0.16,0.71,0.33,1.24,0.52,1.6c0.16,0.43,0.32,0.68,0.48,0.77l0.69,0.4c0.26,0.13,0.4,0.22,0.42,0.28c0.03,0.15,0,0.28-0.11,0.4
			c-0.08,0.11-0.22,0.22-0.43,0.33c-0.7,0.16-2.07-0.21-4.12-1.1c-1.99-0.94-3.05-1.7-3.18-2.29c-0.46-2.03,0.04-3.93,1.5-5.72
			c1.49-1.83,3.51-3.03,6.05-3.61C244.87,71,248.41,71.43,251.97,73.09z"/>
		<path class="st3" d="M256.7,85.53l-10.57,1.8l-0.58-3.39l5.12-0.87L256.7,85.53z M263.26,94l-6.71,1.14
			c0.7,0.4,1.3,0.94,1.81,1.62c0.48,0.68,0.79,1.42,0.92,2.23c0.2,1.16,0.05,2.22-0.45,3.19c-0.57,0.95-1.3,1.51-2.2,1.66
			c-1.48,0.25-2.85-0.19-4.1-1.32c-1.29-1.16-2.09-2.67-2.41-4.54c-0.24-1.43,0.05-2.7,0.89-3.82c0.83-1.18,1.95-1.89,3.36-2.13
			l8.3-1.41L263.26,94z"/>
		<path class="st3" d="M276.62,110.19c0.2,0.52,0.17,1.04-0.1,1.56c-0.24,0.54-0.64,0.92-1.21,1.13c-0.57,0.21-1.14,0.2-1.73-0.04
			c-0.58-0.21-0.97-0.58-1.18-1.1c-0.2-0.52-0.19-1.06,0.05-1.6c0.08-0.16,0.11-0.34,0.09-0.55c-0.02-0.21-0.32-0.43-0.91-0.67
			c-0.31-0.12-0.68-0.26-1.1-0.43c-0.43-0.17-0.83-0.33-1.21-0.5c-0.45-0.19-0.91-0.39-1.39-0.58l-4.17-1.68
			c0.39-0.07,0.69-0.3,0.91-0.69c0.19-0.32,0.27-0.71,0.22-1.16l-2.08-19.1l-0.41-0.18l-4.37-1.75l-4.58-1.82
			c-0.58-0.24-0.98-0.62-1.21-1.14c-0.22-0.52-0.2-1.05,0.07-1.6c0.24-0.54,0.64-0.91,1.21-1.11c0.57-0.2,1.14-0.19,1.73,0.02
			c0.59,0.24,0.99,0.62,1.21,1.14s0.2,1.05-0.07,1.6c-0.05,0.13-0.07,0.3-0.07,0.51c0.01,0.21,0.3,0.45,0.89,0.72
			c0.1,0.05,0.25,0.1,0.44,0.16c0.19,0.06,0.42,0.14,0.69,0.27l8.66-0.94l6.06,2.8l-4.87,0.53l2.35,21.62
			c0.08,0.69,0.23,1.17,0.48,1.43c0.24,0.26,0.53,0.46,0.88,0.61l0.26,0.11c0.14,0.05,0.27,0.1,0.41,0.16
			c0.14,0.06,0.26,0.12,0.36,0.17l2.52,1C276.02,109.29,276.41,109.67,276.62,110.19z"/>
		<path class="st3" d="M294.03,89.4l0.11,3.98l-6.12,0.16l0.05,1.94c0.03,0.99-0.36,1.88-1.15,2.65c-0.76,0.77-1.72,1.18-2.86,1.21
			c-1.86,0.05-3.47-0.46-4.84-1.54c-1.37-1.11-2.07-2.43-2.11-3.97c-0.03-1.08,0.48-2.03,1.54-2.85c1.09-0.81,2.37-1.24,3.83-1.28
			l-0.22-8.04c-0.02-0.66-0.28-1.2-0.78-1.61c-0.5-0.44-1.06-0.65-1.68-0.63c-0.82,0.02-1.46,0.34-1.93,0.96
			c-0.54,0.68-0.79,1.42-0.77,2.24c0.02,0.72,0.21,1.34,0.59,1.84c0.37,0.5,0.77,0.75,1.2,0.74l0.68-0.02
			c0.33-0.01,0.65,0.06,0.98,0.2c0.27,0.17,0.4,0.37,0.41,0.58c0.01,0.42-0.18,0.77-0.56,1.05c-0.42,0.31-0.9,0.48-1.46,0.49
			c-1.7,0.05-3.19-0.44-4.49-1.46c-1.37-1.02-2.07-2.19-2.1-3.52c-0.03-1.23,0.51-2.42,1.62-3.57c1.14-1.12,2.39-1.69,3.72-1.73
			c1.86-0.05,4.01,0.87,6.44,2.77c2.4,1.9,3.62,3.64,3.67,5.24l0.12,4.34L294.03,89.4z"/>
		<path class="st3" d="M305.38,109.86c0.13,0.55,0.02,1.06-0.32,1.53c-0.31,0.5-0.76,0.82-1.36,0.95c-0.59,0.13-1.16,0.03-1.7-0.29
			c-0.55-0.29-0.88-0.71-1.01-1.26c-0.13-0.55-0.04-1.07,0.28-1.57c0.1-0.15,0.16-0.33,0.17-0.54c0.01-0.21-0.26-0.48-0.8-0.8
			c-0.29-0.16-0.63-0.35-1.03-0.58c-0.4-0.23-0.78-0.45-1.13-0.67c-0.42-0.26-0.85-0.51-1.29-0.77l-3.89-2.26
			c0.39-0.02,0.73-0.2,1-0.55c0.24-0.29,0.37-0.67,0.38-1.12l0.68-19.2l-0.38-0.24l-4.08-2.36l-4.27-2.46
			c-0.54-0.32-0.89-0.75-1.03-1.3c-0.14-0.55-0.04-1.07,0.3-1.57c0.31-0.5,0.76-0.81,1.35-0.92c0.59-0.11,1.16-0.03,1.71,0.26
			c0.54,0.32,0.89,0.75,1.03,1.3c0.14,0.55,0.04,1.07-0.3,1.57c-0.07,0.12-0.12,0.28-0.14,0.49c-0.02,0.21,0.24,0.49,0.78,0.84
			c0.1,0.07,0.23,0.14,0.41,0.22c0.18,0.08,0.39,0.2,0.65,0.36l8.71,0.31l5.6,3.64l-4.89-0.17l-0.77,21.73
			c-0.02,0.69,0.06,1.19,0.27,1.48c0.2,0.29,0.46,0.54,0.78,0.73l0.24,0.14c0.13,0.06,0.26,0.14,0.38,0.22
			c0.13,0.08,0.24,0.15,0.34,0.22l2.35,1.35C304.92,108.88,305.25,109.31,305.38,109.86z"/>
		<path class="st3" d="M294.12,73.39c-0.72-1.44-1.06-2.55-1.01-3.33c0.07-1.11,0.67-2.02,1.8-2.74c1.16-0.71,2.46-1.01,3.89-0.92
			c1.56,0.1,2.95,0.44,4.15,1c1.27,0.54,1.89,1.11,1.85,1.71c-0.02,0.24-0.13,0.42-0.33,0.52c-0.17,0.14-0.41,0.2-0.7,0.18
			c-0.06,0-0.17-0.02-0.32-0.04c-0.15-0.02-0.33-0.06-0.56-0.11c-0.38-0.12-0.67-0.18-0.87-0.19c-1.33-0.09-2.48,0.2-3.44,0.86
			c-0.96,0.6-1.47,1.43-1.54,2.48c-0.06,0.96,0.16,1.96,0.69,2.99c0.52,1.09,1.28,2.09,2.3,3.01l-2.69-0.18
			c-0.72-1.01-1.35-1.96-1.9-2.84C294.91,74.9,294.47,74.1,294.12,73.39z"/>
		<path class="st3" d="M318.76,108.93c-0.34-0.19-0.69-0.41-1.06-0.66c-0.37-0.25-0.76-0.55-1.18-0.9
			c-1.36-1.03-2.55-2.14-3.55-3.32c-1-1.19-1.86-2.46-2.56-3.81c-1.34-2.72-1.87-5.4-1.58-8.04c0.15-1.38,0.61-2.54,1.37-3.49
			c0.79-0.94,1.66-1.36,2.6-1.26c0.58,0.06,1.18,0.34,1.78,0.83c0.27,0.24,0.51,0.52,0.72,0.83c0.21,0.31,0.41,0.65,0.6,1l0.7-6.34
			l-9.29-1.02l0.38-3.42l10.41,1.15l5.12,4.02L322,84.37l-0.96,8.76c-0.13,1.17-0.63,2.16-1.51,2.97c-0.87,0.75-1.87,1.07-3.01,0.94
			c-0.68-0.07-1.36-0.35-2.03-0.81c-0.7-0.5-1.29-1.14-1.76-1.92c-0.22,0.19-0.43,0.51-0.65,0.97c-0.14,0.41-0.24,0.82-0.28,1.24
			c-0.2,1.8,0.53,3.67,2.19,5.61c1.63,1.91,3.93,3.63,6.92,5.17c0.37,0.25,0.62,0.48,0.76,0.68c0.14,0.23,0.2,0.42,0.18,0.57
			c-0.03,0.24-0.19,0.5-0.48,0.77c-0.28,0.18-0.62,0.25-1.01,0.21C319.98,109.47,319.44,109.28,318.76,108.93z"/>
		<path class="st3" d="M369.18,103.05l-1.25,3.78l-5.81-1.92l-0.61,1.85c-0.31,0.94-0.98,1.64-1.99,2.1
			c-0.98,0.47-2.01,0.52-3.1,0.16c-1.76-0.59-3.11-1.62-4.03-3.1c-0.91-1.51-1.12-2.99-0.64-4.45c0.34-1.03,1.15-1.75,2.42-2.15
			c1.3-0.4,2.65-0.36,4.04,0.1l2.53-7.64c0.21-0.63,0.15-1.22-0.18-1.78c-0.32-0.58-0.78-0.97-1.37-1.17
			c-0.77-0.26-1.49-0.18-2.14,0.24c-0.74,0.45-1.23,1.07-1.49,1.84c-0.23,0.69-0.25,1.33-0.07,1.93c0.18,0.6,0.47,0.97,0.87,1.1
			l0.65,0.22c0.31,0.1,0.6,0.28,0.86,0.52c0.19,0.25,0.25,0.48,0.19,0.68c-0.13,0.4-0.43,0.67-0.89,0.8
			c-0.5,0.15-1.01,0.14-1.54-0.03c-1.61-0.53-2.85-1.5-3.73-2.9c-0.94-1.42-1.2-2.76-0.78-4.02c0.39-1.17,1.3-2.11,2.74-2.81
			c1.46-0.66,2.82-0.78,4.09-0.36c1.77,0.59,3.47,2.18,5.12,4.79c1.61,2.6,2.17,4.66,1.67,6.17l-1.37,4.12L369.18,103.05z"/>
		<path class="st3" d="M372.7,126.34c-0.07,0.56-0.35,1-0.84,1.31c-0.47,0.36-1,0.5-1.6,0.41c-0.6-0.09-1.1-0.38-1.49-0.87
			c-0.41-0.46-0.57-0.98-0.5-1.53c0.07-0.56,0.34-1.01,0.81-1.37c0.15-0.1,0.26-0.25,0.35-0.44c0.08-0.19-0.08-0.54-0.47-1.03
			c-0.21-0.25-0.47-0.55-0.76-0.91c-0.3-0.35-0.57-0.69-0.82-1.03c-0.3-0.39-0.61-0.78-0.94-1.18l-2.84-3.49
			c0.37,0.12,0.75,0.07,1.13-0.16c0.33-0.19,0.58-0.49,0.75-0.91l7.41-17.73l-0.27-0.36l-2.98-3.65l-3.13-3.81
			c-0.4-0.49-0.56-1.02-0.51-1.58c0.06-0.56,0.34-1.02,0.84-1.37c0.47-0.36,1-0.49,1.59-0.39c0.59,0.1,1.1,0.38,1.5,0.85
			c0.4,0.49,0.56,1.02,0.51,1.58c-0.06,0.56-0.34,1.02-0.84,1.37c-0.11,0.09-0.21,0.22-0.31,0.41c-0.1,0.19,0.05,0.54,0.43,1.06
			c0.07,0.09,0.17,0.21,0.31,0.35c0.14,0.14,0.3,0.33,0.48,0.57l8.04,3.36l3.96,5.38l-4.52-1.89l-8.39,20.06
			c-0.27,0.64-0.36,1.13-0.27,1.48c0.08,0.35,0.24,0.67,0.48,0.96l0.17,0.22c0.1,0.11,0.19,0.22,0.28,0.34
			c0.09,0.12,0.17,0.23,0.24,0.32l1.73,2.09C372.62,125.26,372.78,125.78,372.7,126.34z"/>
		<path class="st3" d="M383.29,131.5c-0.11,0.55-0.42,0.97-0.92,1.26c-0.49,0.33-1.03,0.43-1.63,0.31
			c-0.59-0.13-1.07-0.45-1.44-0.96c-0.38-0.49-0.51-1.01-0.4-1.56c0.11-0.55,0.41-0.99,0.9-1.32c0.15-0.09,0.28-0.23,0.37-0.42
			c0.09-0.19-0.04-0.54-0.41-1.06c-0.2-0.26-0.43-0.58-0.7-0.95c-0.27-0.37-0.52-0.73-0.75-1.08c-0.27-0.4-0.56-0.82-0.86-1.23
			l-2.61-3.66c0.36,0.15,0.74,0.11,1.14-0.09c0.34-0.17,0.61-0.46,0.81-0.86l8.51-17.23l-0.25-0.38l-2.75-3.83l-2.89-4
			c-0.36-0.52-0.5-1.05-0.41-1.61c0.1-0.56,0.4-0.99,0.92-1.31c0.49-0.33,1.03-0.42,1.62-0.29c0.59,0.14,1.07,0.45,1.45,0.94
			c0.36,0.52,0.5,1.05,0.4,1.61c-0.09,0.56-0.4,1-0.92,1.31c-0.11,0.08-0.22,0.21-0.33,0.39c-0.11,0.18,0.01,0.54,0.36,1.09
			c0.06,0.1,0.16,0.22,0.28,0.37c0.13,0.15,0.28,0.35,0.44,0.6l7.81,3.86l3.61,5.62l-4.39-2.17l-9.63,19.5
			c-0.31,0.62-0.43,1.11-0.37,1.46c0.06,0.35,0.2,0.68,0.41,0.99l0.16,0.23c0.09,0.11,0.18,0.23,0.26,0.36
			c0.08,0.13,0.16,0.24,0.22,0.33l1.59,2.2C383.27,130.42,383.4,130.95,383.29,131.5z"/>
		<path class="st3" d="M395.53,136c-0.23-0.31-0.46-0.66-0.69-1.04c-0.23-0.38-0.46-0.82-0.7-1.31c-0.82-1.5-1.44-3-1.86-4.49
			c-0.42-1.49-0.68-3-0.76-4.52c-0.1-3.04,0.53-5.69,1.89-7.97c0.71-1.19,1.6-2.06,2.69-2.61c1.11-0.53,2.08-0.56,2.89-0.07
			c0.5,0.3,0.93,0.8,1.28,1.49c0.14,0.33,0.25,0.68,0.31,1.05c0.06,0.37,0.11,0.76,0.14,1.16l3.25-5.48l-8.04-4.77l1.75-2.95
			l9.01,5.35l3,5.78l-1.05-0.62l-4.5,7.58c-0.6,1.01-1.47,1.71-2.6,2.08c-1.1,0.33-2.15,0.2-3.13-0.39
			c-0.59-0.35-1.09-0.88-1.51-1.58c-0.43-0.75-0.7-1.57-0.81-2.48c-0.28,0.08-0.61,0.29-0.99,0.62c-0.3,0.31-0.56,0.65-0.77,1.01
			c-0.92,1.55-1.03,3.56-0.32,6.01c0.7,2.41,2.08,4.93,4.16,7.57c0.23,0.38,0.37,0.69,0.42,0.93c0.03,0.26,0.01,0.46-0.07,0.59
			c-0.12,0.21-0.37,0.37-0.75,0.5c-0.33,0.05-0.67-0.03-1-0.23C396.42,137,396.01,136.6,395.53,136z"/>
		<path class="st3" d="M406.03,139.89c-0.05-0.22-0.11-0.44-0.18-0.68c-0.07-0.24-0.11-0.49-0.12-0.75
			c-0.12-2.71,0.03-5.09,0.46-7.16c0.42-2.06,1.18-3.86,2.26-5.38c0.87-1.23,2.15-1.87,3.83-1.94c1.7-0.09,3.31,0.41,4.83,1.49
			l5.51,3.91l-1.99,2.8l-4.19-2.98c-1.31-0.93-2.63-1.37-3.98-1.33c-1.39,0.05-2.43,0.55-3.11,1.51c-0.86,1.2-1.36,2.62-1.51,4.25
			c-0.1,0.82-0.1,1.67,0.01,2.56c0.11,0.89,0.29,1.8,0.56,2.72c0.06,0.19,0.11,0.37,0.13,0.54c0.02,0.16,0.04,0.33,0.05,0.48
			c-0.04,0.34-0.11,0.57-0.19,0.7c-0.17,0.25-0.44,0.37-0.8,0.37c-0.33,0.06-0.65-0.02-0.97-0.24
			C406.43,140.62,406.23,140.34,406.03,139.89z M413.88,114.04l5.03,3.57l2.68,6.12l-9.7-6.89L413.88,114.04z"/>
		<path class="st3" d="M417.57,154.91c-0.23,0.51-0.62,0.85-1.18,1.02c-0.55,0.21-1.1,0.19-1.65-0.07
			c-0.55-0.26-0.94-0.68-1.18-1.26c-0.26-0.56-0.27-1.1-0.04-1.61c0.23-0.51,0.62-0.87,1.17-1.08c0.17-0.05,0.32-0.16,0.46-0.33
			c0.13-0.16,0.08-0.54-0.16-1.12c-0.13-0.3-0.29-0.67-0.47-1.09c-0.18-0.42-0.35-0.83-0.49-1.22c-0.18-0.46-0.36-0.92-0.56-1.4
			l-1.72-4.16c0.32,0.23,0.7,0.28,1.13,0.17c0.37-0.09,0.7-0.31,0.98-0.66l12.17-14.86l-0.16-0.42l-1.81-4.35l-1.91-4.54
			c-0.24-0.58-0.25-1.14-0.03-1.66c0.22-0.52,0.61-0.88,1.19-1.07c0.55-0.21,1.1-0.18,1.64,0.09c0.54,0.27,0.94,0.68,1.2,1.24
			c0.24,0.58,0.25,1.14,0.03,1.66c-0.22,0.52-0.61,0.88-1.19,1.07c-0.13,0.05-0.26,0.16-0.41,0.31c-0.15,0.15-0.11,0.53,0.11,1.14
			c0.04,0.11,0.1,0.25,0.19,0.42c0.09,0.17,0.19,0.4,0.3,0.68l6.74,5.52l2.25,6.29l-3.79-3.1l-13.78,16.82
			c-0.44,0.54-0.67,0.98-0.68,1.34c-0.02,0.36,0.04,0.71,0.18,1.05l0.1,0.26c0.06,0.13,0.12,0.26,0.17,0.41
			c0.05,0.14,0.1,0.27,0.14,0.37l1.05,2.5C417.79,153.85,417.79,154.4,417.57,154.91z"/>
	</g>
</g>
</svg>
