<?xml version="1.0" encoding="utf-8"?>
<!-- Generator: Adobe Illustrator 27.0.0, SVG Export Plug-In . SVG Version: 6.00 Build 0)  -->
<svg version="1.1" id="Layer_1" xmlns="http://www.w3.org/2000/svg" xmlns:xlink="http://www.w3.org/1999/xlink" x="0px" y="0px"
	 viewBox="0 0 573 499" style="enable-background:new 0 0 573 499;" xml:space="preserve">
<style type="text/css">
	.st0{fill:url(#SVGID_1_);}
	.st1{fill:url(#SVGID_00000135689802696168331820000016624400491802013362_);}
	.st2{fill:url(#SVGID_00000079470760839272544060000004894661054688656771_);}
	.st3{fill:url(#SVGID_00000100351274649648320390000011559379977679198626_);}
	.st4{fill:url(#SVGID_00000170244537189141029990000014084662492861665925_);}
	.st5{fill:url(#SVGID_00000176762574636524791660000017678004130770168747_);}
	.st6{fill:url(#SVGID_00000116933609928857475220000009198637887630791093_);}
	.st7{fill:url(#SVGID_00000152259638633313771800000015100133740264224955_);}
	.st8{fill:url(#SVGID_00000151511464512817010700000000223574055771252407_);}
	.st9{fill:#FFFFFF;}
	.st10{fill:#456DB3;}
</style>
<g id="Proudly_Made_In_india">
	<g>
		
			<radialGradient id="SVGID_1_" cx="-750.3888" cy="-526.9267" r="308.4828" gradientTransform="matrix(1 0 0 1.331 1037.719 667.7076)" gradientUnits="userSpaceOnUse">
			<stop  offset="0" style="stop-color:#D7E0E9"/>
			<stop  offset="0.6397" style="stop-color:#CFD7DF"/>
			<stop  offset="0.6818" style="stop-color:#D6DDE4"/>
			<stop  offset="0.8849" style="stop-color:#F4F6F8"/>
			<stop  offset="1" style="stop-color:#FFFFFF"/>
		</radialGradient>
		<path class="st0" d="M340.52,233.45c-14.88,19.6-14.17,46.04-8.09,58.22c-2.48-8.33-2.68-20.08,0.61-29.43
			c24.24-68.74,210.16,25.79,214.69-99.47C527.16,244.35,390.14,169.97,340.52,233.45z"/>
		
			<radialGradient id="SVGID_00000109022012228931879510000017974483386125071524_" cx="-750.3887" cy="-526.9266" r="308.4829" gradientTransform="matrix(1 0 0 1.331 1037.719 667.7076)" gradientUnits="userSpaceOnUse">
			<stop  offset="0" style="stop-color:#D7E0E9"/>
			<stop  offset="0.6397" style="stop-color:#CFD7DF"/>
			<stop  offset="0.6818" style="stop-color:#D6DDE4"/>
			<stop  offset="0.8849" style="stop-color:#F4F6F8"/>
			<stop  offset="1" style="stop-color:#FFFFFF"/>
		</radialGradient>
		<path style="fill:url(#SVGID_00000109022012228931879510000017974483386125071524_);" d="M552.33,132.82
			c-26.16,78.02-160.29-12.83-214.74,43.62c-16.36,17.49-17.36,43.71-11.99,56.51c-1.98-8.55-1.41-20.19,2.53-29.01
			C357.18,139.09,539.6,256.04,552.33,132.82z"/>
		
			<radialGradient id="SVGID_00000141424550038766571120000012291871120577798329_" cx="-750.3887" cy="-526.9267" r="308.4793" gradientTransform="matrix(1 0 0 1.331 1037.719 667.7076)" gradientUnits="userSpaceOnUse">
			<stop  offset="0" style="stop-color:#D7E0E9"/>
			<stop  offset="0.6397" style="stop-color:#CFD7DF"/>
			<stop  offset="0.6818" style="stop-color:#D6DDE4"/>
			<stop  offset="0.8849" style="stop-color:#F4F6F8"/>
			<stop  offset="1" style="stop-color:#FFFFFF"/>
		</radialGradient>
		<path style="fill:url(#SVGID_00000141424550038766571120000012291871120577798329_);" d="M30.37,162.77
			c4.54,125.26,190.45,30.74,214.69,99.47c3.29,9.35,3.09,21.1,0.61,29.43c6.07-12.18,6.78-38.62-8.09-58.22
			C187.96,169.97,50.95,244.35,30.37,162.77z"/>
		
			<radialGradient id="SVGID_00000135658957906176260300000016864523308585217176_" cx="-750.3888" cy="-526.9266" r="308.4795" gradientTransform="matrix(1 0 0 1.331 1037.719 667.7076)" gradientUnits="userSpaceOnUse">
			<stop  offset="0" style="stop-color:#D7E0E9"/>
			<stop  offset="0.6397" style="stop-color:#CFD7DF"/>
			<stop  offset="0.6818" style="stop-color:#D6DDE4"/>
			<stop  offset="0.8849" style="stop-color:#F4F6F8"/>
			<stop  offset="1" style="stop-color:#FFFFFF"/>
		</radialGradient>
		<path style="fill:url(#SVGID_00000135658957906176260300000016864523308585217176_);" d="M240.52,176.44
			c-54.45-56.45-188.58,34.4-214.74-43.62c12.73,123.22,195.15,6.27,224.2,71.13c3.94,8.82,4.51,20.46,2.53,29.01
			C257.87,220.15,256.88,193.93,240.52,176.44z"/>
	</g>
	<g>
		<g>
			
				<linearGradient id="SVGID_00000138545894575364071540000012564359599842094496_" gradientUnits="userSpaceOnUse" x1="-648.4672" y1="58.904" x2="-434.1355" y2="58.904" gradientTransform="matrix(0.9786 0.1088 -0.0855 0.9871 972.038 212.0667)">
				<stop  offset="0" style="stop-color:#19B14B"/>
				<stop  offset="0.3234" style="stop-color:#31B249"/>
				<stop  offset="1" style="stop-color:#6EB444"/>
			</linearGradient>
			<path style="fill:url(#SVGID_00000138545894575364071540000012564359599842094496_);" d="M332.43,265.54
				c-2.48-6.97-2.68-16.8,0.61-24.61c24.24-57.49,210.16,21.57,214.69-83.2c-20.57,68.24-157.59,6.02-207.21,59.12
				C325.65,233.23,326.36,255.35,332.43,265.54z"/>
			
				<linearGradient id="SVGID_00000123422669226825042080000006674669521731181962_" gradientUnits="userSpaceOnUse" x1="-415.9111" y1="-37.2978" x2="-619.0585" y2="22.0062" gradientTransform="matrix(0.9951 0.0984 -0.0984 0.9951 943.9558 228.7126)">
				<stop  offset="0" style="stop-color:#FFCC05"/>
				<stop  offset="1" style="stop-color:#F16A21"/>
			</linearGradient>
			<path style="fill:url(#SVGID_00000123422669226825042080000006674669521731181962_);" d="M325.6,216.43
				c-1.98-7.15-1.41-16.88,2.53-24.26c29.05-54.25,211.47,43.57,224.2-59.5c-26.16,65.26-160.29-10.73-214.74,36.49
				C321.23,183.78,320.23,205.72,325.6,216.43z"/>
		</g>
		<g>
			
				<linearGradient id="SVGID_00000042735388580820621800000002519797913891180965_" gradientUnits="userSpaceOnUse" x1="1482.3792" y1="-175.9619" x2="1696.7109" y2="-175.9619" gradientTransform="matrix(-0.9786 0.1088 0.0855 0.9871 1711.3916 212.0667)">
				<stop  offset="0" style="stop-color:#19B14B"/>
				<stop  offset="0.3234" style="stop-color:#31B249"/>
				<stop  offset="1" style="stop-color:#6EB444"/>
			</linearGradient>
			<path style="fill:url(#SVGID_00000042735388580820621800000002519797913891180965_);" d="M245.67,265.54
				c2.48-6.97,2.68-16.8-0.61-24.61c-24.24-57.49-210.16,21.57-214.69-83.2c20.57,68.24,157.59,6.02,207.21,59.12
				C252.46,233.23,251.75,255.35,245.67,265.54z"/>
			
				<linearGradient id="SVGID_00000076564969183382068940000017277967313964960903_" gradientUnits="userSpaceOnUse" x1="1679.2958" y1="-244.4813" x2="1476.1484" y2="-185.1773" gradientTransform="matrix(-0.9951 0.0984 0.0984 0.9951 1739.4739 228.7126)">
				<stop  offset="0" style="stop-color:#FFCC05"/>
				<stop  offset="1" style="stop-color:#F16A21"/>
			</linearGradient>
			<path style="fill:url(#SVGID_00000076564969183382068940000017277967313964960903_);" d="M252.5,216.43
				c1.98-7.15,1.41-16.88-2.53-24.26c-29.05-54.25-211.47,43.57-224.2-59.5c26.16,65.26,160.29-10.73,214.74,36.49
				C256.88,183.78,257.87,205.72,252.5,216.43z"/>
		</g>
	</g>
	<g>
		
			<radialGradient id="SVGID_00000163061421733245803990000016015073253400423314_" cx="-757.7186" cy="-36.724" r="71.8421" gradientTransform="matrix(1 0 0 1 1037.719 286.2809)" gradientUnits="userSpaceOnUse">
			<stop  offset="0" style="stop-color:#D7E0E9"/>
			<stop  offset="0.6397" style="stop-color:#CFD7DF"/>
			<stop  offset="0.6818" style="stop-color:#D6DDE4"/>
			<stop  offset="0.8849" style="stop-color:#F4F6F8"/>
			<stop  offset="1" style="stop-color:#FFFFFF"/>
		</radialGradient>
		<circle style="fill:url(#SVGID_00000163061421733245803990000016015073253400423314_);" cx="280" cy="249.56" r="71.84"/>
		<circle class="st9" cx="287.31" cy="240.73" r="53.48"/>
		<g>
			<path class="st10" d="M287.31,184.82c-30.88,0-55.92,25.03-55.92,55.91c0,30.88,25.04,55.91,55.92,55.91
				c30.88,0,55.91-25.03,55.91-55.91C343.23,209.85,318.19,184.82,287.31,184.82z M339.24,244.2c-1.43,0.03-2.56,1.21-2.53,2.64
				c0.03,1.19,0.85,2.16,1.95,2.44c-0.21,1.27-0.47,2.53-0.77,3.77l-26.12-8.33l-17.67-2.98c0.05-0.3,0.09-0.61,0.09-0.93
				l17.83,1.87l27.33-1.91C339.37,241.93,339.32,243.06,339.24,244.2z M336.72,257.11c-0.05-0.01-0.1-0.04-0.15-0.05
				c-1.39-0.34-2.79,0.52-3.12,1.91c-0.29,1.21,0.32,2.43,1.41,2.95c-0.54,1.22-1.12,2.42-1.75,3.58l-23.19-14.71l-16.31-7.35
				c0.14-0.31,0.23-0.63,0.32-0.96l16.84,6.14l27.03,4.78C337.49,254.66,337.13,255.9,336.72,257.11z M310.34,287.14
				c-0.75-1.21-2.36-1.58-3.57-0.82c-1.06,0.66-1.48,1.98-1.05,3.11c-1.11,0.42-2.23,0.8-3.37,1.15l-6.15-26.83l-6.41-16.67
				c0.29-0.11,0.56-0.26,0.84-0.4l7.44,16.27l15.62,22.67c-1.05,0.62-2.13,1.21-3.23,1.76
				C310.41,287.29,310.38,287.21,310.34,287.14z M296.74,291.67c-0.42-1.37-1.87-2.13-3.24-1.7c-1.16,0.36-1.88,1.47-1.81,2.63
				c-1.32,0.11-2.66,0.18-4.01,0.19l1.65-27.47l-1.46-17.81c0.41-0.03,0.81-0.09,1.19-0.19l3.28,17.57l9.67,25.79
				c-1.7,0.5-3.45,0.92-5.22,1.24C296.77,291.83,296.76,291.75,296.74,291.67z M267.79,286.25c-1.22-0.27-2.42,0.37-2.91,1.46
				c-0.94-0.45-1.86-0.93-2.78-1.44l14.87-23.14l7.43-16.24c0.3,0.14,0.62,0.25,0.95,0.35L279.11,264l-4.99,27.1
				c-1.52-0.4-3.02-0.87-4.48-1.39c0.05-0.12,0.09-0.24,0.12-0.37C270.07,287.94,269.18,286.56,267.79,286.25z M241.62,259.95
				c-0.68-1.03-1.96-1.42-3.08-1c-0.4-1.09-0.77-2.19-1.11-3.31l26.72-6.15l16.7-6.44c0.11,0.31,0.25,0.59,0.41,0.87l-16.25,7.55
				l-22.53,15.73c-0.68-1.14-1.32-2.31-1.91-3.51c0.1-0.05,0.2-0.09,0.29-0.15C242.07,262.76,242.4,261.15,241.62,259.95z
				 M235.44,236.48c0.13,0.01,0.25,0.02,0.38,0.01c1.43-0.09,2.51-1.32,2.42-2.75c-0.08-1.21-0.99-2.17-2.13-2.37
				c0.2-1.09,0.42-2.17,0.69-3.23l26.05,8.31l17.68,2.98c-0.05,0.3-0.08,0.61-0.09,0.93l-17.84-1.88l-27.33,1.91
				C235.27,239.07,235.34,237.77,235.44,236.48z M238.12,223.71c0.12,0.04,0.24,0.09,0.37,0.11c1.4,0.28,2.77-0.64,3.04-2.04
				c0.23-1.2-0.41-2.37-1.48-2.86c0.5-1.08,1.02-2.14,1.59-3.18l23.06,14.63l16.36,7.38c-0.14,0.3-0.25,0.62-0.35,0.95l-16.88-6.16
				l-26.96-4.77C237.24,226.39,237.66,225.04,238.12,223.71z M264.6,194.41c0.81,1.18,2.42,1.48,3.6,0.67
				c1.02-0.7,1.39-2.02,0.93-3.13c1.06-0.39,2.13-0.75,3.22-1.08l6.08,26.55l6.45,16.78c-0.29,0.11-0.56,0.25-0.83,0.39l-7.48-16.38
				l-15.47-22.45c1.07-0.63,2.16-1.22,3.28-1.77C264.43,194.14,264.5,194.28,264.6,194.41z M236.14,250.25
				c0.11-0.02,0.23-0.04,0.34-0.08c1.36-0.45,2.09-1.92,1.63-3.28c-0.38-1.15-1.5-1.85-2.66-1.75c-0.12-1.44-0.2-2.9-0.2-4.38
				l27.32,1.74l17.87-1.4c0.03,0.42,0.09,0.83,0.19,1.22l-17.62,3.3l-25.69,9.67C236.86,253.64,236.45,251.96,236.14,250.25z
				 M285.59,233.98l-3.3-17.7l-9.57-25.52c1.46-0.42,2.94-0.79,4.45-1.09c0.02,0.16,0.06,0.32,0.12,0.47
				c0.48,1.34,1.97,2.04,3.31,1.56c1.17-0.42,1.86-1.6,1.69-2.79c1.53-0.15,3.08-0.23,4.65-0.24l-1.63,27.17l1.47,17.94
				C286.37,233.83,285.97,233.88,285.59,233.98z M293.87,191.38c1.19,0,2.18-0.81,2.49-1.9c1.25,0.22,2.49,0.47,3.71,0.78
				l-8.45,25.89l-3.11,17.71c-0.32-0.06-0.65-0.09-0.99-0.1l1.81-17.91l-2.01-27.18c1.34,0,2.66,0.07,3.97,0.17
				C291.32,190.25,292.46,191.38,293.87,191.38z M306.24,194.69c1.16,0.31,2.33-0.23,2.9-1.22c1.11,0.51,2.19,1.05,3.25,1.64
				l-14.73,22.92l-7.48,16.35c-0.3-0.14-0.62-0.24-0.94-0.33l6.28-16.87l4.93-26.82c1.34,0.35,2.65,0.76,3.94,1.21
				C304.04,192.93,304.86,194.33,306.24,194.69z M317.34,201.05c1.04,0.59,2.32,0.37,3.12-0.44c1.21,1,2.38,2.06,3.49,3.17
				l-20.49,17.98l-11.7,13.65c-0.3-0.25-0.61-0.48-0.94-0.68L301.17,220l11.56-24.7c1.24,0.7,2.46,1.44,3.64,2.23
				C315.67,198.77,316.11,200.34,317.34,201.05z M326.46,210.03c0.86,0.84,2.15,0.96,3.14,0.36c0.78,1.08,1.52,2.18,2.22,3.33
				l-24.27,12.51l-14.64,10.4c-0.18-0.25-0.38-0.49-0.59-0.71l13.98-11.29l17.93-20.57c0.75,0.76,1.47,1.54,2.17,2.34
				C325.42,207.4,325.44,209.03,326.46,210.03z M332.99,221.04c0.62,1.04,1.86,1.48,2.97,1.15c0.42,1.1,0.81,2.22,1.15,3.35
				l-26.64,6.13l-16.74,6.46c-0.12-0.3-0.27-0.58-0.43-0.86l16.3-7.57l22.41-15.64c0.67,1.12,1.29,2.27,1.88,3.44c0,0,0,0-0.01,0
				C332.65,218.22,332.25,219.81,332.99,221.04z M338.36,230.52c-0.04,0.01-0.08,0.01-0.11,0.02c-1.38,0.39-2.17,1.83-1.77,3.2
				c0.34,1.19,1.46,1.94,2.64,1.87c0.15,1.58,0.24,3.18,0.24,4.79l-27.32-1.74l-17.88,1.4c-0.04-0.42-0.1-0.82-0.21-1.22l17.65-3.31
				l25.61-9.64C337.66,227.41,338.05,228.95,338.36,230.52z M253.52,201.15c0.09,0.11,0.19,0.21,0.3,0.31
				c1.08,0.94,2.72,0.81,3.65-0.27c0.79-0.92,0.81-2.25,0.14-3.2c1.02-0.71,2.07-1.39,3.15-2.03l12.33,24.29l10.31,14.71
				c-0.28,0.19-0.54,0.42-0.79,0.65l-11.42-13.89l-20.73-17.75C251.43,202.99,252.46,202.06,253.52,201.15z M250.18,204.26
				l18.16,20.33l13.75,11.58c-0.25,0.29-0.48,0.59-0.67,0.92l-14.77-10.24l-24.82-11.43c0.73-1.3,1.5-2.58,2.33-3.81
				c0.12,0.08,0.23,0.16,0.37,0.22c1.28,0.63,2.83,0.09,3.46-1.2c0.54-1.11,0.21-2.42-0.72-3.16
				C248.2,206.36,249.17,205.29,250.18,204.26z M247.49,274.24c0.12-0.09,0.23-0.19,0.33-0.3c0.96-1.06,0.87-2.7-0.2-3.66
				c-0.93-0.83-2.3-0.87-3.27-0.16c-0.58-0.85-1.14-1.72-1.68-2.61l24.41-12.58l14.57-10.35c0.18,0.26,0.38,0.49,0.59,0.72
				l-13.92,11.24l-18.07,20.73C249.29,276.3,248.37,275.29,247.49,274.24z M250.5,277.54l20.66-18.13l11.64-13.58
				c0.3,0.26,0.6,0.49,0.94,0.69l-10.28,14.64l-11.67,24.94c-1.46-0.83-2.88-1.72-4.26-2.68c0.08-0.11,0.16-0.22,0.22-0.34
				c0.66-1.27,0.15-2.83-1.12-3.48c-1.11-0.57-2.42-0.26-3.18,0.66C252.44,279.38,251.44,278.48,250.5,277.54z M282.96,292.59
				c0.01-0.09,0.02-0.18,0.01-0.27c-0.06-1.43-1.27-2.54-2.7-2.47c-1.21,0.05-2.19,0.93-2.42,2.07c-1.15-0.21-2.28-0.45-3.4-0.73
				l8.54-26.17l3.08-17.59c0.33,0.06,0.67,0.09,1.01,0.1l-1.8,17.78l2.03,27.48c0,0-0.01,0-0.01,0
				C285.85,292.79,284.4,292.71,282.96,292.59z M321.41,280.05c-0.08-0.09-0.15-0.19-0.24-0.27c-1.04-0.98-2.68-0.93-3.66,0.12
				c-0.88,0.94-0.92,2.35-0.16,3.34c-1.09,0.77-2.21,1.51-3.36,2.2l-12.45-24.53l-10.26-14.62c0.28-0.2,0.55-0.42,0.8-0.66
				l11.36,13.81l20.89,17.89C323.4,278.27,322.42,279.17,321.41,280.05z M324.58,277.06l-18.3-20.49l-13.69-11.52
				c0.24-0.29,0.47-0.6,0.66-0.94l14.72,10.21l24.96,11.5c-0.77,1.39-1.59,2.75-2.48,4.05c-0.08-0.06-0.16-0.13-0.26-0.18
				c-1.26-0.68-2.83-0.21-3.51,1.05c-0.61,1.12-0.3,2.48,0.67,3.25C326.47,275.05,325.54,276.07,324.58,277.06z"/>
		</g>
	</g>
	<g>
		<g>
			<path class="st10" d="M221.18,280.96c0.55,0.2,0.88,0.45,1,0.77c0.12,0.32,0.18,1.06,0.18,2.24v9.09
				c-0.02,2.13-0.05,3.39-0.11,3.78c-0.05,0.39-0.24,0.7-0.55,0.92c-0.52,0.34-0.85,0.61-0.99,0.79c-0.14,0.18-0.21,0.45-0.21,0.8
				c0,1.46,1.63,2.19,4.88,2.19c1.55,0,2.74-0.2,3.59-0.59c0.84-0.39,1.27-0.95,1.27-1.68c0-0.47-0.29-0.91-0.86-1.31
				c-0.42-0.29-0.7-0.57-0.84-0.84c-0.14-0.27-0.21-0.68-0.23-1.23l-0.09-2.83v-0.1c0-0.38,0.13-0.57,0.38-0.57
				c0.09,0,0.31,0.02,0.67,0.05c0.68,0.08,1.25,0.12,1.71,0.12c1.84,0,3.4-0.66,4.7-1.99c1.37-1.42,2.06-3.3,2.06-5.65
				c0-2.9-0.98-5.02-2.94-6.36c-1.13-0.77-2.41-1.16-3.85-1.16c-0.42,0-0.89,0.03-1.4,0.1c-1.54,0.18-2.43,0.29-2.68,0.3
				c-0.25,0.02-1.11,0.03-2.57,0.04h-0.79c-0.84-0.04-1.36-0.05-1.57-0.05c-0.63,0-1.12,0.14-1.45,0.41s-0.5,0.67-0.5,1.19
				C219.99,280.15,220.39,280.67,221.18,280.96z M228.32,281.78c0-0.45,0.33-0.67,0.98-0.67c0.6,0,1.11,0.21,1.53,0.64
				c0.67,0.67,1,1.75,1,3.25c0,1.44-0.29,2.47-0.86,3.08c-0.4,0.43-0.88,0.64-1.46,0.64c-0.39,0-0.71-0.08-0.96-0.24
				c-0.15-0.09-0.22-0.36-0.22-0.81V281.78z"/>
			<path class="st10" d="M225.39,307.57c-10.38,0-10.91-6.85-10.91-8.22c0-2.12,0.79-3.59,1.46-4.46c0.12-0.16,0.25-0.32,0.39-0.47
				c0-0.4,0.01-0.87,0.01-1.4v-8.08c-1.51-1.41-2.37-3.35-2.37-5.52c0-2.33,0.95-4.4,2.68-5.83c0.99-0.82,2.72-1.8,5.3-1.8
				c0.24,0,0.85,0.02,1.82,0.06l0.53-0.01c1.15-0.01,1.9-0.02,2.2-0.03c0.2-0.02,1.01-0.11,2.33-0.27c3.61-0.49,6.7,0.23,9.37,2.06
				c2.53,1.72,5.56,5.1,5.56,11.33c0,3.9-1.3,7.31-3.76,9.84c-1.18,1.21-2.51,2.14-3.96,2.78c0.14,0.56,0.22,1.14,0.22,1.73
				c0,3.09-1.78,5.76-4.76,7.15C229.85,307.19,227.85,307.57,225.39,307.57z M228.61,286.36c0.17,0,0.59,0.02,1.26,0.08
				c0.9,0.1,1.12,0.32,1.5-0.07c0.08-0.08,0.35-0.36,0.35-1.44c0-0.35-0.03-1.19-0.31-1.38c-0.13-0.09-0.47-0.14-1.05-0.06
				c-0.82,0.1-1.47,0.17-1.97,0.23c0,0.09,0,0.17,0,0.26v2.39C228.46,286.36,228.53,286.36,228.61,286.36z"/>
		</g>
		<g>
			<path class="st10" d="M239.45,280.9c0.4,0.26,0.67,0.69,0.79,1.26c0.12,0.58,0.18,1.66,0.18,3.27c0,5.05-0.02,7.98-0.07,8.79
				c-0.05,1.12-0.15,1.9-0.28,2.36c-0.14,0.46-0.4,0.85-0.79,1.18c-0.34,0.3-0.56,0.53-0.66,0.7c-0.1,0.17-0.15,0.39-0.15,0.67
				c0,1.61,1.63,2.42,4.88,2.42c1.75,0,2.99-0.16,3.73-0.48c0.73-0.32,1.1-0.85,1.1-1.61c0-0.62-0.26-1.12-0.79-1.5
				c-0.25-0.18-0.41-0.34-0.5-0.47c-0.09-0.13-0.15-0.31-0.2-0.54c-0.14-0.82-0.21-1.96-0.21-3.42c0-0.97,0.05-1.58,0.14-1.85
				c0.09-0.27,0.31-0.4,0.64-0.4c0.58,0.03,1.03,0.28,1.34,0.73c0.31,0.45,0.57,1.22,0.77,2.31c0.32,1.7,0.59,2.96,0.82,3.77
				c0.23,0.81,0.52,1.47,0.85,2c0.74,1.19,1.97,1.78,3.68,1.78c1.28,0,2.29-0.22,3.03-0.67c0.33-0.21,0.61-0.49,0.82-0.85
				c0.21-0.36,0.32-0.72,0.32-1.08c0-0.28-0.06-0.53-0.17-0.75c-0.11-0.22-0.25-0.37-0.42-0.44c-0.55-0.21-0.89-0.42-1.04-0.65
				s-0.26-0.72-0.34-1.48c-0.18-1.83-0.49-3.19-0.92-4.08c-0.43-0.89-1.11-1.55-2.03-1.99c-0.43-0.21-0.65-0.48-0.65-0.81
				c0-0.25,0.14-0.47,0.42-0.66c0.68-0.44,1.21-1.09,1.6-1.96c0.39-0.87,0.58-1.83,0.58-2.89c0-1.9-0.55-3.39-1.66-4.46
				c-1.23-1.19-2.79-1.78-4.67-1.78c-0.33,0-0.92,0.04-1.75,0.12c-1.32,0.14-2.37,0.21-3.17,0.21c-0.47,0-0.82-0.01-1.04-0.03
				c-1.16-0.12-1.89-0.17-2.18-0.17c-0.66,0-1.18,0.06-1.56,0.19c-0.45,0.15-0.8,0.38-1.05,0.7c-0.25,0.32-0.38,0.69-0.38,1.11
				c0,0.32,0.07,0.58,0.2,0.79C238.8,280.43,239.06,280.65,239.45,280.9z M246.36,286.49l0.15-4.03c0.02-0.53,0.1-0.9,0.24-1.1
				c0.14-0.21,0.38-0.31,0.73-0.31c1.2,0,1.81,1.11,1.81,3.33c0,1.15-0.18,1.99-0.53,2.51c-0.35,0.52-0.91,0.79-1.69,0.79
				c-0.28,0-0.47-0.07-0.56-0.21c-0.09-0.14-0.14-0.41-0.14-0.83C246.36,286.58,246.36,286.53,246.36,286.49z"/>
			<path class="st10" d="M254.73,307.9c-1.98,0-3.77-0.44-5.3-1.28c-1.53,0.66-3.41,0.95-6.07,0.95c-10.38,0-10.9-7.04-10.9-8.45
				c0-1.37,0.33-2.62,0.98-3.72c0.22-0.4,0.52-0.8,0.89-1.21c0-0.08,0.01-0.16,0.01-0.25c0.04-0.83,0.06-3.66,0.06-8.52
				c0-0.34,0-0.64,0-0.92c-0.3-0.32-0.57-0.66-0.8-1.02c-0.74-1.12-1.15-2.54-1.15-4.04c0-1.79,0.58-3.47,1.68-4.85
				c0.98-1.24,2.32-2.16,3.87-2.68c1-0.34,2.14-0.5,3.46-0.5c0.37,0,1.29,0.05,2.77,0.2l0.44,0c0.64,0,1.48-0.06,2.54-0.17
				c1.16-0.11,1.93-0.15,2.38-0.15c3.43,0,6.49,1.2,8.85,3.46c1.61,1.56,3.51,4.33,3.51,8.8c0,1.75-0.31,3.4-0.93,4.93
				c0.15,0.24,0.28,0.49,0.4,0.74c0.62,1.28,1.05,2.79,1.33,4.69c0.55,0.53,1,1.15,1.35,1.85c0.55,1.09,0.83,2.26,0.83,3.48
				c0,1.42-0.39,2.84-1.14,4.12c-0.68,1.19-1.64,2.19-2.83,2.93C259.21,307.38,257.14,307.9,254.73,307.9z M243.75,302.75
				c0.04,0.03,0.07,0.06,0.11,0.08C243.83,302.8,243.79,302.77,243.75,302.75z M235.33,293.21
				C235.33,293.21,235.33,293.21,235.33,293.21C235.33,293.21,235.33,293.21,235.33,293.21z M260.45,292.44
				C260.45,292.44,260.45,292.44,260.45,292.44C260.45,292.44,260.45,292.44,260.45,292.44z M247.27,285.25
				c0.39,0.02,0.78,0.06,1.15,0.13c0.4-0.6,0.89-1.14,1.47-1.6c0.01-0.06,0.01-0.14,0.01-0.22c0-0.07,0-0.14,0-0.19
				c-0.2-0.03-0.61-0.01-1.48,0.08c-0.73,0.07-1.39,0.13-1.99,0.17c0.02,0.5,0.03,1.06,0.03,1.69
				C246.72,285.27,246.99,285.25,247.27,285.25z M250.45,283.37c0,0-0.01,0.01-0.02,0.01C250.44,283.37,250.44,283.37,250.45,283.37
				z"/>
		</g>
		<g>
			<path class="st10" d="M276.76,297.02c1.37-2.14,2.06-4.57,2.06-7.29c0-1.84-0.35-3.69-1.04-5.53c-0.71-1.85-1.64-3.36-2.78-4.53
				c-1.69-1.69-3.66-2.54-5.92-2.54c-1.46,0-2.79,0.3-3.98,0.9c-1.78,0.88-3.2,2.25-4.26,4.11c-1.19,2.1-1.78,4.52-1.78,7.26
				c0,2.36,0.46,4.52,1.38,6.48c0.95,2.03,2.26,3.54,3.94,4.54c1.39,0.83,2.84,1.24,4.37,1.24c1.16,0,2.32-0.24,3.47-0.72
				C274.08,300.14,275.6,298.84,276.76,297.02z M271.54,295.62c-0.41,0.66-0.95,0.98-1.62,0.98c-0.41,0-0.82-0.17-1.22-0.5
				c-0.4-0.33-0.74-0.78-1.01-1.35c-0.62-1.32-1.13-2.84-1.53-4.55c-0.4-1.71-0.61-3.22-0.61-4.52c0-0.89,0.17-1.65,0.5-2.3
				c0.43-0.86,1.02-1.3,1.75-1.3c0.45,0.02,0.89,0.24,1.33,0.64c0.44,0.4,0.83,0.96,1.16,1.66c0.55,1.14,0.99,2.52,1.33,4.13
				c0.34,1.61,0.51,3.12,0.51,4.51C272.16,294.1,271.95,294.96,271.54,295.62z"/>
			<path class="st10" d="M268.74,307.69c-2.62,0-5.13-0.71-7.46-2.1c-2.72-1.62-4.85-4.03-6.31-7.16c-1.29-2.75-1.95-5.79-1.95-9.03
				c0-3.79,0.86-7.23,2.57-10.23c1.65-2.92,3.96-5.13,6.84-6.54c2-1,4.25-1.52,6.65-1.52c3.85,0,7.38,1.49,10.19,4.31
				c1.75,1.79,3.14,4.01,4.14,6.62c0.96,2.55,1.44,5.12,1.44,7.68c0,3.87-1.01,7.42-3.01,10.53l0,0c-1.82,2.85-4.27,4.95-7.27,6.23
				C272.65,307.29,270.7,307.69,268.74,307.69z"/>
		</g>
		<g>
			<path class="st10" d="M281.37,282.24c0.11,0.37,0.16,1.03,0.16,1.99c0,0.44-0.01,1.34-0.04,2.7c-0.04,1.92-0.07,3.31-0.07,4.15
				c0,2.15,0.16,3.8,0.47,4.94c0.32,1.14,0.89,2.14,1.71,3.01c1.7,1.76,3.96,2.64,6.78,2.64c1.62,0,3.07-0.31,4.35-0.93
				c2.12-1,3.49-2.62,4.11-4.86c0.29-1.06,0.44-2.86,0.44-5.41v-4.22c0.02-2.56,0.06-4.03,0.13-4.43c0.07-0.4,0.33-0.77,0.8-1.11
				c0.45-0.33,0.72-0.58,0.83-0.74c0.11-0.16,0.16-0.41,0.16-0.74c0-0.68-0.31-1.18-0.92-1.49c-0.61-0.31-1.6-0.47-2.96-0.47
				c-1.39,0-2.4,0.16-3.03,0.48c-0.63,0.32-0.94,0.82-0.94,1.51c0,0.32,0.08,0.59,0.25,0.81c0.17,0.22,0.48,0.46,0.94,0.73
				c0.48,0.29,0.77,0.68,0.85,1.18c0.08,0.5,0.15,2.21,0.19,5.12v3.8c0,0.96-0.04,1.71-0.13,2.26c-0.09,0.55-0.25,1.05-0.49,1.5
				c-0.3,0.59-0.73,1.05-1.31,1.39c-0.57,0.34-1.21,0.51-1.91,0.51c-1.11,0-2.01-0.43-2.72-1.28c-0.86-1.04-1.27-2.55-1.23-4.53
				c0.07-3.33,0.11-5.49,0.11-6.5c0-0.98,0.05-1.68,0.15-2.11c0.1-0.43,0.29-0.72,0.57-0.88c0.47-0.29,0.73-0.47,0.79-0.53
				c0.27-0.29,0.41-0.67,0.41-1.16c0-0.98-0.47-1.61-1.41-1.88c-0.96-0.29-2.16-0.43-3.61-0.43c-1.32,0-2.46,0.13-3.43,0.38
				c-0.48,0.13-0.87,0.36-1.17,0.71c-0.29,0.35-0.44,0.74-0.44,1.19c0,0.61,0.29,1.16,0.87,1.66
				C281.02,281.53,281.26,281.87,281.37,282.24z"/>
			<path class="st10" d="M290.4,307.69c-4.45,0-8.29-1.55-11.12-4.49c-1.53-1.6-2.59-3.47-3.18-5.57c-0.47-1.7-0.69-3.79-0.69-6.56
				c0-0.87,0.02-2.3,0.07-4.28c0.02-1.03,0.04-1.79,0.04-2.26c-1.13-1.42-1.75-3.15-1.75-4.98c0-1.89,0.65-3.65,1.87-5.09
				c1.14-1.31,2.59-2.21,4.23-2.64c3.16-0.83,7.4-0.77,10.32,0.11c0.45,0.13,0.88,0.3,1.29,0.5c0.04-0.02,0.09-0.05,0.13-0.07
				c1.5-0.76,3.33-1.12,5.74-1.12c2.39,0,4.21,0.36,5.71,1.13c2.62,1.32,4.19,3.89,4.19,6.85c0,1.49-0.37,2.83-1.09,3.97
				c-0.25,0.38-0.52,0.72-0.8,1.02c-0.01,0.56-0.02,1.25-0.02,2.08v4.18c0,3.2-0.2,5.36-0.65,7c-1.1,3.95-3.64,6.96-7.35,8.71
				C295.27,307.17,292.93,307.69,290.4,307.69z M289.5,292.23L289.5,292.23L289.5,292.23z M303.84,285.52
				c-0.01,0-0.01,0.01-0.02,0.01C303.83,285.53,303.84,285.53,303.84,285.52z M284.56,276.62c0.02,0.02,0.04,0.04,0.07,0.06
				C284.6,276.66,284.58,276.64,284.56,276.62z"/>
		</g>
		<g>
			<path class="st10" d="M316.79,300.7c1.79-0.78,3.2-2.14,4.22-4.08c0.49-0.96,0.88-2.09,1.17-3.39c0.29-1.31,0.44-2.61,0.44-3.91
				c0-2.58-0.39-4.8-1.17-6.67c-0.88-2.12-2.19-3.63-3.93-4.53c-1.17-0.6-2.76-0.9-4.77-0.9c-0.5,0-0.92,0.01-1.25,0.04
				c-1.58,0.1-3,0.16-4.26,0.16c-0.33,0-0.87-0.02-1.61-0.05c-0.33-0.01-0.62-0.02-0.87-0.02c-0.75,0-1.33,0.16-1.75,0.47
				c-0.42,0.32-0.63,0.76-0.63,1.32c0,0.73,0.3,1.24,0.91,1.54c0.42,0.2,0.69,0.45,0.8,0.78c0.11,0.32,0.17,0.97,0.17,1.94
				c0,2.46-0.03,4.95-0.09,7.45c-0.06,2.5-0.12,4.18-0.19,5.05c-0.07,0.75-0.17,1.25-0.29,1.51c-0.12,0.26-0.36,0.45-0.71,0.56
				c-0.37,0.14-0.64,0.32-0.8,0.54c-0.16,0.22-0.24,0.54-0.24,0.94c0,0.58,0.18,1.04,0.55,1.4c0.37,0.36,0.85,0.54,1.44,0.54
				c0.17,0,0.47-0.02,0.9-0.07c0.69-0.07,1.31-0.1,1.86-0.1h0.95c0.81,0,1.74,0.02,2.81,0.07l1.37,0.05l1.6,0.07
				C314.61,301.39,315.73,301.16,316.79,300.7z M310.76,297.39c-0.24-0.3-0.36-0.82-0.36-1.55v-13.37c0-0.52,0.08-0.89,0.26-1.1
				c0.17-0.22,0.47-0.33,0.89-0.33c1.57,0,2.69,0.86,3.35,2.57c0.6,1.55,0.9,3.74,0.9,6.57c0,5.11-1.28,7.67-3.85,7.67
				C311.39,297.84,311,297.69,310.76,297.39z"/>
			<path class="st10" d="M313.41,307.41l-3.19-0.13c-1-0.05-1.86-0.06-2.59-0.06h-0.95c-0.38,0-0.8,0.03-1.26,0.07
				c-0.69,0.07-1.21,0.1-1.5,0.1c-2.14,0-4.14-0.79-5.63-2.23c-1.54-1.49-2.39-3.53-2.39-5.73c0-2.09,0.74-3.57,1.36-4.44
				c0.24-0.32,0.49-0.62,0.77-0.9c0.04-0.91,0.07-2.02,0.11-3.41c0.05-2.16,0.08-4.31,0.09-6.45c-1.22-1.39-1.89-3.16-1.89-5.11
				c0-2.43,1.09-4.66,2.99-6.11c1.52-1.15,3.33-1.71,5.41-1.71l1.08,0.02c0.67,0.03,1.12,0.05,1.4,0.05c1.14,0,2.43-0.05,3.86-0.14
				c0.42-0.03,0.98-0.05,1.65-0.05c3.01,0,5.47,0.51,7.52,1.56c3.05,1.57,5.32,4.12,6.75,7.58c1.08,2.57,1.63,5.6,1.63,8.98
				c0,1.73-0.2,3.49-0.58,5.22c-0.41,1.84-0.97,3.44-1.7,4.86c-1.69,3.21-4.09,5.49-7.16,6.83l0,0
				C317.39,307.01,315.43,307.41,313.41,307.41z M300.85,292.31c-0.13,0.04-0.27,0.1-0.4,0.16
				C300.58,292.42,300.71,292.36,300.85,292.31z M300.47,286c0.09,0.05,0.19,0.1,0.28,0.15C300.66,286.09,300.56,286.05,300.47,286z
				"/>
		</g>
		<g>
			<path class="st10" d="M325.14,281.38c0.35,0.15,0.58,0.39,0.69,0.73c0.11,0.34,0.17,0.97,0.17,1.89
				c0.01,0.97,0.04,2.41,0.08,4.32c0.04,1.99,0.07,3.52,0.07,4.58c0,2.28-0.06,3.66-0.17,4.13c-0.14,0.56-0.46,1-0.96,1.31
				c-0.46,0.29-0.74,0.51-0.86,0.67c-0.12,0.16-0.18,0.39-0.18,0.72c0,0.53,0.18,0.93,0.54,1.19c0.25,0.18,0.67,0.28,1.28,0.28H335
				l2.93,0.47c0.27,0,0.51-0.09,0.7-0.28c0.19-0.19,0.42-0.54,0.67-1.06c0.81-1.62,1.21-3.15,1.21-4.58c0-0.88-0.15-1.59-0.44-2.13
				c-0.3-0.55-0.68-0.82-1.14-0.82c-0.47,0-0.76,0.38-0.9,1.12c-0.23,1.22-0.63,2.12-1.21,2.7c-0.58,0.58-1.37,0.86-2.37,0.86
				c-0.93,0-1.54-0.3-1.83-0.92c-0.24-0.52-0.36-1.67-0.36-3.46v-7.93c0-1.59,0.04-2.62,0.13-3.09c0.09-0.47,0.3-0.81,0.63-1
				c0.56-0.31,0.92-0.56,1.06-0.74c0.15-0.18,0.22-0.47,0.22-0.85c0-0.93-0.55-1.56-1.64-1.87c-0.84-0.23-2.12-0.35-3.82-0.35
				c-1.52,0-2.73,0.19-3.64,0.57c-1.06,0.44-1.6,1.08-1.6,1.92c0,0.37,0.14,0.7,0.42,0.98C324.19,280.9,324.56,281.11,325.14,281.38
				z"/>
			<path class="st10" d="M337.93,307.69l-0.95-0.07l-2.46-0.39h-8.75c-1.93,0-3.57-0.5-4.88-1.47c-1.87-1.37-2.97-3.58-2.97-6.02
				c0-2.12,0.8-3.58,1.47-4.44c0.2-0.26,0.43-0.52,0.7-0.78c0-0.46,0.01-0.99,0.01-1.61c0-1.03-0.02-2.51-0.07-4.45
				c-0.03-1.29-0.05-2.38-0.06-3.25c-0.09-0.08-0.18-0.17-0.27-0.26c-1.38-1.4-2.14-3.25-2.14-5.19c0-3.31,1.99-6.11,5.32-7.49
				c1.65-0.69,3.6-1.03,5.94-1.03c2.31,0,4.03,0.18,5.42,0.56c3.71,1.05,6.07,4.06,6.07,7.68c0,2.2-0.82,3.7-1.51,4.58
				c-0.17,0.21-0.35,0.41-0.54,0.6c0,0.16,0,0.33,0,0.51v1.62c2.9-0.3,5.64,1.26,7.09,3.95c0.77,1.44,1.17,3.12,1.17,5
				c0,2.37-0.62,4.82-1.85,7.27c-0.55,1.11-1.13,1.97-1.82,2.65C341.55,306.97,339.79,307.69,337.93,307.69z M343.97,294.93
				c-0.01,0.04-0.02,0.08-0.02,0.13C343.96,295.02,343.97,294.97,343.97,294.93z M338.36,294.82L338.36,294.82L338.36,294.82z
				 M327.41,275.79l-2.28,5.59l2.37-5.54C327.45,275.81,327.41,275.79,327.41,275.79z"/>
		</g>
		<g>
			<path class="st10" d="M339.97,281.17c0.42,0.21,0.86,0.6,1.32,1.19c1.06,1.36,2.08,2.89,3.07,4.58c0.47,0.82,0.78,1.48,0.92,1.99
				c0.14,0.51,0.21,1.23,0.21,2.15c0,2.96-0.14,4.84-0.42,5.63c-0.12,0.36-0.43,0.65-0.94,0.88c-0.67,0.31-1,0.82-1,1.54
				c0,0.92,0.55,1.54,1.64,1.85c1.29,0.37,2.66,0.55,4.11,0.55c3.53,0,5.3-0.78,5.3-2.35c0-0.66-0.32-1.2-0.96-1.64
				c-0.39-0.26-0.64-0.53-0.76-0.8c-0.12-0.27-0.21-0.76-0.25-1.46c-0.08-1.14-0.12-2.38-0.12-3.72c0-1.59,0.15-2.78,0.44-3.58
				c0.29-0.8,1.04-2.05,2.24-3.74c0.98-1.38,1.66-2.26,2.03-2.63s0.8-0.62,1.31-0.75c0.54-0.13,0.93-0.31,1.15-0.55
				c0.22-0.24,0.33-0.6,0.33-1.07c0-0.37-0.09-0.71-0.28-1.04c-0.19-0.32-0.43-0.54-0.72-0.66c-0.46-0.18-1.45-0.28-2.97-0.28
				c-2.69,0-4.04,0.65-4.04,1.95c0,0.45,0.09,0.81,0.26,1.07c0.25,0.39,0.39,0.64,0.43,0.74c0.04,0.1,0.06,0.26,0.06,0.47
				c0,0.33-0.17,0.78-0.51,1.35c-0.28,0.46-0.51,0.78-0.69,0.96s-0.36,0.27-0.54,0.27c-0.29,0-0.6-0.29-0.92-0.88
				c-0.5-0.91-0.75-1.57-0.75-1.99c0-0.21,0.14-0.55,0.42-1.02c0.19-0.31,0.29-0.62,0.29-0.92c0-0.39-0.13-0.74-0.38-1.05
				c-0.25-0.3-0.58-0.51-1-0.61c-0.91-0.24-2.22-0.36-3.94-0.36c-2.08,0-3.57,0.17-4.46,0.51c-0.89,0.34-1.33,0.9-1.33,1.67
				c0,0.46,0.12,0.83,0.37,1.11C339.02,280.67,339.38,280.88,339.97,281.17z"/>
			<path class="st10" d="M348.89,307.57c-2,0-3.94-0.26-5.77-0.78c-3.71-1.06-6.01-3.99-6.01-7.65c0-2.17,0.84-4.11,2.32-5.53
				c0.02-0.58,0.04-1.4,0.04-2.52c0-0.28,0-0.52-0.03-0.71c0,0.11-0.14-0.15-0.29-0.41c-0.8-1.35-1.62-2.6-2.46-3.7
				c-0.88-0.47-1.62-0.97-2.28-1.7c-1.27-1.45-1.92-3.21-1.92-5.14c0-3.28,2-6.07,5.21-7.3c1.63-0.62,3.67-0.9,6.6-0.9
				c2.31,0,4.06,0.18,5.51,0.57c0.28,0.07,0.56,0.16,0.83,0.26c1.3-0.5,2.92-0.81,4.96-0.81c2.45,0,3.96,0.21,5.22,0.71
				c1.51,0.59,2.79,1.71,3.67,3.2c0.72,1.24,1.11,2.65,1.11,4.08c0,2.5-1.02,4.16-1.88,5.11c-0.82,0.9-1.84,1.57-3.06,2.02
				c-0.26,0.34-0.59,0.8-0.99,1.37c-1.09,1.55-1.43,2.21-1.49,2.35l0,0c0.02,0-0.06,0.45-0.06,1.47c0,0.82,0.02,1.61,0.05,2.35
				c1.32,1.46,2.04,3.3,2.04,5.27C360.22,301.16,359.4,307.57,348.89,307.57z M356.62,292.57c0.01,0,0.01,0.01,0.02,0.01
				C356.63,292.58,356.63,292.57,356.62,292.57z M341.6,292.14c-0.02,0.01-0.03,0.01-0.05,0.02
				C341.57,292.15,341.59,292.15,341.6,292.14z M356.86,276.95c0.05,0.07,0.09,0.14,0.13,0.21
				C356.95,277.09,356.91,277.02,356.86,276.95z M356.63,275.02C356.63,275.02,356.63,275.02,356.63,275.02
				C356.62,275.02,356.63,275.02,356.63,275.02L356.63,275.02z"/>
		</g>
		<g>
			<path class="st10" d="M200.61,329.83c-0.11-0.2-0.19-0.56-0.24-1.11c-0.21-2.21-0.32-4.79-0.32-7.72c0-2.28,0.1-4.22,0.3-5.81
				c0.11-0.76,0.36-1.34,0.76-1.74c0.3-0.29,0.5-0.53,0.59-0.73c0.1-0.2,0.15-0.47,0.15-0.8c0-1.49-1.24-2.23-3.73-2.23
				c-1.42,0-2.39,0.25-2.93,0.74c-0.42,0.38-0.85,1.15-1.28,2.3c-0.07,0.18-0.22,0.58-0.45,1.19l-1.86,4.75
				c-0.18,0.47-0.35,0.8-0.48,0.97c-0.14,0.17-0.29,0.26-0.47,0.26c-0.2,0-0.36-0.08-0.47-0.24c-0.11-0.16-0.32-0.6-0.62-1.33
				l-2.74-6.62c-0.25-0.61-0.44-1.01-0.57-1.21c-0.13-0.2-0.31-0.35-0.54-0.47c-0.47-0.24-1.26-0.36-2.39-0.36
				c-0.45,0-1,0.05-1.64,0.16c-0.65,0.11-1.16,0.24-1.55,0.39c-0.39,0.14-0.7,0.37-0.93,0.71c-0.23,0.33-0.35,0.7-0.35,1.1
				c0,0.62,0.31,1.13,0.94,1.52c0.28,0.18,0.47,0.33,0.57,0.45c0.1,0.12,0.19,0.29,0.27,0.52c0.22,0.67,0.33,1.94,0.33,3.82
				c0,1.5-0.04,3.3-0.11,5.4c-0.07,2.1-0.15,3.61-0.22,4.54c-0.07,0.86-0.16,1.45-0.26,1.75c-0.1,0.3-0.3,0.54-0.59,0.71
				c-0.46,0.29-0.74,0.5-0.85,0.65s-0.16,0.38-0.16,0.7c0,1.26,1.06,1.88,3.19,1.88c2.52,0,3.79-0.64,3.79-1.94
				c0-0.48-0.15-0.82-0.44-1.02c-0.45-0.3-0.72-0.51-0.82-0.62c-0.1-0.12-0.18-0.3-0.24-0.55c-0.09-0.43-0.13-1.24-0.13-2.44
				c0-1.15,0.03-2.41,0.09-3.77c0.03-0.61,0.18-0.92,0.46-0.92c0.26,0,0.51,0.36,0.75,1.07l1.74,5.13c0.23,0.68,0.52,1.46,0.86,2.33
				c0.35,0.88,0.57,1.38,0.67,1.52c0.15,0.22,0.32,0.33,0.51,0.33c0.2,0,0.39-0.13,0.55-0.41c0.17-0.27,0.39-0.8,0.66-1.58
				l1.58-4.65c0.46-1.32,0.8-2.21,1.03-2.65s0.47-0.67,0.71-0.67c0.21,0,0.35,0.14,0.42,0.43c0.07,0.29,0.1,0.89,0.1,1.81
				c0,1.66-0.04,2.83-0.13,3.52c-0.08,0.69-0.24,1.16-0.47,1.4c-0.44,0.47-0.71,0.8-0.82,0.98c-0.11,0.18-0.16,0.41-0.16,0.68
				c0,0.75,0.4,1.28,1.21,1.59c0.73,0.28,1.84,0.41,3.32,0.41c0.97,0,1.68-0.03,2.15-0.09c0.47-0.06,0.91-0.18,1.33-0.36
				c0.82-0.33,1.23-0.9,1.23-1.71c0-0.46-0.16-0.83-0.47-1.11C201,330.32,200.72,330.02,200.61,329.83z"/>
			<path class="st10" d="M197.22,340c-2.28,0-4.01-0.26-5.46-0.8c-0.26-0.1-0.52-0.21-0.76-0.34c-1.14,0.34-2.39,0.34-3.54,0.02
				c-1.36,0.67-3.15,1.1-5.51,1.1c-6.37,0-9.22-3.97-9.22-7.91c0-2.09,0.77-3.53,1.41-4.37c0.16-0.21,0.33-0.41,0.52-0.6
				c0.05-0.87,0.11-2.05,0.16-3.57c0.07-2.02,0.1-3.76,0.1-5.2c0-0.41-0.01-0.75-0.02-1.03c-1.34-1.42-2.1-3.27-2.1-5.28
				c0-1.64,0.5-3.22,1.44-4.57c0.93-1.34,2.26-2.36,3.83-2.92c0.62-0.24,1.51-0.48,2.57-0.66c1.04-0.18,1.93-0.25,2.65-0.25
				c2.15,0,3.79,0.33,5.16,1.03c0.84,0.42,1.59,1.02,2.21,1.73c0.15-0.15,0.3-0.3,0.45-0.44c1.67-1.54,3.96-2.31,6.98-2.31
				c7.7,0,9.76,5.19,9.76,8.26c0,1.26-0.25,2.41-0.75,3.44c-0.24,0.49-0.53,0.95-0.89,1.41c-0.11,1.16-0.17,2.6-0.17,4.24
				c0,2.26,0.07,4.3,0.2,6.08c1.13,1.39,1.69,3,1.69,4.74c0,3.25-1.91,6.04-4.98,7.29c-0.81,0.36-1.82,0.63-2.87,0.76
				C199.49,339.95,198.53,340,197.22,340z M182.87,335.9C182.87,335.9,182.87,335.91,182.87,335.9
				C182.87,335.91,182.87,335.91,182.87,335.9z M176.58,325.63c-0.06,0.04-0.13,0.08-0.18,0.12
				C176.45,325.7,176.51,325.66,176.58,325.63z M182.99,308.45c0.03,0.02,0.06,0.04,0.09,0.06
				C183.06,308.49,183.03,308.47,182.99,308.45z"/>
		</g>
		<g>
			<path class="st10" d="M223.67,330.35c-0.33-0.07-0.57-0.21-0.73-0.41s-0.36-0.62-0.59-1.27l-2.49-7c-2.15-6-3.78-9.62-4.91-10.87
				c-0.81-0.91-1.66-1.36-2.55-1.36c-0.94,0-1.71,0.4-2.32,1.21c-0.29,0.37-0.48,0.75-0.56,1.13c-0.08,0.39-0.13,1.07-0.14,2.06
				c-0.01,0.93-0.13,1.89-0.36,2.86c-0.23,0.97-0.69,2.44-1.38,4.4l-1.86,5.34c-0.55,1.57-0.97,2.59-1.26,3.07
				c-0.29,0.48-0.73,0.85-1.3,1.11c-0.35,0.16-0.6,0.34-0.73,0.54c-0.14,0.2-0.2,0.47-0.2,0.83c0,0.82,0.31,1.35,0.92,1.59
				c0.67,0.25,1.71,0.38,3.14,0.38c2.51,0,3.76-0.69,3.76-2.06c0-0.62-0.27-1.04-0.8-1.24c-0.41-0.17-0.66-0.3-0.73-0.37
				c-0.08-0.08-0.11-0.24-0.11-0.49c0-0.28,0.05-0.56,0.16-0.86c0.11-0.3,0.23-0.51,0.37-0.62c0.23-0.18,0.93-0.28,2.1-0.28
				c1.39,0,2.47,0.07,3.23,0.21c0.71,0.14,1.07,0.59,1.07,1.36c0,0.44-0.21,0.75-0.62,0.93c-0.37,0.16-0.62,0.34-0.76,0.53
				c-0.14,0.19-0.2,0.46-0.2,0.8c0,0.45,0.13,0.83,0.39,1.15c0.26,0.32,0.61,0.53,1.05,0.63c0.96,0.22,2.43,0.33,4.42,0.33
				c1.76,0,3.02-0.18,3.8-0.55c0.77-0.37,1.16-0.97,1.16-1.81C224.62,330.89,224.3,330.47,223.67,330.35z M213.26,323.85h-2.59
				c-0.4,0-0.61-0.14-0.61-0.43c0-0.23,0.18-0.93,0.55-2.11c0.22-0.71,0.35-1.12,0.38-1.23c0.21-0.77,0.47-1.16,0.79-1.16
				c0.18,0,0.34,0.12,0.5,0.34c0.16,0.23,0.39,0.69,0.69,1.37c0.66,1.48,0.99,2.42,0.99,2.8
				C213.97,323.71,213.74,323.85,213.26,323.85z"/>
			<path class="st10" d="M219.66,340c-2.49,0-4.32-0.15-5.76-0.48c-0.69-0.16-1.35-0.4-1.95-0.72c-1.37,0.71-3.19,1.18-5.6,1.18
				c-2.21,0-3.89-0.25-5.28-0.77c-3-1.18-4.81-3.94-4.81-7.22c0-2.03,0.71-3.46,1.31-4.31c0.53-0.76,1.22-1.41,2.07-1.95
				c0.12-0.33,0.27-0.75,0.44-1.25l1.86-5.35c0.6-1.71,1.01-2.99,1.22-3.83c0.12-0.51,0.19-1.02,0.19-1.49
				c0.01-1.44,0.09-2.45,0.27-3.27c0.3-1.33,0.87-2.52,1.72-3.6c1.68-2.23,4.22-3.51,7.06-3.51c1.84,0,4.55,0.59,7.04,3.38
				c1.27,1.41,2.9,3.96,6.08,12.85l2.13,5.99c1.85,1.31,2.98,3.47,2.98,5.97c0,3.17-1.71,5.88-4.59,7.25
				C224.41,339.64,222.38,340,219.66,340z M206.88,336.17c0.08,0.04,0.16,0.07,0.25,0.1C207.05,336.24,206.97,336.21,206.88,336.17z
				 M217.27,336.02c-0.02,0.01-0.03,0.01-0.04,0.02C217.24,336.03,217.25,336.03,217.27,336.02z M200.68,325.16
				c-0.01,0-0.01,0.01-0.02,0.01C200.66,325.16,200.67,325.16,200.68,325.16z"/>
		</g>
		<g>
			<path class="st10" d="M240.55,310.53c-1.17-0.6-2.76-0.9-4.77-0.9c-0.5,0-0.92,0.01-1.25,0.04c-1.58,0.1-3,0.16-4.26,0.16
				c-0.33,0-0.87-0.02-1.61-0.05c-0.33-0.01-0.62-0.02-0.87-0.02c-0.75,0-1.33,0.16-1.75,0.47c-0.42,0.32-0.63,0.76-0.63,1.32
				c0,0.73,0.3,1.24,0.91,1.54c0.42,0.2,0.69,0.46,0.8,0.78c0.11,0.32,0.17,0.97,0.17,1.94c0,2.46-0.03,4.95-0.09,7.45
				c-0.06,2.5-0.12,4.18-0.19,5.05c-0.07,0.75-0.17,1.25-0.29,1.51c-0.12,0.26-0.36,0.45-0.71,0.56c-0.37,0.14-0.64,0.32-0.8,0.54
				c-0.16,0.22-0.24,0.54-0.24,0.94c0,0.58,0.18,1.04,0.55,1.4c0.37,0.36,0.85,0.54,1.44,0.54c0.17,0,0.47-0.02,0.9-0.07
				c0.69-0.07,1.31-0.1,1.86-0.1h0.95c0.81,0,1.75,0.02,2.81,0.07l1.37,0.05l1.6,0.07c1.2,0,2.32-0.23,3.38-0.69
				c1.79-0.78,3.2-2.14,4.22-4.08c0.49-0.96,0.88-2.09,1.17-3.39c0.29-1.31,0.44-2.61,0.44-3.91c0-2.58-0.39-4.8-1.17-6.67
				C243.6,312.93,242.29,311.43,240.55,310.53z M234.98,330.26c-0.55,0-0.95-0.15-1.19-0.46c-0.24-0.3-0.36-0.82-0.36-1.55v-13.37
				c0-0.52,0.09-0.89,0.26-1.1c0.17-0.22,0.47-0.33,0.89-0.33c1.57,0,2.69,0.86,3.35,2.57c0.6,1.55,0.9,3.74,0.9,6.57
				C238.83,327.7,237.55,330.26,234.98,330.26z"/>
			<path class="st10" d="M236.44,339.83l-3.19-0.12c-1-0.05-1.86-0.07-2.59-0.07h-0.95c-0.38,0-0.8,0.03-1.26,0.07
				c-0.71,0.07-1.22,0.1-1.49,0.1c-2.15,0-4.14-0.79-5.63-2.23c-1.54-1.49-2.39-3.53-2.39-5.73c0-1.67,0.47-3.21,1.38-4.46
				c0.23-0.32,0.48-0.61,0.75-0.88c0.04-0.91,0.07-2.02,0.11-3.4c0.05-2.16,0.08-4.31,0.09-6.44c-1.22-1.38-1.89-3.15-1.89-5.11
				c0-2.44,1.1-4.68,3.02-6.13c1.02-0.77,2.78-1.7,5.38-1.7l1.08,0.02c0.68,0.03,1.12,0.05,1.4,0.05c1.14,0,2.43-0.05,3.87-0.14
				c0.41-0.03,0.97-0.05,1.64-0.05c3.02,0,5.48,0.51,7.53,1.56l0,0c3.03,1.56,5.29,4.1,6.74,7.57c1.08,2.59,1.64,5.62,1.64,8.99
				c0,1.74-0.2,3.49-0.58,5.22c-0.4,1.8-0.97,3.43-1.7,4.84c-1.7,3.22-4.1,5.51-7.17,6.85
				C240.42,339.43,238.47,339.83,236.44,339.83z M223.88,324.72c-0.13,0.04-0.26,0.09-0.39,0.16
				C223.62,324.82,223.76,324.77,223.88,324.72z M223.54,318.43c0.08,0.05,0.16,0.09,0.25,0.13
				C223.7,318.51,223.62,318.47,223.54,318.43z"/>
		</g>
		<g>
			<path class="st10" d="M263.48,325.42c-0.32,0-0.57,0.12-0.77,0.35c-0.2,0.23-0.42,0.68-0.67,1.35c-0.42,1.16-0.97,1.97-1.64,2.41
				c-0.67,0.44-1.66,0.67-2.98,0.67c-0.85,0-1.46-0.07-1.83-0.2c-0.37-0.13-0.58-0.37-0.65-0.72c-0.06-0.28-0.12-0.84-0.18-1.7
				c-0.06-0.86-0.09-1.56-0.09-2.1c0-0.89,0.07-1.49,0.22-1.82c0.15-0.33,0.42-0.49,0.81-0.49c1.03,0,1.61,0.65,1.74,1.95
				c0.06,0.63,0.15,1.05,0.26,1.25c0.11,0.2,0.32,0.3,0.62,0.3c0.48,0,0.84-0.32,1.08-0.95c0.43-1.16,0.65-2.65,0.65-4.47
				c0-0.92-0.06-1.81-0.19-2.65c-0.13-0.85-0.28-1.44-0.47-1.77c-0.26-0.45-0.56-0.67-0.92-0.67c-0.25,0-0.46,0.1-0.65,0.31
				c-0.18,0.18-0.3,0.4-0.36,0.65c-0.07,0.25-0.13,0.71-0.19,1.37c-0.04,0.52-0.15,0.88-0.32,1.08c-0.17,0.2-0.44,0.3-0.8,0.3
				c-0.75,0-1.21-0.08-1.38-0.25c-0.18-0.17-0.26-0.6-0.26-1.29c0-1.75,0.01-2.84,0.03-3.27c0.02-0.43,0.09-0.77,0.2-1.02
				c0.22-0.47,0.84-0.71,1.85-0.71c1.35,0,2.33,0.13,2.92,0.39c0.59,0.26,1.08,0.77,1.47,1.55c0.27,0.54,0.49,0.89,0.65,1.04
				c0.16,0.16,0.39,0.23,0.68,0.23c0.42,0,0.75-0.22,1-0.65c0.24-0.43,0.36-1.02,0.36-1.77c0-1.49-0.29-2.75-0.87-3.8
				c-0.35-0.65-0.76-0.97-1.21-0.97c-0.11,0-0.25,0.04-0.44,0.1c-0.6,0.23-1.21,0.38-1.84,0.46c-0.63,0.08-1.63,0.11-3,0.11h-6.78
				c-0.98,0-1.65,0.05-1.99,0.16c-0.27,0.09-0.49,0.28-0.66,0.57c-0.17,0.29-0.25,0.62-0.25,0.98c0,0.68,0.25,1.12,0.75,1.31
				c0.33,0.13,0.55,0.24,0.66,0.33s0.2,0.25,0.29,0.48c0.42,1.16,0.63,3.97,0.63,8.41c0,2.95-0.15,5.29-0.44,7.03
				c-0.07,0.43-0.17,0.75-0.3,0.97c-0.13,0.22-0.32,0.4-0.59,0.55c-0.38,0.23-0.62,0.42-0.73,0.57c-0.11,0.15-0.16,0.39-0.16,0.73
				c0,0.47,0.12,0.84,0.37,1.1c0.25,0.26,0.59,0.39,1.04,0.39h11.18c0.94,0.03,1.69,0.12,2.26,0.26c0.32,0.07,0.56,0.1,0.73,0.1
				c0.2,0,0.37-0.07,0.5-0.2c0.13-0.13,0.3-0.39,0.5-0.79c0.4-0.81,0.73-1.73,1-2.76c0.27-1.04,0.41-1.9,0.41-2.59
				c0-0.63-0.12-1.16-0.36-1.58C264.16,325.63,263.85,325.42,263.48,325.42z"/>
			<path class="st10" d="M262.35,340c-0.63,0-1.28-0.08-2.03-0.25c-0.39-0.09-0.74-0.1-1.18-0.12l-10.96,0
				c-2.11,0-4.05-0.81-5.43-2.29c-1.28-1.34-2.01-3.21-2.01-5.22c0-1.59,0.42-3,1.25-4.19c0.23-0.32,0.48-0.62,0.77-0.9
				c0.1-1.07,0.19-2.6,0.19-4.76c0-2.58-0.07-4.19-0.16-5.17c-1.39-1.36-2.18-3.25-2.18-5.37c0-1.43,0.37-2.83,1.08-4.03
				c0.86-1.5,2.25-2.66,3.91-3.23c1.18-0.36,2.3-0.48,3.94-0.48h6.78c1.05,0,1.81-0.01,2.3-0.07l0.5-0.14
				c0.86-0.31,1.67-0.46,2.48-0.46c1.28,0,4.48,0.4,6.51,4.1c1.06,1.92,1.61,4.18,1.61,6.69c0,1.8-0.38,3.39-1.14,4.73
				c-0.36,0.64-0.79,1.2-1.28,1.69c0.93,0.61,1.73,1.46,2.33,2.49c0.79,1.39,1.17,2.92,1.17,4.6c0,1.21-0.2,2.56-0.6,4.12
				c-0.36,1.39-0.84,2.7-1.41,3.88c-0.56,1.07-1.04,1.77-1.6,2.35C265.82,339.31,264.14,340,262.35,340z M244.55,325.67
				c-0.05,0.03-0.09,0.05-0.14,0.08C244.45,325.73,244.5,325.7,244.55,325.67z"/>
		</g>
		<g>
			<path class="st10" d="M281.42,313.48c0.48-0.32,0.79-0.57,0.9-0.73c0.12-0.17,0.18-0.42,0.18-0.75c0-1.01-0.6-1.68-1.79-1.99
				c-0.89-0.23-1.83-0.34-2.84-0.34c-1.13,0-2.24,0.14-3.34,0.43c-0.92,0.23-1.57,0.49-1.93,0.79c-0.37,0.29-0.55,0.69-0.55,1.18
				c0,0.32,0.06,0.59,0.18,0.79c0.12,0.21,0.36,0.47,0.73,0.78c0.47,0.38,0.76,0.81,0.88,1.28c0.23,0.83,0.34,2.72,0.34,5.67
				c0,4.26-0.08,7.05-0.25,8.36c-0.08,0.6-0.33,1.07-0.76,1.42c-0.56,0.45-0.84,0.93-0.84,1.45c0,1.43,1.43,2.14,4.3,2.14
				c1.68,0,3.1-0.18,4.26-0.55c1.07-0.35,1.61-0.98,1.61-1.9c0-0.66-0.29-1.16-0.87-1.5c-0.32-0.21-0.54-0.4-0.67-0.58
				c-0.13-0.18-0.22-0.43-0.28-0.77c-0.17-1.05-0.25-3.77-0.25-8.17c0-2.6,0.06-4.35,0.19-5.25
				C280.75,314.33,281.02,313.75,281.42,313.48z"/>
			<path class="st10" d="M276.63,339.98c-10.03,0-10.32-7.34-10.32-8.17c0-1.76,0.61-3.43,1.75-4.82c0.05-1.08,0.11-3.02,0.11-6.41
				c0-1.61-0.04-2.65-0.08-3.29c-0.44-0.47-0.77-0.92-1.05-1.39c-0.66-1.11-1.01-2.44-1.01-3.84c0-2.32,1.03-4.47,2.82-5.9
				c1.04-0.85,2.4-1.47,4.23-1.92c2.91-0.77,6.27-0.81,9.14-0.07c3.84,1,6.31,4.07,6.31,7.82c0,1.6-0.43,3.02-1.28,4.23
				c-0.23,0.32-0.47,0.61-0.73,0.87c-0.03,0.67-0.06,1.74-0.06,3.38c0,2.95,0.04,4.73,0.08,5.79c1.24,1.36,1.99,3.23,1.99,5.23
				c0,3.55-2.21,6.48-5.78,7.63C280.93,339.71,278.95,339.98,276.63,339.98z M278.19,334.94c0.11,0.09,0.24,0.17,0.36,0.24
				C278.43,335.1,278.31,335.02,278.19,334.94z M276.97,335.05c0,0-0.01,0.01-0.01,0.01C276.96,335.06,276.96,335.05,276.97,335.05z
				 M269.04,318.21c0.04,0.04,0.09,0.08,0.13,0.11C269.13,318.28,269.08,318.24,269.04,318.21z"/>
		</g>
		<g>
			<path class="st10" d="M303.71,309.97c-0.51-0.21-1.43-0.31-2.76-0.31c-1.03,0-1.75,0.06-2.16,0.17c-1.01,0.28-1.52,0.9-1.52,1.87
				c0,0.39,0.07,0.71,0.21,0.96c0.14,0.25,0.38,0.48,0.72,0.7c0.42,0.27,0.7,0.66,0.83,1.19c0.13,0.53,0.2,1.52,0.2,2.97
				c0,1.28-0.23,1.92-0.69,1.92c-0.27,0-0.72-0.35-1.33-1.05l-6.57-7.53c-0.44-0.51-0.82-0.83-1.14-0.98
				c-0.32-0.14-0.83-0.22-1.54-0.22c-1.23,0-2.09,0.05-2.59,0.14c-1.45,0.29-2.18,0.98-2.18,2.09c0,0.35,0.08,0.64,0.23,0.88
				c0.15,0.24,0.43,0.49,0.82,0.74c0.34,0.22,0.59,0.45,0.74,0.69c0.15,0.24,0.27,0.61,0.37,1.11c0.26,1.36,0.4,3.52,0.4,6.5
				c0,2.79-0.07,4.92-0.22,6.41c-0.09,0.82-0.34,1.39-0.75,1.71c-0.43,0.33-0.71,0.6-0.83,0.8c-0.12,0.2-0.18,0.49-0.18,0.88
				c0,0.75,0.33,1.33,0.98,1.74c0.66,0.41,1.58,0.61,2.76,0.61c2.63,0,3.94-0.8,3.94-2.4c0-0.61-0.29-1.1-0.88-1.48
				c-0.42-0.28-0.7-0.71-0.84-1.3s-0.2-1.68-0.2-3.28c0-1.95,0.27-2.92,0.8-2.92c0.36,0,0.81,0.32,1.36,0.97l7.82,9.17
				c0.46,0.54,0.79,0.89,0.98,1.04c0.2,0.15,0.43,0.22,0.71,0.22c0.62,0,1.06-0.56,1.29-1.68c0.19-0.9,0.29-2.36,0.28-4.39
				c-0.01-1.5-0.01-2.68-0.01-3.54v-5.63c0.01-2.12,0.13-3.56,0.37-4.32c0.07-0.23,0.15-0.4,0.25-0.52c0.1-0.11,0.28-0.25,0.54-0.4
				c0.66-0.38,0.99-0.94,0.99-1.69C304.92,310.91,304.52,310.3,303.71,309.97z"/>
			<path class="st10" d="M301.22,340c-1.61,0-3.13-0.51-4.38-1.48c-0.46-0.35-0.91-0.78-1.49-1.44c-1.52,1.65-3.98,2.9-7.81,2.9
				c-2.33,0-4.34-0.52-5.96-1.53c-2.42-1.5-3.81-4-3.81-6.84c0-1.54,0.37-2.91,1.1-4.08c0.24-0.36,0.49-0.7,0.78-1.03
				c0.07-1.18,0.11-2.76,0.11-4.69c0-2.12-0.07-3.48-0.15-4.31c-0.47-0.44-0.87-0.92-1.2-1.43c-0.8-1.28-1.2-2.69-1.2-4.17
				c0-4.01,2.76-7.15,7.02-8c0.97-0.18,2.08-0.25,3.76-0.25c1.61,0,2.88,0.24,4.02,0.75c0.69,0.31,1.35,0.74,2,1.3
				c0.89-0.75,1.98-1.33,3.21-1.66c0.97-0.27,2.13-0.38,3.75-0.38c2.21,0,3.71,0.22,5,0.74c3.08,1.23,4.99,4.08,4.99,7.43
				c0,2.06-0.77,3.96-2.11,5.41c-0.02,0.39-0.03,0.9-0.04,1.55l0.02,9.11c0.01,2.52-0.12,4.32-0.41,5.68
				C307.4,338.31,303.91,340,301.22,340z M287.27,335.1c0.02,0.01,0.03,0.02,0.05,0.03C287.3,335.12,287.29,335.11,287.27,335.1z
				 M306.95,318.72C306.95,318.72,306.95,318.72,306.95,318.72C306.95,318.72,306.95,318.72,306.95,318.72z M287.52,308.44
				C287.52,308.44,287.52,308.44,287.52,308.44C287.52,308.44,287.52,308.44,287.52,308.44z"/>
		</g>
		<g>
			<path class="st10" d="M321.77,313.48c0.48-0.32,0.79-0.57,0.9-0.73c0.12-0.17,0.18-0.42,0.18-0.75c0-1.01-0.6-1.68-1.79-1.99
				c-0.89-0.23-1.83-0.34-2.84-0.34c-1.13,0-2.24,0.14-3.34,0.43c-0.92,0.23-1.57,0.49-1.93,0.79c-0.37,0.29-0.55,0.69-0.55,1.18
				c0,0.32,0.06,0.59,0.18,0.79c0.12,0.21,0.37,0.47,0.73,0.78c0.47,0.38,0.76,0.81,0.88,1.28c0.23,0.83,0.34,2.72,0.34,5.67
				c0,4.26-0.08,7.05-0.25,8.36c-0.08,0.6-0.33,1.07-0.76,1.42c-0.56,0.45-0.84,0.93-0.84,1.45c0,1.43,1.43,2.14,4.3,2.14
				c1.68,0,3.1-0.18,4.26-0.55c1.07-0.35,1.61-0.98,1.61-1.9c0-0.66-0.29-1.16-0.87-1.5c-0.32-0.21-0.54-0.4-0.67-0.58
				c-0.13-0.18-0.22-0.43-0.28-0.77c-0.17-1.05-0.25-3.77-0.25-8.17c0-2.6,0.06-4.35,0.19-5.25
				C321.1,314.33,321.36,313.75,321.77,313.48z"/>
			<path class="st10" d="M316.98,339.98c-10.04,0-10.33-7.34-10.33-8.17c0-1.76,0.61-3.43,1.75-4.82c0.06-1.09,0.11-3.03,0.11-6.41
				c0-1.61-0.04-2.65-0.08-3.29c-0.44-0.47-0.77-0.92-1.05-1.39c-0.66-1.11-1.01-2.44-1.01-3.84c0-2.3,1.02-4.45,2.79-5.88
				c1.09-0.88,2.44-1.49,4.26-1.94c2.91-0.77,6.28-0.81,9.14-0.07c3.84,1,6.31,4.07,6.31,7.82c0,1.6-0.43,3.02-1.28,4.23
				c-0.23,0.32-0.47,0.61-0.73,0.87c-0.03,0.67-0.05,1.73-0.05,3.38c0,2.95,0.04,4.73,0.08,5.79c1.24,1.36,1.99,3.22,1.99,5.23
				c0,3.56-2.22,6.48-5.78,7.64C321.28,339.71,319.29,339.98,316.98,339.98z M318.54,334.94c0.11,0.09,0.24,0.17,0.36,0.24
				C318.77,335.1,318.65,335.02,318.54,334.94z M309.76,325.65c0,0-0.01,0.01-0.02,0.01C309.75,325.66,309.76,325.66,309.76,325.65z
				 M309.38,318.21c0.04,0.04,0.09,0.08,0.13,0.11C309.47,318.28,309.43,318.24,309.38,318.21z"/>
		</g>
		<g>
			<path class="st10" d="M344.06,309.97c-0.51-0.21-1.43-0.31-2.76-0.31c-1.03,0-1.75,0.06-2.16,0.17c-1.01,0.28-1.52,0.9-1.52,1.87
				c0,0.39,0.07,0.71,0.21,0.96c0.14,0.25,0.38,0.48,0.73,0.7c0.42,0.27,0.7,0.66,0.83,1.19c0.13,0.53,0.2,1.52,0.2,2.97
				c0,1.28-0.23,1.92-0.69,1.92c-0.27,0-0.72-0.35-1.33-1.05l-6.57-7.53c-0.44-0.51-0.82-0.83-1.14-0.98
				c-0.32-0.14-0.83-0.22-1.54-0.22c-1.23,0-2.09,0.05-2.59,0.14c-1.45,0.29-2.18,0.98-2.18,2.09c0,0.35,0.08,0.64,0.23,0.88
				c0.15,0.24,0.43,0.49,0.82,0.74c0.34,0.22,0.59,0.45,0.74,0.69c0.15,0.24,0.27,0.61,0.37,1.11c0.26,1.36,0.4,3.52,0.4,6.5
				c0,2.79-0.07,4.92-0.22,6.41c-0.09,0.82-0.34,1.39-0.75,1.71c-0.43,0.33-0.71,0.6-0.83,0.8c-0.12,0.2-0.18,0.49-0.18,0.88
				c0,0.75,0.33,1.33,0.98,1.74c0.66,0.41,1.58,0.61,2.76,0.61c2.63,0,3.94-0.8,3.94-2.4c0-0.61-0.29-1.1-0.88-1.48
				c-0.42-0.28-0.7-0.71-0.84-1.3c-0.14-0.59-0.2-1.68-0.2-3.28c0-1.95,0.27-2.92,0.81-2.92c0.36,0,0.81,0.32,1.36,0.97l7.82,9.17
				c0.46,0.54,0.78,0.89,0.98,1.04c0.2,0.15,0.43,0.22,0.71,0.22c0.62,0,1.06-0.56,1.29-1.68c0.19-0.9,0.29-2.36,0.28-4.39
				c-0.01-1.5-0.01-2.68-0.01-3.54v-5.63c0.01-2.12,0.13-3.56,0.37-4.32c0.07-0.23,0.15-0.4,0.25-0.52c0.1-0.11,0.28-0.25,0.54-0.4
				c0.66-0.38,0.99-0.94,0.99-1.69C345.27,310.91,344.86,310.3,344.06,309.97z"/>
			<path class="st10" d="M341.56,340c-1.59,0-3.09-0.5-4.34-1.44c-0.49-0.37-0.97-0.83-1.54-1.48c-1.52,1.65-3.98,2.9-7.81,2.9
				c-2.32,0-4.32-0.51-5.95-1.52c-2.43-1.51-3.83-4.01-3.83-6.85c0-1.54,0.37-2.91,1.1-4.08c0.24-0.36,0.49-0.7,0.78-1.03
				c0.07-1.18,0.11-2.76,0.11-4.69c0-2.12-0.07-3.48-0.15-4.31c-0.47-0.44-0.87-0.92-1.2-1.43c-0.8-1.28-1.2-2.69-1.2-4.17
				c0-4.01,2.76-7.15,7.02-8c0.96-0.18,2.1-0.25,3.76-0.25c1.61,0,2.88,0.24,4.02,0.75c0.69,0.31,1.35,0.73,2,1.3
				c0.89-0.75,1.98-1.33,3.21-1.66c0.96-0.26,2.12-0.38,3.75-0.38c2.21,0,3.71,0.22,5,0.74c3.08,1.23,5,4.08,5,7.43
				c0,2.06-0.76,3.96-2.11,5.41c-0.02,0.39-0.03,0.89-0.04,1.54l0.01,9.12c0.01,2.58-0.12,4.34-0.42,5.71
				C347.75,338.31,344.25,340,341.56,340z M327.61,335.1c0.02,0.01,0.03,0.02,0.05,0.03C327.65,335.12,327.63,335.11,327.61,335.1z
				 M347.3,318.72C347.3,318.72,347.29,318.72,347.3,318.72C347.29,318.72,347.3,318.72,347.3,318.72z M327.86,308.44
				C327.86,308.44,327.86,308.44,327.86,308.44C327.86,308.44,327.86,308.44,327.86,308.44z"/>
		</g>
		<g>
			<path class="st10" d="M361.57,310.53c-1.17-0.6-2.76-0.9-4.78-0.9c-0.5,0-0.92,0.01-1.25,0.04c-1.58,0.1-3,0.16-4.26,0.16
				c-0.33,0-0.87-0.02-1.61-0.05c-0.33-0.01-0.62-0.02-0.87-0.02c-0.75,0-1.33,0.16-1.75,0.47c-0.42,0.32-0.63,0.76-0.63,1.32
				c0,0.73,0.3,1.24,0.91,1.54c0.42,0.2,0.69,0.46,0.8,0.78c0.11,0.32,0.17,0.97,0.17,1.94c0,2.46-0.03,4.95-0.09,7.45
				c-0.06,2.5-0.12,4.18-0.19,5.05c-0.07,0.75-0.17,1.25-0.29,1.51c-0.12,0.26-0.36,0.45-0.71,0.56c-0.37,0.14-0.64,0.32-0.8,0.54
				c-0.16,0.22-0.24,0.54-0.24,0.94c0,0.58,0.18,1.04,0.55,1.4c0.37,0.36,0.85,0.54,1.44,0.54c0.17,0,0.47-0.02,0.9-0.07
				c0.69-0.07,1.31-0.1,1.86-0.1h0.95c0.81,0,1.74,0.02,2.81,0.07l1.37,0.05l1.6,0.07c1.19,0,2.32-0.23,3.38-0.69
				c1.79-0.78,3.2-2.14,4.22-4.08c0.49-0.96,0.88-2.09,1.17-3.39c0.29-1.31,0.44-2.61,0.44-3.91c0-2.58-0.39-4.8-1.17-6.67
				C364.62,312.93,363.31,311.43,361.57,310.53z M356.01,330.26c-0.55,0-0.95-0.15-1.19-0.46c-0.24-0.3-0.36-0.82-0.36-1.55v-13.37
				c0-0.52,0.08-0.89,0.26-1.1c0.17-0.22,0.47-0.33,0.89-0.33c1.57,0,2.69,0.86,3.35,2.57c0.6,1.55,0.9,3.74,0.9,6.57
				C359.86,327.7,358.57,330.26,356.01,330.26z"/>
			<path class="st10" d="M357.47,339.83l-3.19-0.12c-1.01-0.05-1.86-0.07-2.59-0.07h-0.95c-0.38,0-0.8,0.03-1.26,0.07
				c-0.7,0.07-1.21,0.1-1.49,0.1c-2.14,0-4.14-0.79-5.63-2.23c-1.53-1.47-2.39-3.51-2.39-5.73c0-1.67,0.47-3.21,1.38-4.46
				c0.23-0.32,0.48-0.61,0.75-0.88c0.04-0.91,0.07-2.02,0.11-3.4c0.05-2.16,0.08-4.31,0.09-6.45c-1.22-1.38-1.89-3.15-1.89-5.11
				c0-2.44,1.1-4.68,3.02-6.13c1.02-0.77,2.78-1.7,5.38-1.7l1.08,0.02c0.68,0.03,1.12,0.05,1.4,0.05c1.15,0,2.44-0.05,3.87-0.14
				c0.41-0.03,0.97-0.05,1.64-0.05c3.02,0,5.48,0.51,7.53,1.56l0,0c3.04,1.56,5.3,4.11,6.74,7.58c1.08,2.58,1.63,5.61,1.63,8.98
				c0,1.74-0.2,3.49-0.58,5.22c-0.4,1.8-0.97,3.43-1.7,4.84c-1.7,3.23-4.1,5.51-7.18,6.85C361.45,339.43,359.5,339.83,357.47,339.83
				z M344.91,324.72c-0.13,0.04-0.26,0.09-0.39,0.16C344.64,324.82,344.78,324.77,344.91,324.72z M344.53,318.41
				c0.09,0.05,0.18,0.1,0.28,0.14C344.71,318.51,344.62,318.46,344.53,318.41z"/>
		</g>
		<g>
			<path class="st10" d="M377.03,313.48c0.48-0.32,0.78-0.57,0.9-0.73c0.12-0.17,0.18-0.42,0.18-0.75c0-1.01-0.6-1.68-1.79-1.99
				c-0.89-0.23-1.83-0.34-2.84-0.34c-1.13,0-2.24,0.14-3.34,0.43c-0.92,0.23-1.57,0.49-1.93,0.79c-0.37,0.29-0.55,0.69-0.55,1.18
				c0,0.32,0.06,0.59,0.19,0.79c0.12,0.21,0.36,0.47,0.72,0.78c0.47,0.38,0.76,0.81,0.88,1.28c0.23,0.83,0.34,2.72,0.34,5.67
				c0,4.26-0.08,7.05-0.25,8.36c-0.08,0.6-0.33,1.07-0.76,1.42c-0.56,0.45-0.84,0.93-0.84,1.45c0,1.43,1.43,2.14,4.3,2.14
				c1.68,0,3.1-0.18,4.26-0.55c1.07-0.35,1.61-0.98,1.61-1.9c0-0.66-0.29-1.16-0.87-1.5c-0.32-0.21-0.54-0.4-0.67-0.58
				c-0.13-0.18-0.22-0.43-0.28-0.77c-0.17-1.05-0.25-3.77-0.25-8.17c0-2.6,0.06-4.35,0.19-5.25
				C376.36,314.33,376.62,313.75,377.03,313.48z"/>
			<path class="st10" d="M372.24,339.98c-10.03,0-10.32-7.34-10.32-8.17c0-1.76,0.61-3.43,1.75-4.82c0.05-1.08,0.11-3.02,0.11-6.41
				c0-1.61-0.04-2.65-0.08-3.29c-0.44-0.47-0.77-0.92-1.05-1.39c-0.66-1.11-1.01-2.44-1.01-3.84c0-2.32,1.03-4.47,2.82-5.9
				c1.04-0.85,2.4-1.47,4.23-1.92c2.91-0.77,6.28-0.81,9.14-0.07c3.84,1,6.31,4.07,6.31,7.82c0,1.6-0.43,3.02-1.28,4.23
				c-0.23,0.32-0.47,0.61-0.73,0.87c-0.03,0.67-0.06,1.74-0.06,3.38c0,2.95,0.04,4.73,0.08,5.79c1.24,1.36,1.99,3.23,1.99,5.23
				c0,3.55-2.21,6.48-5.78,7.63C376.54,339.71,374.55,339.98,372.24,339.98z M373.8,334.94c0.11,0.09,0.24,0.17,0.36,0.24
				C374.03,335.1,373.92,335.02,373.8,334.94z M365.02,325.65c0,0-0.01,0.01-0.02,0.01C365.01,325.66,365.02,325.66,365.02,325.65z
				 M364.65,318.21c0.04,0.04,0.09,0.08,0.13,0.11C364.73,318.28,364.69,318.24,364.65,318.21z"/>
		</g>
		<g>
			<path class="st10" d="M399.86,330.35c-0.33-0.07-0.57-0.21-0.73-0.41s-0.36-0.62-0.59-1.27l-2.49-7c-2.15-6-3.78-9.62-4.91-10.87
				c-0.81-0.91-1.66-1.36-2.55-1.36c-0.94,0-1.71,0.4-2.32,1.21c-0.29,0.37-0.48,0.75-0.56,1.13c-0.08,0.39-0.13,1.07-0.14,2.06
				c-0.01,0.93-0.13,1.89-0.36,2.86c-0.23,0.97-0.69,2.44-1.38,4.4l-1.86,5.34c-0.55,1.57-0.97,2.59-1.26,3.07
				c-0.29,0.48-0.73,0.85-1.3,1.11c-0.35,0.16-0.59,0.34-0.73,0.54c-0.14,0.2-0.2,0.47-0.2,0.83c0,0.82,0.31,1.35,0.92,1.59
				c0.67,0.25,1.71,0.38,3.14,0.38c2.51,0,3.76-0.69,3.76-2.06c0-0.62-0.27-1.04-0.81-1.24c-0.41-0.17-0.66-0.3-0.73-0.37
				c-0.08-0.08-0.11-0.24-0.11-0.49c0-0.28,0.05-0.56,0.16-0.86c0.11-0.3,0.23-0.51,0.37-0.62c0.23-0.18,0.93-0.28,2.1-0.28
				c1.39,0,2.47,0.07,3.23,0.21c0.71,0.14,1.07,0.59,1.07,1.36c0,0.44-0.21,0.75-0.62,0.93c-0.37,0.16-0.62,0.34-0.76,0.53
				c-0.14,0.19-0.2,0.46-0.2,0.8c0,0.45,0.13,0.83,0.39,1.15c0.26,0.32,0.61,0.53,1.05,0.63c0.96,0.22,2.43,0.33,4.42,0.33
				c1.76,0,3.02-0.18,3.8-0.55c0.77-0.37,1.16-0.97,1.16-1.81C400.81,330.89,400.49,330.47,399.86,330.35z M389.45,323.85h-2.59
				c-0.4,0-0.61-0.14-0.61-0.43c0-0.23,0.18-0.93,0.55-2.11c0.22-0.71,0.35-1.12,0.38-1.23c0.21-0.77,0.47-1.16,0.79-1.16
				c0.17,0,0.34,0.12,0.5,0.34c0.16,0.23,0.39,0.69,0.69,1.37c0.66,1.48,0.99,2.42,0.99,2.8
				C390.16,323.71,389.93,323.85,389.45,323.85z"/>
			<path class="st10" d="M395.85,340c-2.49,0-4.32-0.15-5.76-0.48c-0.69-0.16-1.35-0.4-1.95-0.72c-1.37,0.71-3.19,1.18-5.61,1.18
				c-2.2,0-3.88-0.24-5.27-0.77c-3.01-1.19-4.82-3.95-4.82-7.23c0-1.57,0.44-3.04,1.26-4.24c0.57-0.81,1.27-1.48,2.12-2.02
				c0.12-0.33,0.27-0.76,0.45-1.27l1.86-5.34c0.6-1.7,1.01-2.97,1.21-3.81c0.13-0.53,0.19-1.04,0.2-1.52
				c0.02-1.54,0.1-2.5,0.29-3.33c0.26-1.23,0.84-2.44,1.71-3.55c1.67-2.22,4.2-3.51,7.05-3.51c1.84,0,4.56,0.59,7.05,3.39
				c1.26,1.39,2.9,3.94,6.07,12.84l2.13,5.99c1.85,1.31,2.98,3.47,2.98,5.97c0,3.17-1.72,5.88-4.59,7.25
				C400.61,339.64,398.58,340,395.85,340z M383.07,336.17c0.08,0.04,0.16,0.07,0.25,0.1C383.24,336.24,383.16,336.21,383.07,336.17z
				 M381.97,336.08c0,0-0.01,0.01-0.02,0.01C381.96,336.08,381.97,336.08,381.97,336.08z M393.46,336.02
				c-0.02,0.01-0.03,0.01-0.04,0.02C393.43,336.03,393.45,336.02,393.46,336.02z"/>
		</g>
	</g>
	<g>
		<g>
			<path class="st9" d="M221.98,293.04v-9.09c0-1.17-0.06-1.92-0.19-2.24c-0.12-0.32-0.46-0.57-1-0.77
				c-0.79-0.3-1.19-0.82-1.19-1.55c0-0.52,0.17-0.92,0.5-1.19c0.33-0.28,0.82-0.41,1.45-0.41c0.21,0,0.73,0.02,1.57,0.05h0.79
				c1.46-0.01,2.31-0.03,2.57-0.04c0.25-0.02,1.15-0.12,2.68-0.3c0.51-0.07,0.98-0.1,1.4-0.1c1.44,0,2.73,0.39,3.85,1.16
				c1.96,1.34,2.94,3.46,2.94,6.36c0,2.35-0.69,4.23-2.06,5.65c-1.29,1.33-2.86,1.99-4.7,1.99c-0.47,0-1.04-0.04-1.71-0.12
				c-0.36-0.04-0.58-0.05-0.67-0.05c-0.26,0-0.38,0.19-0.38,0.57v0.11l0.09,2.83c0.02,0.55,0.09,0.97,0.23,1.24
				c0.14,0.27,0.42,0.55,0.84,0.84c0.57,0.4,0.86,0.84,0.86,1.31c0,0.73-0.42,1.29-1.27,1.68c-0.84,0.39-2.04,0.59-3.59,0.59
				c-3.25,0-4.88-0.73-4.88-2.19c0-0.35,0.07-0.61,0.21-0.8c0.14-0.18,0.47-0.45,0.99-0.8c0.32-0.22,0.5-0.52,0.55-0.92
				C221.93,296.43,221.97,295.18,221.98,293.04z M227.93,281.76v5.87c0,0.45,0.07,0.72,0.22,0.81c0.26,0.16,0.58,0.24,0.96,0.24
				c0.58,0,1.07-0.21,1.46-0.64c0.57-0.61,0.86-1.63,0.86-3.08c0-1.5-0.33-2.58-1-3.25c-0.42-0.42-0.93-0.64-1.53-0.64
				C228.26,281.09,227.93,281.31,227.93,281.76z"/>
			<path class="st9" d="M246.89,291.26c-0.33,0-0.55,0.13-0.64,0.4c-0.09,0.27-0.14,0.88-0.14,1.85c0,1.46,0.07,2.6,0.21,3.42
				c0.04,0.23,0.11,0.41,0.2,0.54s0.26,0.28,0.5,0.47c0.53,0.38,0.79,0.88,0.79,1.5c0,0.76-0.37,1.3-1.1,1.62
				c-0.73,0.32-1.98,0.48-3.73,0.48c-3.25,0-4.88-0.81-4.88-2.42c0-0.28,0.05-0.5,0.15-0.66c0.1-0.17,0.32-0.4,0.66-0.7
				c0.39-0.33,0.65-0.73,0.78-1.18c0.14-0.46,0.23-1.24,0.28-2.36c0.04-0.82,0.07-3.75,0.07-8.79c0-1.6-0.06-2.69-0.18-3.26
				c-0.12-0.58-0.39-1-0.79-1.26c-0.39-0.24-0.65-0.46-0.78-0.67c-0.13-0.2-0.2-0.46-0.2-0.79c0-0.42,0.13-0.8,0.38-1.11
				c0.25-0.32,0.6-0.55,1.05-0.7c0.38-0.13,0.9-0.19,1.56-0.19c0.29,0,1.02,0.06,2.18,0.17c0.22,0.02,0.57,0.04,1.04,0.04
				c0.79,0,1.85-0.07,3.17-0.21c0.84-0.08,1.42-0.12,1.75-0.12c1.88,0,3.44,0.59,4.67,1.78c1.11,1.07,1.66,2.56,1.66,4.46
				c0,1.06-0.19,2.02-0.58,2.89c-0.39,0.87-0.92,1.52-1.6,1.96c-0.28,0.18-0.42,0.4-0.42,0.66c0,0.33,0.22,0.6,0.65,0.81
				c0.92,0.44,1.6,1.1,2.03,1.99c0.43,0.89,0.74,2.25,0.92,4.08c0.08,0.76,0.19,1.25,0.34,1.48c0.15,0.23,0.5,0.44,1.04,0.65
				c0.17,0.07,0.31,0.22,0.42,0.44c0.11,0.23,0.17,0.48,0.17,0.75c0,0.36-0.11,0.72-0.32,1.08c-0.21,0.36-0.48,0.65-0.82,0.86
				c-0.74,0.45-1.75,0.67-3.03,0.67c-1.72,0-2.94-0.59-3.68-1.78c-0.33-0.53-0.62-1.2-0.85-2c-0.23-0.81-0.51-2.06-0.82-3.77
				c-0.2-1.1-0.46-1.87-0.77-2.32S247.47,291.3,246.89,291.26z M246.12,282.45l-0.15,4.02c0,0.04,0,0.09,0,0.16
				c0,0.42,0.05,0.69,0.14,0.83c0.09,0.14,0.28,0.21,0.56,0.21c0.77,0,1.34-0.26,1.69-0.79c0.35-0.52,0.53-1.36,0.53-2.51
				c0-2.22-0.6-3.33-1.81-3.33c-0.34,0-0.58,0.1-0.73,0.31C246.22,281.55,246.14,281.92,246.12,282.45z"/>
			<path class="st9" d="M268.69,277.11c2.26,0,4.23,0.85,5.92,2.54c1.14,1.16,2.07,2.67,2.78,4.53c0.69,1.84,1.04,3.69,1.04,5.53
				c0,2.72-0.69,5.15-2.06,7.29c-1.16,1.82-2.68,3.13-4.55,3.92c-1.15,0.48-2.31,0.73-3.47,0.73c-1.52,0-2.98-0.42-4.37-1.24
				c-1.68-1-2.99-2.52-3.94-4.55c-0.92-1.96-1.38-4.12-1.38-6.48c0-2.74,0.59-5.16,1.78-7.26c1.05-1.87,2.47-3.24,4.26-4.11
				C265.9,277.41,267.23,277.11,268.69,277.11z M267.43,282.07c-0.74,0-1.32,0.43-1.75,1.3c-0.33,0.64-0.5,1.41-0.5,2.3
				c0,1.3,0.2,2.81,0.61,4.52c0.4,1.71,0.91,3.23,1.53,4.55c0.27,0.56,0.61,1.01,1.01,1.35c0.4,0.34,0.81,0.5,1.22,0.5
				c0.67,0,1.21-0.33,1.62-0.99c0.41-0.66,0.61-1.52,0.61-2.59c0-1.39-0.17-2.9-0.51-4.51c-0.34-1.61-0.79-2.99-1.33-4.13
				c-0.33-0.7-0.72-1.26-1.16-1.66C268.33,282.31,267.88,282.1,267.43,282.07z"/>
			<path class="st9" d="M298.92,286.24v4.22c0,2.55-0.14,4.35-0.43,5.41c-0.62,2.24-2,3.85-4.11,4.86
				c-1.28,0.62-2.73,0.93-4.35,0.93c-2.82,0-5.08-0.88-6.78-2.64c-0.83-0.86-1.4-1.87-1.71-3.01c-0.32-1.14-0.48-2.79-0.48-4.94
				c0-0.84,0.02-2.22,0.07-4.15c0.03-1.36,0.04-2.26,0.04-2.7c0-0.96-0.06-1.62-0.17-1.99c-0.11-0.37-0.35-0.71-0.72-1.04
				c-0.58-0.5-0.87-1.05-0.87-1.66c0-0.45,0.15-0.85,0.44-1.19c0.29-0.34,0.68-0.58,1.17-0.71c0.97-0.25,2.11-0.38,3.43-0.38
				c1.45,0,2.66,0.14,3.61,0.43c0.94,0.28,1.41,0.9,1.41,1.88c0,0.48-0.14,0.87-0.41,1.16c-0.06,0.07-0.33,0.25-0.79,0.53
				c-0.28,0.16-0.47,0.46-0.57,0.88c-0.1,0.42-0.15,1.13-0.15,2.11c0,1-0.04,3.17-0.11,6.5c-0.04,1.98,0.36,3.49,1.23,4.53
				c0.7,0.85,1.61,1.28,2.72,1.28c0.7,0,1.34-0.17,1.91-0.51c0.57-0.34,1.01-0.8,1.31-1.39c0.24-0.45,0.4-0.95,0.49-1.5
				s0.13-1.31,0.13-2.26v-3.8c-0.04-2.92-0.11-4.62-0.19-5.12c-0.08-0.5-0.37-0.9-0.85-1.18c-0.46-0.27-0.77-0.51-0.94-0.73
				c-0.17-0.22-0.25-0.49-0.25-0.81c0-0.69,0.31-1.2,0.94-1.51c0.63-0.32,1.64-0.47,3.03-0.47c1.36,0,2.35,0.16,2.96,0.46
				c0.61,0.31,0.92,0.81,0.92,1.49c0,0.33-0.05,0.58-0.16,0.74c-0.11,0.16-0.38,0.41-0.83,0.74c-0.47,0.35-0.73,0.72-0.8,1.11
				C298.98,282.2,298.93,283.68,298.92,286.24z"/>
			<path class="st9" d="M307.25,301.18h-0.95c-0.55,0-1.17,0.04-1.86,0.1c-0.43,0.05-0.73,0.07-0.9,0.07
				c-0.59,0-1.07-0.18-1.44-0.54c-0.37-0.36-0.55-0.82-0.55-1.4c0-0.4,0.08-0.72,0.24-0.94c0.16-0.22,0.43-0.41,0.8-0.54
				c0.35-0.12,0.59-0.3,0.71-0.56c0.12-0.26,0.22-0.76,0.29-1.51c0.07-0.86,0.13-2.55,0.19-5.04s0.09-4.98,0.09-7.45
				c0-0.97-0.06-1.61-0.17-1.94c-0.11-0.32-0.38-0.58-0.81-0.78c-0.61-0.3-0.91-0.81-0.91-1.54c0-0.56,0.21-1,0.63-1.32
				c0.42-0.32,1-0.48,1.75-0.48c0.25,0,0.54,0.01,0.87,0.02c0.74,0.04,1.27,0.05,1.61,0.05c1.26,0,2.68-0.05,4.26-0.16
				c0.33-0.02,0.75-0.04,1.25-0.04c2.01,0,3.6,0.3,4.77,0.9c1.74,0.9,3.05,2.41,3.93,4.53c0.78,1.86,1.17,4.09,1.17,6.67
				c0,1.3-0.14,2.61-0.43,3.91c-0.29,1.31-0.68,2.44-1.17,3.4c-1.02,1.93-2.43,3.29-4.22,4.08c-1.05,0.46-2.18,0.69-3.38,0.69
				l-1.6-0.07l-1.37-0.05C309,301.2,308.06,301.18,307.25,301.18z M310.02,282.45v13.37c0,0.73,0.12,1.24,0.36,1.55
				c0.24,0.3,0.63,0.46,1.19,0.46c2.57,0,3.85-2.56,3.85-7.67c0-2.82-0.3-5.01-0.9-6.57c-0.66-1.72-1.78-2.57-3.35-2.57
				c-0.42,0-0.72,0.11-0.89,0.33C310.11,281.57,310.02,281.93,310.02,282.45z"/>
			<path class="st9" d="M331.88,285.15v7.93c0,1.79,0.12,2.94,0.36,3.46c0.29,0.61,0.9,0.92,1.83,0.92c1,0,1.79-0.29,2.37-0.86
				s0.98-1.47,1.21-2.7c0.13-0.75,0.43-1.12,0.9-1.12c0.47,0,0.85,0.27,1.14,0.82c0.29,0.55,0.44,1.26,0.44,2.13
				c0,1.43-0.4,2.95-1.21,4.58c-0.26,0.52-0.48,0.87-0.67,1.06c-0.19,0.19-0.43,0.28-0.7,0.28l-2.93-0.47h-9.22
				c-0.61,0-1.03-0.09-1.28-0.28c-0.36-0.27-0.54-0.66-0.54-1.19c0-0.32,0.06-0.56,0.18-0.72c0.12-0.16,0.41-0.38,0.86-0.67
				c0.5-0.31,0.82-0.75,0.96-1.31c0.11-0.47,0.17-1.85,0.17-4.13c0-1.06-0.02-2.59-0.07-4.58c-0.04-1.91-0.07-3.35-0.08-4.32
				c0-0.92-0.05-1.55-0.17-1.89c-0.11-0.34-0.34-0.58-0.69-0.73c-0.58-0.27-0.95-0.48-1.11-0.64c-0.28-0.29-0.42-0.62-0.42-0.99
				c0-0.84,0.53-1.48,1.6-1.92c0.91-0.38,2.12-0.57,3.64-0.57c1.71,0,2.98,0.11,3.82,0.34c1.09,0.31,1.64,0.93,1.64,1.87
				c0,0.38-0.07,0.66-0.22,0.85c-0.15,0.18-0.5,0.43-1.06,0.74c-0.33,0.19-0.55,0.53-0.63,1
				C331.92,282.53,331.88,283.56,331.88,285.15z"/>
			<path class="st9" d="M343.93,277.23c1.72,0,3.04,0.12,3.94,0.36c0.41,0.11,0.74,0.31,1,0.61c0.25,0.31,0.38,0.65,0.38,1.04
				c0,0.3-0.1,0.61-0.29,0.92c-0.28,0.47-0.42,0.81-0.42,1.02c0,0.41,0.25,1.08,0.75,1.99c0.32,0.59,0.63,0.88,0.92,0.88
				c0.19,0,0.36-0.09,0.54-0.27c0.18-0.18,0.4-0.5,0.69-0.96c0.34-0.56,0.51-1.01,0.51-1.35c0-0.21-0.02-0.36-0.06-0.47
				c-0.04-0.1-0.18-0.35-0.43-0.74c-0.18-0.27-0.26-0.62-0.26-1.07c0-1.3,1.34-1.95,4.03-1.95c1.52,0,2.51,0.09,2.97,0.28
				c0.29,0.11,0.53,0.33,0.72,0.65c0.19,0.32,0.28,0.67,0.28,1.04c0,0.47-0.11,0.83-0.33,1.07c-0.22,0.24-0.6,0.42-1.15,0.55
				c-0.5,0.13-0.94,0.38-1.31,0.75s-1.05,1.25-2.03,2.64c-1.2,1.69-1.94,2.94-2.24,3.74c-0.29,0.8-0.44,2-0.44,3.58
				c0,1.34,0.04,2.58,0.12,3.72c0.04,0.7,0.13,1.19,0.25,1.46c0.12,0.27,0.38,0.54,0.77,0.8c0.64,0.44,0.96,0.99,0.96,1.64
				c0,1.57-1.77,2.35-5.3,2.35c-1.45,0-2.82-0.19-4.11-0.55c-1.09-0.31-1.64-0.93-1.64-1.85c0-0.71,0.33-1.23,1-1.54
				c0.5-0.23,0.81-0.52,0.94-0.88c0.28-0.8,0.42-2.67,0.42-5.63c0-0.92-0.07-1.64-0.21-2.15c-0.14-0.51-0.45-1.18-0.92-2
				c-0.99-1.69-2.02-3.22-3.07-4.58c-0.46-0.59-0.9-0.98-1.32-1.19c-0.6-0.29-0.96-0.5-1.08-0.64c-0.25-0.28-0.37-0.64-0.37-1.11
				c0-0.77,0.44-1.33,1.33-1.67S341.85,277.23,343.93,277.23z"/>
			<path class="st9" d="M191.62,326.44l-1.58,4.65c-0.27,0.78-0.49,1.31-0.66,1.58c-0.17,0.27-0.35,0.41-0.55,0.41
				c-0.19,0-0.36-0.11-0.51-0.33c-0.1-0.14-0.32-0.65-0.67-1.52c-0.35-0.87-0.64-1.65-0.86-2.33l-1.74-5.13
				c-0.24-0.71-0.49-1.07-0.75-1.07c-0.28,0-0.43,0.3-0.46,0.92c-0.06,1.36-0.09,2.61-0.09,3.77c0,1.2,0.04,2.01,0.13,2.44
				c0.06,0.25,0.14,0.44,0.24,0.55c0.1,0.11,0.38,0.32,0.82,0.62c0.29,0.19,0.43,0.53,0.43,1.02c0,1.29-1.26,1.94-3.79,1.94
				c-2.13,0-3.19-0.63-3.19-1.88c0-0.32,0.05-0.56,0.17-0.7c0.11-0.14,0.39-0.36,0.85-0.65c0.29-0.17,0.49-0.41,0.59-0.71
				c0.1-0.3,0.19-0.88,0.26-1.74c0.08-0.92,0.15-2.43,0.22-4.54c0.07-2.1,0.11-3.9,0.11-5.4c0-1.88-0.11-3.15-0.33-3.82
				c-0.08-0.23-0.17-0.4-0.27-0.52c-0.1-0.11-0.29-0.26-0.57-0.45c-0.62-0.39-0.94-0.9-0.94-1.52c0-0.4,0.12-0.77,0.35-1.11
				c0.23-0.33,0.54-0.57,0.93-0.71c0.39-0.15,0.9-0.28,1.55-0.39c0.65-0.11,1.19-0.16,1.64-0.16c1.12,0,1.92,0.12,2.39,0.36
				c0.23,0.12,0.41,0.27,0.54,0.47c0.13,0.2,0.32,0.6,0.57,1.21l2.74,6.62c0.3,0.73,0.5,1.17,0.62,1.33
				c0.11,0.16,0.27,0.24,0.48,0.24c0.18,0,0.33-0.09,0.47-0.26c0.14-0.17,0.3-0.5,0.48-0.97l1.86-4.75
				c0.23-0.61,0.38-1.01,0.45-1.19c0.43-1.15,0.86-1.92,1.28-2.3c0.54-0.5,1.51-0.74,2.93-0.74c2.49,0,3.73,0.74,3.73,2.23
				c0,0.34-0.05,0.6-0.15,0.8c-0.1,0.2-0.29,0.45-0.59,0.73c-0.4,0.4-0.66,0.99-0.76,1.75c-0.2,1.59-0.3,3.52-0.3,5.8
				c0,2.94,0.11,5.51,0.32,7.72c0.05,0.54,0.13,0.91,0.24,1.1c0.11,0.2,0.39,0.49,0.85,0.88c0.32,0.28,0.48,0.64,0.48,1.1
				c0,0.81-0.41,1.38-1.23,1.71c-0.42,0.19-0.87,0.31-1.33,0.36c-0.47,0.06-1.18,0.09-2.15,0.09c-1.49,0-2.59-0.14-3.32-0.42
				c-0.81-0.31-1.21-0.84-1.21-1.59c0-0.28,0.05-0.5,0.16-0.68c0.11-0.18,0.38-0.5,0.82-0.98c0.23-0.24,0.38-0.71,0.47-1.4
				c0.08-0.69,0.12-1.87,0.12-3.52c0-0.92-0.03-1.52-0.1-1.81c-0.07-0.29-0.2-0.43-0.42-0.43c-0.25,0-0.48,0.22-0.71,0.67
				C192.42,324.23,192.07,325.12,191.62,326.44z"/>
			<path class="st9" d="M219.47,321.65l2.49,7c0.24,0.64,0.43,1.07,0.59,1.27c0.16,0.2,0.4,0.34,0.73,0.41
				c0.63,0.13,0.95,0.55,0.95,1.26c0,0.84-0.39,1.45-1.16,1.81c-0.77,0.37-2.04,0.55-3.8,0.55c-1.99,0-3.46-0.11-4.42-0.33
				c-0.44-0.11-0.79-0.32-1.05-0.63c-0.26-0.32-0.39-0.7-0.39-1.15c0-0.35,0.07-0.61,0.2-0.8c0.14-0.19,0.39-0.37,0.76-0.53
				c0.41-0.18,0.62-0.5,0.62-0.93c0-0.77-0.36-1.23-1.07-1.36c-0.76-0.14-1.84-0.21-3.23-0.21c-1.17,0-1.87,0.09-2.1,0.28
				c-0.14,0.12-0.26,0.32-0.37,0.62c-0.11,0.3-0.16,0.59-0.16,0.87c0,0.25,0.04,0.42,0.11,0.49c0.07,0.08,0.32,0.2,0.73,0.37
				c0.54,0.21,0.81,0.62,0.81,1.24c0,1.37-1.25,2.06-3.76,2.06c-1.42,0-2.47-0.13-3.14-0.38c-0.62-0.24-0.92-0.77-0.92-1.59
				c0-0.36,0.07-0.63,0.2-0.83c0.14-0.2,0.38-0.37,0.73-0.54c0.57-0.27,1-0.64,1.3-1.11c0.29-0.48,0.71-1.5,1.26-3.07l1.86-5.34
				c0.69-1.96,1.15-3.42,1.38-4.4c0.23-0.97,0.35-1.93,0.36-2.86c0.01-0.99,0.05-1.68,0.14-2.06s0.27-0.76,0.56-1.13
				c0.61-0.81,1.38-1.21,2.32-1.21c0.89,0,1.74,0.46,2.55,1.36C215.69,312.03,217.33,315.65,219.47,321.65z M210.29,323.83h2.58
				c0.47,0,0.71-0.14,0.71-0.41c0-0.38-0.33-1.31-0.99-2.8c-0.3-0.68-0.53-1.13-0.69-1.36c-0.16-0.23-0.33-0.35-0.5-0.35
				c-0.32,0-0.58,0.39-0.79,1.16c-0.04,0.1-0.16,0.51-0.38,1.23c-0.37,1.17-0.55,1.88-0.55,2.11
				C209.69,323.69,209.89,323.83,210.29,323.83z"/>
			<path class="st9" d="M230.29,333.59h-0.95c-0.55,0-1.17,0.04-1.86,0.1c-0.43,0.05-0.73,0.07-0.9,0.07
				c-0.59,0-1.07-0.18-1.44-0.54c-0.37-0.35-0.55-0.82-0.55-1.4c0-0.4,0.08-0.72,0.24-0.94c0.16-0.22,0.43-0.41,0.8-0.54
				c0.35-0.12,0.59-0.3,0.71-0.56c0.12-0.26,0.22-0.76,0.29-1.51c0.07-0.86,0.13-2.55,0.19-5.04c0.06-2.5,0.09-4.98,0.09-7.45
				c0-0.97-0.06-1.61-0.17-1.94c-0.11-0.32-0.38-0.58-0.81-0.78c-0.61-0.3-0.91-0.81-0.91-1.54c0-0.56,0.21-1,0.63-1.32
				c0.42-0.32,1-0.48,1.75-0.48c0.25,0,0.54,0.01,0.87,0.02c0.74,0.04,1.27,0.05,1.61,0.05c1.26,0,2.68-0.05,4.26-0.16
				c0.33-0.02,0.75-0.04,1.25-0.04c2.01,0,3.6,0.3,4.77,0.9c1.74,0.9,3.05,2.41,3.93,4.53c0.78,1.86,1.17,4.09,1.17,6.67
				c0,1.3-0.14,2.61-0.43,3.91c-0.29,1.31-0.68,2.44-1.17,3.4c-1.02,1.93-2.43,3.29-4.22,4.08c-1.05,0.46-2.18,0.69-3.38,0.69
				l-1.6-0.07l-1.37-0.05C232.03,333.62,231.1,333.59,230.29,333.59z M233.06,314.87v13.37c0,0.73,0.12,1.24,0.36,1.55
				c0.24,0.3,0.63,0.46,1.19,0.46c2.57,0,3.85-2.56,3.85-7.67c0-2.82-0.3-5.01-0.9-6.57c-0.66-1.72-1.78-2.57-3.35-2.57
				c-0.42,0-0.72,0.11-0.89,0.33C233.14,313.98,233.06,314.35,233.06,314.87z"/>
			<path class="st9" d="M249.16,310.01h6.78c1.37,0,2.37-0.04,3-0.11c0.63-0.07,1.24-0.23,1.84-0.46c0.19-0.07,0.33-0.1,0.44-0.1
				c0.46,0,0.86,0.32,1.21,0.97c0.58,1.05,0.87,2.32,0.87,3.8c0,0.75-0.12,1.34-0.36,1.77c-0.24,0.43-0.57,0.65-1,0.65
				c-0.29,0-0.52-0.08-0.68-0.23c-0.16-0.16-0.38-0.5-0.65-1.04c-0.39-0.77-0.88-1.29-1.47-1.55c-0.59-0.26-1.57-0.39-2.92-0.39
				c-1.01,0-1.63,0.24-1.85,0.71c-0.11,0.25-0.18,0.59-0.2,1.02c-0.02,0.42-0.03,1.51-0.03,3.26c0,0.69,0.09,1.12,0.26,1.29
				c0.18,0.17,0.64,0.25,1.38,0.25c0.37,0,0.64-0.1,0.81-0.3c0.17-0.2,0.27-0.56,0.32-1.08c0.06-0.67,0.12-1.13,0.19-1.37
				c0.07-0.25,0.19-0.46,0.36-0.65c0.18-0.21,0.4-0.31,0.65-0.31c0.36,0,0.67,0.23,0.92,0.67c0.18,0.34,0.34,0.92,0.47,1.77
				c0.13,0.85,0.19,1.73,0.19,2.65c0,1.82-0.22,3.31-0.65,4.48c-0.24,0.63-0.6,0.95-1.08,0.95c-0.3,0-0.5-0.1-0.62-0.3
				c-0.11-0.2-0.2-0.62-0.26-1.25c-0.13-1.3-0.71-1.95-1.74-1.95c-0.4,0-0.67,0.16-0.81,0.49c-0.14,0.33-0.22,0.94-0.22,1.82
				c0,0.54,0.03,1.24,0.09,2.1c0.06,0.86,0.12,1.43,0.18,1.7c0.07,0.35,0.29,0.58,0.65,0.72c0.36,0.13,0.97,0.2,1.83,0.2
				c1.32,0,2.31-0.22,2.98-0.67c0.67-0.44,1.21-1.25,1.64-2.41c0.25-0.67,0.47-1.12,0.67-1.35c0.2-0.23,0.46-0.35,0.77-0.35
				c0.37,0,0.67,0.21,0.92,0.63c0.24,0.42,0.36,0.95,0.36,1.58c0,0.69-0.14,1.56-0.41,2.59c-0.27,1.04-0.61,1.96-1,2.76
				c-0.2,0.39-0.37,0.65-0.5,0.79c-0.13,0.13-0.3,0.2-0.5,0.2c-0.17,0-0.41-0.04-0.73-0.11c-0.56-0.14-1.31-0.22-2.26-0.26H247.8
				c-0.45,0-0.8-0.13-1.04-0.39c-0.25-0.26-0.37-0.62-0.37-1.1c0-0.33,0.05-0.57,0.16-0.73c0.11-0.15,0.35-0.34,0.73-0.57
				c0.26-0.15,0.46-0.34,0.59-0.55c0.13-0.22,0.23-0.54,0.3-0.97c0.29-1.74,0.44-4.08,0.44-7.03c0-4.45-0.21-7.25-0.63-8.42
				c-0.09-0.23-0.19-0.39-0.29-0.48c-0.11-0.09-0.33-0.2-0.66-0.33c-0.5-0.2-0.75-0.64-0.75-1.31c0-0.37,0.08-0.7,0.25-0.98
				c0.17-0.29,0.39-0.48,0.66-0.57C247.51,310.06,248.18,310.01,249.16,310.01z"/>
			<path class="st9" d="M277.49,309.65c1,0,1.95,0.11,2.84,0.34c1.19,0.31,1.79,0.97,1.79,1.99c0,0.34-0.06,0.58-0.18,0.75
				c-0.12,0.17-0.42,0.41-0.9,0.73c-0.4,0.27-0.67,0.85-0.8,1.74c-0.13,0.9-0.19,2.65-0.19,5.25c0,4.4,0.08,7.13,0.25,8.17
				c0.06,0.34,0.16,0.59,0.28,0.77c0.13,0.18,0.35,0.37,0.67,0.58c0.58,0.35,0.87,0.85,0.87,1.5c0,0.92-0.54,1.56-1.61,1.9
				c-1.16,0.37-2.58,0.55-4.26,0.55c-2.87,0-4.3-0.71-4.3-2.14c0-0.52,0.28-1,0.84-1.45c0.43-0.35,0.69-0.82,0.76-1.42
				c0.17-1.31,0.25-4.1,0.25-8.36c0-2.95-0.11-4.84-0.34-5.67c-0.12-0.47-0.42-0.9-0.88-1.28c-0.36-0.31-0.6-0.57-0.73-0.78
				c-0.12-0.21-0.19-0.47-0.19-0.8c0-0.5,0.18-0.89,0.55-1.18s1.01-0.56,1.93-0.79C275.25,309.79,276.36,309.65,277.49,309.65z"/>
			<path class="st9" d="M290.27,310.84l6.57,7.53c0.62,0.7,1.06,1.05,1.33,1.05c0.46,0,0.69-0.64,0.69-1.92
				c0-1.45-0.07-2.44-0.2-2.97c-0.13-0.53-0.41-0.93-0.83-1.19c-0.34-0.22-0.58-0.45-0.73-0.7c-0.14-0.25-0.21-0.57-0.21-0.96
				c0-0.97,0.5-1.59,1.52-1.86c0.41-0.12,1.13-0.17,2.16-0.17c1.33,0,2.25,0.1,2.76,0.31c0.81,0.32,1.21,0.93,1.21,1.83
				c0,0.75-0.33,1.31-0.99,1.69c-0.26,0.15-0.44,0.28-0.54,0.4c-0.1,0.12-0.18,0.29-0.25,0.52c-0.24,0.76-0.36,2.2-0.37,4.32v5.63
				c0,0.86,0,2.04,0.01,3.54c0.01,2.03-0.08,3.49-0.28,4.39c-0.24,1.12-0.67,1.68-1.29,1.68c-0.27,0-0.51-0.08-0.71-0.23
				c-0.2-0.15-0.53-0.5-0.98-1.04l-7.82-9.18c-0.55-0.64-1-0.97-1.36-0.97c-0.54,0-0.8,0.97-0.8,2.92c0,1.6,0.07,2.69,0.2,3.28
				c0.14,0.59,0.42,1.02,0.84,1.3c0.59,0.38,0.88,0.87,0.88,1.49c0,1.6-1.31,2.4-3.94,2.4c-1.19,0-2.11-0.21-2.76-0.61
				c-0.65-0.41-0.98-0.99-0.98-1.74c0-0.39,0.06-0.69,0.18-0.88c0.12-0.2,0.4-0.46,0.83-0.8c0.41-0.32,0.66-0.89,0.75-1.71
				c0.15-1.49,0.22-3.62,0.22-6.41c0-2.97-0.13-5.14-0.4-6.5c-0.1-0.5-0.22-0.87-0.37-1.11c-0.15-0.24-0.4-0.47-0.74-0.69
				c-0.4-0.25-0.67-0.5-0.82-0.74c-0.15-0.24-0.23-0.53-0.23-0.88c0-1.11,0.73-1.8,2.18-2.09c0.49-0.09,1.35-0.14,2.58-0.14
				c0.7,0,1.22,0.07,1.54,0.21C289.45,310.01,289.83,310.33,290.27,310.84z"/>
			<path class="st9" d="M317.83,309.65c1,0,1.95,0.11,2.84,0.34c1.19,0.31,1.79,0.97,1.79,1.99c0,0.34-0.06,0.58-0.18,0.75
				c-0.12,0.17-0.42,0.41-0.9,0.73c-0.4,0.27-0.67,0.85-0.8,1.74c-0.13,0.9-0.19,2.65-0.19,5.25c0,4.4,0.08,7.13,0.25,8.17
				c0.06,0.34,0.16,0.59,0.28,0.77c0.13,0.18,0.35,0.37,0.67,0.58c0.58,0.35,0.87,0.85,0.87,1.5c0,0.92-0.54,1.56-1.61,1.9
				c-1.16,0.37-2.58,0.55-4.26,0.55c-2.87,0-4.3-0.71-4.3-2.14c0-0.52,0.28-1,0.84-1.45c0.43-0.35,0.69-0.82,0.76-1.42
				c0.17-1.31,0.25-4.1,0.25-8.36c0-2.95-0.11-4.84-0.34-5.67c-0.12-0.47-0.42-0.9-0.88-1.28c-0.36-0.31-0.6-0.57-0.73-0.78
				c-0.12-0.21-0.19-0.47-0.19-0.8c0-0.5,0.18-0.89,0.55-1.18s1.01-0.56,1.93-0.79C315.6,309.79,316.71,309.65,317.83,309.65z"/>
			<path class="st9" d="M330.62,310.84l6.57,7.53c0.62,0.7,1.06,1.05,1.33,1.05c0.46,0,0.69-0.64,0.69-1.92
				c0-1.45-0.07-2.44-0.2-2.97c-0.13-0.53-0.41-0.93-0.83-1.19c-0.34-0.22-0.58-0.45-0.73-0.7c-0.14-0.25-0.21-0.57-0.21-0.96
				c0-0.97,0.5-1.59,1.52-1.86c0.41-0.12,1.13-0.17,2.16-0.17c1.33,0,2.25,0.1,2.76,0.31c0.81,0.32,1.21,0.93,1.21,1.83
				c0,0.75-0.33,1.31-0.99,1.69c-0.26,0.15-0.44,0.28-0.54,0.4c-0.1,0.12-0.18,0.29-0.25,0.52c-0.24,0.76-0.36,2.2-0.37,4.32v5.63
				c0,0.86,0,2.04,0.01,3.54c0.01,2.03-0.08,3.49-0.28,4.39c-0.24,1.12-0.67,1.68-1.29,1.68c-0.27,0-0.51-0.08-0.71-0.23
				c-0.2-0.15-0.53-0.5-0.98-1.04l-7.82-9.18c-0.55-0.64-1-0.97-1.36-0.97c-0.54,0-0.81,0.97-0.81,2.92c0,1.6,0.07,2.69,0.2,3.28
				c0.14,0.59,0.42,1.02,0.84,1.3c0.59,0.38,0.88,0.87,0.88,1.49c0,1.6-1.31,2.4-3.94,2.4c-1.19,0-2.11-0.21-2.76-0.61
				c-0.65-0.41-0.98-0.99-0.98-1.74c0-0.39,0.06-0.69,0.18-0.88c0.12-0.2,0.4-0.46,0.83-0.8c0.41-0.32,0.66-0.89,0.75-1.71
				c0.15-1.49,0.22-3.62,0.22-6.41c0-2.97-0.13-5.14-0.4-6.5c-0.1-0.5-0.22-0.87-0.37-1.11c-0.15-0.24-0.4-0.47-0.74-0.69
				c-0.4-0.25-0.67-0.5-0.82-0.74c-0.15-0.24-0.23-0.53-0.23-0.88c0-1.11,0.73-1.8,2.18-2.09c0.49-0.09,1.35-0.14,2.58-0.14
				c0.7,0,1.22,0.07,1.54,0.21C329.79,310.01,330.18,310.33,330.62,310.84z"/>
			<path class="st9" d="M351.31,333.59h-0.95c-0.55,0-1.17,0.04-1.86,0.1c-0.43,0.05-0.73,0.07-0.9,0.07
				c-0.59,0-1.07-0.18-1.44-0.54c-0.37-0.35-0.55-0.82-0.55-1.4c0-0.4,0.08-0.72,0.24-0.94c0.16-0.22,0.43-0.41,0.8-0.54
				c0.35-0.12,0.59-0.3,0.71-0.56c0.12-0.26,0.22-0.76,0.29-1.51c0.07-0.86,0.13-2.55,0.19-5.04c0.06-2.5,0.09-4.98,0.09-7.45
				c0-0.97-0.06-1.61-0.17-1.94c-0.11-0.32-0.38-0.58-0.81-0.78c-0.61-0.3-0.91-0.81-0.91-1.54c0-0.56,0.21-1,0.63-1.32
				c0.42-0.32,1-0.48,1.75-0.48c0.25,0,0.54,0.01,0.87,0.02c0.74,0.04,1.27,0.05,1.61,0.05c1.26,0,2.68-0.05,4.26-0.16
				c0.33-0.02,0.75-0.04,1.25-0.04c2.01,0,3.6,0.3,4.77,0.9c1.74,0.9,3.05,2.41,3.93,4.53c0.78,1.86,1.17,4.09,1.17,6.67
				c0,1.3-0.14,2.61-0.43,3.91c-0.29,1.31-0.68,2.44-1.17,3.4c-1.02,1.93-2.43,3.29-4.22,4.08c-1.05,0.46-2.18,0.69-3.38,0.69
				l-1.6-0.07l-1.37-0.05C353.05,333.62,352.12,333.59,351.31,333.59z M354.08,314.87v13.37c0,0.73,0.12,1.24,0.36,1.55
				c0.24,0.3,0.63,0.46,1.19,0.46c2.57,0,3.85-2.56,3.85-7.67c0-2.82-0.3-5.01-0.9-6.57c-0.66-1.72-1.78-2.57-3.35-2.57
				c-0.42,0-0.72,0.11-0.89,0.33C354.16,313.98,354.08,314.35,354.08,314.87z"/>
			<path class="st9" d="M373.1,309.65c1,0,1.95,0.11,2.84,0.34c1.19,0.31,1.79,0.97,1.79,1.99c0,0.34-0.06,0.58-0.18,0.75
				c-0.12,0.17-0.42,0.41-0.9,0.73c-0.4,0.27-0.67,0.85-0.8,1.74c-0.13,0.9-0.19,2.65-0.19,5.25c0,4.4,0.08,7.13,0.25,8.17
				c0.06,0.34,0.16,0.59,0.28,0.77c0.13,0.18,0.35,0.37,0.67,0.58c0.58,0.35,0.87,0.85,0.87,1.5c0,0.92-0.54,1.56-1.61,1.9
				c-1.16,0.37-2.58,0.55-4.26,0.55c-2.87,0-4.3-0.71-4.3-2.14c0-0.52,0.28-1,0.84-1.45c0.43-0.35,0.69-0.82,0.76-1.42
				c0.17-1.31,0.25-4.1,0.25-8.36c0-2.95-0.11-4.84-0.34-5.67c-0.12-0.47-0.42-0.9-0.88-1.28c-0.36-0.31-0.6-0.57-0.73-0.78
				c-0.12-0.21-0.19-0.47-0.19-0.8c0-0.5,0.18-0.89,0.55-1.18s1.01-0.56,1.93-0.79C370.86,309.79,371.97,309.65,373.1,309.65z"/>
			<path class="st9" d="M395.66,321.65l2.49,7c0.24,0.64,0.43,1.07,0.59,1.27c0.16,0.2,0.4,0.34,0.73,0.41
				c0.63,0.13,0.95,0.55,0.95,1.26c0,0.84-0.39,1.45-1.16,1.81c-0.77,0.37-2.04,0.55-3.8,0.55c-1.99,0-3.46-0.11-4.42-0.33
				c-0.44-0.11-0.79-0.32-1.05-0.63c-0.26-0.32-0.39-0.7-0.39-1.15c0-0.35,0.07-0.61,0.2-0.8c0.14-0.19,0.39-0.37,0.76-0.53
				c0.41-0.18,0.62-0.5,0.62-0.93c0-0.77-0.36-1.23-1.07-1.36c-0.76-0.14-1.84-0.21-3.23-0.21c-1.17,0-1.87,0.09-2.1,0.28
				c-0.14,0.12-0.26,0.32-0.37,0.62c-0.11,0.3-0.16,0.59-0.16,0.87c0,0.25,0.04,0.42,0.11,0.49c0.07,0.08,0.32,0.2,0.73,0.37
				c0.54,0.21,0.81,0.62,0.81,1.24c0,1.37-1.25,2.06-3.76,2.06c-1.42,0-2.47-0.13-3.14-0.38c-0.62-0.24-0.92-0.77-0.92-1.59
				c0-0.36,0.07-0.63,0.2-0.83c0.14-0.2,0.38-0.37,0.73-0.54c0.57-0.27,1-0.64,1.3-1.11c0.29-0.48,0.71-1.5,1.26-3.07l1.86-5.34
				c0.69-1.96,1.15-3.42,1.38-4.4c0.23-0.97,0.35-1.93,0.36-2.86c0.01-0.99,0.05-1.68,0.14-2.06s0.27-0.76,0.56-1.13
				c0.61-0.81,1.38-1.21,2.32-1.21c0.89,0,1.74,0.46,2.55,1.36C391.88,312.03,393.52,315.65,395.66,321.65z M386.48,323.83h2.58
				c0.47,0,0.71-0.14,0.71-0.41c0-0.38-0.33-1.31-0.99-2.8c-0.3-0.68-0.53-1.13-0.69-1.36c-0.16-0.23-0.33-0.35-0.5-0.35
				c-0.32,0-0.58,0.39-0.79,1.16c-0.04,0.1-0.16,0.51-0.38,1.23c-0.37,1.17-0.55,1.88-0.55,2.11
				C385.88,323.69,386.08,323.83,386.48,323.83z"/>
		</g>
	</g>
</g>
</svg>
