<?xml version="1.0" encoding="utf-8"?>
<!-- Generator: Adobe Illustrator 27.0.0, SVG Export Plug-In . SVG Version: 6.00 Build 0)  -->
<svg version="1.1" id="Layer_1" xmlns="http://www.w3.org/2000/svg" xmlns:xlink="http://www.w3.org/1999/xlink" x="0px" y="0px"
	 viewBox="0 0 573 499" style="enable-background:new 0 0 573 499;" xml:space="preserve">
<style type="text/css">
	.st0{fill:#1B9C4A;}
	.st1{fill:#121212;}
</style>
<g id="ROHS">
	<path class="st0" d="M41.44,230.24c11.52,7.04,23.3,12.89,35.71,17.42c2.17,0.79,3.14,1.93,3.72,4.16
		c2.26,8.82,4.69,17.59,7.26,26.32c0.82,2.76,0.42,3.19-2.45,2.69c-13.19-2.31-25.89-6.13-38.21-11.35c-2.03-0.86-4-2.06-7.02-1.81
		c4.66,2.32,8.77,4.45,12.94,6.44c11.3,5.39,22.92,10,34.91,13.59c2.38,0.72,3.54,1.93,4.29,4.22c3.29,10.07,7.69,19.7,12.49,29.93
		c-19.77-2-38.02-7.55-55.97-14.4c11.1,6.54,22.97,11.2,34.99,15.51c7.29,2.61,14.68,4.92,22.2,6.82c1.38,0.35,2.94,0.47,3.76,2.09
		c5.75,11.38,11.89,22.54,19.46,33.86c-21.91-1.94-41.78-8.71-61.68-15.37c-0.12,0.34-0.24,0.68-0.36,1.02
		c5.57,2.5,11.09,5.11,16.72,7.48c15.79,6.67,31.9,12.47,48.58,16.49c3.69,0.89,5.88,3.01,7.83,5.86c1.07,1.57,2.27,3.05,3.42,4.57
		c3.27,4.29,3.29,4.33-2.2,5.67c-15.3,3.75-30,0.92-43.56-5.98c-48.96-24.93-76.86-64.25-79.94-119.88
		c-1.75-31.65,3.67-62.56,10.11-93.34c4.62-22.07,9.41-44.11,15.14-65.93c0.12-0.47,0.25-0.94-0.42-0.3
		c6.16,5.51,12.64,10.69,18.42,16.58c21.64,22.04,44.06,43.22,66.84,64.08c26.3,24.09,46.2,52.81,56.58,87.23
		c10.23,33.92,5.35,66.13-13.68,96.06c-3.75,5.9-8.82,10.64-14.52,14.74c-2.15,1.55-2.84,0.8-4.41-0.93
		c-6.57-7.26-6.19-13.81-1.64-22.67c13.3-25.86,20.45-53.74,23.25-82.69c0.22-2.29,0.03-4.61-0.39-7.09
		c-6.58,32.52-17.09,63.58-33.96,92.83c-6.52-8.14-11.38-16.88-16.8-25.28c-4.54-7.05-4.81-12.98-0.87-20.8
		c10.72-21.32,17.75-44.06,22.48-67.47c0.44-2.17,0.64-4.28-0.09-6.64c-8.85,25.39-18.92,50.22-32.85,74.14
		c-5.36-10.24-9.51-20.2-13.2-30.37c-0.67-1.85,0.66-3.07,1.46-4.44c8.47-14.42,14.45-29.79,17.88-46.16
		c0.25-1.17,0.61-2.34-0.22-4.2c-6.35,15.94-13.54,30.91-22.78,45.2c-2.14-3.91-3.13-7.87-4.32-11.72
		c-3.08-9.99-5.88-20.07-8.85-30.1c-0.63-2.11-0.34-3.81,0.93-5.71c3.66-5.43,6.48-11.31,8.68-17.48c0.49-1.37,1.3-2.7,0.16-4.73
		c-3.52,6.7-6.81,13.19-11.89,19.82c-4.46-27.81-10.7-54.33-19.97-80.08c5.72,20.59,10.51,41.36,12.71,62.97
		c-6.2-0.9-10.94-4.91-16.65-6.22c-0.02,0.04-0.03,0.08-0.05,0.13c0.12,0,0.3-0.06,0.36,0c4.04,3.87,9.08,6.19,13.95,8.71
		c2.24,1.16,3.53,2.49,4,5.05c1.23,6.82,2.64,13.6,4.2,20.35c0.67,2.9,0.05,3.54-2.86,2.84c-10.22-2.47-20-6.09-29.44-10.69
		C44.42,230.73,43.36,229.67,41.44,230.24z"/>
	<path class="st0" d="M99.93,155.16c2.04,0,3.36,0,4.69,0c140.13,0,280.26,0.18,420.39-0.17c24.78-0.06,39.18,19.93,38.98,39.04
		c-0.49,47.6-0.14,95.21-0.17,142.82c-0.01,18.84-12.64,34.05-30.79,37.15c-1.73,0.3-3.52,0.34-5.28,0.34
		c-116.87,0.02-233.73,0.01-350.6,0.01c-1.18,0-2.36,0-4.23,0c2.05-3.29,3.76-5.99,5.43-8.71c0.59-0.97,1.48-1.07,2.47-1.06
		c1.09,0.01,2.18,0,3.27,0c113.46,0,226.93,0,340.39,0c18.88,0,30.08-11.27,30.08-30.27c0-46.79,0.03-93.58-0.02-140.37
		c-0.01-12.08-5.21-21.16-16.19-26.63c-4.01-2-8.34-2.2-12.74-2.2c-135.23,0.02-270.47-0.1-405.7,0.27
		C110.97,165.4,105.43,162.01,99.93,155.16z"/>
	<path class="st1" d="M367.94,236.65c0-11.29,0.07-22.58-0.05-33.87c-0.03-2.49,0.67-3.29,3.19-3.22c5.84,0.17,11.7,0.14,17.55,0.01
		c2.18-0.05,2.78,0.69,2.74,2.81c-0.12,6.8,0.05,13.6-0.09,20.4c-0.05,2.33,0.68,3.02,2.99,2.96c6.25-0.15,12.52-0.19,18.77,0.02
		c2.69,0.09,3.14-0.94,3.09-3.3c-0.14-6.53,0.05-13.06-0.1-19.58c-0.05-2.37,0.41-3.41,3.09-3.32c5.84,0.2,11.7,0.17,17.55,0.01
		c2.43-0.07,2.9,0.84,2.9,3.06c-0.07,22.71-0.07,45.43,0,68.14c0.01,2.35-0.39,3.41-3.09,3.31c-5.71-0.21-11.43-0.23-17.14,0
		c-2.87,0.12-3.35-1.02-3.31-3.53c0.13-7.89-0.03-15.78,0.1-23.66c0.03-2.26-0.53-3.08-2.93-3.02c-6.39,0.16-12.79,0.14-19.18,0.01
		c-2.2-0.05-2.75,0.7-2.73,2.79c0.1,7.89-0.13,15.78,0.12,23.66c0.1,3.19-0.94,3.9-3.91,3.76c-5.16-0.24-10.34-0.25-15.5,0
		c-3.12,0.15-4.2-0.63-4.13-3.98C368.08,258.96,367.94,247.81,367.94,236.65z"/>
	<path class="st1" d="M271.05,241c10.86,5.29,13.73,15.71,18.6,24.63c4.54,8.32,4.43,8.39-5.15,8.39c-4.35,0-8.7-0.15-13.04,0.06
		c-2.47,0.11-3.89-0.57-5.07-2.88c-3.57-7-7.44-13.86-11.17-20.78c-1.73-3.21-3.85-5.92-7.79-6.51c-2.38-0.35-3.74-0.07-3.65,3.01
		c0.23,7.87-0.07,15.76,0.15,23.64c0.08,2.96-0.88,3.63-3.66,3.52c-5.43-0.22-10.87-0.17-16.3-0.01c-2.39,0.07-3.28-0.44-3.27-3.09
		c0.11-22.83,0.1-45.65,0.01-68.48c-0.01-2.37,0.71-2.94,2.99-2.92c13.32,0.11,26.64,0.07,39.95,0.1c1.63,0,3.26,0.11,4.88,0.31
		c11.78,1.47,18.51,7.54,19.3,17.37C288.81,229.47,283.47,237.25,271.05,241z M251.28,214.52c-1.76,0-3.53,0.06-5.29-0.02
		c-1.57-0.07-2.18,0.59-2.15,2.15c0.06,3.66,0.05,7.33,0,10.99c-0.02,1.52,0.52,2.19,2.12,2.19c4.48,0.01,8.96,0.13,13.34-1
		c3.61-0.93,5.56-3.31,5.52-7.04c-0.04-3.57-1.94-5.76-5.44-6.61C256.7,214.54,253.99,214.52,251.28,214.52z"/>
	<path class="st1" d="M484.4,275.26c-5.97-0.25-11.92-0.44-17.64-2.59c-9.59-3.6-13.91-11.14-15.75-20.61
		c-0.34-1.73-0.04-2.76,2.13-2.86c5.56-0.26,11.12-0.67,16.66-1.17c2.23-0.2,2.92,0.56,3.42,2.76c1.84,8.01,9.69,11.98,17.4,9.01
		c2.84-1.09,4.88-3.07,5.2-6.23c0.32-3.25-1.53-5.38-4.21-6.84c-3.75-2.04-7.95-2.64-12.02-3.68c-5.66-1.45-11.28-3.06-16.3-6.17
		c-13.63-8.47-13.23-27.43,1.24-34.41c12.95-6.25,26.62-6,39.86-0.31c6.64,2.85,9.62,8.86,11.07,15.67c0.38,1.8,0,2.76-2.11,2.85
		c-5.7,0.25-11.4,0.58-17.09,1.06c-1.84,0.15-2.24-0.8-2.76-2.16c-2.41-6.23-7.71-8.78-13.99-6.93c-2.59,0.77-4.47,2.28-4.65,5.02
		c-0.18,2.74,1.83,4.18,4.17,4.83c5.36,1.48,10.79,2.68,16.14,4.16c3,0.83,5.98,1.82,8.83,3.05c8.51,3.67,14,9.63,14.17,19.45
		c0.17,10.13-4.53,17.4-13.21,22.17C498.59,274.86,491.5,275.19,484.4,275.26z"/>
	<path class="st1" d="M325.6,275.2c-15.61-0.1-26.31-7.35-29.87-20.3c-4.81-17.52,6.54-34,24.63-35.66
		c9.1-0.84,17.99-0.29,25.71,5.34c9.31,6.8,12.88,18.75,9.49,31.07c-2.82,10.26-12.17,17.92-23.46,19.15
		C329.94,275.04,327.77,275.07,325.6,275.2z M335.86,247.28c0.22-2.48-0.12-4.9-0.92-7.24c-1.49-4.36-4.83-6.84-9.09-6.84
		c-4.24,0-7.91,2.49-9.26,6.68c-1.58,4.91-1.63,9.93,0.1,14.82c1.47,4.16,5.26,6.66,9.39,6.53c4.19-0.14,7.59-2.82,8.92-7.12
		C335.67,251.89,336.08,249.62,335.86,247.28z"/>
	<path class="st1" d="M304.32,307.01c7.65-5.9,11.26-5.97,18.57-0.41c1.59,1.21,1.86-0.17,2.51-0.74c2.69-2.33,5.72-3.57,9.32-3.35
		c5.47,0.33,8.89,3.28,9.52,8.73c0.87,7.58,0.17,15.21,0.38,22.82c0.04,1.64-0.77,1.95-2.24,2.08c-6.53,0.56-6.52,0.61-6.53-5.88
		c-0.01-5.03,0.09-10.07-0.08-15.09c-0.1-2.76-0.56-5.76-4.23-5.88c-3.44-0.12-5.57,1.84-6.25,5.23c-1.22,6.06-0.69,12.21-0.5,18.3
		c0.13,4.22-2.41,3.17-4.67,3.3c-2.48,0.15-4.38,0.22-4.15-3.43c0.36-5.55,0.24-11.15,0.03-16.72c-0.11-3.03,0.01-6.64-4.6-6.74
		c-3.41-0.07-6.11,2.5-6.32,6.66c-0.29,5.7-0.39,11.43-0.1,17.12c0.21,4.06-2.38,3.03-4.48,3.06c-2.19,0.04-4.59,0.8-4.47-3.14
		c0.27-8.56,0.04-17.13,0.12-25.7c0.01-1.63-1.03-4.32,2.32-3.91C300.78,303.62,304.61,301.36,304.32,307.01z"/>
	<path class="st1" d="M361.58,332.9c0,4.77-0.17,8.97,0.05,13.14c0.19,3.6-2.31,2.76-4.09,2.58c-1.73-0.17-4.67,1.64-4.64-2.41
		c0.08-13.46,0.06-26.92-0.01-40.39c-0.01-1.89,0.49-2.91,2.48-2.52c2.31,0.45,6.15-1.87,5.96,3.22c0.31,0,0.67,0.11,0.8-0.02
		c3.99-3.82,8.63-5.21,13.84-3.1c5.58,2.27,8.25,6.88,8.87,12.66c0.42,3.92,0.41,7.88-1.03,11.67
		C380.27,337.03,371.48,339.34,361.58,332.9z M375.99,318.85c-0.02-0.33,0.09-1.72-0.18-3.03c-0.73-3.5-2.7-5.93-6.45-6.33
		c-3.35-0.36-6.36,2.05-7.27,5.81c-0.38,1.56-0.61,3.22-0.53,4.82c0.31,6.1,3.28,9.89,7.57,9.89
		C373.5,330,375.98,326.34,375.99,318.85z"/>
	<path class="st1" d="M455.77,336.17c-3.78-0.78-7.85,2.03-9.98-2.96c-3.4,2.43-7.02,4.13-11.34,3.71c-5-0.49-8.81-3.7-9.46-8.1
		c-0.73-4.95,1.64-8.96,6.78-10.64c3.59-1.17,7.38-1.73,11.04-2.68c1.07-0.28,2.54-0.31,2.53-2.09c-0.01-1.65-0.57-2.99-2.18-3.56
		c-3.12-1.1-6.11-1.24-8.52,1.64c-1.17,1.4-6.53,1.6-7.97,0.44c-0.73-0.59-0.45-1.14-0.23-1.77c0.69-1.96,1.81-3.64,3.44-4.95
		c4.55-3.66,16.29-3.69,20.93-0.14c2.84,2.17,3.01,5.36,3.24,8.44c0.22,2.97,0.01,5.98,0.06,8.97
		C454.18,326.93,453.56,331.44,455.77,336.17z M444.98,320.62c-2.49,0.59-4.99,1.1-7.45,1.77c-2.42,0.67-4.34,1.98-3.63,4.88
		c0.7,2.87,2.94,3.68,5.63,3.32C444.09,329.97,445.8,326.85,444.98,320.62z"/>
	<path class="st1" d="M255.92,319.48c0-9.9,7.06-16.97,16.94-16.98c10.05-0.01,17.13,7.15,17.07,17.26
		c-0.06,9.93-7.1,17.13-16.8,17.18C262.67,337,255.91,330.14,255.92,319.48z M280.99,319.48c-0.1-5.93-3.3-9.79-8.1-9.75
		c-4.94,0.04-8.07,4.04-7.99,10.23c0.07,5.98,3.15,9.67,8.07,9.67C277.96,329.62,281.09,325.66,280.99,319.48z"/>
	<path class="st1" d="M470.71,307.56c4.21-4.25,8.74-5.98,14.03-4.67c4.18,1.03,6.97,3.6,7.43,8.1c0.79,7.72,0.18,15.46,0.35,23.19
		c0.01,0.68,0,1.66-0.71,1.7c-2.43,0.17-5,0.59-7.26-0.02c-1.8-0.48-0.81-2.83-0.85-4.33c-0.12-5.15-0.01-10.31-0.09-15.47
		c-0.07-4.55-1.84-6.77-5.23-6.84c-3.68-0.07-6.6,2.49-6.85,6.62c-0.34,5.55-0.59,11.13-0.28,16.67c0.22,3.9-1.85,3.68-4.45,3.63
		c-2.46-0.05-4.67,0.55-4.49-3.52c0.37-8.4,0.04-16.83,0.18-25.24c0.02-1.49-1.41-4.34,2.06-4.04
		C467.13,303.55,471.32,301.29,470.71,307.56z"/>
	<path class="st1" d="M229.81,319.32c0.06,6.68,2.12,9.91,6.26,10.3c3.05,0.29,5.36-0.71,6.53-3.68c1.94-4.91,5.44-1.31,7.8-0.96
		c2.78,0.42,0.53,2.85-0.06,4.1c-3.48,7.46-13.89,10.24-21.83,5.99c-5.69-3.04-8.69-10.29-7.64-18.43
		c0.95-7.34,4.91-12.09,11.47-13.73c7.84-1.96,15.24,1.13,18.05,7.36c0.88,1.96,0.92,2.81-1.53,3.22c-3.03,0.5-5.55,1.59-7.8-2.22
		c-2.06-3.49-8.27-2.17-10.18,1.71C229.83,315.12,229.68,317.43,229.81,319.32z"/>
	<path class="st1" d="M510.46,291.39c0,3.63,0.16,6.2-0.04,8.75c-0.2,2.51,0.67,3.59,3.19,3.14c3-0.53,2.84,1.4,2.82,3.43
		c-0.01,2,0.19,3.96-2.82,3.44c-2.5-0.43-3.34,0.62-3.2,3.15c0.23,4.34,0.17,8.69,0.16,13.03c0,2.4,1.02,3.77,3.46,3.11
		c2.2-0.6,2.66,0.49,2.66,2.18c0.01,1.67,1.52,3.62-1.43,4.68c-7.47,2.68-13.15-0.74-13.52-8.58c-0.23-4.88-0.07-9.78-0.16-14.67
		c-0.02-1.08,0.6-2.9-1.31-2.81c-3.51,0.17-2.52-2.22-2.68-4.07c-0.17-1.91,0.18-3.22,2.55-2.92c1.02,0.13,1.6-0.58,1.42-1.49
		C500.21,294.95,506.3,294.75,510.46,291.39z"/>
	<path class="st1" d="M391.54,313.62c0-6.51,0.15-13.02-0.07-19.51c-0.1-2.92,0.87-3.93,3.67-3.56c1.2,0.16,2.44,0.09,3.66,0.01
		c1.71-0.11,2.41,0.51,2.4,2.32c-0.05,13.82-0.04,27.65-0.01,41.47c0,1.3-0.34,1.86-1.76,2.09c-6.87,1.11-7.89,0.31-7.89-6.55
		C391.54,324.46,391.54,319.04,391.54,313.62z"/>
	<path class="st1" d="M418.33,319.95c0,4.49-0.11,8.98,0.05,13.46c0.07,2.2-0.73,2.7-2.8,2.74c-6.13,0.12-6.13,0.22-6.13-5.91
		c0-7.89,0.12-15.78-0.06-23.66c-0.06-2.73,0.79-3.47,3.44-3.36c6.68,0.27,5.39-0.65,5.5,5.3
		C418.39,312.33,418.33,316.14,418.33,319.95z"/>
	<path class="st1" d="M414.09,298.66c-3.59,0.77-4.75-0.26-4.82-4.04c-0.08-4.14,1.84-4.03,4.82-4.15c3.24-0.13,4.42,0.64,4.37,4.16
		C418.41,298.17,417.62,299.81,414.09,298.66z"/>
</g>
</svg>
