<?xml version="1.0" encoding="utf-8"?>
<!-- Generator: Adobe Illustrator 27.0.0, SVG Export Plug-In . SVG Version: 6.00 Build 0)  -->
<svg version="1.1" id="Layer_1" xmlns="http://www.w3.org/2000/svg" xmlns:xlink="http://www.w3.org/1999/xlink" x="0px" y="0px"
	 viewBox="0 0 573 499" style="enable-background:new 0 0 573 499;" xml:space="preserve">
<style type="text/css">
	.st0{fill-rule:evenodd;clip-rule:evenodd;fill:#F79523;}
	.st1{fill-rule:evenodd;clip-rule:evenodd;fill:#A2CB39;}
	.st2{fill-rule:evenodd;clip-rule:evenodd;fill:#41C4F0;}
	.st3{fill:#A2CB39;}
	.st4{fill:#F79523;}
</style>
<g id="Startup_India">
	<path class="st0" d="M103,233.1c-4.87-4.25-9.83-5.49-16.3-5.49c-7.62,0-17.72,3.37-17.72,13.11c0,9.57,9.48,12.4,17.36,13.02
		c5.94,0.35,8.33,1.51,8.33,4.43c0,3.1-3.63,5.14-7.62,5.05c-4.7-0.09-11.52-2.57-14.44-5.85l-5.14,7.44
		c6.11,6.38,12.76,7.53,19.4,7.53c11.96,0,18.07-6.38,18.07-13.82c0-11.16-10.01-12.93-17.98-13.46c-5.4-0.35-7.8-1.86-7.8-4.61
		c0-2.66,2.75-4.16,7.62-4.16c3.99,0,7.44,0.97,10.36,3.72L103,233.1z"/>
	<path class="st0" d="M116.56,218.04v10.81h-7.8v8.95h7.8v18.16c0,10.45,5.94,15.68,15.06,15.33c3.19-0.09,5.58-0.62,8.59-1.77
		l-2.92-8.86c-1.51,0.8-3.37,1.24-5.05,1.24c-3.28,0-5.4-1.95-5.4-5.94v-18.16h11.69v-8.95h-11.6v-11.96L116.56,218.04z"/>
	<path class="st0" d="M165.28,237.09c16.3,0,16.3,25.42,0,25.42c-6.91,0-12.4-4.78-12.4-12.76
		C152.79,241.69,158.37,237.09,165.28,237.09 M177.68,234.61c-2.39-4.16-7.71-6.82-13.38-6.82c-12.22-0.09-21.88,7.53-21.88,21.97
		c0,14.71,9.21,22.41,21.61,22.32c4.7-0.09,11.25-2.48,13.64-7.44l0.53,6.11h9.83v-41.99h-9.92L177.68,234.61z"/>
	<path class="st0" d="M194.6,228.76v41.99h10.36V248.6c0-7.71,5.05-10.63,10.45-10.63c3.37,0,5.4,0.97,7.53,2.75l4.7-9.04
		c-2.3-2.3-6.47-3.99-10.81-3.99c-4.25,0-8.59,0.8-11.87,5.94l-0.8-4.87H194.6z"/>
	<path class="st0" d="M240.4,218.04v10.81h-7.8v8.95h7.8v18.16c0,10.45,5.94,15.68,15.06,15.33c3.19-0.09,5.58-0.62,8.59-1.77
		l-2.92-8.86c-1.51,0.8-3.37,1.24-5.05,1.24c-3.28,0-5.4-1.95-5.4-5.94v-18.16h11.69v-8.95h-11.6v-11.96L240.4,218.04z"/>
	<path class="st0" d="M270.07,228.76v22.06c0,13.02,7.35,20.64,17.36,20.64c5.85,0,9.83-2.04,14.26-6.29l0.71,5.58h9.3v-41.99
		h-10.28v21.44c0,6.47-4.34,11.78-10.72,11.78c-6.64,0-10.1-4.87-10.1-11.25v-21.97L270.07,228.76L270.07,228.76z"/>
	<path class="st0" d="M328.1,288.29v-22.5c3.01,4.61,9.57,5.94,14,5.94c13.46,0,21.17-9.74,21.17-21.97
		c0-12.31-8.59-21.97-21.53-21.97c-4.78,0-10.36,2.04-13.64,6.73l-0.71-5.76h-9.74v59.53H328.1L328.1,288.29z M340.94,261.71
		c-7.09,0-11.96-5.32-11.96-11.96c0-6.56,4.43-11.96,11.96-11.96s11.96,5.4,11.96,11.96C352.81,256.4,347.94,261.71,340.94,261.71"
		/>
	<path class="st0" d="M367.96,216.98c0,8.06,12.22,8.06,12.22,0C380.27,208.92,367.96,208.92,367.96,216.98 M379.3,270.75h-10.36
		v-42.17h10.36V270.75z"/>
	<path class="st0" d="M427.22,270.75v-22.06c0-13.2-7.88-20.64-17.81-20.64c-5.32,0-9.57,2.13-13.82,6.29l-0.71-5.67h-9.3v42.08
		h10.28v-21.44c0-6.38,4.34-11.78,10.72-11.78c6.64,0,10.1,4.87,10.1,11.25v21.97L427.22,270.75L427.22,270.75z"/>
	<path class="st0" d="M467.71,211.22v23.21c-2.48-4.34-9.39-6.73-13.82-6.73c-12.22,0-21.35,7.53-21.35,21.97
		c0,13.82,9.3,21.97,21.61,21.97c5.14,0,10.28-1.68,13.55-6.73l0.71,5.76h9.74v-59.53h-10.45V211.22z M454.86,237.44
		c6.56,0,12.14,4.96,12.14,12.22c0,7.53-5.58,12.31-12.14,12.31c-6.64,0-11.96-5.05-11.96-12.31
		C442.99,242.14,448.22,237.44,454.86,237.44"/>
	<path class="st1" d="M485.78,216.98c0,8.06,12.22,8.06,12.22,0C498,208.92,485.78,208.92,485.78,216.98"/>
	<rect x="486.75" y="228.58" class="st2" width="10.36" height="42.17"/>
	<path class="st0" d="M525.47,237.09c16.3,0,16.3,25.42,0,25.42c-6.91,0-12.4-4.78-12.4-12.76
		C513.06,241.69,518.64,237.09,525.47,237.09 M537.96,234.61c-2.39-4.16-7.71-6.82-13.38-6.82c-12.22-0.09-21.88,7.53-21.88,21.97
		c0,14.71,9.21,22.41,21.61,22.32c4.7-0.09,11.25-2.48,13.64-7.44l0.53,6.11h9.74v-41.99h-9.92L537.96,234.61z"/>
	<rect x="447.6" y="277.22" class="st3" width="49.61" height="10.19"/>
	<rect x="447.42" y="277.3" class="st3" width="10.1" height="49.7"/>
	<rect x="408.09" y="316.81" class="st3" width="49.43" height="10.19"/>
	<path class="st4" d="M41.44,221.76l-2.66,10.54h7.71l2.66-10.54h9.39l-2.57,10.63h5.05v8.15h-7.09l-3.28,12.84h5.58v8.24h-7.44
		l-2.3,9.57h-9.57l2.3-9.57h-7.8l-2.3,9.57h-9.39l2.3-9.57h-5.32v-8.24h7.44l3.28-12.93h-5.85v-8.06h7.8l2.57-10.54h9.48V221.76z
		 M36.39,239.92l-3.54,14h8.86l3.54-14H36.39z"/>
</g>
</svg>
