<?xml version="1.0" encoding="utf-8"?>
<!-- Generator: Adobe Illustrator 27.0.0, SVG Export Plug-In . SVG Version: 6.00 Build 0)  -->
<svg version="1.1" id="Layer_1" xmlns="http://www.w3.org/2000/svg" xmlns:xlink="http://www.w3.org/1999/xlink" x="0px" y="0px"
	 viewBox="0 0 573 499" style="enable-background:new 0 0 573 499;" xml:space="preserve">
<style type="text/css">
	.st0{fill:#252524;}
	.st1{fill:#F07F22;}
	.st2{fill:#4D9A44;}
</style>
<g id="Vocal_For_Local">
	<g>
		<g>
			<g>
				<g>
					<path class="st0" d="M403.9,423.69c-3.03,0-5.43,0-8.33,0c0-4.25,0-8.41,0-12.57c0-2.84-0.11-5.69,0.04-8.52
						c0.11-2.17-0.86-2.72-2.81-2.63c-2.31,0.11-4.63,0.11-6.94-0.01c-2.98-0.15-3.95,1.33-3.68,4.07c0.13,1.34,0.15,2.7,0.22,4.02
						c-7,1.19-7.05,0.86-8.56-7.11c-0.85-4.46,1.76-7.2,6.69-7.37c4.2-0.15,8.41-0.16,12.62-0.09c1.79,0.03,2.46-0.63,2.42-2.38
						c-0.07-2.82-0.02-5.64-0.02-8.71c-9.87,0-19.48,0-29.49,0c0,13.6,0,27.31,0,41.2c-2.95,0-5.51,0-8.5,0c0-5.2,0-10.27,0-15.95
						c-4,2.88-7.83,3.79-12.05,3.12c-6.23-0.99-9.84-4.52-10.34-10.8c-0.36-4.6-0.27-9.24-0.36-13.87c-0.03-1.23,0-2.47,0-3.84
						c-3.63,0-6.86,0-10.56,0c0,13.73,0,27.42,0,41.32c-3.03,0-5.61,0-8.54,0c0-5.76,0-11.6,0-17.68c-3.12,0-5.89,0-8.85,0
						c-0.1,0.72-0.18,1.41-0.28,2.11c-0.88,6.3-4.63,10.42-10.97,11.18c-3.38,0.41-6.88-0.12-10.33-0.26
						c-2.83-0.12-4.12-1.5-3.67-4.43c0.17-1.13,0.03-2.3,0.03-3.86c2.1,0.59,3.92,1.24,5.8,1.6c3.26,0.62,6.57,0.87,9.21-1.68
						c3.63-3.51,2.14-9.1-2.77-10.35c-1.8-0.46-3.73-0.42-5.83-0.62c0-2.09,0-4.23,0-6.55c1.29-0.2,2.62-0.39,3.94-0.6
						c3.27-0.52,4.93-2.45,4.77-5.53c-0.15-2.82-2.04-4.75-5.24-4.69c-2.58,0.04-5.15,0.68-8.1,1.11c0-1.78-0.11-3.72,0.06-5.64
						c0.05-0.61,0.75-1.5,1.33-1.67c4.42-1.28,8.91-1.46,13.3,0.07c4.42,1.54,6.85,4.84,7.16,9.44c0.29,4.31-1.36,7.79-5.39,9.86
						c-0.35,0.18-0.66,0.45-1.02,0.7c4.98,4.12,10.74,2.42,16.47,2.8c0-5.58,0-10.97,0-16.59c-1.83-0.1-3.67-0.2-5.71-0.31
						c0-2.18,0-4.23,0-6.52c40.75,0,81.4,0,122.29,0c0,2.09,0,4.14,0,6.57c-2.35,0-4.81,0-7.6,0c0,14,0,27.63,0,41.51
						c-2.88,0-5.43,0-8.26,0c0-13.62,0-27.25,0-41.14c-4.08,0-7.9,0-12.13,0C403.9,396.07,403.9,409.77,403.9,423.69z M343.3,382.23
						c0,5.51-0.19,10.75,0.06,15.96c0.19,3.89,2.1,5.65,5.58,6.07c3.36,0.4,7.38-1.6,7.85-4.91c0.79-5.61,0.74-11.33,1.05-17.12
						C352.56,382.23,348.16,382.23,343.3,382.23z"/>
				</g>
			</g>
			<g>
				<g>
					<path class="st0" d="M190.77,375.34c0,2.4,0,4.44,0,6.72c-2.78,0-5.38,0-8.37,0c0,4.25,0,8.29,0,12.72
						c-5.29,0-10.2-0.07-15.1,0.02c-5.29,0.1-8.75,3.63-8.72,8.73c0.02,4.45,2.51,7.59,6.61,8.35c4.27,0.79,8.09-1.2,9.76-5.11
						c0.32-0.75,0.56-1.54,0.87-2.39c2.51,0,4.99,0,7.68,0c0,6.65,0,13.12,0,19.84c-2.55,0-5.11,0-7.97,0c0-2.83,0-5.61,0-8.86
						c-4.71,3.46-9.5,4.28-14.62,2.88c-7.41-2.04-11.16-7.61-10.82-15.91c0.28-6.98,4.99-12.47,12.12-13.66
						c3.71-0.62,7.51-0.67,11.57-1c0-1.6,0-3.3,0-5.27c-10.68,0-21.34,0-32.4,0c0,13.63,0,27.34,0,41.22c-2.97,0-5.56,0-8.52,0
						c0-3.16,0-6.36,0-10.19c-1.4,0.79-2.24,1.28-3.09,1.76c-7.55,4.28-19.85,1.79-22.57-7.99c-0.2-0.71-1.15-1.72-1.77-1.74
						c-6.14-0.13-12.28-0.08-18.69-0.08c4.19,5.94,8.39,11.9,12.98,18.41c-3.4,0-6.28,0.09-9.14-0.07c-0.65-0.03-1.41-0.8-1.85-1.41
						c-4.07-5.74-8.28-11.39-11.97-17.37c-1.18-1.9-0.92-4.69-1.39-7.51c2.55,0,4.42,0.04,6.29-0.01c3.67-0.11,5.76-1.94,6.05-5.47
						c0.17-2.09,0.04-4.2,0.05-6.31c0-1.03,0-2.06,0-3.37c-5.25,0-10.25,0-15.51,0c0-2.32,0-4.36,0-6.86c33.41,0,66.96,0,100.51,0
						c0.1-0.28,0.2-0.56,0.3-0.84c-4.13-4.74-5.49-13.06-15.17-10.46c0-2.48,0-4.53,0-6.58c7.32-2,12.7-0.08,16.91,6.1
						c2.01,2.95,4.12,5.85,5.84,8.96c1.26,2.29,2.89,3.03,5.35,2.78C187.5,375.21,189.06,375.34,190.77,375.34z M95.32,398.51
						c3,0,6.36,0.12,9.7-0.08c0.89-0.05,2.08-0.89,2.51-1.7c4.03-7.6,10.96-10.68,19.15-8.32c0,2.25,0,4.5,0,6.68
						c-1.68-0.1-3.15-0.32-4.6-0.24c-3.3,0.18-5.86,2.24-6.74,5.23c-1.42,4.81,0.96,9.08,5.66,10.16c5.3,1.22,11.1-2.01,11.42-7.05
						c0.44-6.88,0.11-13.8,0.11-20.87c-12.16,0-24.18,0-36.27,0C95.96,387.68,95.65,392.85,95.32,398.51z"/>
				</g>
			</g>
			<g>
				<path class="st0" d="M466.3,398.5c0-5.43,0-10.66,0-16.23c-1.81,0-3.54,0-5.51,0c0-2.37,0-4.42,0-6.85c8.18,0,16.41,0,24.76,0
					c-2.82-8.29-6.79-11.38-14.97-11.7c0-2.11,0-4.23,0-6.31c8.58-1.66,13.02,0.16,17.57,7.12c0.92,1.4,1.85,2.8,2.77,4.21
					c4.09,6.24,4.09,6.24,11.66,6.75c0,2.09,0,4.2,0,6.59c-2.45,0-4.83,0-7.65,0c0,13.95,0,27.65,0,41.53c-2.91,0-5.39,0-8.25,0
					c0-13.67,0-27.37,0-41.26c-4,0-7.62,0-11.66,0c0,13.7,0,27.4,0,41.27c-2.99,0-5.58,0-8.51,0c0-5.8,0-11.63,0-17.7
					c-3.12,0-5.9,0-8.84,0c-0.09,0.64-0.2,1.23-0.26,1.83c-0.67,6.32-4.67,10.83-10.98,11.51c-3.49,0.38-7.08-0.23-10.63-0.35
					c-2.91-0.09-3.69-1.7-3.36-4.34c0.15-1.2,0.03-2.44,0.03-3.54c3.64,0.57,6.89,1.37,10.16,1.49c3.04,0.11,5.37-1.42,6.32-4.62
					c1.13-3.84-0.3-6.68-4.24-7.65c-1.81-0.44-3.73-0.42-5.85-0.64c0-2.06,0-4.21,0-6.52c1.29-0.21,2.6-0.45,3.93-0.65
					c3.2-0.48,4.93-2.45,4.79-5.49c-0.13-2.81-2.03-4.63-5.2-4.75c-1.34-0.05-2.72,0.16-4.05,0.4c-1.31,0.23-2.59,0.64-3.91,0.98
					c-0.3-8.21-1.64-7.56,6.71-8.46c6.74-0.73,12.56,2.29,14.33,7.25c1.94,5.44,0.03,10.05-5.66,13.71
					C454.56,399.11,458.27,399.68,466.3,398.5z"/>
			</g>
			<g>
				<path class="st0" d="M262.87,375.33c0,2.43,0,4.39,0,6.76c-2.55,0-5.01,0-7.78,0c0,14.02,0,27.64,0,41.48c-2.87,0-5.42,0-8.23,0
					c0-13.71,0-27.34,0-41.19c-4.07,0-7.9,0-12.1,0c0,13.67,0,27.36,0,41.24c-2.84,0-5.32,0-8.06,0c0-15.99,0-31.98,0-48.29
					c5.78,0,11.43-0.11,17.07,0.05c2.35,0.07,3.08-0.63,3.04-3.01c-0.1-5.97-1.85-8.53-6.33-8.61c-3.73-0.07-5.6,1.59-5.98,5.34
					c-0.06,0.62-0.11,1.24-0.19,2.08c-2.73,0-5.38,0-8.03,0c-1.54-11.36,7.93-15.6,16.26-14.61c8.51,1.01,12.27,5.56,12.36,14.15
					c0.06,5.17-0.38,4.58,4.53,4.62C260.47,375.34,261.51,375.33,262.87,375.33z"/>
			</g>
			<g>
				<path class="st0" d="M202.58,391.14c-2.21,0-4.21,0.17-6.15-0.08c-0.76-0.1-1.75-1.01-2.03-1.77
					c-2.2-6.03,2.29-12.95,8.94-13.95c7.8-1.17,14.03,2.3,16,8.89c2.34,7.86-1.27,16.12-8.76,19.39c-2.7,1.18-5.7,1.68-8.86,2.58
					c5.38,5.66,10.76,11.32,16.73,17.6c-3.78,0-6.85,0.1-9.91-0.07c-0.78-0.04-1.63-0.85-2.24-1.51c-4.49-4.85-8.84-9.83-13.42-14.6
					c-2.3-2.39-1.26-5.11-1.27-7.72c0-0.35,1.43-0.96,2.23-1.01c2.72-0.17,5.46-0.02,8.18-0.22c6.38-0.46,10.04-4.89,9.47-11.27
					c-0.34-3.81-2.54-5.79-5.89-5.29c-2.82,0.42-4.24,3.11-3.5,6.59C202.22,389.39,202.36,390.08,202.58,391.14z"/>
			</g>
		</g>
	</g>
	<g>
		<g>
			<g>
				<path class="st0" d="M11.15,275.12c3.64,0,7.29,0,11.31,0c1.94,13.05,3.89,26.13,5.83,39.21c0.21,0.03,0.41,0.07,0.62,0.1
					c3.22-6.43,6.44-12.85,9.65-19.28c2.99-5.99,6.02-11.97,8.92-18c0.79-1.64,1.76-2.31,3.61-2.21c3.14,0.16,6.3,0.04,9.98,0.04
					c-0.59,1.26-1.01,2.25-1.5,3.2c-8.12,15.97-16.27,31.92-24.32,47.93c-0.87,1.73-1.81,2.51-3.79,2.42
					c-3.36-0.16-6.73-0.1-10.09-0.02c-1.53,0.03-2.18-0.42-2.43-2.05c-2.59-16.88-5.27-33.75-7.92-50.62
					C11,275.66,11.09,275.45,11.15,275.12z"/>
			</g>
			<g>
				<path class="st0" d="M271.65,275c-0.6,3.51-1.13,6.59-1.71,9.96c-3.55,0-7,0-10.45,0c-3.45,0-6.9,0-10.67,0
					c-0.61,3.42-1.19,6.65-1.84,10.31c6.79,0,13.16,0,19.86,0c-0.54,3.15-0.83,5.95-1.59,8.62c-0.22,0.77-1.74,1.63-2.69,1.66
					c-4.83,0.16-9.66,0.14-14.49,0.03c-2.09-0.05-3.1,0.34-3.45,2.8c-0.93,6.62-2.3,13.18-3.53,19.93c-3.94,0-7.77,0-12.03,0
					c0.71-4.35,1.37-8.63,2.12-12.89c2.23-12.68,4.47-25.36,6.82-38.01c0.17-0.9,1.3-2.3,2-2.31
					C250.39,274.95,260.78,275,271.65,275z"/>
			</g>
			<g>
				<g>
					<path class="st0" d="M144.58,298.38c0.42-2.51,0.74-5,1.32-7.42c0.18-0.74,0.99-1.71,1.68-1.88c6.57-1.61,13.25-2.41,19.92-1
						c7.29,1.54,10.65,6.43,9.55,13.81c-1.3,8.79-2.94,17.53-4.45,26.43c-3.78,0-7.4,0-11.2,0c0.15-1.69,0.28-3.24,0.47-5.41
						c-0.94,0.84-1.58,1.38-2.17,1.95c-4.29,4.13-9.36,5.54-15.03,3.82c-3.71-1.13-5.95-3.91-6.39-7.81
						c-0.63-5.63,0.49-10.69,5.46-14.18c4.5-3.16,9.75-3.61,15-3.91c1.15-0.07,2.34,0.15,3.46-0.06c1.27-0.24,2.47-0.8,3.7-1.22
						c-0.89-1.62-1.48-4.3-2.73-4.66c-3.02-0.87-6.38-1.05-9.54-0.78C150.68,296.31,147.8,297.51,144.58,298.38z M163.99,309.7
						c-3.92,0.58-7.57,0.82-11.03,1.73c-2.61,0.69-3.64,3-3.15,5.73c0.51,2.86,2.39,3.96,5.18,3.93
						C160.02,321.03,163.74,316.72,163.99,309.7z"/>
				</g>
			</g>
			<g>
				<g>
					<path class="st0" d="M524.75,302.47c0.62-3.86-0.26-5.39-3.81-6.3c-4.64-1.19-9.15-0.32-13.58,1.13
						c-1.09,0.36-2.15,0.8-3.57,1.33c0.43-2.77,0.7-5.32,1.28-7.8c0.17-0.72,1.15-1.73,1.83-1.78c6.24-0.53,12.54-1.6,18.72-1.12
						c8.02,0.63,11.75,6.07,10.58,14.43c-1.21,8.69-2.96,17.3-4.48,26c-3.75,0-7.29,0-11.1,0c0.17-1.79,0.33-3.42,0.54-5.68
						c-1.19,1.12-1.99,1.87-2.78,2.62c-2.96,2.8-6.47,4.16-10.54,4.08c-8-0.16-12.35-6.46-10.17-14.74
						c1.67-6.37,6.46-10.32,13.99-11.21C516.01,302.91,520.4,302.77,524.75,302.47z M522.97,309.82c-3.61,0.47-7.26,0.62-10.72,1.51
						c-2.81,0.72-3.79,3.35-3.14,6.3c0.58,2.64,2.46,3.41,4.87,3.44C519.23,321.15,523.31,316.37,522.97,309.82z"/>
				</g>
			</g>
			<g>
				<g>
					<path class="st0" d="M436.93,287.48c11.79,0.32,17.69,7.22,16.83,19.18c-0.67,9.44-7.36,19.77-17.48,22.16
						c-13.35,3.16-23.79-4.77-22.8-17.58c0.17-2.18,0.61-4.37,1.19-6.48C417.65,293.96,426.4,287.2,436.93,287.48z M441.87,304.98
						c0-0.94,0.08-1.9-0.01-2.83c-0.47-4.62-4.27-7.17-8.52-5.25c-2.06,0.93-4.4,2.65-5.22,4.6c-1.5,3.58-2.36,7.56-2.75,11.44
						c-0.39,3.85,1.56,6.5,4.22,7.32c2.87,0.88,6.52-0.46,8.63-3.19C440.97,313.5,442.05,309.42,441.87,304.98z"/>
				</g>
			</g>
			<g>
				<g>
					<path class="st0" d="M71.17,329.37c-10.92-0.22-16.96-6.5-16.85-17.55c0.1-11.34,7.55-21.61,17.94-23.79
						c10.65-2.23,19.71,1.41,21.91,11.37C97.16,312.92,87.89,329.93,71.17,329.37z M82.78,304.85c0.19-4.73-1.26-7.57-4.55-8.42
						c-3.43-0.88-7.73,1.09-9.4,5.2c-1.41,3.49-2.06,7.36-2.58,11.12c-0.41,3.02,0.44,5.89,3.66,7.27c2.81,1.2,6.34,0.2,8.74-2.5
						C81.72,314.06,82.74,309.86,82.78,304.85z"/>
				</g>
			</g>
			<g>
				<g>
					<path class="st0" d="M292.51,287.5c11.35-0.25,18.86,6.93,17.32,20.55c-1.58,13.94-14.25,23.76-27.83,20.96
						c-7.2-1.48-11.96-6.85-12.3-15.03c-0.39-9.33,2.99-17.28,10.71-22.93C284.08,288.37,288.34,287.31,292.51,287.5z
						 M298.69,305.43c-0.35-5.08-1.6-7.73-4.69-8.81c-3.24-1.14-7.3,0.59-9.57,4.34c-2.69,4.47-3.73,9.38-2.61,14.5
						c0.98,4.51,4.69,6.37,8.86,4.3c1.93-0.96,3.9-2.71,4.84-4.61C297.02,312.14,297.68,308.7,298.69,305.43z"/>
				</g>
			</g>
			<g>
				<path class="st0" d="M370.16,328.36c3.14-17.9,6.23-35.5,9.33-53.21c4.02,0,7.88,0,12.13,0c-2.49,14.32-4.97,28.56-7.52,43.23
					c7.4,0,14.39,0,21.77,0c-0.58,3.58-1.08,6.73-1.61,9.99C392.98,328.36,381.88,328.36,370.16,328.36z"/>
			</g>
			<g>
				<path class="st0" d="M130.75,317.72c-0.54,3.09-0.95,5.87-1.55,8.61c-0.12,0.56-0.83,1.23-1.41,1.42
					c-6.34,2.01-12.75,2.51-19.06,0.05c-6.02-2.34-8.51-7.33-8.72-13.39c-0.42-11.75,6.58-24.38,19.16-26.28
					c4.71-0.71,9.71,0.32,14.56,0.82c0.67,0.07,1.74,1.71,1.67,2.56c-0.2,2.57-0.87,5.1-1.41,7.96c-1.02-0.52-1.82-0.93-2.61-1.34
					c-8.94-4.59-18.38,0.73-19.13,10.78c-0.04,0.52-0.07,1.05-0.1,1.57c-0.37,7.63,4.42,11.56,11.88,9.64
					C126.13,319.57,128.14,318.66,130.75,317.72z"/>
			</g>
			<g>
				<path class="st0" d="M493.14,299.61c-5.27-3.35-10.32-4.76-15.64-1.27c-4.97,3.25-7.69,11.19-5.8,16.79
					c1.46,4.34,6.08,6.45,11.49,5.05c2.19-0.57,4.27-1.58,6.73-2.51c-0.48,2.84-0.83,5.53-1.44,8.15c-0.17,0.75-0.98,1.68-1.69,1.92
					c-5.91,2.01-11.99,2.45-17.91,0.45c-6.08-2.05-9.04-6.65-9.57-13.08c-0.89-10.71,5-21.51,14.5-25.71
					c6.22-2.75,12.64-2.42,19.09-0.63c1.81,0.5,1.98,1.6,1.71,3.08C494.15,294.32,493.68,296.78,493.14,299.61z"/>
			</g>
			<g>
				<path class="st0" d="M554.26,328.49c-3.42,0-6.46,0.01-9.5-0.01c-0.51,0-1.02-0.11-1.8-0.2c3.23-18.56,6.43-37,9.67-55.61
					c3.81,0,7.44,0,11.37,0C560.77,291.19,557.54,309.69,554.26,328.49z"/>
			</g>
			<g>
				<path class="st0" d="M195.11,328.35c-3.94,0-7.58,0-11.36,0c3.15-18.02,6.25-35.88,9.45-53.72c0.14-0.81,1.2-2.01,1.9-2.06
					c3.12-0.22,6.27-0.1,9.74-0.1C201.57,291.29,198.34,309.82,195.11,328.35z"/>
			</g>
			<g>
				<path class="st0" d="M321.93,288.35c3.92,0,7.36,0,11.17,0c-0.23,1.92-0.44,3.71-0.76,6.4c4.43-5.54,9.34-8.19,16.2-6.94
					c-0.57,3.58-1.13,7.13-1.72,10.83c-1.56-0.38-2.92-0.9-4.32-1.03c-5.95-0.57-10.26,2.3-11.96,8.77
					c-1.64,6.26-2.64,12.69-3.68,19.08c-0.37,2.28-1.06,3.3-3.53,3.09c-2.7-0.23-5.43-0.05-8.44-0.05
					C317.26,314.98,319.58,301.73,321.93,288.35z"/>
			</g>
		</g>
	</g>
	<g>
		<path class="st1" d="M344.13,187.86c1.49-4.15,4.16-6.28,8.45-5.37c0.81,0.17,2.02,1.32,2.03,2.02c0.09,10.4,0.23,20.81-0.13,31.2
			c-0.18,5.06-4.11,8.33-9.6,8.94c-0.18-1.61-0.36-3.22-0.61-5.47c-1.08,0.86-1.85,1.42-2.58,2.04c-9.27,7.87-22.81,4.77-28.54-5.98
			c-4.41-8.28-2.82-22.33,3.62-28.48c6.66-6.37,19.41-6.78,25.16-0.43C342.46,186.91,343.25,187.26,344.13,187.86z M320.95,203.47
			c-0.04,7.69,4.91,13.32,11.68,13.3c6.93-0.02,11.76-5.37,11.87-13.12c0.11-7.61-4.8-12.94-11.92-12.95
			C325.5,190.67,320.99,195.63,320.95,203.47z"/>
		<path class="st2" d="M218.43,181.74c3.94-9.92,16.91-14.23,27.1-8.97c2.98,1.54,5.83,3.37,8.89,4.7
			c5.27,2.29,10.8,2.49,16.31,0.91c4.59-1.31,7.49-4.46,8.9-8.99c0.97-3.13,0.63-3.58-2.75-3.74c-0.51-0.02-1.01-0.09-2.19-0.21
			c6.49-19.04,12.87-37.78,19.43-57.01c5.21,5.4,11.08,7.73,18.71,6.6c-0.9,1.9-1.63,3.54-2.43,5.13
			c-7.08,14.16-14.21,28.3-21.23,42.5c-0.98,1.98-2.02,3.15-4.43,3.16c-0.96,0-2.56,1.16-2.77,2.05
			c-2.01,8.49-7.67,13.11-16.58,13.46c-6.09,0.24-11.58-1.44-16.7-4.62c-5.2-3.23-10.59-5.35-16.95-3.7
			c-4.63,1.2-8.04,3.86-10.87,7.53c-0.53,0.69-1.24,1.24-1.87,1.85C218.81,182.17,218.62,181.95,218.43,181.74z"/>
		<path class="st1" d="M239.31,225.5c-12.6,0.33-21.86-9.54-21.41-23c0.41-12.24,9.62-20.94,22.49-20.86
			c11.52,0.07,21.96,8.87,21.35,23.58C261.26,216.79,251.75,225.65,239.31,225.5z M228.23,203.57c-0.08,5.66,2.27,10.16,6.35,12.1
			c4.31,2.06,8.42,1.55,12.1-1.37c5.63-4.47,6.24-15.14,1.13-20.41c-1.19-1.23-2.84-2.24-4.47-2.77
			C235.13,188.46,228.35,194.11,228.23,203.57z"/>
		<path class="st1" d="M307.01,196.28c-3.54,0-6.55,0.11-9.55-0.07c-0.77-0.05-1.67-0.88-2.18-1.59c-2.61-3.6-6.03-5.13-10.4-4.22
			c-4.57,0.96-7.31,4.18-7.76,8.48c-0.42,3.96,0.06,8.14,0.9,12.06c0.76,3.58,3.85,5.39,7.39,5.94c3.64,0.56,7.1-0.16,9.23-3.38
			c1.32-2,2.8-2.51,4.96-2.39c2.27,0.13,4.56,0.03,7.3,0.03c-2.06,6.76-5.84,11.3-12.07,13.22c-8.35,2.58-16.57,1.86-22.73-4.75
			c-7.15-7.67-7.73-16.99-3.72-26.45c3.49-8.22,10.34-11.46,18.93-11.45c8.32,0.01,14.92,3.08,18.51,11.06
			C306.22,193.7,306.47,194.68,307.01,196.28z"/>
		<path class="st1" d="M347.29,109.42c-1.86-0.62-3.32-1.1-5.05-1.67c3.88-11.93,2.32-23.06-4.87-33.02
			c-4.78-6.63-11.41-11.09-19.46-13.07c-15.79-3.89-36.38,2.89-43.33,26.71c-1.46-0.34-2.94-0.69-4.82-1.13
			c3.29-13.84,11.23-23.74,24.07-28.81c15.91-6.29,31.05-3.83,43.4,8.24C349.19,78.35,352.3,92.82,347.29,109.42z"/>
		<path class="st2" d="M273.45,158.46c-3.77-8.68-7.3-16.82-10.83-24.96c-1.67-3.84-3.4-7.64-4.99-11.51
			c-2.35-5.72,0.44-11.65,6.25-13.73c1.72-0.62,2.69-0.39,3.33,1.46c3.62,10.36,7.37,20.68,10.95,31.06
			c0.4,1.16,0.33,2.69-0.04,3.89C276.77,149.06,275.19,153.38,273.45,158.46z"/>
		<path class="st1" d="M370.78,168.16c0.08,0.89,0.24,1.79,0.24,2.69c0.01,14.29,0.04,28.59-0.02,42.88
			c-0.02,5.55-2.66,9.19-7.18,10.63c-2.09,0.67-2.98,0.16-2.97-2.04c0.07-15.03,0.01-30.06,0.23-45.08
			C361.16,172.08,365.28,168.44,370.78,168.16z"/>
		<path class="st1" d="M212.95,168.05c0.1,1.31,0.26,2.44,0.26,3.57c0.01,13.98,0.03,27.96-0.02,41.93
			c-0.02,6.45-2.9,9.83-9.65,11.22c-0.16-0.97-0.45-1.93-0.45-2.89c-0.01-14.5-0.02-29.01,0.07-43.51
			C203.19,172.62,206.98,168.55,212.95,168.05z"/>
		<path class="st1" d="M309.4,68.09c17.19-0.37,31.45,16.32,26.6,35.12c-0.46,1.8-1.33,2.72-3.4,2.13
			c-2.05-0.58-2.55-1.39-1.87-3.61c3.56-11.63-3.38-24.05-15.21-27.54c-11.61-3.42-24.18,3.18-27.63,14.63
			c-0.63,2.09-1.06,3.42-3.8,2.45c-2.84-1.01-1.73-2.61-1.14-4.23C287.44,74.82,296.85,68.09,309.4,68.09z"/>
		<path class="st2" d="M294.18,94.54c9.4,2.71,18.56,5.35,27.71,7.99c-1.38,6.59-9.27,10.53-17.14,8.78
			C297.65,109.73,292.46,101.8,294.18,94.54z"/>
		<path class="st2" d="M294.93,91.24c3.19-7.25,10.68-10.71,17.89-8.63c7.3,2.11,11.53,8.81,10.33,16.73
			C313.81,96.66,304.51,93.99,294.93,91.24z"/>
	</g>
</g>
</svg>
