<?xml version="1.0" encoding="utf-8"?>
<!-- Generator: Adobe Illustrator 27.0.0, SVG Export Plug-In . SVG Version: 6.00 Build 0)  -->
<svg version="1.1" id="Layer_1" xmlns="http://www.w3.org/2000/svg" xmlns:xlink="http://www.w3.org/1999/xlink" x="0px" y="0px"
	 viewBox="0 0 573 499" style="enable-background:new 0 0 573 499;" xml:space="preserve">
<style type="text/css">
	.st0{fill-rule:evenodd;clip-rule:evenodd;fill:url(#SVGID_1_);}
	.st1{fill-rule:evenodd;clip-rule:evenodd;fill:url(#SVGID_00000043440135264901481860000004272443521958933396_);}
	.st2{fill:#FFFFFF;}
	.st3{fill-rule:evenodd;clip-rule:evenodd;fill:none;stroke:#FFFFFF;stroke-width:0.25;stroke-miterlimit:10;}
</style>
<g>
	<g>
		<linearGradient id="SVGID_1_" gradientUnits="userSpaceOnUse" x1="35.4888" y1="249.4403" x2="510.5247" y2="249.4403">
			<stop  offset="0.2815" style="stop-color:#81C359"/>
			<stop  offset="1" style="stop-color:#1B7CBC"/>
		</linearGradient>
		<path class="st0" d="M428.03,371.04l26.36,31.57c34.97-41.36,56.13-94.76,56.13-153.17c0-131.18-106.34-237.52-237.52-237.52
			c-131.18,0-237.52,106.34-237.52,237.52c0,131.18,106.34,237.52,237.52,237.52c39.06,0,75.82-9.61,108.33-26.31l-73.51-89.61
			H428.03z"/>
		
			<linearGradient id="SVGID_00000129188437475291659780000013012283470172191627_" gradientUnits="userSpaceOnUse" x1="382.5108" y1="444.9028" x2="526" y2="444.9028">
			<stop  offset="0.2815" style="stop-color:#81C359"/>
			<stop  offset="1" style="stop-color:#1B7CBC"/>
		</linearGradient>
		<path style="fill-rule:evenodd;clip-rule:evenodd;fill:url(#SVGID_00000129188437475291659780000013012283470172191627_);" d="
			M526,487.08l-70.43-84.35c-20.18,23.87-45,43.62-73.06,58.04l21.59,26.31H526z"/>
	</g>
	<g>
		<path class="st2" d="M165.51,323.87c1.07-1.87,2.52-3.35,4.35-4.41c1.83-1.07,3.87-1.6,6.11-1.6c2.62,0,4.92,0.63,6.88,1.9
			c1.96,1.27,3.38,3.08,4.29,5.4h-3.78c-0.66-1.46-1.63-2.58-2.88-3.37c-1.26-0.78-2.77-1.17-4.51-1.17c-1.68,0-3.19,0.4-4.54,1.17
			c-1.33,0.79-2.39,1.9-3.15,3.34c-0.76,1.45-1.14,3.13-1.14,5.08c0,1.9,0.38,3.59,1.14,5.02c0.76,1.45,1.82,2.56,3.15,3.34
			c1.35,0.79,2.86,1.19,4.54,1.19c1.74,0,3.25-0.4,4.51-1.17c1.26-0.76,2.23-1.87,2.88-3.34h3.78c-0.91,2.31-2.33,4.1-4.29,5.34
			c-1.96,1.26-4.26,1.89-6.88,1.89c-2.24,0-4.28-0.53-6.11-1.57c-1.83-1.05-3.28-2.52-4.35-4.38c-1.05-1.87-1.58-3.98-1.58-6.33
			C163.92,327.87,164.45,325.75,165.51,323.87z"/>
		<path class="st2" d="M194.95,320.74v8.07h8.79v2.59h-8.79v8.3h9.83v2.59H191.8v-24.15h12.97v2.59H194.95z"/>
		<path class="st2" d="M222.25,342.29l-5.74-9.85h-3.81v9.85h-3.15v-24.12h7.78c1.83,0,3.37,0.32,4.63,0.94
			c1.26,0.63,2.2,1.46,2.81,2.53c0.63,1.05,0.94,2.27,0.94,3.63c0,1.65-0.48,3.12-1.43,4.39c-0.95,1.26-2.39,2.11-4.31,2.52
			l6.05,10.1H222.25z M212.7,329.91h4.63c1.71,0,2.99-0.41,3.85-1.26c0.85-0.83,1.27-1.96,1.27-3.37c0-1.43-0.42-2.55-1.26-3.32
			c-0.85-0.79-2.12-1.17-3.87-1.17h-4.63V329.91z"/>
		<path class="st2" d="M245.41,318.18v2.56h-6.56v21.55h-3.15v-21.55h-6.62v-2.56H245.41z"/>
		<path class="st2" d="M252.44,318.18v24.12h-3.15v-24.12H252.44z"/>
		<path class="st2" d="M271.43,318.18v2.56h-10.48v8.13h8.51v2.56h-8.51v10.87h-3.15v-24.12H271.43z"/>
		<path class="st2" d="M278.39,318.18v24.12h-3.15v-24.12H278.39z"/>
		<path class="st2" d="M284.16,323.87c1.07-1.87,2.52-3.35,4.35-4.41c1.83-1.07,3.87-1.6,6.11-1.6c2.62,0,4.92,0.63,6.88,1.9
			c1.96,1.27,3.38,3.08,4.29,5.4h-3.78c-0.66-1.46-1.63-2.58-2.88-3.37c-1.26-0.78-2.77-1.17-4.51-1.17c-1.68,0-3.19,0.4-4.54,1.17
			c-1.33,0.79-2.39,1.9-3.15,3.34c-0.76,1.45-1.14,3.13-1.14,5.08c0,1.9,0.38,3.59,1.14,5.02c0.76,1.45,1.82,2.56,3.15,3.34
			c1.35,0.79,2.86,1.19,4.54,1.19c1.74,0,3.25-0.4,4.51-1.17c1.26-0.76,2.23-1.87,2.88-3.34h3.78c-0.91,2.31-2.33,4.1-4.29,5.34
			c-1.96,1.26-4.26,1.89-6.88,1.89c-2.24,0-4.28-0.53-6.11-1.57c-1.83-1.05-3.28-2.52-4.35-4.38c-1.05-1.87-1.58-3.98-1.58-6.33
			C282.58,327.87,283.1,325.75,284.16,323.87z"/>
		<path class="st2" d="M324.7,336.93h-10.51l-1.93,5.36h-3.32l8.71-23.97h3.63l8.68,23.97h-3.32L324.7,336.93z M323.81,334.37
			l-4.36-12.18l-4.36,12.18H323.81z"/>
		<path class="st2" d="M348.6,318.18v2.56h-6.56v21.55h-3.15v-21.55h-6.62v-2.56H348.6z"/>
		<path class="st2" d="M355.63,318.18v24.12h-3.15v-24.12H355.63z"/>
		<path class="st2" d="M365.79,340.96c-1.85-1.05-3.29-2.52-4.38-4.39c-1.07-1.87-1.6-4-1.6-6.34c0-2.36,0.53-4.48,1.6-6.36
			c1.08-1.87,2.53-3.34,4.38-4.39s3.9-1.57,6.12-1.57c2.27,0,4.32,0.51,6.16,1.57s3.29,2.5,4.36,4.38c1.05,1.86,1.58,3.98,1.58,6.37
			c0,2.37-0.53,4.5-1.58,6.36c-1.07,1.87-2.52,3.32-4.36,4.38s-3.9,1.58-6.16,1.58C369.69,342.54,367.64,342.02,365.79,340.96z
			 M376.47,338.63c1.35-0.79,2.42-1.9,3.18-3.37c0.78-1.45,1.17-3.13,1.17-5.04c0-1.95-0.4-3.63-1.17-5.08
			c-0.76-1.43-1.82-2.55-3.16-3.34c-1.33-0.78-2.86-1.17-4.57-1.17c-1.7,0-3.22,0.4-4.55,1.17c-1.35,0.79-2.4,1.9-3.18,3.34
			c-0.76,1.45-1.16,3.13-1.16,5.08c0,1.9,0.4,3.59,1.16,5.04c0.78,1.46,1.85,2.58,3.19,3.37c1.35,0.78,2.86,1.17,4.54,1.17
			S375.12,339.41,376.47,338.63z"/>
		<path class="st2" d="M407.13,342.29h-3.13l-12.67-19.2v19.2h-3.15v-24.15h3.15l12.67,19.17v-19.17h3.13V342.29z"/>
	</g>
	<g>
		<path class="st2" d="M265.24,167.21v23.94h-3.15V173.3l-7.95,17.85h-2.21l-8-17.88v17.88h-3.15v-23.94h3.38l8.86,19.8l8.86-19.8
			H265.24z"/>
		<path class="st2" d="M273.94,190.55c-1.26-0.57-2.24-1.35-2.96-2.36c-0.72-1-1.08-2.17-1.1-3.47h3.35
			c0.12,1.13,0.59,2.08,1.39,2.84c0.82,0.78,2.02,1.17,3.59,1.17c1.49,0,2.68-0.38,3.54-1.13c0.86-0.75,1.3-1.71,1.3-2.88
			c0-0.92-0.26-1.68-0.76-2.26c-0.51-0.57-1.14-1.01-1.9-1.32c-0.76-0.29-1.79-0.62-3.08-0.97c-1.6-0.41-2.87-0.83-3.82-1.24
			c-0.97-0.41-1.79-1.07-2.46-1.95c-0.69-0.89-1.03-2.09-1.03-3.59c0-1.32,0.34-2.47,1.01-3.5c0.66-1.01,1.6-1.79,2.81-2.34
			c1.22-0.56,2.61-0.83,4.17-0.83c2.26,0,4.11,0.57,5.55,1.7s2.26,2.62,2.45,4.5h-3.47c-0.12-0.92-0.6-1.73-1.45-2.45
			c-0.85-0.7-1.98-1.05-3.38-1.05c-1.32,0-2.39,0.35-3.22,1.03c-0.83,0.69-1.24,1.64-1.24,2.86c0,0.88,0.25,1.6,0.75,2.14
			c0.48,0.56,1.1,0.98,1.83,1.27c0.72,0.28,1.74,0.62,3.06,0.98c1.6,0.44,2.87,0.88,3.84,1.3c0.97,0.42,1.8,1.08,2.49,1.96
			c0.69,0.89,1.04,2.09,1.04,3.62c0,1.17-0.31,2.28-0.94,3.32c-0.61,1.04-1.54,1.87-2.77,2.52c-1.22,0.66-2.67,0.98-4.32,0.98
			C276.62,191.4,275.2,191.11,273.94,190.55z"/>
		<path class="st2" d="M315.33,167.21v23.94h-3.15V173.3l-7.95,17.85h-2.21l-8-17.88v17.88h-3.15v-23.94h3.38l8.86,19.8l8.86-19.8
			H315.33z"/>
		<path class="st2" d="M323.81,169.6v8.07h8.79v2.59h-8.79v8.3h9.83v2.59h-12.97V167h12.97v2.59H323.81z"/>
	</g>
	<path class="st2" d="M404.03,171.29c-2.06-2.43-4.99-3.64-8.8-3.64s-6.74,1.32-8.8,3.96s-3.09,6.54-3.09,11.7v37.13
		c-4.73-5.16-9.58-8.98-14.56-11.47s-11.09-3.73-18.33-3.73c-12.53,0-22.63,4.39-30.31,13.17c-6.17,7.05-9.73,16.45-10.95,27.98
		c-4.99,5.18-15.28,19.53-17.3,21.84c-1.58,1.8-3.77,4.24-5.06,5.35c-3.13,2.95-6.25,5.25-8.21,6.97s-4.83,2.6-7.16,4.11
		c-2.33,1.5-5.11,1.92-7.6,2.62c-2.49,0.71-5.24,1.06-8.25,1.06c-4.48,0-8.58-1.11-12.3-3.32c-3.72-2.21-6.69-5.5-8.94-9.86
		s-3.39-9.4-3.45-15.11h49.2c6.57,0,11.67-0.94,15.29-2.81c3.62-1.87,5.44-5.97,5.44-12.3c0-6.82-1.75-13.51-5.25-20.08
		s-8.77-11.93-15.8-16.08c-7.03-4.15-15.46-6.22-25.29-6.22c-7.55,0-14.43,1.21-20.64,3.64c-6.2,2.43-11.42,5.91-15.66,10.46
		c-4.24,4.55-7.46,10-9.67,16.35c-2.21,6.36-3.32,13.25-3.32,20.68c0,11.16,2.36,20.59,6.84,28.47h-61.21l64.86-77.21
		c5.04-5.9,8.38-10.17,10.04-12.81c1.66-2.64,2.49-6.17,2.49-10.6c0-9.27-4.98-13.91-14.93-13.91h-76.84c-4.18,0-7.32,0.97-9.44,2.9
		c-2.12,1.93-3.18,4.47-3.18,7.6c0,3.01,1.06,5.44,3.18,7.28c2.12,1.84,5.27,2.76,9.44,2.76h59.61l-69.37,83.01
		c-1.11,1.29-2.4,2.81-3.87,4.56c-1.47,1.75-2.63,3.19-3.45,4.33c-0.83,1.14-1.49,2.35-1.98,3.64s-0.74,2.7-0.74,4.24
		c0,4.48,1.5,8.06,4.51,10.73c3.01,2.67,7.49,4.01,13.45,4.01h87.71c4.12,0,7.17-0.94,9.26-2.73c7.04,3.22,15.18,5.04,24.74,5.04
		c7.06,0,13.31-0.92,18.75-2.76c5.44-1.84,9.95-4.16,13.54-6.96c3.08-2.4,17.72-14.05,22.95-19.23c1.93,6.32,4.74,11.83,8.46,16.51
		c3.75,4.73,8.18,8.37,13.31,10.92c5.13,2.55,10.7,3.82,16.72,3.82c4.55,0,8.74-0.63,12.58-1.89c3.84-1.26,7.4-3.1,10.69-5.53
		c3.29-2.43,6.62-5.57,10-9.44v2.49c0,4.61,1.12,8.15,3.36,10.64c2.24,2.49,5.08,3.73,8.52,3.73c3.5,0,6.36-1.2,8.57-3.59
		c2.21-2.4,3.32-5.99,3.32-10.78V182.03C407.12,177.3,406.09,173.72,404.03,171.29z M274.42,222.7c0,0-8.69,7.07-20.34,11.74
		c0,0,13.65,1.24,23.49-5.44c0,0-6.11,27.69-49.74,15.85C227.83,244.85,232.8,207.14,274.42,222.7z M378.7,273.83
		c-2.18,4.76-5.1,8.29-8.75,10.6c-3.65,2.3-7.69,3.45-12.12,3.45c-4.36,0-8.38-1.21-12.07-3.64s-6.59-6.03-8.71-10.83
		s-3.18-10.6-3.18-17.41c0-6.45,1-12.12,2.99-17c2-4.88,4.81-8.63,8.43-11.24c3.62-2.61,7.74-3.92,12.35-3.92
		c4.42,0,8.49,1.27,12.21,3.82c3.72,2.55,6.66,6.23,8.84,11.06c2.18,4.82,3.27,10.58,3.27,17.27
		C381.97,263.13,380.88,269.07,378.7,273.83z"/>
	<path class="st3" d="M443.32,387.65c28.8-36.95,45.96-83.42,45.96-133.89c0-120.38-97.59-217.98-217.98-217.98
		c-68.32,0-129.3,31.43-169.27,80.63"/>
	<g>
		<path class="st2" d="M91.62,137.89l-5.26,8.68l-2.67-1.61l7.45-12.31l2.4,1.45l8.39,16.91l5.24-8.65l2.67,1.61l-7.45,12.31
			l-2.4-1.45L91.62,137.89z"/>
		<path class="st2" d="M94.56,165.39l-5.81-2.72l-3.19,6.84l-2.65-1.23l3.19-6.84l-6.08-2.84l-3.59,7.7l-2.65-1.24l5.11-10.94
			l19.83,9.25l-5.11,10.95l-2.65-1.24L94.56,165.39z"/>
		<path class="st2" d="M66.11,185.86l9.88-1.99l0.86-2.59l-8.29-2.78l1.14-3.4l20.72,6.94l-2.4,7.16c-0.53,1.58-1.26,2.84-2.18,3.75
			c-0.92,0.92-1.95,1.49-3.06,1.73c-1.13,0.23-2.26,0.16-3.41-0.22c-1.35-0.45-2.45-1.26-3.29-2.42c-0.83-1.16-1.19-2.62-1.03-4.38
			l-10.31,2.26L66.11,185.86z M79.57,182.19l-1.24,3.75c-0.44,1.27-0.44,2.34-0.01,3.21c0.42,0.85,1.17,1.46,2.24,1.82
			c1.07,0.37,2.02,0.32,2.84-0.1c0.82-0.44,1.44-1.3,1.87-2.59l1.26-3.75L79.57,182.19z"/>
		<path class="st2" d="M62.13,205.35c1.24-1.51,2.81-2.58,4.67-3.24c1.87-0.66,3.85-0.79,5.96-0.4c2.09,0.4,3.88,1.24,5.37,2.53
			c1.48,1.3,2.53,2.87,3.15,4.73c0.61,1.86,0.73,3.79,0.35,5.78c-0.38,2.02-1.2,3.78-2.46,5.29c-1.24,1.49-2.8,2.58-4.66,3.22
			c-1.85,0.66-3.82,0.78-5.93,0.38c-2.09-0.4-3.9-1.24-5.39-2.53s-2.55-2.86-3.18-4.72c-0.62-1.86-0.73-3.79-0.35-5.81
			C60.05,208.6,60.87,206.85,62.13,205.35z M62.98,215.16c0.44,1.23,1.2,2.28,2.28,3.13c1.08,0.86,2.43,1.44,4.01,1.74
			s3.03,0.25,4.35-0.15c1.32-0.41,2.4-1.1,3.25-2.09c0.85-1,1.41-2.2,1.67-3.62c0.28-1.42,0.19-2.75-0.23-3.98
			c-0.42-1.23-1.17-2.27-2.26-3.13c-1.07-0.85-2.4-1.43-3.98-1.73c-1.6-0.31-3.05-0.26-4.36,0.15c-1.33,0.4-2.42,1.08-3.28,2.08
			s-1.42,2.2-1.7,3.62C62.46,212.6,62.54,213.93,62.98,215.16z"/>
		<path class="st2" d="M76.65,258.84c-0.85,1.77-2.11,3.15-3.76,4.13c-1.65,0.98-3.59,1.48-5.81,1.52c-2.23,0.03-4.16-0.41-5.8-1.33
			c-1.65-0.94-2.93-2.27-3.84-4c-0.89-1.74-1.36-3.78-1.39-6.11l-0.12-7.13l21.85-0.35l0.12,7.13
			C77.94,255.04,77.52,257.09,76.65,258.84z M61.13,258.87c1.41,1.33,3.37,1.98,5.89,1.95c2.53-0.04,4.51-0.76,5.92-2.15
			c1.41-1.38,2.08-3.35,2.04-5.9l-0.06-3.56l-16,0.26l0.06,3.54C59.01,255.58,59.72,257.53,61.13,258.87z"/>
		<path class="st2" d="M76.48,275.89l-6.36,0.85l1,7.48l-2.9,0.38l-1-7.48l-6.63,0.89l1.11,8.42l-2.9,0.38l-1.6-11.96l21.7-2.9
			l1.6,11.96l-2.9,0.4L76.48,275.89z"/>
		<path class="st2" d="M85.01,304.54l-2.84,0.69l-2.17-9.02l-6.27,1.51l1.7,7.03l-2.86,0.69l-1.68-7.03l-9.3,2.24l-0.83-3.49
			l21.25-5.12L85.01,304.54z"/>
		<path class="st2" d="M85.69,316.1l-6.05,2.15l2.53,7.12l-2.75,0.98l-2.53-7.12l-6.31,2.26l2.86,8l-2.77,0.98l-4.04-11.38
			l20.62-7.34l4.06,11.38l-2.77,0.98L85.69,316.1z"/>
		<path class="st2" d="M89.95,333.58c1.96,0.13,3.75,0.75,5.37,1.83c1.63,1.1,2.9,2.56,3.81,4.38c1.05,2.08,1.46,4.17,1.27,6.31
			c-0.21,2.14-1.07,4.04-2.56,5.71l-1.95-3.84c0.78-1.02,1.19-2.12,1.24-3.28c0.04-1.14-0.22-2.31-0.82-3.5
			c-0.64-1.29-1.52-2.28-2.61-3c-1.1-0.72-2.33-1.1-3.69-1.11c-1.38-0.03-2.78,0.32-4.23,1.05c-1.44,0.72-2.56,1.64-3.35,2.77
			c-0.81,1.11-1.24,2.33-1.32,3.63c-0.09,1.32,0.2,2.61,0.85,3.91c0.6,1.17,1.38,2.08,2.34,2.72c0.95,0.64,2.08,0.97,3.35,0.95
			l1.95,3.85c-2.24,0.21-4.28-0.23-6.11-1.35c-1.83-1.11-3.27-2.71-4.31-4.79c-0.94-1.83-1.35-3.72-1.26-5.67
			c0.09-1.95,0.66-3.75,1.73-5.4c1.07-1.64,2.56-2.96,4.47-3.92C86.04,333.89,87.99,333.46,89.95,333.58z"/>
		<path class="st2" d="M115.65,367.49l-2.43,1.64l-3.25-4.83l-15.68,10.6l-2.01-2.97l15.68-10.59l-3.28-4.85l2.43-1.64
			L115.65,367.49z"/>
		<path class="st2" d="M117.33,398.6l7.04,7.32l-2.24,2.15l-9.99-10.37l2.01-1.93l18.51-3.79l-7.03-7.28l2.24-2.17l10,10.37
			l-2.02,1.95L117.33,398.6z"/>
		<path class="st2" d="M144.76,402.87l-4.11,4.93l5.78,4.83l-1.87,2.24l-5.78-4.83l-4.29,5.14l6.52,5.45l-1.87,2.24l-9.27-7.75
			l14.03-16.8l9.27,7.75l-1.87,2.24L144.76,402.87z"/>
		<path class="st2" d="M157.48,435.83l0.6-10.07l-2.28-1.51l-4.8,7.31l-2.99-1.96l12.01-18.26l6.31,4.14
			c1.39,0.92,2.42,1.95,3.08,3.08c0.64,1.14,0.94,2.27,0.88,3.41c-0.06,1.14-0.42,2.21-1.1,3.24c-0.78,1.19-1.83,2.04-3.16,2.56
			c-1.33,0.51-2.84,0.47-4.5-0.12l-0.47,10.53L157.48,435.83z M157.38,421.86l3.31,2.18c1.11,0.73,2.15,1.01,3.09,0.82
			c0.94-0.18,1.71-0.75,2.34-1.68c0.62-0.95,0.82-1.87,0.62-2.78c-0.21-0.89-0.88-1.73-2.02-2.47l-3.31-2.18L157.38,421.86z"/>
		<path class="st2" d="M175.01,444.52c-1.13-1.61-1.77-3.4-1.92-5.36c-0.16-1.98,0.23-3.92,1.16-5.86c0.92-1.92,2.21-3.44,3.84-4.52
			c1.64-1.1,3.44-1.71,5.39-1.83c1.95-0.12,3.85,0.26,5.68,1.14c1.85,0.89,3.34,2.14,4.47,3.75c1.11,1.6,1.76,3.38,1.9,5.33
			c0.16,1.96-0.23,3.91-1.16,5.83c-0.94,1.93-2.21,3.44-3.84,4.55c-1.64,1.11-3.43,1.73-5.37,1.85c-1.96,0.12-3.87-0.26-5.71-1.16
			C177.61,447.36,176.14,446.11,175.01,444.52z M184.72,446.21c1.3-0.1,2.5-0.57,3.62-1.39c1.11-0.83,2.01-1.98,2.71-3.43
			c0.7-1.45,1.03-2.87,0.98-4.25c-0.04-1.36-0.44-2.59-1.17-3.66c-0.75-1.08-1.77-1.93-3.08-2.56c-1.3-0.63-2.59-0.89-3.9-0.81
			c-1.3,0.1-2.5,0.56-3.62,1.38c-1.1,0.81-2.01,1.95-2.71,3.4c-0.7,1.46-1.03,2.88-0.98,4.26c0.04,1.38,0.44,2.62,1.17,3.7
			c0.73,1.08,1.74,1.95,3.05,2.56C182.1,446.05,183.4,446.32,184.72,446.21z"/>
		<path class="st2" d="M220.86,443.4l-1.64,6.21l7.29,1.93l-0.73,2.83l-7.31-1.93l-1.71,6.47l8.21,2.17l-0.75,2.83l-11.67-3.08
			l5.58-21.16l11.67,3.08l-0.73,2.83L220.86,443.4z"/>
		<path class="st2" d="M250.54,446.4l-0.45,2.9l-9.17-1.43l-1,6.37l7.16,1.11l-0.45,2.9l-7.15-1.11l-1.48,9.44l-3.54-0.56l3.37-21.6
			L250.54,446.4z"/>
		<path class="st2" d="M271.04,447.77l-0.16,2.91l-9.25-0.47l-0.34,6.44l7.23,0.37l-0.15,2.91l-7.23-0.37l-0.48,9.56l-3.57-0.19
			l1.1-21.83L271.04,447.77z"/>
		<path class="st2" d="M281.99,450.42l0.32,6.41l7.54-0.38l0.15,2.91l-7.54,0.38l0.34,6.69l8.48-0.42l0.15,2.91l-12.05,0.61
			l-1.11-21.86l12.07-0.61l0.15,2.93L281.99,450.42z"/>
		<path class="st2" d="M300.01,451.37c0.67-1.85,1.77-3.38,3.29-4.61c1.51-1.24,3.28-2.04,5.27-2.4c2.3-0.4,4.44-0.19,6.41,0.61
			c1.99,0.81,3.57,2.17,4.74,4.1l-4.25,0.75c-0.76-1.04-1.68-1.74-2.77-2.14c-1.1-0.38-2.28-0.45-3.59-0.22
			c-1.42,0.25-2.64,0.79-3.65,1.64c-1,0.83-1.71,1.9-2.12,3.21c-0.42,1.32-0.48,2.77-0.21,4.35c0.28,1.6,0.85,2.93,1.68,4.01
			c0.85,1.1,1.87,1.86,3.1,2.31c1.23,0.45,2.56,0.56,3.98,0.31c1.3-0.23,2.4-0.72,3.29-1.45s1.51-1.71,1.87-2.96l4.23-0.75
			c-0.44,2.21-1.45,4.03-3.03,5.46c-1.6,1.43-3.53,2.34-5.83,2.75c-2.02,0.35-3.95,0.22-5.78-0.42c-1.85-0.64-3.4-1.71-4.67-3.22
			c-1.29-1.49-2.11-3.29-2.47-5.4C299.17,455.19,299.33,453.21,300.01,451.37z"/>
		<path class="st2" d="M340.18,436.4l0.88,2.78l-5.55,1.74l5.68,18.07l-3.43,1.07l-5.68-18.05l-5.58,1.76l-0.88-2.8L340.18,436.4z"
			/>
	</g>
</g>
</svg>
